<?xml version="1.0" encoding="utf-8"?>
<!-- Generator: Adobe Illustrator 16.0.0, SVG Export Plug-In . SVG Version: 6.00 Build 0)  -->
<!DOCTYPE svg PUBLIC "-//W3C//DTD SVG 1.1//EN" "http://www.w3.org/Graphics/SVG/1.1/DTD/svg11.dtd">
<svg version="1.1" id="Layer_1" xmlns="http://www.w3.org/2000/svg" xmlns:xlink="http://www.w3.org/1999/xlink" x="0px" y="0px"
	 width="1080px" height="360px" viewBox="0 0 1080 360" enable-background="new 0 0 1080 360" xml:space="preserve">
<rect x="1.25" y="1.252" fill="#E7EBF1" width="1077.498" height="357.498"/>
<g>
	<defs>
		<rect id="SVGID_1_" width="1080" height="360"/>
	</defs>
	<clipPath id="SVGID_2_">
		<use xlink:href="#SVGID_1_"  overflow="visible"/>
	</clipPath>
	<rect x="1.25" y="1.25" clip-path="url(#SVGID_2_)" fill="none" stroke="#FFFFFF" width="1077.5" height="357.5"/>
</g>
<text transform="matrix(1 0 0 1 135.5732 265.0479)" fill="#324B69" font-family="'ChunkFive-Roman'" font-size="75">Test the Web Forward</text>
<text transform="matrix(1 0 0 1 344.2354 307.499)" fill="#67727E" font-family="'ChunkFive-Roman'" font-size="35">testthewebforward.org</text>
<g>
	<defs>
		<rect id="SVGID_3_" width="1080" height="360"/>
	</defs>
	<clipPath id="SVGID_4_">
		<use xlink:href="#SVGID_3_"  overflow="visible"/>
	</clipPath>
	<path clip-path="url(#SVGID_4_)" fill="#241F21" d="M570.034,172.795c-0.083-0.36-0.186-0.807-0.288-1.252
		c-0.115,0.217-0.342,0.443-0.322,0.646c0.039,0.377,0.217,0.742,0.337,1.112C569.834,173.165,569.907,173.031,570.034,172.795
		 M602.508,165.693c-1.051-0.288-1.646-0.65-2.09-0.515c-0.445,0.133-1.016,0.77-1.014,1.183c0,0.415,0.64,0.827,1.001,1.242
		C600.965,167.096,601.523,166.583,602.508,165.693 M566.232,177.403c0.232-0.013,0.467-0.03,0.699-0.042
		c0-1.448,0.056-2.896-0.047-4.333c-0.021-0.29-0.801-0.83-0.975-0.743c-0.527,0.266-1.381,0.913-1.303,1.173
		C565.012,174.815,565.664,176.096,566.232,177.403 M596.404,171.724c3.227-2.641-0.091-4.883,0.271-7.17
		c0.062-0.389-1.159-0.98-2.524-2.065C595.049,166.173,595.691,168.809,596.404,171.724 M592.287,175.346
		c0.276-0.008,0.557-0.018,0.838-0.022c0.285-0.562,0.939-1.245,0.801-1.667c-1.457-4.442-1.543-9.268-4.126-13.426L592.287,175.346
		z M586.504,158.188c-0.371,0.055-0.744,0.112-1.118,0.17c0,1.445-0.156,2.91,0.032,4.33c0.573,4.396,1.279,8.781,1.94,13.167
		c0.161,1.06-0.142,2.677,1.526,2.412c0.5-0.077,0.734-1.887,1.068-2.91c0.047-0.139-0.033-0.327-0.062-0.489
		c-0.652-3.552-1.272-7.109-1.971-10.649C587.52,162.193,586.98,160.195,586.504,158.188 M721.128,161.619
		c-1.167,5.667-3.389,11.107-2.562,17.217c1.611-0.583,2.945-1.064,4.437-1.605C722.363,171.934,721.746,166.776,721.128,161.619
		 M694.883,142.396c-2.417,1.994-4.707,3.822-6.922,5.739c-1.191,1.028-0.7,2.145,0.286,2.96c1.772,1.465,3.646,2.812,5.456,4.197
		C694.092,151.051,694.48,146.803,694.883,142.396 M582.752,162.561l-0.911-0.133c-0.442,1.286-1.413,2.65-1.235,3.848
		c0.779,5.36,1.89,10.673,2.889,16.058c2.595-2.157,2.49-2.138,1.992-4.688C584.507,172.631,583.654,167.59,582.752,162.561
		 M701.216,136.108c-3.359,2.055-4.817,4.197-4.03,7.922c0.482,2.302-0.389,4.883-0.611,7.345c-0.15,1.647-0.378,3.312-0.28,4.95
		c0.044,0.697,0.825,1.35,1.514,2.393C698.986,150.891,700.073,143.678,701.216,136.108 M717.319,148.79
		c-1.081,5.883-1.829,11.081-3.037,16.168c-1.218,5.112-0.112,10.659-2.825,16.13c-0.632-1.133-1.205-1.686-1.201-2.23
		c0.022-3.303-0.127-6.647,0.361-9.89c0.879-5.845,2.205-11.618,3.262-17.438c0.234-1.295,0.35-2.693,0.105-3.965
		c-0.178-0.938-1.027-1.746-1.658-2.733c-0.544,0.631-0.881,0.843-0.925,1.101c-0.61,3.732-1.106,7.487-1.777,11.21
		c-0.729,4.047-1.813,8.037-2.373,12.102c-0.544,3.975-0.618,8.01-0.913,12.252c2.762,0.52,5.181,0.695,7.578-0.178
		c1.313-0.477,2.225-1.183,2.131-2.895c-0.316-5.814,0.943-11.465,1.751-17.185C718.33,157.461,719.443,153.463,717.319,148.79
		 M596.172,160.875c0.322,0.269,0.645,0.534,0.969,0.801c0.098-0.145,0.195-0.29,0.293-0.438c-0.432-0.107-0.861-0.217-1.291-0.327
		c-2.944-3.362-5.972-6.658-8.794-10.12c-1.768-2.168-3.288-4.548-4.756-6.93c-0.239-0.389,0.371-1.298,0.591-1.966
		c0.649,0.322,1.538,0.478,1.904,1c1.406,2.018,2.329,4.465,4.012,6.188c5.434,5.575,10.459,11.601,16.68,16.343
		c1.53,1.167,1.804,2.405,1.42,3.815c-1.162,4.287-1.755,8.748-3.962,12.727c-2.054,3.701-3.95,7.49-5.845,11.113
		c3.279,2.858,6.953,2.808,10.625,2.712c2.811-0.072,5.615-0.231,8.426-0.354c1.071-2.219,2.155-4.429,3.213-6.652
		c2.699-5.677,5.439-11.312,7.507-17.292c1.321-3.81,0.706-6.701-1.761-9.592c-3.979-4.662-7.878-9.388-11.813-14.082
		c-0.319-0.384-0.769-0.701-0.96-1.133c-0.166-0.377-0.225-1.028-0.01-1.283c0.221-0.258,0.989-0.401,1.25-0.217
		c1.614,1.155,3.434,2.183,4.668,3.68c3.689,4.478,7.181,9.12,10.657,13.768c0.778,1.045,1.468,2.311,1.704,3.565
		c0.252,1.327-0.088,2.768-0.164,4.094c12.217-1.842,23.248-6.322,33.021-13.765c-2.69-4.48-6.517-8.135-9.038-13.817
		c1.582,0.772,2.52,0.933,2.939,1.481c3.807,5.003,7.713,9.945,11.184,15.179c1.771,2.665,2.129,5.829,0.389,8.977
		c-2,3.612-3.735,7.37-5.652,11.03c-2.064,3.947-4.206,7.857-6.267,11.691c0.188,0.314,0.241,0.492,0.361,0.593
		c5.896,4.873,12.429,3.288,18.909,1.763c0.6-0.142,1.186-1.121,1.438-1.828c2.658-7.48,5.474-14.916,7.778-22.507
		c1.484-4.89,2.405-9.987,0.386-15.095c-2.856-7.21-5.61-14.462-8.438-21.685c-1.445-3.693-2.979-7.348-4.399-11.048
		c-0.127-0.324,0.149-1.063,0.452-1.228c0.319-0.177,1.064-0.062,1.312,0.207c0.54,0.589,0.979,1.318,1.285,2.063
		c2.328,5.646,4.616,11.317,6.921,16.979c0.898,2.21,1.802,4.418,2.812,6.899c1.062-0.957,1.673-1.515,2.29-2.059
		c9.744-8.563,16.543-19.406,23.117-30.348c7.981-13.282,18.274-24.435,30.24-34.107c4.162-3.362,9.092-5.535,14.25-6.817
		c4.946-1.232,10.073-1.157,15.171-0.845c4.624,0.283,9.253,0.498,13.882,0.692c2.469,0.109,4.702-0.564,6.597-1.974
		c-3.979,0.06-7.903,0.234-11.821,0.149c-2.869-0.062-5.646-0.752-7.4-3.317c-0.354-0.522-0.046-1.5-0.043-2.271
		c0.69,0.143,1.615,0.052,2.025,0.47c0.911,0.93,1.432,2.065,3.123,2.025c5.305-0.122,10.613-0.042,16.064-0.042
		c-0.838-4.692-3.018-8.39-6.018-11.463c-1.683-1.717-3.929-3.232-6.199-3.934c-2.744-0.853-5.861-1.313-8.677-0.923
		c-5.366,0.737-10.911,0.138-16.126,2.233c-2.106,0.85-4.535,0.852-6.752,1.479c-5.572,1.583-11.155,3.148-15.657,7.153
		c-3.589,3.192-7.471,6.069-10.952,9.369c-7.993,7.573-17.225,13.48-26.203,19.71c-2.51,1.742-5.643,2.648-8.57,3.717
		c-6.398,2.337-13.1,3.198-19.828,4.133c-7.52,1.04-15.022,1.651-22.591,1.682c-3.271,0.012-6.546-0.036-9.817-0.017
		c-7.458,0.032-14.841,0.272-22.214,1.987c-9.87,2.302-18.76,6.387-26.702,12.579c-6.137,4.793-12.031,9.911-18.285,14.54
		c-8.521,6.311-17.291,12.288-25.938,18.43c-1.211,0.858-2.381,1.793-3.492,2.776c-7.407,6.562-15.773,11.477-25.178,14.562
		c-1.87,0.613-3.827,0.961-5.957,1.481c5.527,2.565,10.837,2.854,16.632,1.799c5.761-1.047,11.043-3.25,16.491-5.058
		c4.855-1.61,9.646-3.465,14.328-5.522c7.482-3.287,15.288-4.053,23.335-3.767c3.874,0.137,7.487,0.842,10.823,2.941
		C592.017,158.863,594.133,159.806,596.172,160.875 M703.179,160.868c-0.303-1.105-0.979-2.262-0.84-3.312
		c0.603-4.546,1.272-9.098,2.275-13.566c0.42-1.856,0.2-3.202-0.999-4.542c-1.889,6.13-1.312,12.76-3.972,18.73
		c-0.231,0.522,0.495,1.78,1.113,2.285c0.55,0.447,1.567,0.322,2.378,0.452c0.939,2.43,1.88,4.855,2.69,6.948
		c0.698-4.935,1.45-10.315,2.227-15.691c0.332-2.283,0.83-4.55,1.038-6.842c0.068-0.742-0.553-1.551-0.855-2.326
		c-1.576,3.94-2.326,7.793-2.902,11.67C705.002,156.9,705.161,159.241,703.179,160.868 M571.128,180.928
		c-0.068-1.816-0.142-3.639-0.21-5.457c-0.298,0.027-0.594,0.06-0.891,0.089c0.388,1.77,0.773,3.542,1.162,5.312
		c0.322,2.11-0.828,4.708,1.989,5.99c0.654,1.14,1.306,1.066,1.96,0c1.453,0.021,2.48-0.604,3.004-1.988
		c3.698-0.648,3.796-0.684,2.783-3.666c-1.119-3.278-2.049-6.536-2.01-10.071c0.02-1.542-0.721-3.097-1.111-4.647
		c-0.938,0.858-1.14,1.598-1.074,2.311c0.491,5.373,2.156,10.635,1.448,16.113c-1.683-1.105-1.714-3.054-2.034-4.666
		c-0.632-3.197-0.84-6.482-1.188-9.735c-0.104-0.962-0.508-1.732-1.487-1.314c-0.508,0.215-1.062,1.235-0.974,1.795
		c0.823,5.325,1.78,10.625,2.7,15.938c-0.691,0-1.382,0-2.07-0.003C572.459,184.93,571.795,182.928,571.128,180.928 M702.69,134.208
		c3.892,5.218,9.233,8.19,14.624,11.073c1.77,0.945,2.658,2.45,3.247,4.201c2.845,8.485,5.202,17.054,4.792,26.147
		c-0.088,1.964-0.391,3.617-2.406,4.489c-3.623,1.567-7.117,3.601-10.892,4.597c-2.204,0.578-4.86-0.371-7.269-0.862
		c-0.51-0.104-1.213-1.226-1.164-1.823c0.444-5.466-0.601-10.766-1.675-16.054c-0.208-1.027-0.794-2.217-1.592-2.837
		c-3.401-2.646-6.948-5.103-10.918-7.97c2.666,8.478-1.255,15.642-3.394,23.02c-1.418,4.89-3.75,9.524-5.789,14.224
		c-0.427,0.988-1.179,2.121-2.087,2.568c-6.491,3.198-17.644,3.608-24.108-3.762c2.771-5.084,5.674-10.238,8.4-15.48
		c1.447-2.774,2.461-5.775,3.914-8.547c1.574-3.011,1.25-5.591-1.318-8.263c-1.982,1.283-4.078,2.541-6.072,3.94
		c-7.739,5.439-16.274,8.643-25.742,9.232c-3.135,0.198-2.859,0.27-4.048,3.063c-2.849,6.694-5.911,13.308-9.089,19.851
		c-0.584,1.204-2.068,2.702-3.213,2.769c-5.439,0.324-10.973,1.147-16.324-0.604c-6.745-2.204-7.436-2.705-3.725-9.043
		c2.998-5.117,5.664-10.499,6.789-16.443c0.205-1.088,0.232-2.21,0.461-4.552c-1.711,2.004-2.756,3.087-3.645,4.287
		c-6.084,8.245-14.348,13.66-23.391,18.064c-1.014,0.496-2.197,1.387-3.104,1.189c-1.372-0.299-3.013-1.09-3.777-2.195
		c-3.269-4.744-6.84-9.338-8.762-14.89c-0.635-1.831,0.564-2.333,1.87-2.791c4.724-1.658,9.038-4.058,13.011-7.09
		c2.233-1.708,4.172-3.673,6.047-6.308c-9.064-1.237-17.293-0.235-25.07,3.59c-3.883,1.909-7.861,3.397-12.034,4.557
		c-5.878,1.633-11.62,3.732-17.472,5.46c-6.073,1.796-12.099,1.515-17.983-0.959c-2.44-1.028-4.932-1.932-7.355-2.998
		c-0.813-0.358-1.479-1.047-2.188-1.565c4.408-0.75,8.652-1.23,12.775-2.228c8.058-1.952,14.751-6.771,21.371-11.375
		c9.919-6.903,19.46-14.357,29.06-21.71c7.492-5.742,14.878-11.63,22.222-17.562c8.454-6.83,18.196-10.67,28.724-12.827
		c8.955-1.836,18.012-2.123,27.106-2.013c4.663,0.055,9.358,0.312,13.984-0.1c9.837-0.877,19.727-1.226,29.326-4.18
		c6.999-2.153,12.737-6.185,18.452-10.425c1.467-1.087,2.84-2.313,4.373-3.293c6.328-4.06,11.989-8.902,17.204-14.297
		c4.573-4.732,9.917-7.958,16.309-9.99c6.147-1.952,12.344-3.55,18.601-5.007c1.6-0.373,3.242-0.575,4.879-0.742
		c1.154-0.121,2.438,0.26,3.479-0.11c3.641-1.295,7.168-0.147,10.771,0.022c6.47,0.308,10.547,4.098,14.188,8.735
		c0.915,1.16,1.584,2.52,2.292,3.832c2.845,5.276,0.876,10.083-4.893,11.868c-5.542,1.712-11.265,1.273-16.797,0.484
		c-12.373-1.759-23.118,1.028-32.817,9.093c-6.802,5.653-12.469,12.275-18.232,18.853c-1.519,1.728-2.697,3.77-3.934,5.73
		c-5.124,8.127-10.215,16.275-15.3,24.427C703.052,133.218,702.854,133.838,702.69,134.208"/>
	<path clip-path="url(#SVGID_4_)" fill="#241F21" d="M974.526,157.568l-0.149,0.43c0.166,0.015,0.328,0.027,0.491,0.04
		c-0.02-0.147-0.017-0.305-0.068-0.44C974.787,157.558,974.624,157.576,974.526,157.568 M943.566,183.494
		c-0.043-0.096-0.062-0.254-0.134-0.276c-0.144-0.056-0.312-0.036-0.472-0.046c0.052,0.146,0.062,0.363,0.166,0.424
		C943.223,183.65,943.418,183.533,943.566,183.494 M990.464,67.963c-0.059-0.365-0.091-0.595-0.13-0.825
		c-0.258,0.08-0.605,0.085-0.759,0.26c-0.142,0.162-0.073,0.505-0.101,0.768C989.805,68.098,990.137,68.03,990.464,67.963
		 M999.297,66.228c-0.552-0.58-0.799-1.068-1.143-1.145c-0.435-0.095-0.942,0.139-1.418,0.232c0.31,0.373,0.551,0.875,0.947,1.073
		C997.996,66.545,998.496,66.326,999.297,66.228 M966.084,165.923c-0.249-0.2-0.496-0.403-0.744-0.605
		c-0.691,0.938-1.383,1.87-2.07,2.803c0.189,0.147,0.383,0.295,0.576,0.443C964.592,167.686,965.337,166.803,966.084,165.923
		 M1006.904,61.655c-0.617,0.916-1.274,1.479-1.18,1.842c0.13,0.481,0.85,0.806,1.316,1.195c0.311-0.473,0.815-0.924,0.861-1.42
		C1007.941,62.883,1007.417,62.438,1006.904,61.655 M986.816,98.843c0.254-1.498,0.432-2.52,0.584-3.545
		c0.002-0.025-0.26-0.085-0.514-0.165C985.747,95.95,984.412,96.718,986.816,98.843 M986.23,68.115
		c-0.383,2.102,0.705,2.987,3.084,4.103C987.871,70.298,987.051,69.205,986.23,68.115 M984.998,156.667
		c-0.389-0.287-0.771-0.578-1.158-0.867c-2.363,3.374-4.592,6.83-5.434,11.145C980.604,163.521,982.801,160.095,984.998,156.667
		 M980.086,156.677c-0.32-0.239-0.638-0.482-0.955-0.725c-2.273,3.73-4.549,7.461-6.821,11.19
		C976.408,164.635,977.451,160.133,980.086,156.677 M981.758,166.426l0.721,0.597c0.817-0.675,1.882-1.197,2.406-2.052
		c1.539-2.5,2.898-5.116,4.236-7.73c0.259-0.511,0.107-1.227,0.146-1.85c-0.207-0.048-0.415-0.093-0.623-0.141
		C986.35,158.976,984.055,162.7,981.758,166.426 M935.08,190.988c-6.809-3.063-11.306-6.936-14.854-11.848
		c-0.93-1.29-1.615-1.26-2.861-0.71c-0.583,0.26-1.42-0.06-2.146-0.117c0.134-0.773,0.044-1.698,0.444-2.29
		c0.737-1.09,1.668-2.103,2.686-2.941c4.221-3.469,8.472-6.899,12.771-10.267c2.998-2.347,6.306-4.333,9.104-6.885
		c4.979-4.542,5.034-8.943,0.576-13.822c-0.898-0.983-2-1.793-2.791-2.848c-0.69-0.92-1.074-2.073-2.058-4.067
		c4.534,2.312,7.295,4.805,9.329,8.125c1.721,2.812,2.194,5.625,1.125,8.958c-1.216,3.774-3.833,6.162-6.721,8.404
		c-2.479,1.925-5.201,3.535-7.691,5.443c-2.922,2.24-5.71,4.654-8.815,7.207c4.808,1.113,8.948,2.25,13.159,2.991
		c4.253,0.75,8.396,0.804,12.563-1.309c7.842-3.972,13.438-10.256,18.413-17.124c3.299-4.543,6.04-9.508,8.774-14.43
		c2.725-4.908,3.606-10.212,2.378-15.793c-0.281-1.282-0.386-2.612-0.493-3.927c-0.361-4.475-1.133-8.867-2.38-13.752
		c-1.416,2.192-2.503,3.84-3.551,5.51c-1.472,2.345-4.232,3.342-7.881,2.58c-2.998-0.625-6.869-4.678-6.911-7.133
		c-0.013-0.62,0.762-1.397,1.372-1.807c0.252-0.171,1.221,0.289,1.523,0.707c0.871,1.202,1.44,2.635,2.365,3.788
		c2.256,2.812,3.548,2.853,6.048,0.322c1.755-1.775,3.364-3.708,5.181-5.413c4.094-3.848,10.869-3.834,14.858,0.067
		c1.284,1.258,2.188,2.9,3.327,4.315c0.859,1.066,2.188,0.788,2.732-0.504c1.229-2.91-0.9-8.96-3.83-10.45
		c-3.147-1.605-6.395-2.646-10.022-1.377c-3.267,1.137-6.618,2.037-9.944,2.999c-0.725,0.21-1.511,0.241-2.67,0.418
		c0.957-2.622,3.405-2.529,4.875-4.098c-2.258-3.221-0.615-6.203,0.977-9.164c0.633-1.181,1.455-2.111-0.438-3.115
		c-0.996-0.53-0.1-1.67,0.687-1.684c4.238-0.062,8.259-1.768,12.759-0.54c3.628,0.99,8.101,1.625,10.542-2.879
		c-3.005-1.951-6.185-3.729-9.028-5.938c-2.471-1.93-4.79-4.163-6.766-6.598c-1.921-2.372-0.969-4.85,1.927-5.11
		c8.486-0.771,15.944-5.02,24.233-6.562c0-1.77,0.137-3.277-0.027-4.752c-0.668-6.023-4.367-10.326-9.428-10.604
		c-3.648-0.202-7.513-0.582-10.94,0.358c-4.427,1.212-8.159,0.241-11.943-1.52c-4.456-2.075-8.911-3.089-13.87-1.827
		c-6.14,1.562-12.023,3.395-17.012,7.615c-3.891,3.29-5.459,7.752-7.24,12.185c1.33,3.168-0.657,5.503-2.317,7.612
		c-6.382,8.123-13.711,15.33-21.577,22.042c-5.664,4.833-11.252,9.838-16.235,15.343c-2.282,2.522-4.663,4.147-7.7,4.857
		c-4.312,1.014-8.721,1.63-13.086,2.421c-2.92,0.53-5.894,0.869-8.75,1.64c-19.629,5.293-36.499,15.402-51.15,29.4
		c-5.173,4.941-10.512,9.717-16.322,15.072c3.371-0.513,6.115-1.088,8.889-1.32c5.835-0.488,11.265-2.316,16.655-4.456
		c9.121-3.619,18.433-6.348,28.442-5.689c4.287,0.279,8.55,0.252,12.861,0.895c8.963,1.335,17.365,3.917,25.098,8.633
		c4.043,2.467,8.064,4.977,12.391,7.655c3.197-4.144,6.325-8.201,9.47-12.248c0.608-0.786,1.182-1.641,1.94-2.246
		c0.377-0.296,1.197-0.249,1.712-0.067c0.259,0.09,0.481,0.913,0.358,1.285c-0.251,0.768-0.744,1.455-1.13,2.18
		c-3.315,6.25-8.284,11.152-13.154,16.134c-1.255,1.283-2.466,2.616-3.555,3.775c0.144,0.527,0.137,0.732,0.234,0.83
		c5.97,5.83,10.853,12.471,14.941,19.729c0.286,0.504,1.284,0.916,1.911,0.865c4.609-0.371,9.212-0.811,13.797-1.38
		C932.209,192.622,933.123,191.904,935.08,190.988 M992.18,96.913l-0.039-0.033c2.464,1.161,4.91,2.366,7.41,3.442
		c0.479,0.205,1.359,0.098,1.719-0.232c0.363-0.33,0.586-1.25,0.383-1.687c-1.586-3.43-7.312-5.701-10.544-4.231
		c-0.4,0.181-0.745,0.641-0.962,1.053c-0.564,1.062-1.043,2.172-1.553,3.262c0.234,0.163,0.471,0.325,0.708,0.491
		C990.262,98.287,991.221,97.603,992.18,96.913 M972.188,161.928c-0.672,0.99-1.346,1.982-2.017,2.975
		c-0.64,0.718-1.284,1.438-1.924,2.153c0.22,0.144,0.442,0.287,0.664,0.432c0.413-0.868,0.825-1.737,1.235-2.603
		c0.659-1.004,1.32-2.008,1.982-3.01c0.275-0.334,0.557-0.673,0.838-1.007c-0.164-0.098-0.325-0.195-0.486-0.296
		C972.385,161.025,972.287,161.476,972.188,161.928 M939.146,186.875c5.386,0.734,6.064,2.947,7.063,8.064
		c0.102,0.537-0.387,1.191-0.599,1.791c-0.713-0.273-1.733-0.344-2.067-0.859c-0.706-1.081-0.96-2.445-1.575-3.601
		c-0.417-0.784-1.133-1.409-1.714-2.104c-0.867,0.861-2.59,1.914-2.449,2.549c0.738,3.27-1.315,2.492-3.09,2.619
		c-5.75,0.408-11.487,0.982-17.232,1.436c-1.293,0.101-2.754,0.312-3.859-0.168c-0.698-0.301-0.747-1.88-1.307-2.746
		c-3.747-5.838-7.25-11.878-12.902-16.2c-0.662-0.502-1.311-1.055-1.836-1.689c-1.467-1.775-1.561-2.953-0.076-4.8
		c1.559-1.943,3.333-3.714,5.135-5.693c-4.502-2.694-8.94-5.428-13.449-8.04c-6.492-3.767-13.482-6.212-20.896-7.287
		c-3.916-0.568-7.883-0.931-11.836-1.045c-9.93-0.291-19.351,2.285-28.416,5.987c-6.345,2.59-12.943,3.832-19.606,4.931
		c-3.418,0.562-6.895,0.807-10.356,1.031c-2.412,0.152-4.844,0.028-7.495-0.664c1.126-0.708,2.249-1.416,3.374-2.123
		c5.783-3.635,10.969-8.048,15.801-12.819c6.992-6.908,14.275-13.528,22.461-18.893c6.336-4.153,13.301-7.41,20.19-10.635
		c5.979-2.795,12.327-4.67,18.896-5.696c4.72-0.737,9.419-1.604,14.126-2.417c0.812-0.143,1.613-0.365,2.432-0.45
		c4.934-0.527,7.811-4.113,10.459-7.577c4.904-6.412,11.001-11.495,17.129-16.596c2.021-1.68,4.033-3.395,5.85-5.282
		c3.674-3.833,7.352-7.683,10.752-11.753c1.777-2.127,2.781-4.657,3.115-7.667c0.643-5.802,3.687-10.597,8.276-14.21
		c5.771-4.537,12.731-6.195,19.763-7.438c5.332-0.938,10.154,1.149,14.769,3.408c2.104,1.03,3.841,1.117,6.028,0.508
		c5.256-1.471,10.622-2.423,16.062-0.956c1.237,0.333,2.522,0.875,3.511,1.665c4.51,3.598,8.174,7.722,7.756,14.062
		c-0.205,3.135-0.373,6.273-0.605,9.405c-0.049,0.649-0.134,1.43-0.512,1.897c-0.889,1.104-1.829,2.645-3.006,2.917
		c-1.475,0.341-1.865-1.434-2.307-2.717c-0.25-0.721-0.875-1.31-1.719-2.515c-0.787,1.727-1.367,2.999-1.939,4.272
		c-1.13,2.515-2.092,2.794-3.972,0.978c-0.938-0.911-1.653-2.046-2.822-3.53c-1.372,2.984-2.397,5.212-3.562,7.744
		c2.722,2.39,5.83,5.121,8.879,7.8c-1.875,5.178-3.296,6.268-8.262,6.23c-1.479-0.012-2.979-0.193-4.424-0.491
		c-5.52-1.147-8.203,0.002-10.457,4.966c-0.785,1.725-1.008,3.707-1.745,6.584c2.803-1.78,4.746-2.894,6.56-4.189
		c4.656-3.313,9.949-3.675,15.281-3.005c4.116,0.518,6.67,3.471,8.159,7.212c0.757,1.91-1.465,4.186-3.828,3.856
		c-1.276-0.179-2.503-0.809-3.718-1.312c-1.067-0.437-2.083-0.992-3.133-1.472c-0.107-0.048-0.293,0.09-0.84,0.277
		c3.091,2.285,3.826,5.618,4.59,8.926c0.598,2.595-0.604,5.705-2.434,6.472c-2.303,0.973-5.179-0.141-6.812-2.632
		c-0.186-0.278-0.355-0.562-0.529-0.849c-2.671-4.31-3.13-4.52-8.647-3.832c0.327,2.555,0.508,5.146,1.009,7.674
		c1.301,6.508,2.004,13.045,1.848,19.697c-0.059,2.414-0.568,4.535-1.818,6.577c-1.985,3.244-3.873,6.553-5.789,9.816
		c4.074,2.455,8.309,0.603,12.449,0.312c1.804-0.125,3.332-1.235,4.004-3.268c0.622-1.872,1.543-3.649,2.396-5.441
		c0.664-1.398,0.533-2.555-0.759-3.498c-0.134-0.1-0.247-0.228-0.358-0.35c-3.711-4.015-3.701-5.015,0.378-8.631
		c0.972-0.856,2.165-1.505,3.343-2.072c0.459-0.223,1.154,0.047,1.745,0.093c-0.225,0.518-0.322,1.159-0.693,1.527
		c-1.608,1.613-3.304,3.146-5.188,4.916c1.312,1.46,2.266,2.524,3.597,4.005c0-0.882,0.107-1.278-0.015-1.585
		c-1.436-3.6-1.34-4.218,1.372-5.511c3.862-1.844,7.778-3.581,12.095-5.559c-0.249,0.825-0.242,1.722-0.679,2.069
		c-1.665,1.335-3.386,2.643-5.249,3.675c-1.714,0.945-3.638,1.525-5.688,2.355c0.557,1.161,1.12,2.137,1.487,3.187
		c0.199,0.568,0.28,1.361,0.039,1.879c-3.455,7.307-6.953,14.597-10.491,21.864c-0.635,1.305-1.494,2.497-2.503,4.16
		c3.27,0.117,5.631-0.075,7.383-3.021c1.6-2.679,3.904-4.938,5.892-7.388c0.521-0.642,1.406-1.265,1.47-1.954
		c0.359-4.083,0.537-8.185,0.744-12.28c0.016-0.303-0.251-0.61-0.314-0.933c-0.957-4.859-0.656-5.508,4.168-6.93
		c1.081-0.32,2.824-2.05,3.439-0.363c0.721,1.98-1.922,1.629-2.988,2.423c-0.615,0.456-1.47,0.587-2.605,1.007
		c0.42,0.913,0.818,1.56,1.019,2.26c0.391,1.378,0.977,2.798,0.933,4.178c-0.093,2.625-0.713,5.229-0.857,7.854
		c-0.156,2.771-1.12,4.963-2.881,7.188c-2.204,2.791-5.248,5.019-6.32,8.702c-0.215,0.731-1.377,1.295-2.215,1.698
		c-0.549,0.265-1.309,0.1-1.97,0.136c-6.78,0.362-13.597,0.42-20.329,1.187c-5.494,0.631-11.17,1.021-15.918,4.646
		c-1.932,1.475-4.241,2.479-6.465,3.524c-1.002,0.473-2.197,0.665-3.32,0.728c-4.495,0.24-8.916-0.134-13.301-1.327
		c-2.952-0.803-6.031-1.135-9.996-1.848c3.262,4.1,5.428,7.735,9.217,10.079c1.662,1.025,2.661,0.835,3.877-0.407
		c1.05-1.07,2.119-2.146,3.318-3.03c3.984-2.921,6.586-2.327,9.398,1.735c1.631,2.361,3.086,4.678,2.767,7.698
		c-0.112,1.06-0.381,2.158-1.663,1.917c-0.578-0.107-1.039-1.061-1.462-1.688c-0.159-0.234-0.036-0.652-0.075-0.981
		c-0.628-5.69-1.812-6.343-7.812-4.312c-0.674,0.33-1.351,0.654-2.021,0.981c-0.452,0.107-0.908,0.218-1.36,0.329
		c0.091,0.149,0.181,0.306,0.273,0.459c0.361-0.258,0.729-0.521,1.097-0.781C937.827,187.559,938.486,187.217,939.146,186.875"/>
	<path clip-path="url(#SVGID_4_)" fill="#241F21" d="M329.53,183.566c-0.041,0.146-0.081,0.301-0.121,0.449
		c0.178,0.02,0.355,0.045,0.53,0.064c-0.029-0.159-0.032-0.325-0.103-0.465C329.81,183.562,329.64,183.579,329.53,183.566
		 M400.702,186.362c-0.101,0.093-0.287,0.195-0.28,0.276c0.024,0.261,0.125,0.512,0.192,0.769c0.116-0.241,0.255-0.472,0.323-0.72
		C400.957,186.606,400.785,186.475,400.702,186.362 M396.697,192.355c-0.112,0.247-0.252,0.479-0.325,0.732
		c-0.017,0.071,0.18,0.198,0.277,0.301c0.112-0.236,0.255-0.464,0.319-0.715C396.99,192.6,396.797,192.463,396.697,192.355
		 M398.689,189.357c-0.1,0.244-0.227,0.479-0.282,0.729c-0.018,0.088,0.147,0.212,0.227,0.322c0.107-0.244,0.243-0.479,0.303-0.73
		C398.955,189.595,398.777,189.465,398.689,189.357 M392.717,186.479c-0.335-0.14-0.67-0.273-1.006-0.407
		c-0.287,0.811-0.578,1.618-0.864,2.429c0.208,0.083,0.413,0.163,0.62,0.247C391.885,187.99,392.302,187.236,392.717,186.479
		 M332.455,186.357c0.077-0.005,0.152-0.008,0.229-0.012v-4.854c-0.265,0.017-0.53,0.037-0.792,0.057
		C332.08,183.152,332.267,184.754,332.455,186.357 M398.245,193.918c3.945-2.387,5.35-4.494,5.31-7.292
		C401.967,188.811,400.342,191.04,398.245,193.918 M345.842,178.384c-0.422,3.415-1.023,6.846,0.902,10.093
		C346.444,185.112,346.143,181.747,345.842,178.384 M440.587,153.896c-2.097-3.943-2.097-3.943-5.558-1.648
		C437.14,152.874,438.865,153.386,440.587,153.896 M337.892,176.624c-0.832,6.926-0.084,13.25,1.543,15.976
		C338.912,187.197,338.402,181.909,337.892,176.624 M295.99,166.406c-0.551,2.23-1.054,3.433-1.066,4.643
		c-0.01,0.695,0.61,1.743,1.23,2.037c1.982,0.943,3.25-0.559,5.029-1.799C299.569,169.771,298.171,168.455,295.99,166.406
		 M433.149,149.854c3.385-3.28,3.473-3.538,1.99-5.344c-1.582-1.932-2.109-1.848-5.495,0.892
		C430.74,146.792,431.835,148.186,433.149,149.854 M340.461,175.318c0.386,4.503,0.765,8.879,1.13,13.254
		c0.053,0.619-0.088,1.283,0.088,1.857c0.127,0.41,0.632,0.703,0.969,1.053c0.324-0.35,0.938-0.706,0.925-1.041
		c-0.157-3.918-0.437-7.829-0.62-11.745C342.88,177.041,342.135,175.979,340.461,175.318 M303.682,170.424
		c2.203-1.062,4.36-2.103,6.898-3.324c-1.183-1.915-1.221-4.453-3.363-4.751c-1.238-0.172-2.987,1.183-4.034,2.295
		C301.394,166.542,302.41,168.546,303.682,170.424 M293.007,174.278c-3.012-4.072-5.797-7.837-8.827-11.932
		c0.41,2.433,0.83,4.494,1.088,6.572C285.89,173.946,287.379,175.056,293.007,174.278 M284.207,175.395
		c-3.078-4.43-5.947-8.563-9.027-12.993c0.02,4.195,1.415,7.723,2.552,11.315c0.542,1.712,1.582,2.389,3.35,2.055
		C282.014,175.597,282.965,175.54,284.207,175.395 M427.802,143.076c1.588-1.865,2.931-3.438,4.203-4.929
		c-3.965-6.982-4.048-7.538-10.957-3.361c-0.223,0.136-0.295,0.521-0.231,0.4C422.989,137.642,425.077,139.996,427.802,143.076
		 M354.745,128.477c-1.113-1.455-2.025-2.851-3.141-4.05c-1.512-1.627-3.755-2.028-5.472-1.138c-1.592,0.825-3.615,2.708-3.67,4.191
		c-0.107,2.882,0.535,6.007,2.703,8.37C348.455,133.316,351.444,131.017,354.745,128.477 M313.269,165.717
		c4.513-3.92,8.25-7.045,11.836-10.341c1.56-1.435,1.262-2.839-0.47-4.06c-2.433-1.709-4.503-1.537-7.298-0.107
		c-3.202,1.641-4.567,3.94-4.109,7.528C313.469,160.657,313.269,162.629,313.269,165.717 M328.598,151.194
		c4.769-4.614,9.484-9.177,14.027-13.572c-1.453-4.133-5.208-3.546-8.06-4.241c-2.348-0.57-2.467,2.693-4.067,3.776
		c-0.802,0.539-1.362,1.432-2.05,2.152c-1.863,1.95-2.708,3.991-1.348,6.706C327.89,147.592,328.114,149.452,328.598,151.194
		 M418.307,133.586c1.562-1.408,3.195-2.805,4.723-4.305c0.42-0.415,0.835-1.205,0.732-1.718c-0.555-2.744-1.004-5.559-2.005-8.149
		c-1.146-2.97-5.49-3.393-7.345-0.806c-1.727,2.411-3.205,5.006-4.743,7.548c-0.864,1.428-0.372,2.552,1.011,3.315
		C412.999,130.75,415.342,131.991,418.307,133.586 M400.525,96.196c-4.533,2.72-7.767,6.723-11.152,10.57
		c-1.87,2.13-2.393,4.597-2.018,7.373c0.172,1.257,0.107,2.557,0.029,3.834c-0.205,3.425,0.071,4.098,3.595,4.563
		c4.616,0.613,9.06,1.677,13.244,3.705c1.46,0.708,2.287,0.205,2.652-1.097c0.935-3.33,1.782-6.685,2.544-10.057
		c0.161-0.716-0.105-1.577-0.342-2.318c-0.855-2.657-1.67-5.334-2.71-7.92C405.067,101.616,403.352,98.606,400.525,96.196
		 M384.947,121.747c0-3.576,0.132-6.4-0.063-9.203c-0.082-1.2-0.511-2.805-1.369-3.45c-3.41-2.576-7.06-4.837-10.608-7.233
		c-1.606-1.087-3.07-0.954-4.494,0.351c-3.655,3.347-7.415,6.587-10.933,10.069c-0.785,0.778-1.117,2.4-1.038,3.593
		c0.243,3.57,0.792,7.123,1.276,11.109C366.222,122.026,375.217,120.934,384.947,121.747 M353.228,194.688
		c6.015-0.088,11.184,2.01,16.552,0.693c0.143-0.562,0.355-1.025,0.355-1.486c0.028-5.908,0.015-11.815,0.033-17.72
		c0.008-2.521-0.503-4.73-1.843-7.051c-2.167-3.752-4.189-7.537-7.217-10.687c-0.341-0.355-0.62-0.805-0.79-1.26
		c-0.093-0.243,0.024-0.775,0.196-0.857c0.376-0.178,1.093-0.35,1.243-0.171c2.416,2.928,5.013,5.753,7.072,8.924
		c3.197,4.919,4.848,10.43,4.616,16.231c10.444,3.767,24.377,3.325,33.223-0.947c-2.478-4.557-7.028-6.575-11.672-9.107
		c3.731-0.253,5.959,0.3,8.66,2.54c5.675,4.709,10.212,10.293,12.82,17.316c0.365,0.982,1.147,2.291,1.992,2.52
		c2.202,0.604,4.551,0.963,6.835,0.931c5.252-0.073,5.252-0.19,5.77-5.557c0.033-0.332,0.057-0.664,0.093-0.993
		c0.675-6.12-0.358-11.722-4.907-16.267c-3.301-3.296-6.595-6.59-9.873-9.908c-1.083-1.098-2.1-2.265-3.147-3.399
		c1.074-0.451,1.708-0.375,2.145-0.043c5.312,4.045,10.127,8.598,14.17,13.94c1.365,1.811,2.56,3.285,5.57,2.646
		c3.347-0.713,6.975-0.355,10.455-0.116c4.515,0.31,8.465-0.867,12.78-4.059c-2.412,0.375-4.007,0.724-5.62,0.85
		c-2.643,0.205-5.308,0.465-7.942,0.327c-2.535-0.132-4.301-1.955-4.658-4.399c-0.072-0.493,0.483-1.076,0.748-1.618
		c0.415,0.212,1.162,0.387,1.189,0.642c0.36,3.275,2.66,3.418,5.128,3.228c4.103-0.312,8.197-0.688,12.338-1.042
		c-0.103-0.55-0.115-0.85-0.215-1.123c-0.226-0.623-0.446-1.255-0.751-1.842c-2.935-5.68-6.92-9.665-14.005-8.805
		c-2.88,0.348-5.482-0.503-8.135-1.734c-3.31-1.541-5.795-3.881-7.915-6.658c-3.524-4.615-6.772-9.468-12.248-12.105
		c-0.575-0.274-0.945-0.952-1.493-1.314c-5.947-3.92-11.99-7.51-18.999-9.466c-5.711-1.592-11.431-1.689-17.218-1.797
		c-5.93-0.109-11.433,1.508-16.677,4.163c-8.082,4.089-14.89,9.876-21.312,16.152c-5.002,4.89-9.753,10.055-14.938,14.737
		c-4.165,3.762-8.423,7.748-13.337,10.279c-7.965,4.103-16.238,7.943-25.58,8.036c8.727,1.394,17.438,0.454,26.141,0.387
		c0.811-0.007,1.631-0.248,2.425-0.455c4.943-1.293,9.857-2.691,14.821-3.889c4.772-1.151,9.635-2.723,14.113,0.972
		c0.104,0.088,0.489-0.165,0.809-0.282c-1.27-2.143-2.695-4.203-3.757-6.434c-1.08-2.254-3.643-3.659-4.21-6.82
		c3.024,0.374,4.2,2.354,5.357,3.971C348.748,173.601,354.117,182.861,353.228,194.688 M336.177,191.875
		c0.1,0.444,0.203,0.889,0.303,1.333c0.146-0.093,0.291-0.186,0.432-0.28c-0.257-0.342-0.513-0.682-0.769-1.021
		c-0.488-4.203,0.59-8.562-1.271-12.635C333.97,183.608,335.22,187.727,336.177,191.875 M397.129,187.861
		c0.648-0.669,1.295-1.34,1.941-2.01c-0.248-0.16-0.493-0.324-0.737-0.488c-0.383,0.85-0.763,1.699-1.143,2.552
		c-0.278,0.332-0.553,0.667-0.828,0.999c0.162,0.1,0.325,0.195,0.487,0.29C396.944,188.758,397.037,188.311,397.129,187.861
		 M282.042,167.362c-0.322-2.246-0.88-4.489-0.903-6.733c-0.021-2.125,0.579-4.245,0.791-6.38c0.225-2.254-0.181-4.689,2.477-6.502
		c0.333,0.74,0.89,1.398,0.875,2.044c-0.125,6.918,2.24,12.968,6.498,18.738c1.842-3.33,4.604-3.512,7.687-1.865
		c0.858-5.005,5.718-7.808,10.951-5.07c-1.828-10.015,5.78-15.308,14.118-13.063c0.15-0.27,0.494-0.62,0.42-0.799
		c-1.813-4.438-0.658-8.091,2.855-11.159c0.249-0.217,0.5-0.461,0.664-0.744c2.746-4.645,6.65-5.25,11.328-3.31
		c0.215,0.089,0.575-0.173,0.867-0.273c0.048-0.146,0.168-0.312,0.133-0.435c-0.425-1.545-1.493-3.24-1.154-4.585
		c0.405-1.617,1.792-3.173,3.125-4.337c3.02-2.641,5.89-2.66,9.549-0.46c0.491,0.292,0.92,0.677,1.665,1.235
		c0-3.103,0.071-5.75-0.017-8.394c-0.085-2.5,0.72-4.514,2.612-6.177c2.605-2.285,5.017-4.797,7.71-6.968
		c3.423-2.762,7.133-4.087,11.319-1.3c3.153,2.098,6.413,4.03,10.124,6.348c0.83-1.037,1.78-1.994,2.458-3.117
		c2.49-4.125,6.265-6.771,10.257-9.201c2.372-1.444,2.545-1.477,4.695,0.413c3.609,3.175,5.79,7.235,7.032,11.806
		c0.818,3.013,1.43,6.08,2.248,9.61c3.498-3.695,7.056-0.743,10.55-0.323c0.84,0.103,1.745,1.979,2.114,3.195
		c0.815,2.667,1.701,5.423,1.786,8.168c0.053,1.617,0.299,2.292,1.694,2.834c3.018,1.172,5.496,3.662,5.438,6.532
		c-0.063,3.061,1.164,4.538,3.142,6.104c0.38,0.299,0.848,0.747,0.897,1.17c0.415,3.79,4.225,5.222,5.73,8.277
		c0.31,0.632,1.643,0.982,2.542,1.067c7.741,0.739,11.83,6.183,15.26,12.148c1.997,3.472,0.458,5.54-3.137,7.722
		c-5.415,3.287-11.121,3.877-17.201,3.53c-2.564-0.146-5.354-0.683-7.717,1.372c0.5,2.353,1.052,4.729,1.5,7.126
		c0.537,2.891-0.425,5.599-1.422,8.203c-0.353,0.918-1.548,1.697-2.536,2.154c-2.798,1.293-5.797,1.26-8.795,0.869
		c-1.794-0.232-3.58-0.674-5.377-0.732c-1.725-0.052-2.581-0.391-3-2.381c-0.85-4.031-2.942-7.549-6.341-10.645
		c-0.081,2.217-0.219,4.436-0.224,6.65c-0.005,2.437-0.974,3.523-3.419,4.611c-5.248,2.344-10.273,2.061-15.501,0.596
		c-1.687-0.479-2.595-1.179-1.774-3.217c0.655-1.621,0.802-3.453,1.162-5.127c-4.674-0.779-9.192-1.531-14.056-2.342
		c-0.124,0.9-0.362,1.971-0.399,3.045c-0.073,2.162,0.037,4.336-0.062,6.496c-0.158,3.479-0.711,4.113-4.121,4.17
		c-5.662,0.093-11.327,0-16.99,0.021c-1.479,0.008-2.125-0.752-2.171-2.109c-0.05-1.475-0.011-2.953-0.011-5.297
		c-1.584,1.166-2.524,1.904-3.507,2.582c-6.362,4.395-10.587,3.922-16.67-0.932c-1.545-1.233-2.805-2.835-4.13-4.329
		c-1.178-1.325-2.261-2.737-3.661-4.446c5.066-1.449,8.94-4.558,13.346-8.771c-5.062,1.276-9.165,2.357-13.296,3.343
		c-5.487,1.307-11.027,2.228-16.71,2.058c-2.83-0.083-5.669,0.148-8.495-0.002c-5.623-0.296-11.232-0.763-16.85-1.136
		c-2.128-0.14-3.383-1.442-3.965-3.272c-1.4-4.392-3.218-8.767-3.785-13.282c-0.728-5.813-1.66-11.756-0.215-17.641
		c0.215-0.876,0.713-1.682,1.899-2.437c0.25,2.83,0.29,5.694,0.808,8.474c0.57,3.073,1.353,6.147,2.465,9.06
		c1.04,2.722,2.633,5.23,3.98,7.836C281.482,167.577,281.764,167.47,282.042,167.362"/>
	<path clip-path="url(#SVGID_4_)" fill="#241F21" d="M131.441,181.562c4.32,2.726,8.223,5.934,12.068,10.113
		c-1.159,0.095-1.766,0.146-2.371,0.195l0.053,0.052c-1.22-1.305-2.372-2.684-3.678-3.895c-2.152-1.997-4.404-3.895-6.615-5.828
		C131.082,181.99,131.264,181.777,131.441,181.562"/>
	<path clip-path="url(#SVGID_4_)" fill="#241F21" d="M138.174,183.879c-0.308-0.004-0.632,0.055-0.918-0.029
		c-0.268-0.078-0.492-0.3-0.737-0.459c0.386-0.08,0.787-0.254,1.152-0.197c0.19,0.029,0.32,0.464,0.481,0.713L138.174,183.879z"/>
	<path clip-path="url(#SVGID_4_)" fill="#241F21" d="M142.159,173.7c0.438,1.002,0.809,2.042,1.336,2.994
		c0.462,0.835,1.102,1.572,1.662,2.354c-0.675-0.041-1.35-0.086-2.025-0.129c-1.403-1.551-2.808-3.101-4.212-4.647
		c0.155-0.233,0.338-0.443,0.545-0.63c0.565-0.043,1.131-0.083,1.699-0.126L142.159,173.7z"/>
	<path clip-path="url(#SVGID_4_)" fill="#241F21" d="M146.135,174.756c2.021,0.131,3.214,1.388,4.125,3.027l-0.212,0.229
		c-0.558-0.005-1.116-0.016-1.675-0.023C147.627,176.912,146.88,175.834,146.135,174.756"/>
	<path clip-path="url(#SVGID_4_)" fill="#241F21" d="M772.996,56.768c1.67-0.074,3.601,1.285,3.09,2.295
		c-0.434,0.86-1.498,1.688-2.441,1.935c-1.309,0.351-2.666-0.191-3.129-1.665C770.227,58.42,771.904,56.815,772.996,56.768"/>
	<path clip-path="url(#SVGID_4_)" fill="#241F21" d="M968.115,90.736c-1.646,1.228-2.234,2.027-2.91,2.115
		c-6.252,0.813-12.264,0.2-17.449-3.798c-1.14-0.88-2.17-2.104-2.807-3.39c-1.688-3.393-3.184-6.88-4.607-10.387
		c-0.227-0.565,0.311-1.44,0.493-2.173c0.596,0.465,1.416,0.809,1.743,1.419c1.008,1.89,1.809,3.895,2.729,5.833
		c1.66,3.485,3.708,6.641,7.22,8.59c2.058,1.147,4.143,1.956,6.584,1.82C961.719,90.624,964.341,90.736,968.115,90.736"/>
	<path clip-path="url(#SVGID_4_)" fill="#241F21" d="M971.89,58.061c-2.021,0.036-3.862-1.71-3.818-3.626
		c0.034-1.545,1.569-2.743,3.483-2.715c2.305,0.032,3.609,1.103,3.738,3.068C975.425,56.84,974.199,58.018,971.89,58.061"/>
	<path clip-path="url(#SVGID_4_)" fill="#241F21" d="M1000.796,47.712c1.302,1.927,2.419,3.578,3.728,5.513
		C999.754,52.362,999.658,52.226,1000.796,47.712"/>
	<path clip-path="url(#SVGID_4_)" fill="#241F21" d="M992.18,96.914c0.01-0.31-0.036-0.635,0.042-0.925
		c0.078-0.272,0.283-0.511,0.435-0.767c0.08,0.397,0.254,0.807,0.2,1.184c-0.024,0.188-0.462,0.318-0.716,0.473L992.18,96.914z"/>
	<path clip-path="url(#SVGID_4_)" fill="#241F21" d="M446.627,165.768c-1.013-1.223-2.072-1.942-2.218-2.814
		c-0.203-1.21,0.787-2.068,2.113-2.073c1.507-0.005,1.989,1.076,1.758,2.29C448.135,163.926,447.417,164.573,446.627,165.768"/>
	<path clip-path="url(#SVGID_4_)" fill="#241F21" d="M178.452,104.839c0.942,0.88,2.34,1.603,2.362,2.366
		c0.021,0.776-1.305,1.597-2.04,2.397c-0.859-0.875-1.72-1.748-2.577-2.621C176.873,106.339,177.55,105.697,178.452,104.839"/>
	<path clip-path="url(#SVGID_4_)" fill="#241F21" d="M191.987,102.738c2.138,0.207,2.535,1.3,2.297,2.521
		c-0.125,0.635-0.792,1.5-1.362,1.637c-1.331,0.315-3.098-1.089-2.712-2.092C190.554,103.902,191.532,103.24,191.987,102.738"/>
	<path clip-path="url(#SVGID_4_)" fill="#241F21" d="M144.135,180.873c-0.668,0.017-1.332,0.034-2,0.052l-0.92-1.982
		c0.655-0.026,1.312-0.05,1.968-0.076C143.5,179.535,143.817,180.205,144.135,180.873"/>
	<path clip-path="url(#SVGID_4_)" fill="#241F21" d="M138.208,176.934c1.648-0.392,2.53,0.367,2.893,1.913
		C139.594,179.031,138.606,178.432,138.208,176.934"/>
	<path clip-path="url(#SVGID_4_)" fill="#241F21" d="M152.784,192.29c0.041,0.091,0.06,0.234,0.12,0.257
		c0.143,0.051,0.303,0.039,0.458,0.051c-0.045-0.139-0.055-0.356-0.145-0.396C153.109,192.153,152.932,192.254,152.784,192.29
		 M195.647,114.469c-0.288-0.077-0.652-0.301-0.842-0.199c-0.229,0.122-0.305,0.522-0.448,0.802
		c0.253,0.072,0.594,0.277,0.735,0.186C195.342,115.092,195.47,114.742,195.647,114.469 M198.622,110.522
		c0.103-0.396,0.288-0.71,0.21-0.935c-0.072-0.205-0.42-0.408-0.661-0.433c-0.151-0.013-0.337,0.303-0.506,0.47
		C197.97,109.91,198.274,110.194,198.622,110.522 M179.867,115.115c-0.107-0.275-0.143-0.675-0.343-0.792
		c-0.192-0.111-0.554,0.07-0.842,0.122c0.133,0.368,0.263,0.735,0.396,1.103C179.342,115.404,179.604,115.26,179.867,115.115
		 M176.252,117.445c0.244-0.166,0.49-0.329,0.732-0.493c-0.451-0.818-0.903-1.637-1.355-2.458l-0.491,0.222
		C175.509,115.625,175.883,116.534,176.252,117.445 M191.875,114.442c-0.171-0.605-0.253-0.902-0.336-1.198
		c-0.552,0.215-1.112,0.413-1.644,0.67c-0.042,0.021,0.117,0.67,0.182,0.67C190.657,114.585,191.236,114.504,191.875,114.442
		 M196.21,111.627c-0.341-0.479-0.644-1.083-0.768-1.047c-0.594,0.165-1.143,0.501-1.708,0.78c0.513,0.317,1,0.709,1.555,0.91
		C195.475,112.334,195.84,111.899,196.21,111.627 M183.622,120.482c0.16-0.272,0.322-0.548,0.482-0.82
		c-0.627-0.702-1.208-1.455-1.909-2.07c-0.186-0.163-0.882-0.027-1.09,0.202c-0.23,0.253-0.348,1.033-0.205,1.133
		C181.757,119.517,182.705,119.977,183.622,120.482 M187.432,118.772c1.335-0.227,2.393-0.405,4.268-0.72
		c-1.505-0.909-2.175-1.317-2.913-1.763C188.395,117.007,188.025,117.687,187.432,118.772 M194.507,134.33
		c-0.427,3.092,0.025,5.167,1.938,7.319c2.5,2.814,4.548,6.178,3.91,10.372c-0.096,0.644-0.125,1.418,0.148,1.965
		c0.335,0.67,1.022,1.162,1.558,1.73c0.625-0.654,1.605-1.225,1.798-1.987c0.317-1.26,0.315-2.677,0.11-3.975
		c-0.892-5.583-1.646-11.281-7.903-13.848C195.514,135.683,195.149,135,194.507,134.33 M150.048,178.012l0.215-0.228
		c1.582,0.184,2.484-0.492,2.727-2.295c-2.292-0.78-4.532-1.812-6.88-2.215c-1.004-0.174-0.987,0.951,0.024,1.481
		c0.749,1.078,1.493,2.154,2.238,3.234l1.261,1.386C149.771,178.922,149.91,178.467,150.048,178.012 M144.175,180.914
		c2.167-0.515,2.167-0.515,0.982-1.867c-0.56-0.78-1.2-1.518-1.662-2.353c-0.525-0.952-0.895-1.992-1.336-2.994
		c1.678-0.358,1.737-0.426,1.173-0.916c-0.76-0.663-1.624-1.209-2.883-2.125c0.398,1.357,0.572,1.96,0.751,2.566l-1.736,0.414
		c-0.207,0.188-0.387,0.398-0.542,0.631c-0.267,0.859-0.532,1.722-0.797,2.582c-0.583,0.2-1.163,0.403-2.368,0.82
		c2.359,1.498,4.058,2.942,6.426,3.19C142.815,182.145,143.485,181.864,144.175,180.914 M197.212,100.95
		c4.082,0.394,6.133,3.333,6.84,6.717c0.515,2.458-0.49,5.373-2.627,7.135c-3.065,2.522-6.286,4.922-9.713,6.904
		c-1.327,0.773-3.127,1.023-5.127,0.789c-4.93-0.581-9.857-0.925-14.578-2.603c-2.25-0.801-4.125-1.988-5.137-4.36
		c-0.756-1.775-1.038-3.308-0.178-5.21c1.007-2.23,1.93-4.647,2.155-7.053c0.417-4.48,2.711-7.332,6.528-9.261
		c0.728-0.365,1.445-0.751,2.505-1.303c-4.547-6.873-10.179-11.338-18.683-10.603c-5.702,0.49-10.53,2.803-13.514,7.972
		c-0.794,1.37-2.118,2.915-0.835,4.578c1.295,1.672,3.189,2.372,5.329,1.989c1.131-0.202,2.207-0.704,3.338-0.854
		c0.747-0.098,1.545,0.194,2.497,1.027c-0.947,0.443-1.867,0.963-2.845,1.321c-3.23,1.186-5.799,3.061-7.192,6.337
		c-1.487,3.508,0.55,8.936,4.017,10.023c0.949,0.298,2.335-0.031,3.246-0.553c1.498-0.861,2.825-1.772,4.564-0.692
		c-6.11,8.308-6.01,12.488,0.44,18.996c4.103-1.603,4.103-1.603,7.3-8.018c1.532,0.458,1.785,1.665,1.78,2.999
		c-0.02,5.253,2.663,9.067,6.615,12.563c3.533-2.39,6.562-4.976,7.145-9.536c0.208-1.622,0.575-3.235,1.011-4.814
		c0.139-0.515,0.725-0.907,1.107-1.355c0.36,0.475,1.007,0.928,1.043,1.422c0.43,6.412-1.966,11.66-6.87,15.728
		c-1.63,1.353-5.132,0.703-7.057-1.577c-2.093-2.479-3.752-5.32-5.706-8.158c-0.787,0.65-1.677,1.646-2.784,2.228
		c-1.081,0.565-2.148,1.715-3.641,0.818c-0.825-0.496-1.255-0.093-1.978,0.599c-5.235,4.998-11.708,7.996-18.248,10.828
		c-8.167,3.54-16.854,4.373-25.606,5.26c-5.792,0.589-11.479,0.026-17.173-0.319c-4.912-0.298-9.771-1.493-14.65-2.283
		c-1.575-0.255-3.153-0.482-5.88-0.899c8.755,5.195,16.561,9.585,25.385,11.488c8.383,1.809,16.728,4.087,25.463,3.562
		c3.203-0.192,5.958,0.95,8.864,2.508c7.66,4.105,15.673,7.517,24.985,9.51c-1.652-3.428-5.129-5.093-5.112-9.343
		c1.015,0.691,1.613,0.916,1.938,1.345c4.608,6.076,9.167,12.185,13.765,18.267c0.465,0.619,1.016,1.462,1.66,1.608
		c3.53,0.796,7.087,1.499,10.673,1.997c0.744,0.103,1.915-0.605,2.413-1.284c3.066-4.212,6.819-7.676,10.952-10.808
		c1.667-1.265,3.145-2.485,5.355-1.305c2.071,1.107,2.544,2.93,2.364,5.058c-0.067,0.771-0.25,1.532-0.39,2.363
		c-2.072-0.773-1.693-2.476-2.077-3.858c-0.491-1.747-1.403-2.128-2.973-1.212c-1.13,0.661-2.228,1.472-3.125,2.417
		c-2.853,3.013-5.698,6.041-8.36,9.221c-1.372,1.638-2.915,2.048-4.848,1.685c-3.393-0.64-6.82-1.147-10.152-2.014
		c-1.143-0.296-2.262-1.338-3.018-2.327c-1.911-2.495-3.558-5.189-5.403-7.737c-2.679-3.703-4.497-3.915-7.455-0.558
		c-3.245,3.681-7.19,5.743-12.455,6.065c1.502,3.34,4.083,5.052,6.927,6.233c2.195,0.908,4.118-0.757,6.071-1.536
		c0.723-0.287,1.245-1.078,1.854-1.647c1.248-1.155,2.188-0.505,2.77,0.659c0.811,1.621,1.354,3.377,2.132,5.018
		c0.548,1.152,1.292,2.211,2.425,4.108c-1.672-0.762-2.617-1.191-3.91-1.782c0.252,1.287,0.597,2.476,0.677,3.68
		c0.038,0.544-0.44,1.123-0.685,1.687c-0.655-0.384-1.66-0.625-1.882-1.179c-0.42-1.035-0.35-2.262-0.541-3.395
		c-0.215-1.279-1.162-2.66-2.24-2.062c-3.55,1.975-5.623-0.684-8.28-1.968c-3.812-1.843-7.109-4.233-9.854-7.419
		c-0.203-0.237-0.263-0.592-0.39-0.892l-0.025,0.026c0.565-0.219,1.128-0.439,1.69-0.658c-0.173-0.391-0.235-0.94-0.536-1.139
		c-0.802-0.527-1.727-0.861-2.562-1.342c-2.811-1.613-2.806-1.625-5.301,0.795c-0.177,0.213-0.36,0.426-0.542,0.635
		c-0.822,0.312-1.643,0.625-3.07,1.165c3.172,2.067,5.775,3.782,8.395,5.466c1.641,1.055,3.311,2.063,4.967,3.092l-0.055-0.049
		c0.698,1.074,1.395,2.15,2.093,3.227c-1.445-0.645-2.891-1.286-4.336-1.928c1.75,3.988,1.75,3.988,4.983,2.639
		c3.795,0.119,7.421,0.955,10.93,2.847c-0.703,0.127-1.419,0.415-2.106,0.354c-3.741-0.34-7.441-1.559-11.244-0.027
		c-0.646,0.262-2.151-0.32-2.563-0.959c-3.717-5.787-9.445-9.234-14.834-13.082c-0.233-0.163-0.348-0.485-0.763-1.101
		c2.617-2.178,5.075-4.703,7.98-6.5c3.08-1.906,4.595-4.585,5.835-8.031c-4.07-1.465-7.322-4.33-11.99-4.322
		c-18.15,0.033-34.923-4.824-50.205-14.735c-3.438-2.229-7.05-4.192-10.417-7.236c0.988,0,2.073-0.271,2.948,0.044
		c8.114,2.917,16.625,4.143,25.055,5.431c5.54,0.848,11.3,0.322,16.961,0.299c8.148-0.032,16.226-1.11,23.778-4.092
		c6.279-2.478,12.24-5.835,18.175-9.103c3.027-1.665,2.847-2.38,0.976-5.904c-1.715-3.235-3.335-6.536-1.619-10.378
		c0.641-1.432,0.063-2.479-1.384-3.235c-1.147-0.6-2.221-1.43-3.158-2.332c-4.385-4.226-4.632-8.885-0.794-13.638
		c0.413-0.513,0.875-0.983,1.372-1.538c-0.778-0.477-1.475-0.852-2.109-1.31c-2.9-2.09-3.8-4.777-1.892-7.707
		c1.597-2.458,3.529-5.158,5.997-6.513c7.935-4.358,16.165-4.75,23.834,0.737c3.041,2.175,5.532,5.117,8.545,7.97
		c0.518-0.754,1.106-1.646,1.725-2.517c4.375-6.143,9.713-10.723,17.598-11.748c5.178-0.67,9.048,1.383,12.005,5.217
		c0.835,1.083,0.677,3.129,0.537,4.691c-0.093,1.02-0.975,1.967-1.429,2.812c2.3,1.725,4.466,3.254,6.527,4.915
		c3.45,2.782,4.847,6.625,5.177,10.885c0.173,2.267-0.032,4.562,0.059,6.839c0.134,3.521-2.246,4.948-4.961,6.055
		c-0.74,0.303-1.668,0.105-2.465,0.31c-2.445,0.636-3.252,1.568-2.417,3.866c0.816,2.25,0.468,4.182-0.188,6.27
		c-1.169,3.73-3.488,6.343-7.202,7.643c-0.763,0.268-1.558,0.435-2.853,0.792c3.423,4.833,3.23,10.103,3.03,15.358
		c-0.036,0.964-0.13,2.057-0.602,2.847c-0.901,1.502-2.308,2.363-4.203,2.041c-1.88-0.324-2.913-1.61-3.371-3.275
		c-0.522-1.898-0.902-3.857-1.105-5.818c-0.272-2.64-1.963-4.468-3.773-6.39c0.848,3.065,1.59,6.166,2.566,9.188
		c1.287,3.996,0.244,7.558-1.868,10.875c-2.042,3.205-4.652,3.335-7.355,0.52c-0.677-0.706-1.173-1.588-1.65-2.251
		c-2.984,4.2-6.05,8.511-9.392,13.215c-0.041-0.332-0.107,0.057,0.052,0.293c3.479,5.103,3.472,5.084,8.527,1.787
		c1.525-0.993,3.195-1.77,4.685-2.812c1.777-1.243,3.241-2.562,3.228-5.205c-0.015-2.91,0.661-3.228,3.668-3.392
		c3.605-0.198,3.812-0.146,6.302,1.687c-1.07,2.188-3.098,1.548-4.842,1.558c-1.536,0.008-2.158,0.568-1.763,2.104
		c1.424-1.08,2.987-1.985,4.627-0.715c1.43,1.105,2.7,2.462,3.839,3.87c0.403,0.498,0.216,1.476,0.408,3.232
		c-2.329-2.242-3.937-3.789-5.787-5.572c-0.602,1.05-1.01,1.925-1.567,2.692c-0.962,1.32-1.888,2.978-3.643,0.638
		c-0.17-0.225-1.747,0.4-2.524,0.873c-2.96,1.797-5.799,3.807-8.805,5.522c-2.326,1.32-3.761,1.236-5.223-0.583
		c-2.415-3-5.322-5.605-4.953-10.312c0.365-4.655-0.373-9.415-0.847-14.105c-0.193-1.93-0.763-3.888-1.522-5.68
		c-1.476-3.478-4.701-4.914-8.125-3.312c-3.42,1.603-6.56,3.802-9.852,5.688c-0.503,0.289-1.168,0.292-1.755,0.427
		c0.048-0.718-0.181-1.65,0.187-2.118c3.371-4.308,8.016-6.487,13.315-6.828c5.952-0.379,10.758,4.528,11.105,10.95
		c0.178,3.322,0.026,6.66,0.068,9.992c0.017,1.271,0.163,2.541,0.315,4.75c1.534-1.715,2.717-2.646,3.39-3.86
		c1.83-3.309,3.335-6.802,5.175-10.107c2.087-3.755,0.92-6.932-1.432-9.943c-0.661-0.845-1.634-1.444-2.101-2.814
		c0.866,0.23,1.896,0.233,2.566,0.725c3.999,2.951,5.805,7.042,6.06,11.961c0.117,2.24-0.763,4.657,1.112,7.052
		c2.105-1.31,3.25-3.085,3.513-5.458c0.783-7.042-2.075-12.904-6.102-18.342c-0.462-0.625-1.338-0.945-2.018-1.41
		c-0.689-0.475-2.333-0.447-1.32-1.845c0.266-0.36,1.853-0.171,2.523,0.255c1.655,1.055,3.132,2.39,5.275,4.082
		c-0.337-3.719-0.625-6.963-0.94-10.2c-0.079-0.82-0.42-1.639-0.353-2.435c0.123-1.422,0.255-3.952,0.751-4.044
		c2.321-0.433,1.357,2.057,2.095,3.159c1.822,2.726,3.263,5.708,5.08,8.438c0.423,0.638,1.72,0.911,2.637,0.97
		c6.293,0.398,11.565-5.99,10.093-12.33c-0.615-2.655-1.643-5.215-2.681-8.428c1.245,0.46,2.221,0.513,2.619,1.021
		c2.269,2.9,4.829,1.47,7.135,0.393c2.639-1.23,2.5-4.019,2.727-6.443c0.076-0.795-0.339-1.625-0.334-2.438
		c0.052-7.753-4.406-13.777-13.733-15.907c1.19-1.381,2.431-2.623,3.438-4.031c1.63-2.272,1.532-2.52-0.407-4.655
		c-4.085-4.489-7.605-4.549-13.812-1.45c-2.452,1.226-4.403,3.457-6.575,5.241c-1.672,1.375-3.33,2.765-5.125,4.254
		c3.501,1.471,6.228,2.573,8.921,3.758c2.655,1.167,4.056,3.25,4.232,6.15c-0.858-0.691-1.855-1.266-2.555-2.087
		c-4.775-5.633-12.18-6.61-18.225-2.458c-1.588,1.093-2.617,2.325-3.092,4.248c-0.75,3.02-1.545,6.078-2.793,8.912
		c-1.493,3.388,0.033,5.711,1.78,8.13c-0.699-5.055-0.062-5.885,4.859-5.882c1.486,0,3.051-0.055,4.438,0.375
		c1.362,0.424,3.607,0.728,2.207,3.285c-0.069,0.128,0.848,0.851,1.375,1.186c0.063,0.042,0.677-0.55,0.837-0.933
		c0.426-1.017,0.443-2.66,1.156-3.03c4.462-2.31,8.097-6.493,14.922-5.907c-1.85-1.743-2.942-2.645-3.865-3.695
		C197.675,102.432,197.512,101.63,197.212,100.95"/>
</g>
</svg>
