<?xml version="1.0" encoding="utf-8"?>
<!-- Generator: Adobe Illustrator 16.0.0, SVG Export Plug-In . SVG Version: 6.00 Build 0)  -->
<!DOCTYPE svg PUBLIC "-//W3C//DTD SVG 1.1//EN" "http://www.w3.org/Graphics/SVG/1.1/DTD/svg11.dtd">
<svg version="1.1" id="DO_NOT_PRINT" xmlns="http://www.w3.org/2000/svg" xmlns:xlink="http://www.w3.org/1999/xlink" x="0px"
	 y="0px" width="2565.666px" height="2610.333px" viewBox="0 0 2565.666 2610.333" enable-background="new 0 0 2565.666 2610.333"
	 xml:space="preserve">
<g>
	<path stroke="#FFFFFF" stroke-miterlimit="10" d="M2516.114,371.175c-25.364-5.5-82.727-17.561-122.813-25.792
		c-40.099-8.229-355.287-99.248-383.191-106.912c-27.93-7.692-112.172-34.56-137.552-41.134
		c-25.374-6.59-52.271-11.442-52.271-11.442c-6.607-1.35-11.368-2.343-13.281-2.796c-11.954-2.786-35.93-12.723-55.562-17.589
		c-19.625-4.88-129.424-29.293-152.836-37.95c-20.822-7.69-53.434-30.781-68.974-33.924c-0.14-0.454-0.279-0.979-0.419-1.322
		c-0.117-0.291-0.257-0.551-0.384-0.842c0,0-0.649-2.192-2.295-5.169c-4.099-5.734-9.736-4.053-15.76-5.94
		c-6.927-2.191-19.354-0.896-28.77-2.331c-9.441-1.419-20.758-6.519-33.568-6.808c-12.783-0.262-39.641,8.492-70.925,22.787
		c-31.258,14.294-100.077,27.79-128.684,29.748c-28.604,1.956-85.481-14.283-101.416-21.368
		c-31.144-13.797-52.463-34.214-52.463-34.214s-3.893-5.112-9.11-8.104c-5.244-2.966-18.665,1.17-33.771,6.134
		c-15.107,4.935-28.032,7.333-33.098,9.719c-5.078,2.397-7.526,2.825-11.251,4.533c-1.239,0.564-3.396,1.572-3.396,1.572
		l-3.904,2.191c0,0-0.942,1.462-1.837,3.254c-5.717,1.667-29.753,9.057-37.331,17.726c-8.626,9.884-35.265,31.815-47.207,34.006
		c-11.93,2.192-50.486,1.641-95.664,22.484c-45.178,20.842-131.975,60.873-170.034,74.023
		c-38.07,13.178-78.668,21.944-117.747,40.595c-39.08,18.624-160.887,85.535-196.93,97.595
		c-36.03,12.076-205.042,73.486-232.957,86.099c-27.917,12.613-67.009,36.185-78.669,42.222
		c-11.674,6.037-8.626,12.612-6.597,20.291c2.028,7.664,26.895,94.865,34,110.759c7.107,15.907,66.485,191.385,71.053,213.868
		s34.512,95.402,38.072,116.245c3.547,20.842,3.036,50.453,14.709,49.362c11.675-1.102,45.179-21.379,70.556-21.93
		c25.376-0.553,82.215-19.203,109.622-20.842c27.404-1.641,94.923-8.783,122.838-20.292c27.903-11.525,58.358-20.292,58.358-20.292
		s-5.577,72.369-5.577,93.225c0,32.891-13.203,206.727-12.693,247.309c0.51,40.583-4.057,339.447-4.568,382.205
		c-0.51,42.789-8.113,342.189-9.646,381.13c-1.518,38.913-3.035,372.873-5.574,404.136c-2.539,31.25-4.567,111.312-4.567,118.975
		c0,7.691,5.064,9.884,19.787,10.986c14.722,1.09,289.813,8.768,344.634,4.936c54.81-3.846,464.399-14.806,511.594-14.806
		c47.206,0,361.884,12.6,433.957,9.87c72.073-2.758,202.007-6.037,225.864-12.074c23.848-6.025,17.761-8.768,17.761-47.158
		c0-38.39-3.548-313.666-4.058-333.957c-0.51-20.277-13.204-541.225-13.204-582.909c0-41.672-5.065-320.231-7.616-365.209
		c-2.527-44.952-6.087-253.332-5.067-281.852c1.009-28.509,7.426-64.884,10.425-65.119c19.471-1.544,209.344,17.96,241.315,24.536
		c31.972,6.587,129.423,29.623,139.067,29.071c9.646-0.536,14.724-15.907,23.35-47.17c8.625-31.236,77.148-354.237,82.727-385.486
		c5.588-31.263,18.781-89.392,20.82-99.248C2535.404,390.901,2541.505,376.647,2516.114,371.175z"/>
	<g>
		<path stroke="#FFFFFF" stroke-miterlimit="10" d="M2516.114,371.175c-25.364-5.5-82.727-17.561-122.813-25.792
			c-40.099-8.229-355.287-99.248-383.191-106.912c-27.93-7.692-112.172-34.56-137.552-41.134
			c-25.374-6.59-52.271-11.442-52.271-11.442c-6.607-1.35-11.368-2.343-13.281-2.796c-11.954-2.786-35.93-12.723-55.562-17.589
			c-19.625-4.88-129.424-29.293-152.836-37.95c-20.822-7.69-53.434-30.781-68.974-33.924c-0.14-0.454-0.279-0.979-0.419-1.322
			c-0.117-0.291-0.257-0.551-0.384-0.842c0,0-0.649-2.192-2.295-5.169c-4.099-5.734-9.736-4.053-15.76-5.94
			c-6.927-2.191-19.354-0.896-28.77-2.331c-9.441-1.419-20.758-6.519-33.568-6.808c-12.783-0.262-39.641,8.492-70.925,22.787
			c-31.258,14.294-100.077,27.79-128.684,29.748c-28.604,1.956-85.481-14.283-101.416-21.368
			c-31.144-13.797-52.463-34.214-52.463-34.214s-3.893-5.112-9.11-8.104c-5.244-2.966-18.665,1.17-33.771,6.134
			c-15.107,4.935-28.032,7.333-33.098,9.719c-5.078,2.397-7.526,2.825-11.251,4.533c-1.239,0.564-3.396,1.572-3.396,1.572
			l-3.904,2.191c0,0-0.942,1.462-1.837,3.254c-5.717,1.667-29.753,9.057-37.331,17.726c-8.626,9.884-35.265,31.815-47.207,34.006
			c-11.93,2.192-50.486,1.641-95.664,22.484c-45.178,20.842-131.975,60.873-170.034,74.023
			c-38.07,13.178-78.668,21.944-117.747,40.595c-39.08,18.624-160.887,85.535-196.93,97.595
			c-36.03,12.076-205.042,73.486-232.957,86.099c-27.917,12.613-67.009,36.185-78.669,42.222
			c-11.674,6.037-8.626,12.612-6.597,20.291c2.028,7.664,26.895,94.865,34,110.759c7.107,15.907,66.485,191.385,71.053,213.868
			s34.512,95.402,38.072,116.245c3.547,20.842,3.036,50.453,14.709,49.362c11.675-1.102,45.179-21.379,70.556-21.93
			c25.376-0.553,82.215-19.203,109.622-20.842c27.404-1.641,94.923-8.783,122.838-20.292c27.903-11.525,58.358-20.292,58.358-20.292
			s-5.577,72.369-5.577,93.225c0,32.891-13.203,206.727-12.693,247.309c0.51,40.583-4.057,339.447-4.568,382.205
			c-0.51,42.789-8.113,342.189-9.646,381.13c-1.518,38.913-3.035,372.873-5.574,404.136c-2.539,31.25-4.567,111.312-4.567,118.975
			c0,7.691,5.064,9.884,19.787,10.986c14.722,1.09,289.813,8.768,344.634,4.936c54.81-3.846,464.399-14.806,511.594-14.806
			c47.206,0,361.884,12.6,433.957,9.87c72.073-2.758,202.007-6.037,225.864-12.074c23.848-6.025,17.761-8.768,17.761-47.158
			c0-38.39-3.548-313.666-4.058-333.957c-0.51-20.277-13.204-541.225-13.204-582.909c0-41.672-5.065-320.231-7.616-365.209
			c-2.527-44.952-6.087-253.332-5.067-281.852c1.009-28.509,7.426-64.884,10.425-65.119c19.471-1.544,209.344,17.96,241.315,24.536
			c31.972,6.587,129.423,29.623,139.067,29.071c9.646-0.536,14.724-15.907,23.35-47.17c8.625-31.236,77.148-354.237,82.727-385.486
			c5.588-31.263,18.781-89.392,20.82-99.248C2535.404,390.901,2541.505,376.647,2516.114,371.175z M475.79,941.458
			c-17.772,7.69-40.1,10.972-65.476,14.266c-25.377,3.28-46.698,2.191-64.457,6.037c-17.774,3.833-70.045,15.896-80.699,16.433
			c-10.654,0.565-18.781-2.191-35.022,4.396c-1.76,0.704-3.548,1.435-5.308,2.166c-0.179-2.235-0.409-5.019-0.675-8.149
			c-0.104-1.199-1.11-2.081-2.219-1.97c-1.124,0.111-1.928,1.185-1.826,2.384c0.333,3.764,0.586,6.975,0.765,9.374
			c-13.217,5.5-25.964,10.974-33.376,13.192c-9.135,2.744-13.191,7.127-15.22-10.972c-2.029-18.085-4.568-30.161-12.185-51.54
			c-7.616-21.381-26.384-74.589-32.483-98.16c-6.088-23.571-44.158-128.858-53.292-162.313
			c-9.136-33.455-40.611-120.091-45.675-139.279c-5.08-19.189-6.1-24.676,5.575-32.368c5.357-3.5,17.465-11.083,31.334-18.912
			c1.366,1.655,3.165,3.956,5.117,6.878c0.394,0.607,1.007,0.896,1.646,0.896c0.408,0,0.828-0.123,1.2-0.4
			c0.904-0.702,1.096-2.095,0.446-3.073c-1.775-2.646-3.368-4.713-4.721-6.383c15.437-8.573,32.469-17.091,44.667-20.663
			c24.369-7.14,219.766-78.973,236.008-85.546c16.243-6.576,114.699-52.105,145.678-70.744
			c21.206-12.777,41.005-24.799,66.88-34.958c2.079,3.034,7.77,8.189,9.249,11.372c2.03,4.398,30.443,82.804,34.002,97.058
			c3.548,14.266,15.732,77.332,18.271,118.451c2.539,41.133,1.52,84.457-1.021,139.83c-2.538,55.388-7.105,139.844-11.164,163.415
			c-4.07,23.587-24.354,83.343-56.839,104.75C522.475,928.306,493.548,933.78,475.79,941.458z M2009.09,945.854
			c-0.511,21.381,2.539,244.016,3.546,295.57c1.022,51.54,8.116,301.593,7.106,332.305c-1.02,30.698,12.185,452.934,12.185,501.192
			c0,48.261,2.028,82.253,2.028,116.259c0,33.994,4.059,172.169,4.059,203.998c0,18.183-0.166,55.388-0.307,86.154l-8.726-0.346
			c-1.443-0.096-2.068,0.911-2.12,2.096c-0.038,1.227,0.83,2.248,1.952,2.288l8.881,0.372c-0.104,21.051-0.18,38.405-0.18,43.215
			c0,12.076-0.51,17.562-14.212,19.755c-13.704,2.192-213.681,9.884-251.753,9.884c-38.06,0-334.975-9.334-408.567-10.421
			c-73.604-1.104-391.827,9.316-455.773,11.508c-63.96,2.192-222.305,6.576-301.486,2.192c-79.181-4.384-78.67-2.742-89.845-4.384
			c-11.165-1.652-16.229-1.116-13.704-25.224c0.856-8.023,1.468-20.775,1.965-36.033c2.106-0.015,5.194-0.043,9.073-0.043
			c1.122,0,2.026-0.992,2.026-2.191c0-1.215-0.904-2.191-2.026-2.191c-3.777,0-6.827,0.027-8.919,0.041
			c0.919-30.078,1.479-68.824,2.449-101.618c1.532-51.54,9.136-221.532,10.667-278.562c1.531-57.025-2.027-223.735-1.53-275.829
			c0.51-52.092,4.069-183.142,5.587-243.462c1.533-60.335,0.511-252.258,2.029-286.25c1.532-34.006,3.559-124.488,6.087-162.328
			c2.539-37.839,6.097-100.337,6.595-128.307c0.523-27.969,5.092-66.911,5.092-77.332c0-10.421,7.604-12.048,13.702-19.188
			c6.087-7.127,58.358-44.413,64.954-144.765c6.608-100.338,13.703-173.825,13.205-228.123
			c-0.511-54.284-12.694-138.189-22.851-174.376c-10.144-36.184-26.883-77.868-35.519-90.481c-4.135-6.037-6.624-9.152-8.384-10.656
			c10.856-4.107,22.76-7.883,36.298-11.289c48.215-12.048,56.329-11.498,95.421-32.339c39.081-20.842,124.856-62.513,159.878-70.742
			c35.023-8.215,50.243-1.089,63.946-7.127c13.703-6.037,16.241-16.997,26.397-23.571c10.143-6.59,24.865-22.498,34-24.689
			c6.955-1.667,11.828-4.273,13.768-5.43c-2.028,6.974,538.73,24.536,535.133,5.209l0.396,0.36c0,0,41.158,21.861,58.535,29.884
			c17.352,8.035,176.35,43.477,200.093,52.588c5.613,2.135,16.229,4.7,29.319,7.416l0.025-0.166
			c6.278,1.641,27.24,7.25,33.682,10.49c7.617,3.847,9.352,3.419,13.934,7.818c4.555,4.381,4.338,1.501,15.502,3.693
			c11.162,2.192,61.419,12.613,64.966,13.178c3.559,0.537,13.704,0,7.106,18.085c-6.596,18.1-20.3,82.253-20.809,98.16
			c-0.497,15.894-7.604,234.145-6.086,257.716c1.518,23.599,33.492,193.025,43.138,222.097
			c8.307,25.018,37.611,49.597,45.625,55.953C2012.969,895.912,2009.483,929.176,2009.09,945.854z M2483.133,603.114
			c-11.162,50.453-55.32,264.32-59.378,278.586c-4.069,14.24-6.595,23.571-9.647,30.147c-3.047,6.588-4.566,15.894-23.857,10.972
			c-3.928-1.02-14.287-3.225-28.423-6.133l1.604-8.932c0.219-1.199-0.494-2.343-1.604-2.578c-1.15-0.234-2.171,0.551-2.39,1.722
			l-1.592,8.988c-56.637-11.552-165.672-32.573-184.682-34.972c-14.519-1.82-63.997-5.101-102.973-9.208
			c-24.153-2.563-44.362-7.346-49.352-5.582c-6.418-1.862-19.635-6.383-23.424-12.944c-5.078-8.781,1.006-7.693,6.596-9.882
			c5.587-2.192,1.518-3.819-9.135-4.385c-10.654-0.539-13.703-4.935-18.781-20.277c-5.077-15.37-28.924-119.002-34.514-155.751
			c-5.574-36.738-9.146-68.538-7.615-116.798c1.532-48.247,6.099-177.118,6.099-195.755c0-18.65,7.106-71.293,14.2-91.046
			c7.107-19.726,5.588-27.419,15.22-26.3c9.646,1.103,37.065,13.715,52.796,15.342c15.732,1.653,267.483,82.252,300.974,88.29
			c33.503,6.037,97.961,20.842,123.848,25.227c15.21,2.577,31.106,6.105,43.496,9.014l-1.646,5.141
			c-0.371,1.145,0.19,2.399,1.262,2.786c0.217,0.096,0.434,0.123,0.649,0.123c0.856,0,1.633-0.565,1.927-1.474l1.812-5.625
			c6.813,1.612,12.26,2.977,15.438,3.75c9.134,2.192,20.809,7.113,19.789,14.252
			C2528.811,396.938,2494.298,552.678,2483.133,603.114z"/>
		<path stroke="#FFFFFF" stroke-miterlimit="10" d="M193.558,876.586c-0.523-1.074-1.747-1.459-2.756-0.922
			c-0.982,0.551-1.365,1.889-0.855,2.949c1.812,3.75,3.651,7.692,5.461,11.704c0.358,0.8,1.071,1.24,1.825,1.24
			c0.293,0,0.601-0.054,0.88-0.22c1.023-0.524,1.429-1.833,0.945-2.922C197.232,884.347,195.382,880.378,193.558,876.586z"/>
		<path stroke="#FFFFFF" stroke-miterlimit="10" d="M179.944,845.171c-0.357-1.145-1.505-1.792-2.563-1.391
			c-1.073,0.372-1.646,1.613-1.302,2.756c1.39,4.591,2.858,8.822,4.363,12.53c0.318,0.812,1.071,1.31,1.85,1.31
			c0.28,0,0.548-0.041,0.816-0.18c1.02-0.483,1.492-1.778,1.047-2.881C182.712,853.719,181.297,849.638,179.944,845.171z"/>
		<path stroke="#FFFFFF" stroke-miterlimit="10" d="M83.975,510.014c-0.409-1.13-1.582-1.681-2.628-1.241
			c-1.046,0.442-1.556,1.71-1.148,2.84c1.046,2.866,1.888,5.763,2.552,8.628l0.892,3.723c0.244,0.979,1.06,1.626,1.967,1.626
			c0.165,0,0.33-0.014,0.509-0.054c1.097-0.305,1.736-1.518,1.457-2.689l-0.882-3.667C85.991,516.148,85.072,513.06,83.975,510.014z
			"/>
		<path stroke="#FFFFFF" stroke-miterlimit="10" d="M100.727,575.806c-1.059,0.415-1.622,1.656-1.251,2.8
			c1.405,4.313,2.795,8.518,4.121,12.433c0.319,0.896,1.086,1.447,1.915,1.447c0.241,0,0.471-0.042,0.7-0.137
			c1.046-0.414,1.596-1.695,1.2-2.814c-1.34-3.914-2.716-8.077-4.095-12.376C102.946,576.014,101.785,575.407,100.727,575.806z"/>
		<path stroke="#FFFFFF" stroke-miterlimit="10" d="M219.255,941.499c-0.32-1.171-1.469-1.819-2.528-1.49
			c-1.071,0.359-1.696,1.572-1.376,2.73c0.65,2.37,1.146,4.439,1.44,6.161c0.346,1.972,0.676,4.149,0.982,6.425
			c0.141,1.102,1.009,1.875,2.006,1.875c0.101,0,0.203,0,0.303-0.014c1.098-0.18,1.865-1.31,1.711-2.495
			c-0.333-2.33-0.665-4.579-1.022-6.591C220.465,946.254,219.942,944.036,219.255,941.499z"/>
		<path stroke="#FFFFFF" stroke-miterlimit="10" d="M169.571,809.703c-1.096,0.234-1.799,1.393-1.582,2.592
			c0.817,4.3,1.686,8.642,2.628,12.93c0.217,0.994,1.061,1.681,1.979,1.681c0.152,0,0.304-0.012,0.458-0.069
			c1.098-0.262,1.775-1.461,1.506-2.632c-0.917-4.247-1.787-8.534-2.589-12.807C171.741,810.214,170.656,809.415,169.571,809.703z"
			/>
		<path stroke="#FFFFFF" stroke-miterlimit="10" d="M204.912,907.298c-1.033,0.482-1.492,1.778-1.047,2.896
			c1.659,4.134,3.242,8.201,4.685,12.089c0.33,0.854,1.097,1.364,1.887,1.364c0.256,0,0.511-0.041,0.766-0.151
			c1.033-0.455,1.544-1.738,1.109-2.854c-1.454-3.928-3.048-8.036-4.731-12.2C207.145,907.341,205.935,906.83,204.912,907.298z"/>
		<path stroke="#FFFFFF" stroke-miterlimit="10" d="M124.687,641.173c-1.046,0.429-1.569,1.696-1.186,2.826
			c1.353,3.916,2.782,8.063,4.224,12.365c0.293,0.882,1.083,1.435,1.9,1.435c0.243,0,0.473-0.042,0.703-0.139
			c1.046-0.414,1.594-1.667,1.212-2.812c-1.456-4.315-2.872-8.463-4.237-12.393C126.906,641.339,125.733,640.759,124.687,641.173z"
			/>
		<path stroke="#FFFFFF" stroke-miterlimit="10" d="M135.812,674.214c-1.046,0.414-1.594,1.669-1.237,2.812l4.031,12.435
			c0.28,0.908,1.072,1.461,1.913,1.461c0.23,0,0.446-0.029,0.665-0.111c1.058-0.386,1.62-1.641,1.25-2.786l-4.019-12.459
			C138.033,674.423,136.897,673.815,135.812,674.214z"/>
		<path stroke="#FFFFFF" stroke-miterlimit="10" d="M115.004,609.704c-0.486-1.09-1.71-1.572-2.706-1.048
			c-1.021,0.509-1.456,1.833-0.97,2.923l0.689,1.53c0.98,2.136,2.41,5.734,4.185,10.433c0.307,0.856,1.071,1.378,1.876,1.378
			c0.254,0,0.509-0.054,0.75-0.151c1.048-0.469,1.545-1.75,1.122-2.866c-1.809-4.838-3.292-8.56-4.312-10.766L115.004,609.704z"/>
		<path stroke="#FFFFFF" stroke-miterlimit="10" d="M166.203,776.938c-0.19-1.212-1.212-1.695-2.283-1.503
			c-1.111,0.208-1.812,1.669-1.621,2.868l1.952,12.351c0.165,1.062,1.02,1.821,1.989,1.821c0.117,0,0.231-0.029,0.346-0.042
			c1.11-0.206,1.85-1.351,1.659-2.537L166.203,776.938z"/>
		<path stroke="#FFFFFF" stroke-miterlimit="10" d="M156.354,740.946c-1.086,0.345-1.686,1.558-1.366,2.716
			c1.276,4.673,2.398,8.932,3.291,12.64c0.243,0.979,1.073,1.626,1.979,1.626c0.151,0,0.33-0.014,0.51-0.055
			c1.083-0.316,1.733-1.515,1.44-2.688c-0.917-3.748-2.041-8.05-3.342-12.75C158.561,741.263,157.414,740.574,156.354,740.946z"/>
		<path stroke="#FFFFFF" stroke-miterlimit="10" d="M146.415,707.464c-1.059,0.385-1.633,1.627-1.276,2.784
			c1.3,4.261,2.59,8.437,3.803,12.504c0.279,0.922,1.071,1.501,1.938,1.501c0.204,0,0.408-0.028,0.613-0.097
			c1.07-0.371,1.659-1.613,1.312-2.757c-1.223-4.065-2.488-8.284-3.815-12.557C148.635,707.698,147.486,707.078,146.415,707.464z"/>
		<path stroke="#FFFFFF" stroke-miterlimit="10" d="M90.686,542.408c-1.085,0.343-1.685,1.584-1.352,2.729
			c1.147,4.079,2.384,8.326,3.674,12.599c0.28,0.936,1.07,1.515,1.94,1.515c0.203,0,0.406-0.026,0.612-0.108
			c1.07-0.359,1.66-1.601,1.313-2.757c-1.289-4.261-2.499-8.477-3.662-12.544C92.881,542.682,91.732,542.034,90.686,542.408z"/>
		<path stroke="#FFFFFF" stroke-miterlimit="10" d="M805.421,2499.238l-12.21,0.316c-1.124,0.042-2.004,1.035-1.978,2.248
			c0.024,1.186,0.917,2.135,2.028,2.135h0.024l12.237-0.316c1.123-0.027,2.003-1.033,1.964-2.246
			C807.463,2500.162,806.786,2499.129,805.421,2499.238z"/>
		<path stroke="#FFFFFF" stroke-miterlimit="10" d="M935.559,2495.613l-12.197,0.386c-1.124,0.026-2.004,1.047-1.966,2.26
			c0.025,1.188,0.932,2.124,2.029,2.124h0.05l12.197-0.387c1.123-0.027,2.003-1.046,1.979-2.246
			C937.611,2496.537,936.822,2495.695,935.559,2495.613z"/>
		<path stroke="#FFFFFF" stroke-miterlimit="10" d="M870.489,2497.502l-12.198,0.345c-1.122,0.026-2.002,1.048-1.978,2.247
			c0.027,1.199,0.933,2.135,2.029,2.135c0,0,0.038,0,0.053,0l12.208-0.331c1.11-0.039,1.991-1.032,1.966-2.245
			C872.542,2498.438,871.676,2497.321,870.489,2497.502z"/>
		<path stroke="#FFFFFF" stroke-miterlimit="10" d="M1910.617,2476.396l-11.724-0.427c-1.047-0.083-2.054,0.91-2.106,2.109
			c-0.023,1.212,0.855,2.22,1.965,2.273l12.186,0.442c0.025,0,0.05,0,0.05,0c1.1,0,1.788-0.938,1.825-2.123
			C1912.853,2477.459,1911.74,2476.425,1910.617,2476.396z"/>
		<path stroke="#FFFFFF" stroke-miterlimit="10" d="M837.956,2498.383l-12.198,0.317c-1.123,0.029-2.017,1.034-1.99,2.261
			c0.025,1.186,0.943,2.123,2.028,2.123h0.037l12.223-0.315c1.122-0.03,2.005-1.048,1.979-2.26
			C839.996,2499.307,838.988,2498.398,837.956,2498.383z"/>
		<path stroke="#FFFFFF" stroke-miterlimit="10" d="M903.036,2496.605l-12.21,0.345c-1.122,0.026-2.016,1.034-1.979,2.246
			c0.026,1.187,0.932,2.136,2.029,2.136h0.039l12.223-0.343c1.122-0.028,2.002-1.046,1.978-2.26
			C905.09,2497.529,904.301,2496.66,903.036,2496.605z"/>
		<path stroke="#FFFFFF" stroke-miterlimit="10" d="M1098.102,2486.944c-4.465,0.259-8.548,0.522-12.224,0.81
			c-1.122,0.083-1.962,1.131-1.887,2.332c0.078,1.157,0.97,2.039,2.017,2.039c0.05,0,0.1,0,0.153,0
			c3.661-0.275,7.717-0.537,12.158-0.799c1.122-0.055,1.978-1.088,1.925-2.301
			C1100.168,2487.825,1099.353,2486.957,1098.102,2486.944z"/>
		<path stroke="#FFFFFF" stroke-miterlimit="10" d="M1130.649,2485.454l-12.198,0.496c-1.134,0.041-2.002,1.062-1.952,2.261
			c0.038,1.199,0.944,2.124,2.017,2.124c0.038,0,0.063,0,0.09,0l12.197-0.498c1.109-0.055,2.003-1.061,1.952-2.274
			C1132.703,2486.363,1131.732,2485.386,1130.649,2485.454z"/>
		<path stroke="#FFFFFF" stroke-miterlimit="10" d="M1000.613,2493.351l-12.196,0.47c-1.123,0.057-2.003,1.062-1.952,2.274
			c0.037,1.187,0.931,2.108,2.028,2.108c0,0,0.037,0,0.063,0l12.197-0.467c1.124-0.055,1.99-1.076,1.965-2.275
			C1002.667,2494.248,1001.571,2493.326,1000.613,2493.351z"/>
		<path stroke="#FFFFFF" stroke-miterlimit="10" d="M1065.581,2489.77c-3.458,0.316-7.526,0.633-12.147,0.937
			c-1.123,0.082-1.977,1.117-1.9,2.329c0.063,1.157,0.957,2.055,2.017,2.055c0.049,0,0.09,0,0.126,0
			c4.646-0.316,8.766-0.634,12.248-0.953c1.123-0.109,1.94-1.156,1.862-2.369C1067.687,2490.569,1066.678,2489.645,1065.581,2489.77
			z"/>
		<path stroke="#FFFFFF" stroke-miterlimit="10" d="M1033.123,2491.892l-12.185,0.578c-1.123,0.068-1.991,1.09-1.938,2.288
			c0.036,1.172,0.942,2.096,2.028,2.096c0.023,0,0.063,0,0.063,0l12.223-0.578c1.121-0.068,1.99-1.103,1.938-2.302
			C1035.201,2492.761,1034.436,2491.988,1033.123,2491.892z"/>
		<path stroke="#FFFFFF" stroke-miterlimit="10" d="M675.412,2501.512c-4.071-0.164-8.116-0.332-12.147-0.537
			c-1.225-0.096-2.065,0.87-2.119,2.083c-0.05,1.198,0.806,2.231,1.929,2.303c4.043,0.205,8.114,0.371,12.194,0.536
			c0.027,0,0.04,0,0.078,0c1.085,0,1.978-0.936,2.028-2.123C677.401,2502.561,676.532,2501.54,675.412,2501.512z"/>
		<path stroke="#FFFFFF" stroke-miterlimit="10" d="M545.77,2492.182c-4.233-0.111-8.33-0.181-12.221-0.235h-0.026
			c-1.109,0-2.016,0.952-2.029,2.165c-0.012,1.212,0.88,2.205,2.017,2.217c3.865,0.057,7.937,0.125,12.16,0.234h0.051
			c1.083,0,2.002-0.949,2.028-2.135C547.762,2493.215,546.88,2492.207,545.77,2492.182z"/>
		<path stroke="#FFFFFF" stroke-miterlimit="10" d="M1943.599,2477.625l-12.208-0.469c-1.176-0.058-2.056,0.908-2.092,2.121
			c-0.041,1.201,0.84,2.22,1.962,2.26l12.185,0.471c0.026,0,0.052,0,0.078,0c1.084,0,1.99-0.938,2.028-2.122
			C1945.59,2478.687,1944.711,2477.664,1943.599,2477.625z"/>
		<path stroke="#FFFFFF" stroke-miterlimit="10" d="M578.317,2493.56c-4.044-0.262-8.14-0.481-12.222-0.661
			c-1.161,0.068-2.055,0.896-2.118,2.094c-0.038,1.215,0.83,2.248,1.952,2.289c4.057,0.178,8.127,0.4,12.133,0.66
			c0.052,0,0.09,0,0.129,0c1.07,0,1.963-0.896,2.026-2.053C580.283,2494.662,579.441,2493.629,578.317,2493.56z"/>
		<path stroke="#FFFFFF" stroke-miterlimit="10" d="M772.859,2500.094l-12.221,0.346c-1.124,0.025-2.004,1.047-1.966,2.246
			c0.026,1.198,0.919,2.136,2.016,2.136c0.025,0,0.04,0,0.064,0l12.21-0.343c1.122-0.029,2.017-1.051,1.978-2.25
			C774.916,2501.016,773.958,2500.094,772.859,2500.094z"/>
		<path stroke="#FFFFFF" stroke-miterlimit="10" d="M1996.432,2479.664c-1.095,0.027-2.064,0.909-2.104,2.122
			c-0.037,1.201,0.829,2.222,1.953,2.261l12.209,0.496h0.064c1.097,0,2.003-0.922,2.04-2.108c0.039-1.213-0.841-2.22-1.964-2.274
			L1996.432,2479.664z"/>
		<path stroke="#FFFFFF" stroke-miterlimit="10" d="M1976.108,2478.865l-12.196-0.484c-1.493-0.094-2.068,0.91-2.106,2.109
			c-0.026,1.228,0.843,2.249,1.965,2.273l12.198,0.483c0.012,0,0.05,0,0.063,0c1.097,0,1.989-0.922,2.029-2.12
			C1978.11,2479.926,1977.23,2478.907,1976.108,2478.865z"/>
		<path stroke="#FFFFFF" stroke-miterlimit="10" d="M707.816,2501.996h-0.012l-5.575,0.014l-6.569-0.042c-0.015,0-0.015,0-0.015,0
			c-1.122,0-2.028,0.978-2.042,2.179c-0.012,1.214,0.88,2.205,2.003,2.205l6.623,0.041l5.602-0.014
			c1.122-0.027,2.028-1.006,2.015-2.221C709.833,2502.959,708.927,2501.996,707.816,2501.996z"/>
		<path stroke="#FFFFFF" stroke-miterlimit="10" d="M740.275,2501.059c-3.955,0.121-7.273,0.248-9.877,0.357l-2.358,0.096
			c-1.122,0.043-2.002,1.062-1.953,2.274c0.039,1.187,0.944,2.11,2.03,2.11c0,0,0.037,0,0.062,0l2.4-0.096
			c2.575-0.113,5.88-0.235,9.822-0.359c1.122-0.055,2.004-1.046,1.951-2.273C742.33,2501.954,741.181,2501.03,740.275,2501.059z"/>
		<path stroke="#FFFFFF" stroke-miterlimit="10" d="M1163.194,2484.353l-12.208,0.385c-1.122,0.027-2.002,1.047-1.978,2.26
			c0.038,1.187,0.945,2.124,2.041,2.124h0.038l12.211-0.387c1.122-0.026,2.002-1.02,1.965-2.233
			C1165.237,2485.274,1164.383,2484.406,1163.194,2484.353z"/>
		<path stroke="#FFFFFF" stroke-miterlimit="10" d="M610.75,2496.619c-2.652-0.291-5.294-0.606-7.909-0.924l-4.198-0.455
			c-1.021-0.082-2.105,0.746-2.22,1.971c-0.116,1.201,0.701,2.261,1.823,2.4l4.146,0.454c2.63,0.317,5.283,0.634,7.95,0.924
			c0.076,0.016,0.153,0.016,0.217,0.016c1.02,0,1.899-0.843,2.002-1.974C612.676,2497.834,611.872,2496.744,610.75,2496.619z"/>
		<path stroke="#FFFFFF" stroke-miterlimit="10" d="M643.054,2499.68c-4.069-0.316-8.112-0.648-12.132-1.007
			c-0.995-0.166-2.095,0.788-2.182,2.001c-0.09,1.197,0.727,2.26,1.85,2.369c4.032,0.359,8.089,0.69,12.171,1.008
			c0.04,0,0.09,0,0.141,0c1.072,0,1.952-0.869,2.029-2.027C645.007,2500.81,644.177,2499.762,643.054,2499.68z"/>
		<path stroke="#FFFFFF" stroke-miterlimit="10" d="M968.08,2494.551l-12.185,0.414c-1.123,0.057-2.004,1.048-1.979,2.261
			c0.04,1.187,0.944,2.122,2.028,2.122c0.026,0,0.051,0,0.078,0l12.195-0.413c1.124-0.04,2.004-1.062,1.967-2.274
			C970.133,2495.461,969.073,2494.468,968.08,2494.551z"/>
		<path stroke="#FFFFFF" stroke-miterlimit="10" d="M1683.452,2473.834l-11.788,0.139l-0.383,2.204l0.419,2.192l11.79-0.14
			c1.123,0,2.017-1.005,2.004-2.218C1685.494,2474.812,1684.664,2473.777,1683.452,2473.834z"/>
		<path stroke="#FFFFFF" stroke-miterlimit="10" d="M1650.956,2474.219h-0.013l-12.044,0.166l-0.127,2.191l0.19,2.193l12.018-0.167
			c1.122-0.013,2.019-0.993,2.004-2.206C1652.973,2475.184,1652.065,2474.219,1650.956,2474.219z"/>
		<path stroke="#FFFFFF" stroke-miterlimit="10" d="M1618.422,2474.646l-12.196,0.192c-1.124,0.014-2.017,1.007-2.004,2.221
			c0.013,1.199,0.919,2.163,2.029,2.163h0.023l12.185-0.193c1.122-0.013,2.028-0.992,2.005-2.219
			C1620.451,2475.598,1619.289,2474.385,1618.422,2474.646z"/>
		<path stroke="#FFFFFF" stroke-miterlimit="10" d="M1585.914,2475.156l-12.197,0.207c-1.11,0.015-2.017,1.021-1.992,2.22
			c0.014,1.2,0.919,2.165,2.028,2.165h0.039l12.186-0.208c1.122-0.015,2.016-1.02,2.002-2.219
			C1587.954,2476.108,1586.883,2474.979,1585.914,2475.156z"/>
		<path stroke="#FFFFFF" stroke-miterlimit="10" d="M1715.373,2473.543h-0.011l-11.587,0.11c-1.122,0-2.026,0.993-2.016,2.206
			c0.013,1.2,0.919,2.178,2.042,2.178h0.014l12.185-0.109c1.122,0,1.723-0.994,1.709-2.219
			C1717.696,2474.508,1716.496,2473.543,1715.373,2473.543z"/>
		<path stroke="#FFFFFF" stroke-miterlimit="10" d="M1846.048,2474.191l-12.21-0.371c-1.084,0.205-2.041,0.936-2.066,2.149
			c-0.04,1.2,0.842,2.206,1.965,2.234l12.195,0.372h0.053c1.096,0,2.002-0.938,2.04-2.137
			C1848.05,2475.227,1847.171,2474.219,1846.048,2474.191z"/>
		<path stroke="#FFFFFF" stroke-miterlimit="10" d="M1748.483,2473.338L1748.483,2473.338l-11.598,0.055l-0.587,2.191l0.611,2.191
			l11.584-0.054c1.123,0,2.029-0.993,2.018-2.191C1750.512,2474.316,1749.606,2473.338,1748.483,2473.338z"/>
		<path stroke="#FFFFFF" stroke-miterlimit="10" d="M1878.582,2475.253l-12.196-0.414c-1.251-0.041-2.057,0.91-2.106,2.11
			c-0.026,1.227,0.855,2.233,1.965,2.273l12.197,0.415c0.025,0,0.051,0,0.077,0c1.084,0,1.99-0.937,2.015-2.124
			C1880.584,2476.301,1879.692,2475.28,1878.582,2475.253z"/>
		<path stroke="#FFFFFF" stroke-miterlimit="10" d="M1553.403,2475.709l-12.185,0.234c-1.122,0.015-2.015,1.006-1.989,2.232
			c0.013,1.184,0.919,2.15,2.028,2.15h0.038l12.184-0.221c1.123-0.027,2.016-1.02,1.993-2.232
			C1555.446,2476.646,1554.477,2475.887,1553.403,2475.709z"/>
		<path stroke="#FFFFFF" stroke-miterlimit="10" d="M1813.512,2473.447l-12.183-0.109h-0.013c-1.123,0-2.03,0.979-2.03,2.192
			c-0.012,1.198,0.894,2.191,2.017,2.191l12.172,0.109h0.025c1.109,0,2.016-0.98,2.028-2.179
			C1815.541,2474.439,1814.636,2473.447,1813.512,2473.447z"/>
		<path stroke="#FFFFFF" stroke-miterlimit="10" d="M1781.005,2473.27h-12.185c-1.122,0-2.041,0.979-2.028,2.203
			c0,1.213,0.906,2.182,2.028,2.182h0.011h12.174c1.136,0,2.028-0.98,2.028-2.193
			C1783.033,2474.234,1782.141,2473.27,1781.005,2473.27z"/>
		<path stroke="#FFFFFF" stroke-miterlimit="10" d="M1390.847,2479.417l-12.196,0.274c-1.137,0.027-2.017,1.021-2.004,2.233
			c0.026,1.186,0.932,2.151,2.041,2.151h0.026l12.224-0.277c1.121-0.012,2.002-1.035,1.977-2.233
			C1392.902,2480.353,1391.894,2479.512,1390.847,2479.417z"/>
		<path stroke="#FFFFFF" stroke-miterlimit="10" d="M1325.791,2480.754l-12.197,0.232c-1.109,0.029-2.003,1.021-1.99,2.235
			c0.026,1.2,0.931,2.148,2.028,2.148h0.039l12.196-0.232c1.123-0.015,2.016-1.02,1.992-2.233
			C1327.833,2481.691,1327.08,2480.712,1325.791,2480.754z"/>
		<path stroke="#FFFFFF" stroke-miterlimit="10" d="M1260.762,2482.021l-12.186,0.246c-1.122,0.044-2.015,1.037-1.99,2.25
			c0.025,1.185,0.919,2.136,2.028,2.136h0.026l12.185-0.248c1.123-0.014,2.015-1.02,2.003-2.219
			C1262.801,2482.959,1261.998,2481.925,1260.762,2482.021z"/>
		<path stroke="#FFFFFF" stroke-miterlimit="10" d="M1228.24,2482.726l-12.198,0.262c-1.122,0.013-2.015,1.033-1.978,2.246
			c0.013,1.185,0.919,2.136,2.029,2.136c0.012,0,0.025,0,0.025,0l12.197-0.262c1.122-0.041,2.016-1.02,1.989-2.247
			C1230.293,2483.661,1229.502,2483.041,1228.24,2482.726z"/>
		<path stroke="#FFFFFF" stroke-miterlimit="10" d="M1520.922,2476.314h-0.027l-12.196,0.234c-1.123,0.043-2.016,1.034-1.991,2.246
			c0.024,1.188,0.932,2.152,2.029,2.152h0.038l12.197-0.248c1.123-0.028,2.002-1.035,1.989-2.235
			C1522.937,2477.266,1522.031,2476.314,1520.922,2476.314z"/>
		<path stroke="#FFFFFF" stroke-miterlimit="10" d="M1358.312,2480.119l-12.184,0.233c-1.124,0.029-2.017,1.021-1.991,2.233
			c0.014,1.201,0.92,2.151,2.016,2.151c0.026,0,0.026,0,0.026,0l12.223-0.233c1.123-0.043,2.003-1.035,1.988-2.246
			C1360.367,2481.056,1359.486,2480.119,1358.312,2480.119z"/>
		<path stroke="#FFFFFF" stroke-miterlimit="10" d="M1293.27,2481.388l-12.197,0.233c-1.109,0.028-2.004,1.021-1.989,2.248
			c0.024,1.186,0.93,2.135,2.028,2.135c0.024,0,0.024,0,0.024,0l12.212-0.233c1.122-0.013,2.014-1.019,1.987-2.218
			C1295.324,2482.325,1294.406,2481.318,1293.27,2481.388z"/>
		<path stroke="#FFFFFF" stroke-miterlimit="10" d="M1455.865,2477.746l-12.197,0.307c-1.109,0.026-2.003,1.033-1.979,2.231
			c0.026,1.199,0.933,2.15,2.029,2.15h0.051l12.186-0.304c1.122-0.028,2.003-1.032,1.989-2.245
			C1457.918,2478.687,1456.988,2477.693,1455.865,2477.746z"/>
		<path stroke="#FFFFFF" stroke-miterlimit="10" d="M1195.719,2483.469l-12.198,0.318c-1.109,0.025-2.004,1.033-1.979,2.232
			c0.026,1.199,0.933,2.148,2.028,2.148h0.052l12.196-0.316c1.11-0.015,2.004-1.032,1.98-2.246
			C1197.771,2484.406,1196.892,2483.481,1195.719,2483.469z"/>
		<path stroke="#FFFFFF" stroke-miterlimit="10" d="M1423.407,2478.603h-0.052l-12.195,0.332c-1.111,0.042-2.005,1.034-1.979,2.246
			c0.026,1.187,0.933,2.136,2.028,2.136h0.052l12.197-0.329c1.11-0.028,2.003-1.034,1.979-2.233
			C1425.397,2479.554,1424.505,2478.603,1423.407,2478.603z"/>
		<path stroke="#FFFFFF" stroke-miterlimit="10" d="M1488.387,2476.99l-12.197,0.26c-1.123,0.044-2.016,1.037-1.989,2.25
			c0.024,1.185,0.931,2.135,2.026,2.135c0,0,0.039,0,0.053,0l12.197-0.262c1.109-0.027,2.003-1.021,1.977-2.246
			C1490.429,2477.928,1489.662,2477.099,1488.387,2476.99z"/>
		<path stroke="#FFFFFF" stroke-miterlimit="10" d="M2449.694,530.717c-1.072-0.289-2.222,0.345-2.515,1.504l-3.406,12.639
			c-0.319,1.173,0.307,2.386,1.377,2.731c0.192,0.054,0.383,0.083,0.575,0.083c0.881,0,1.684-0.622,1.951-1.572l3.396-12.654
			C2451.391,532.261,2450.764,531.062,2449.694,530.717z"/>
		<path stroke="#FFFFFF" stroke-miterlimit="10" d="M2440.572,564.449c-1.047-0.331-2.195,0.331-2.514,1.488l-3.434,12.655
			c-0.319,1.159,0.294,2.384,1.365,2.715c0.204,0.057,0.384,0.098,0.587,0.098c0.868,0,1.684-0.62,1.94-1.571l3.43-12.656
			C2442.268,566.007,2441.655,564.794,2440.572,564.449z"/>
		<path stroke="#FFFFFF" stroke-miterlimit="10" d="M2458.598,496.919c-1.006-0.317-2.191,0.356-2.499,1.516l-3.305,12.682
			c-0.294,1.173,0.318,2.385,1.403,2.702c0.191,0.069,0.369,0.095,0.547,0.095c0.895,0,1.711-0.634,1.967-1.599l3.305-12.696
			C2460.321,498.449,2459.684,497.235,2458.598,496.919z"/>
		<path stroke="#FFFFFF" stroke-miterlimit="10" d="M2466.65,462.844c-1.137-0.305-2.195,0.426-2.462,1.613
			c-0.435,1.901-0.831,3.762-1.213,5.595c-0.446,2.123-0.983,4.535-1.62,7.21c-0.269,1.173,0.38,2.357,1.479,2.661
			c0.168,0.054,0.331,0.069,0.499,0.069c0.905,0,1.733-0.675,1.964-1.653c0.638-2.717,1.187-5.169,1.633-7.307
			c0.385-1.819,0.78-3.653,1.199-5.527C2468.396,464.317,2467.733,463.132,2466.65,462.844z"/>
		<path stroke="#FFFFFF" stroke-miterlimit="10" d="M2485.022,395.465c-1.061-0.402-2.207,0.247-2.553,1.405
			c-1.187,3.928-2.437,8.16-3.738,12.559c-0.331,1.156,0.256,2.397,1.314,2.757c0.204,0.068,0.421,0.095,0.624,0.095
			c0.855,0,1.659-0.578,1.929-1.516c1.288-4.41,2.551-8.615,3.738-12.544C2486.681,397.078,2486.094,395.836,2485.022,395.465z"/>
		<path stroke="#FFFFFF" stroke-miterlimit="10" d="M2431.41,598.179c-1.096-0.343-2.195,0.331-2.513,1.489l-3.421,12.641
			c-0.317,1.157,0.294,2.37,1.365,2.715c0.193,0.068,0.384,0.083,0.574,0.083c0.881,0,1.698-0.62,1.953-1.573l3.42-12.639
			C2433.105,599.723,2432.496,598.51,2431.41,598.179z"/>
		<path stroke="#FFFFFF" stroke-miterlimit="10" d="M2475.287,428.975c-1.123-0.345-2.207,0.317-2.526,1.487
			c-1.16,4.205-2.296,8.451-3.395,12.682c-0.304,1.187,0.331,2.385,1.404,2.703c0.178,0.068,0.37,0.083,0.548,0.083
			c0.894,0,1.709-0.62,1.952-1.585c1.1-4.233,2.222-8.451,3.383-12.627C2476.972,430.545,2476.358,429.332,2475.287,428.975z"/>
		<path stroke="#FFFFFF" stroke-miterlimit="10" d="M2381.511,801.931c-1.146-0.263-2.182,0.494-2.411,1.667l-2.576,12.887
			c-0.23,1.202,0.459,2.358,1.556,2.606c0.153,0.028,0.293,0.054,0.433,0.054c0.934,0,1.775-0.703,1.979-1.736l2.578-12.875
			C2383.297,803.35,2382.609,802.191,2381.511,801.931z"/>
		<path stroke="#FFFFFF" stroke-miterlimit="10" d="M2374.711,836.294c-1.136-0.249-2.169,0.51-2.387,1.695l-2.475,12.903
			c-0.229,1.199,0.474,2.355,1.569,2.59c0.142,0.029,0.282,0.042,0.422,0.042c0.943,0,1.786-0.702,1.976-1.738l2.477-12.901
			C2376.511,837.701,2375.82,836.528,2374.711,836.294z"/>
		<path stroke="#FFFFFF" stroke-miterlimit="10" d="M2368.167,870.7c-1.1-0.234-2.156,0.539-2.387,1.737l-2.385,12.917
			c-0.23,1.184,0.483,2.343,1.58,2.591c0.142,0.014,0.269,0.028,0.409,0.028c0.944,0,1.799-0.718,1.99-1.766l2.398-12.916
			C2369.99,872.107,2369.277,870.948,2368.167,870.7z"/>
		<path stroke="#FFFFFF" stroke-miterlimit="10" d="M2422.287,631.896c-1.096-0.316-2.193,0.331-2.512,1.49l-3.395,12.667
			c-0.319,1.158,0.319,2.384,1.39,2.715c0.18,0.042,0.382,0.083,0.563,0.083c0.879,0,1.683-0.62,1.953-1.599l3.38-12.642
			C2423.984,633.44,2423.36,632.227,2422.287,631.896z"/>
		<path stroke="#FFFFFF" stroke-miterlimit="10" d="M2388.594,767.633c-1.124-0.289-2.183,0.468-2.438,1.641l-2.691,12.874
			c-0.244,1.173,0.446,2.343,1.544,2.62c0.154,0.029,0.293,0.041,0.447,0.041c0.931,0,1.772-0.674,1.977-1.708l2.679-12.835
			C2390.367,769.081,2389.678,767.909,2388.594,767.633z"/>
		<path stroke="#FFFFFF" stroke-miterlimit="10" d="M2396.146,733.448c-1.059-0.275-2.182,0.442-2.462,1.598
			c-0.753,3.268-1.469,6.411-2.145,9.402l-0.767,3.433c-0.254,1.186,0.422,2.37,1.518,2.646c0.154,0.041,0.308,0.055,0.46,0.055
			c0.92,0,1.76-0.689,1.979-1.682l0.752-3.405c0.676-3.005,1.391-6.133,2.144-9.373
			C2397.894,734.951,2397.23,733.75,2396.146,733.448z"/>
		<path stroke="#FFFFFF" stroke-miterlimit="10" d="M2413.268,665.655c-1.059-0.317-2.193,0.345-2.514,1.504l-3.305,12.696
			c-0.305,1.156,0.318,2.369,1.406,2.7c0.176,0.069,0.367,0.083,0.545,0.083c0.894,0,1.709-0.634,1.953-1.584l3.318-12.696
			C2414.979,667.199,2414.352,665.972,2413.268,665.655z"/>
		<path stroke="#FFFFFF" stroke-miterlimit="10" d="M2404.503,699.495c-1.122-0.288-2.209,0.374-2.501,1.531l-3.189,12.751
			c-0.279,1.157,0.356,2.355,1.441,2.675c0.178,0.054,0.358,0.069,0.523,0.069c0.894,0,1.723-0.633,1.963-1.627l3.18-12.696
			C2406.213,701.014,2405.574,699.812,2404.503,699.495z"/>
	</g>
</g>
<rect x="1152.209" y="529.039" stroke="#FFFFFF" stroke-miterlimit="10" width="270" height="224"/>
<g>
	<path fill-rule="evenodd" clip-rule="evenodd" fill="#FFFFFF" d="M1373.509,677.989c-0.6-7.233-6.316-7.3-17.149-0.2l-8.25-4.25
		c15.899-7.933,26.633-7.967,32.199-0.1c4.334,5.8,2.934,11.133-4.199,16c14.333,9.7,15.416,17.4,3.25,23.1
		c-10.9,4.067-23.566,1.95-38-6.35l10-4.25c16.5,7.667,25,8.5,25.5,2.5s-5.584-10.033-18.25-12.1v-4.65
		C1368.942,685.956,1373.909,682.722,1373.509,677.989z M1325.509,667.789c-2.134,16.433-2.566,31.933-1.3,46.5h-12.7
		c1.866-14.833,1.866-30.333,0-46.5H1325.509z M1222.909,671.139c4.066,3.833,5,7.767,2.8,11.8
		c-4.066,5.767-11.65,14.117-22.75,25.05h31.5l-7.8,6.65h-37.95c8.834-9.833,16.883-19.9,24.15-30.2
		c3.399-3.833,3.916-6.933,1.55-9.3c-3.134-2.6-8.616-0.6-16.45,6l-5.85-4.9c3.8-2.767,8.866-5.267,15.199-7.5
		C1213.643,666.506,1218.842,667.306,1222.909,671.139z M1285.009,674.289c4.434,4.633,6.65,10.217,6.65,16.75
		s-2.217,12.1-6.65,16.7c-4.433,4.633-9.783,6.95-16.05,6.95s-11.617-2.316-16.05-6.95c-4.4-4.6-6.601-10.167-6.601-16.7
		s2.2-12.117,6.601-16.75c4.433-4.633,9.783-6.95,16.05-6.95S1280.576,669.656,1285.009,674.289z M1254.184,692.039
		c0.212,3.87,1.654,7.186,4.325,9.95c2.866,3.033,6.351,4.55,10.45,4.55s7.6-1.517,10.5-4.55c2.672-2.764,4.113-6.081,4.325-9.95
		c0.017-0.328,0.024-0.661,0.024-1c0-4.267-1.449-7.9-4.35-10.9c-2.9-3.033-6.4-4.55-10.5-4.55s-7.584,1.517-10.45,4.55
		c-2.899,3-4.35,6.633-4.35,10.9C1254.159,691.378,1254.168,691.711,1254.184,692.039c-0.016-0.328-0.024-0.661-0.024-1
		c0-4.267,1.45-7.9,4.35-10.9c2.866-3.033,6.351-4.55,10.45-4.55s7.6,1.517,10.5,4.55c2.9,3,4.35,6.633,4.35,10.9
		c0,0.339-0.008,0.672-0.024,1c-0.212-3.836-1.653-7.136-4.325-9.9c-2.9-3.033-6.4-4.55-10.5-4.55s-7.584,1.517-10.45,4.55
		C1255.838,684.903,1254.396,688.203,1254.184,692.039z"/>
	
		<path fill-rule="evenodd" clip-rule="evenodd" fill="none" stroke="#FFFFFF" stroke-width="6" stroke-linecap="round" stroke-linejoin="round" stroke-miterlimit="3" d="
		M1373.509,677.989c0.4,4.733-4.566,7.966-14.899,9.7v4.65c12.666,2.067,18.75,6.1,18.25,12.1s-9,5.167-25.5-2.5l-10,4.25
		c14.434,8.3,27.1,10.417,38,6.35c12.166-5.7,11.083-13.4-3.25-23.1c7.133-4.867,8.533-10.2,4.199-16
		c-5.566-7.867-16.3-7.833-32.199,0.1l8.25,4.25C1367.192,670.689,1372.909,670.756,1373.509,677.989z M1325.509,667.789
		c-2.134,16.433-2.566,31.933-1.3,46.5h-12.7c1.866-14.833,1.866-30.333,0-46.5H1325.509z M1222.909,671.139
		c4.066,3.833,5,7.767,2.8,11.8c-4.066,5.767-11.65,14.117-22.75,25.05h31.5l-7.8,6.65h-37.95c8.834-9.833,16.883-19.9,24.15-30.2
		c3.399-3.833,3.916-6.933,1.55-9.3c-3.134-2.6-8.616-0.6-16.45,6l-5.85-4.9c3.8-2.767,8.866-5.267,15.199-7.5
		C1213.643,666.506,1218.842,667.306,1222.909,671.139z M1285.009,674.289c4.434,4.633,6.65,10.217,6.65,16.75
		s-2.217,12.1-6.65,16.7c-4.433,4.633-9.783,6.95-16.05,6.95s-11.617-2.316-16.05-6.95c-4.4-4.6-6.601-10.167-6.601-16.7
		s2.2-12.117,6.601-16.75c4.433-4.633,9.783-6.95,16.05-6.95S1280.576,669.656,1285.009,674.289z M1283.784,692.039
		c0.017-0.328,0.024-0.661,0.024-1c0-4.267-1.449-7.9-4.35-10.9c-2.9-3.033-6.4-4.55-10.5-4.55s-7.584,1.517-10.45,4.55
		c-2.899,3-4.35,6.633-4.35,10.9c0,0.339,0.009,0.672,0.024,1 M1283.784,692.039c-0.212,3.87-1.653,7.186-4.325,9.95
		c-2.9,3.033-6.4,4.55-10.5,4.55s-7.584-1.517-10.45-4.55c-2.671-2.764-4.113-6.081-4.325-9.95"/>
</g>
<g>
	<path fill-rule="evenodd" clip-rule="evenodd" fill="#FFFFFF" d="M1392.509,569.289c-14.3-1.033-30.966-1.567-50-1.6
		c-13.566,0.067-27,0.6-40.3,1.6c0.1-3-1.017-6-3.35-9h43.449c-0.133-2.533-0.266-5.067-0.399-7.6h8.5
		c-0.101,2.567-0.184,5.1-0.25,7.6h42.95C1392.375,562.656,1392.176,565.656,1392.509,569.289z M1385.709,616.789
		c-12.633,1.267-25.133,1.983-37.5,2.15c-3,0.033-5.983,0.05-8.95,0.05c-11.167-0.133-22.233-0.717-33.2-1.75
		c2.967-13.7,3.301-27.034,1-40c23.066-3.434,49.783-4.45,80.15-3.05c-1.066,8.533-1.684,14.9-1.85,19.1
		c-0.033,1.133-0.033,2.267,0,3.4C1385.426,601.322,1385.543,608.022,1385.709,616.789z M1315.709,609.589
		c19.566,2.5,41.084,2.5,64.55,0v-27.5c-21.5-1.133-43.017-0.966-64.55,0.5V609.589z M1326.709,628.089
		c-6.166,9.333-13.5,17.5-22,24.5l-10-7c10.2-4.667,17.867-12.5,23-23.5L1326.709,628.089z M1363.009,627.289l9-6
		c5.134,11,12.8,18.833,23,23.5l-10,7C1376.509,644.789,1369.176,636.623,1363.009,627.289z M1351.709,618.939
		c2.066,11.267,2.066,20.983,0,29.15c-6.2,2.567-13.2,3.4-21,2.5l-9-10.5c8,1.967,15.017,1.967,21.05,0c2.8-7.6,2.8-14.633,0-21.1
		C1345.726,618.989,1348.709,618.972,1351.709,618.939z M1279.559,568.239c-14.3-1.034-28.467-1.567-42.5-1.6l-0.05,3.2
		c12.667-0.066,25.25,0.317,37.75,1.15c-1.399,8.5-2.183,15.333-2.35,20.5c-0.034,1.4-0.034,2.8,0,4.2
		c0.066,5.733,0.183,14,0.35,24.8l-24.05,0.2c8.767,8.267,18.85,13.467,30.25,15.6l-14,11.5c-9.334-7.5-17.983-15.683-25.95-24.55
		c0.767,8.9,1.75,17.683,2.95,26.35h-17c1.233-8.667,2.25-17.4,3.05-26.2c-8.6,9.833-18.017,18.867-28.25,27.1l-14-11.5
		c12.5-2.333,23.601-8.367,33.3-18.1l-25.949,0.2c2.967-16.933,3.3-33.4,1-49.4c11.899-0.967,23.75-1.55,35.55-1.75l-0.101-3.3
		c-13.566,0.066-27,0.6-40.3,1.6c0.101-3-1.85-6-5.85-9h45.95c-0.134-2.534-0.268-5.067-0.4-7.6h8.5c-0.1,2.566-0.184,5.1-0.25,7.6
		h47.45C1280.926,561.606,1279.226,564.606,1279.559,568.239z M1237.809,608.889c9.566,0.167,19.351,0.767,29.351,1.8v-15h-30.25
		C1237.109,600.156,1237.409,604.556,1237.809,608.889z M1230.109,592.789c0.033-3.6,0.033-8.467,0-14.6
		c-9.967,0.1-19.934,0.733-29.9,1.9v11.4C1210.043,592.256,1220.009,592.689,1230.109,592.789z M1229.209,608.889
		c0.4-4.367,0.666-8.767,0.8-13.2h-29.8v15C1209.643,609.623,1219.309,609.022,1229.209,608.889z M1267.159,591.489v-11.4
		c-10.167-1.2-20.351-1.833-30.55-1.9c0.033,6.133,0.1,11,0.199,14.6C1246.809,592.689,1256.926,592.256,1267.159,591.489z"/>
	
		<path fill-rule="evenodd" clip-rule="evenodd" fill="none" stroke="#FFFFFF" stroke-width="0.1" stroke-linecap="round" stroke-linejoin="round" stroke-miterlimit="3" d="
		M1392.509,569.289c-14.3-1.033-30.966-1.567-50-1.6c-13.566,0.067-27,0.6-40.3,1.6c0.1-3-1.017-6-3.35-9h43.449
		c-0.133-2.533-0.266-5.067-0.399-7.6h8.5c-0.101,2.567-0.184,5.1-0.25,7.6h42.95
		C1392.375,562.656,1392.176,565.656,1392.509,569.289z M1385.709,616.789c-12.633,1.267-25.133,1.983-37.5,2.15
		c-3,0.033-5.983,0.05-8.95,0.05c-11.167-0.133-22.233-0.717-33.2-1.75c2.967-13.7,3.301-27.034,1-40
		c23.066-3.434,49.783-4.45,80.15-3.05c-1.066,8.533-1.684,14.9-1.85,19.1c-0.033,1.133-0.033,2.267,0,3.4
		C1385.426,601.322,1385.543,608.022,1385.709,616.789z M1315.709,609.589c19.566,2.5,41.084,2.5,64.55,0v-27.5
		c-21.5-1.133-43.017-0.966-64.55,0.5V609.589z M1326.709,628.089c-6.166,9.333-13.5,17.5-22,24.5l-10-7
		c10.2-4.667,17.867-12.5,23-23.5L1326.709,628.089z M1363.009,627.289c6.167,9.333,13.5,17.5,22,24.5l10-7
		c-10.2-4.667-17.866-12.5-23-23.5L1363.009,627.289z M1342.759,618.989c2.8,6.466,2.8,13.5,0,21.1
		c-6.033,1.967-13.05,1.967-21.05,0l9,10.5c7.8,0.9,14.8,0.067,21-2.5c2.066-8.167,2.066-17.883,0-29.15 M1279.559,568.239
		c-14.3-1.034-28.467-1.567-42.5-1.6l-0.05,3.2c12.667-0.066,25.25,0.317,37.75,1.15c-1.399,8.5-2.183,15.333-2.35,20.5
		c-0.034,1.4-0.034,2.8,0,4.2c0.066,5.733,0.183,14,0.35,24.8l-24.05,0.2c8.767,8.267,18.85,13.467,30.25,15.6l-14,11.5
		c-9.334-7.5-17.983-15.683-25.95-24.55c0.767,8.9,1.75,17.683,2.95,26.35h-17c1.233-8.667,2.25-17.4,3.05-26.2
		c-8.6,9.833-18.017,18.867-28.25,27.1l-14-11.5c12.5-2.333,23.601-8.367,33.3-18.1l-25.949,0.2c2.967-16.933,3.3-33.4,1-49.4
		c11.899-0.967,23.75-1.55,35.55-1.75l-0.101-3.3c-13.566,0.066-27,0.6-40.3,1.6c0.101-3-1.85-6-5.85-9h45.95
		c-0.134-2.534-0.268-5.067-0.4-7.6h8.5c-0.1,2.566-0.184,5.1-0.25,7.6h47.45C1280.926,561.606,1279.226,564.606,1279.559,568.239z
		 M1237.809,608.889c9.566,0.167,19.351,0.767,29.351,1.8v-15h-30.25C1237.109,600.156,1237.409,604.556,1237.809,608.889z
		 M1229.209,608.889c-9.9,0.133-19.566,0.733-29,1.8v-15h29.8C1229.875,600.123,1229.609,604.522,1229.209,608.889z
		 M1230.109,592.789c-10.101-0.1-20.066-0.533-29.9-1.3v-11.4c9.967-1.167,19.934-1.8,29.9-1.9
		C1230.143,584.322,1230.143,589.189,1230.109,592.789z M1267.159,591.489v-11.4c-10.167-1.2-20.351-1.833-30.55-1.9
		c0.033,6.133,0.1,11,0.199,14.6C1246.809,592.689,1256.926,592.256,1267.159,591.489z"/>
</g>
</svg>
