<?xml version="1.0" encoding="utf-8"?>
<!-- Generator: Adobe Illustrator 16.0.0, SVG Export Plug-In . SVG Version: 6.00 Build 0)  -->
<!DOCTYPE svg PUBLIC "-//W3C//DTD SVG 1.1//EN" "http://www.w3.org/Graphics/SVG/1.1/DTD/svg11.dtd">
<svg version="1.1" id="Main" xmlns="http://www.w3.org/2000/svg" xmlns:xlink="http://www.w3.org/1999/xlink" x="0px" y="0px"
	 width="2565.666px" height="2610.333px" viewBox="0 0 2565.666 2610.333" enable-background="new 0 0 2565.666 2610.333"
	 xml:space="preserve">
<g>
	<path stroke="#F2F2F2" stroke-width="2" stroke-miterlimit="10" d="M2429.414,420.289c-23.394-4.695-76.297-14.99-113.269-22.017
		c-36.983-7.024-327.677-84.722-353.411-91.264c-25.759-6.566-103.455-29.501-126.861-35.113
		c-23.402-5.625-48.209-9.768-48.209-9.768c-6.094-1.152-10.484-2-12.249-2.388c-11.025-2.378-33.137-10.86-51.245-15.015
		c-18.099-4.166-119.364-25.006-140.957-32.396c-19.204-6.565-49.281-26.276-63.613-28.958c-0.129-0.388-0.258-0.836-0.387-1.128
		c-0.107-0.249-0.236-0.471-0.354-0.719c0,0-0.6-1.871-2.117-4.413c-3.779-4.895-8.979-3.459-14.534-5.071
		c-6.389-1.871-17.851-0.765-26.534-1.99c-8.708-1.211-19.145-5.565-30.959-5.812c-11.79-0.224-36.561,7.249-65.413,19.451
		c-28.829,12.202-92.3,23.722-118.683,25.394c-26.381,1.669-78.839-12.192-93.534-18.24c-28.724-11.778-48.387-29.207-48.387-29.207
		s-3.589-4.364-8.401-6.918c-4.837-2.531-17.215,1-31.146,5.236c-13.933,4.213-25.854,6.26-30.525,8.296
		c-4.683,2.047-6.941,2.412-10.377,3.87c-1.143,0.482-3.131,1.342-3.131,1.342l-3.602,1.871c0,0-0.869,1.248-1.693,2.777
		c-5.272,1.423-27.44,7.731-34.431,15.131c-7.955,8.438-32.523,27.158-43.538,29.029c-11.002,1.871-46.562,1.401-88.229,19.192
		c-41.667,17.792-121.719,51.964-156.82,63.189c-35.111,11.249-72.555,18.732-108.597,34.653
		c-36.042,15.898-148.383,73.016-181.625,83.311c-33.229,10.309-189.107,62.731-214.853,73.498
		c-25.747,10.767-61.801,30.888-72.556,36.042c-10.767,5.153-7.955,10.767-6.084,17.321c1.871,6.542,24.805,80.981,31.359,94.548
		c6.554,13.579,61.318,163.373,65.531,182.565s31.831,81.439,35.113,99.23c3.271,17.792,2.8,43.068,13.566,42.138
		c10.767-0.94,41.667-18.25,65.072-18.72c23.404-0.472,75.826-16.393,101.103-17.792c25.274-1.401,87.546-7.497,113.292-17.321
		c25.734-9.838,53.823-17.321,53.823-17.321s-5.144,61.776-5.144,79.58c0,28.076-12.178,176.469-11.707,211.111
		c0.47,34.644-3.742,289.764-4.213,326.264c-0.471,36.526-7.483,292.105-8.896,325.348c-1.4,33.217-2.8,318.298-5.141,344.985
		c-2.342,26.675-4.213,95.019-4.213,101.561c0,6.565,4.671,8.438,18.25,9.378c13.578,0.931,267.289,7.484,317.85,4.213
		c50.551-3.282,428.309-12.639,471.835-12.639c43.538,0,333.76,10.756,400.231,8.426c66.472-2.354,186.308-5.153,208.311-10.307
		c21.994-5.144,16.381-7.484,16.381-40.256s-3.272-267.758-3.742-285.079c-0.471-17.31-12.179-462.009-12.179-497.592
		c0-35.573-4.671-273.36-7.024-311.756c-2.331-38.373-5.613-216.253-4.673-240.599c0.931-24.336,6.849-55.388,9.614-55.587
		c17.957-1.318,193.074,15.331,222.562,20.945c29.487,5.624,119.364,25.287,128.26,24.816c8.896-0.458,13.579-13.579,21.534-40.266
		c7.955-26.664,71.154-302.39,76.298-329.065c5.153-26.688,17.321-76.309,19.202-84.722
		C2447.205,437.128,2452.831,424.96,2429.414,420.289z"/>
	<g>
		<path stroke="#F2F2F2" stroke-width="2" stroke-miterlimit="10" d="M2429.414,420.289c-23.394-4.695-76.297-14.99-113.269-22.017
			c-36.983-7.024-327.677-84.722-353.411-91.264c-25.759-6.566-103.455-29.501-126.861-35.113
			c-23.402-5.625-48.209-9.768-48.209-9.768c-6.094-1.152-10.484-2-12.249-2.388c-11.025-2.378-33.137-10.86-51.245-15.015
			c-18.099-4.166-119.364-25.006-140.957-32.396c-19.204-6.565-49.281-26.276-63.613-28.958c-0.129-0.388-0.258-0.836-0.387-1.128
			c-0.107-0.249-0.236-0.471-0.354-0.719c0,0-0.6-1.871-2.117-4.413c-3.779-4.895-8.979-3.459-14.534-5.071
			c-6.389-1.871-17.851-0.765-26.534-1.99c-8.708-1.211-19.145-5.565-30.959-5.812c-11.79-0.224-36.561,7.249-65.413,19.451
			c-28.829,12.202-92.3,23.722-118.683,25.394c-26.381,1.669-78.839-12.192-93.534-18.24
			c-28.724-11.778-48.387-29.207-48.387-29.207s-3.589-4.364-8.401-6.918c-4.837-2.531-17.215,1-31.146,5.236
			c-13.933,4.213-25.854,6.26-30.525,8.296c-4.683,2.047-6.941,2.412-10.377,3.87c-1.143,0.482-3.131,1.342-3.131,1.342
			l-3.602,1.871c0,0-0.869,1.248-1.693,2.777c-5.272,1.423-27.44,7.731-34.431,15.131c-7.955,8.438-32.523,27.158-43.538,29.029
			c-11.002,1.871-46.562,1.401-88.229,19.192c-41.667,17.792-121.719,51.964-156.82,63.189
			c-35.111,11.249-72.555,18.732-108.597,34.653c-36.042,15.898-148.383,73.016-181.625,83.311
			c-33.229,10.309-189.107,62.731-214.853,73.498c-25.747,10.767-61.801,30.888-72.556,36.042
			c-10.767,5.153-7.955,10.767-6.084,17.321c1.871,6.542,24.805,80.981,31.359,94.548c6.554,13.579,61.318,163.373,65.531,182.565
			s31.831,81.439,35.113,99.23c3.271,17.792,2.8,43.068,13.566,42.138c10.767-0.94,41.667-18.25,65.072-18.72
			c23.404-0.472,75.826-16.393,101.103-17.792c25.274-1.401,87.546-7.497,113.292-17.321c25.734-9.838,53.823-17.321,53.823-17.321
			s-5.144,61.776-5.144,79.58c0,28.076-12.178,176.469-11.707,211.111c0.47,34.644-3.742,289.764-4.213,326.264
			c-0.471,36.526-7.483,292.105-8.896,325.348c-1.4,33.217-2.8,318.298-5.141,344.985c-2.342,26.675-4.213,95.019-4.213,101.561
			c0,6.565,4.671,8.438,18.25,9.378c13.578,0.931,267.289,7.484,317.85,4.213c50.551-3.282,428.309-12.639,471.835-12.639
			c43.538,0,333.76,10.756,400.231,8.426c66.472-2.354,186.308-5.153,208.311-10.307c21.994-5.144,16.381-7.484,16.381-40.256
			s-3.272-267.758-3.742-285.079c-0.471-17.31-12.179-462.009-12.179-497.592c0-35.573-4.671-273.36-7.024-311.756
			c-2.331-38.373-5.613-216.253-4.673-240.599c0.931-24.336,6.849-55.388,9.614-55.587c17.957-1.318,193.074,15.331,222.562,20.945
			c29.487,5.624,119.364,25.287,128.26,24.816c8.896-0.458,13.579-13.579,21.534-40.266c7.955-26.664,71.154-302.39,76.298-329.065
			c5.153-26.688,17.321-76.309,19.202-84.722C2447.205,437.128,2452.831,424.96,2429.414,420.289z M1035.67,177.63
			c1.365-0.672,3.967-3.06,11.591-4.271c7.166-1.143,25.793-6.72,32.007-9.049c6.225-2.354,20.086-4.413,24.287-4.566
			c0.246-0.024,0.471-0.024,0.705,0c-1.458,2.882-1.694,6.812-3.317,13.544c-2.189,9.013-13.909,52.703-9.402,70.377
			c3.212,12.602,15.755,48.256,26.487,67.107c10.731,18.863,41.397,59.152,55.941,72.097c15.025,13.343,50.326,37.784,70.812,44.855
			c20.499,7.073,69.002,13.91,107.893-8.343c38.891-22.239,80.121-67.249,92.982-89.441c12.886-22.18,19.051-47.009,23.429-54.211
			c4.364-7.2,6.601-27.947,7.483-39.336c0.895-11.378-19.051-23.571-19.239-36.431c-0.188-12.874-1.801-9.249-2.034-4.683
			c-0.096,1.811-0.354,3.389-0.402,5.012c-4.729,2.766-36.595,21.393-45.066,25.323c-9.179,4.247-14.531,5.283-24.287,6.647
			c-9.767,1.342-59.659,4.825-63.049,5.497c-3.389,0.707-70.613,12.59-72.719,12.485c-2.119-0.119-29.947-4.683-35.714-6.225
			c-5.753-1.542-41.032-8.861-43.361-9.354c-2.142-0.46-62.836-25.805-73.886-30.417c0.482-2.802,0.977-5.319,1.472-7.378
			c2.565-11.015,8.803-30.242,9.839-33.902c0.482-1.682,1.976-1.976,3.457-1.823c1.061,0.929,2.143,2.093,3.484,3.458h-0.024
			c0,0,0.399,0.412,1.153,1.118c0.248,0.236,0.519,0.495,0.789,0.753l0.012-0.01c6.06,5.6,25.84,21.673,47.433,28.535
			c19.816,6.306,56.871,17.709,93.795,18.498c36.925,0.775,101.302-15.652,121.13-23.371c19.839-7.741,45.938-17.567,55.588-20.121
			c9.648-2.553,22.016-0.246,34.041,3.048c12.002,3.282,23.651,0.553,31.124,3.248c5.647,2.013,10.132,1.376,12.851,3.271
			c-0.119,0,0.234,0.201,0.234,0.201c0.765,0.6,1.389,1.436,1.836,2.635c2.011,5.438,8.906,40.868,10.273,66.084
			c1.328,25.206-7.166,56.399-9.744,61.966c-2.578,5.589-11.615,32.547-15.933,42.23c-4.317,9.685-24.204,33.02-30.394,41.845
			c-6.179,8.813-25.842,35.23-75.957,68.036c-50.115,32.818-116.247,29.724-132.579,28.488
			c-16.296-1.235-48.151-11.673-85.604-31.158c-37.467-19.487-83.5-71.803-98.727-93.948
			c-15.226-22.146-40.866-92.83-41.243-100.091c-0.377-7.249-7.225-36.571-8.309-45.021c-1.082-8.438,3.426-34.372,4.344-37.372
			C1032.069,180.477,1033.704,178.571,1035.67,177.63z M1430.042,241.432c-11.215,5.117-27.794,8.73-37.749,8.694
			c-9.932-0.022-84.65,10.567-94.748,12.521c-10.367,2.013-61.612,6.072-75.638,5.402c-13.485-0.66-81.522-17.168-85.935-18.393
			c-3.871-1.082-34.584-16.849-41.903-20.638c0.378-7.743,1.26-15.169,2.412-22.229c10.696,4.637,64.319,28.535,73.367,30.489
			c10.026,2.154,70.862,15.92,81.381,15.155c10.509-0.753,59.2-10.296,70.744-11.661c11.521-1.365,65.919-5.918,79.19-9.473
			c12.192-3.27,47.788-25.099,53.529-28.734c0.07,2.142,0.835,3.201,2.753,6.26c1.788,2.882,5.248,7.46,8.392,11.673
			C1461.201,223.462,1439.974,236.865,1430.042,241.432z M1466.943,222.403c3.082,4.166,5.153,6.661,5.378,7.779
			c0.458,2.305,1.976,5.824,0.682,14.32c-1.306,8.508-2.624,22.71-4.849,26.887c-2.212,4.178-5.153,11.449-7.519,18.191
			c-2.354,6.732-13.591,35.866-24.298,49.304c-10.709,13.45-34.442,41.056-56.152,57.071
			c-21.699,16.015-32.384,23.452-39.949,26.205c-7.578,2.741-37.796,12.297-63.884,8.367c-26.076-3.93-55.658-17.911-70.779-28.853
			c-27.263-19.722-50.702-41.526-68.755-67.614c-18.074-26.11-40.736-79.015-42.396-90.83c-0.482-3.365-0.577-5.765-0.424-10.484
			c6.625,3.26,38.302,18.781,41.784,20.075c3.908,1.447,75.957,18.04,85.394,18.145c23.464,0.248,69.296-4.435,74.685-5.4
			c5.391-0.965,25.064-4.332,32.96-5.401c7.884-1.072,37.773-4.318,44.421-5.343c6.625-1.011,19.604-2.071,29.218-2.941
			c9.613-0.87,23.11-5.602,27.864-7.602C1438.619,240.784,1461.93,225.604,1466.943,222.403z M547.656,907.103
			c-16.391,6.565-36.983,9.366-60.387,12.178c-23.405,2.8-43.068,1.871-59.447,5.153c-16.393,3.272-64.602,13.569-74.427,14.027
			c-9.826,0.482-17.321-1.871-32.301,3.752c-1.623,0.601-3.272,1.225-4.896,1.849c-0.165-1.908-0.377-4.284-0.624-6.956
			c-0.095-1.023-1.023-1.776-2.047-1.682c-1.036,0.095-1.776,1.011-1.683,2.035c0.307,3.213,0.541,5.954,0.706,8.001
			c-12.19,4.695-23.946,9.368-30.783,11.261c-8.425,2.342-12.166,6.084-14.037-9.366c-1.871-15.438-4.213-25.747-11.237-43.997
			c-7.024-18.252-24.334-63.672-29.959-83.793c-5.614-20.121-40.725-109.998-49.15-138.557
			c-8.426-28.559-37.455-102.515-42.126-118.894c-4.685-16.381-5.625-21.064,5.142-27.63c4.941-2.987,16.108-9.461,28.899-16.144
			c1.26,1.413,2.919,3.377,4.72,5.872c0.363,0.519,0.929,0.765,1.518,0.765c0.376,0,0.764-0.105,1.106-0.341
			c0.834-0.6,1.012-1.788,0.412-2.624c-1.637-2.259-3.107-4.023-4.354-5.448c14.237-7.319,29.946-14.59,41.195-17.638
			c22.475-6.096,202.687-67.414,217.666-73.026c14.98-5.613,105.785-44.479,134.356-60.389
			c19.558-10.907,37.819-21.169,61.683-29.841c1.918,2.59,7.166,6.99,8.531,9.708c1.871,3.754,28.076,70.684,31.358,82.852
			c3.272,12.178,14.51,66.013,16.851,101.114c2.342,35.113,1.401,72.095-0.94,119.364c-2.342,47.281-6.554,119.376-10.297,139.497
			c-3.754,20.135-22.462,71.145-52.422,89.418C590.713,895.876,564.035,900.549,547.656,907.103z M1961.794,910.856
			c-0.472,18.251,2.341,208.3,3.271,252.309c0.942,43.997,7.484,257.45,6.554,283.667c-0.94,26.205,11.237,386.641,11.237,427.836
			c0,41.197,1.871,70.215,1.871,99.243c0,29.019,3.742,146.97,3.742,174.14c0,15.521-0.152,47.281-0.282,73.545l-8.048-0.295
			c-1.33-0.082-1.907,0.777-1.954,1.789c-0.036,1.047,0.765,1.918,1.801,1.953l8.189,0.317c-0.095,17.97-0.165,32.784-0.165,36.89
			c0,10.309-0.471,14.992-13.107,16.863c-12.639,1.871-197.074,8.438-232.188,8.438c-35.102,0-308.942-7.968-376.814-8.896
			c-67.885-0.942-361.377,7.953-420.354,9.824c-58.988,1.871-205.028,5.614-278.056,1.871c-73.026-3.742-72.556-2.341-82.862-3.742
			c-10.297-1.41-14.968-0.952-12.639-21.531c0.789-6.85,1.354-17.734,1.812-30.76c1.942-0.012,4.789-0.036,8.367-0.036
			c1.035,0,1.869-0.848,1.869-1.871c0-1.036-0.834-1.871-1.869-1.871c-3.483,0-6.296,0.024-8.226,0.036
			c0.848-25.676,1.364-58.752,2.259-86.746c1.413-43.996,8.426-189.107,9.837-237.789c1.413-48.68-1.869-190.989-1.411-235.458
			c0.471-44.468,3.753-156.337,5.153-207.828c1.413-51.504,0.471-215.337,1.871-244.354c1.413-29.028,3.282-106.267,5.614-138.568
			c2.341-32.301,5.623-85.652,6.082-109.527c0.482-23.875,4.695-57.117,4.695-66.013s7.014-10.285,12.638-16.379
			c5.613-6.084,53.823-37.913,59.907-123.577c6.094-85.652,12.637-148.383,12.178-194.733
			c-0.471-46.338-11.708-117.963-21.074-148.854c-9.355-30.888-24.794-66.471-32.759-77.238c-3.813-5.153-6.108-7.812-7.731-9.096
			c10.013-3.506,20.991-6.73,33.477-9.637c44.467-10.285,51.951-9.814,88.005-27.606c36.044-17.792,115.153-53.363,147.453-60.388
			c32.301-7.013,46.338-0.93,58.977-6.084c12.638-5.153,14.979-14.509,24.346-20.121c9.354-5.625,22.933-19.205,31.358-21.076
			c6.413-1.423,10.908-3.647,12.697-4.635c-1.871,5.953-4.742,14.003-4.907,28.9c-0.2,18.274,5.377,35.712,9.049,52.681
			c3.684,16.944,22.063,66.306,34.56,89.441c12.51,23.133,21.91,32.759,54.801,66.883c32.876,34.113,59.081,43.103,94.053,59.412
			c34.947,16.32,61.27,15.792,105.42,9.33c44.15-6.435,68.791-21.651,76.663-26.568c7.883-4.919,37.194-30.325,46.714-37.443
			c9.52-7.119,21.875-24.782,27.17-30.971c5.272-6.201,26.488-32.9,30.713-40.68c4.213-7.79,9.414-26.934,16.439-44.867
			c7.047-17.921,11.731-56.54,10.93-63.06c-0.67-5.448-4.741-42.113-8.06-58.611l0.365,0.307c0,0,37.959,18.662,53.986,25.51
			c16.003,6.859,162.645,37.114,184.542,44.891c5.178,1.823,14.968,4.013,27.041,6.331l0.023-0.142
			c5.79,1.401,25.123,6.189,31.064,8.955c7.024,3.284,8.625,2.919,12.85,6.673c4.201,3.74,4.001,1.282,14.298,3.153
			c10.295,1.871,56.646,10.767,59.917,11.25c3.282,0.458,12.639,0,6.555,15.438c-6.084,15.45-18.723,70.214-19.192,83.793
			c-0.458,13.567-7.013,199.875-5.612,219.996c1.399,20.146,30.889,164.774,39.784,189.59c7.661,21.356,34.689,42.337,42.079,47.763
			C1965.371,868.224,1962.157,896.619,1961.794,910.856z M2398.996,618.28c-10.295,43.068-51.021,225.634-54.764,237.812
			c-3.753,12.156-6.082,20.122-8.896,25.735c-2.812,5.624-4.213,13.567-22.004,9.366c-3.623-0.87-13.178-2.753-26.215-5.236
			l1.48-7.625c0.201-1.023-0.457-2-1.48-2.2c-1.061-0.2-2.001,0.47-2.203,1.47l-1.469,7.672
			c-52.234-9.861-152.796-27.806-170.329-29.853c-13.39-1.554-59.022-4.354-94.97-7.86c-22.275-2.188-40.914-6.271-45.517-4.766
			c-5.919-1.589-18.108-5.448-21.603-11.05c-4.684-7.495,0.928-6.566,6.083-8.436c5.153-1.872,1.399-3.26-8.425-3.743
			c-9.826-0.46-12.639-4.212-17.322-17.309c-4.683-13.121-26.675-101.584-31.83-132.955c-5.142-31.36-8.436-58.506-7.024-99.703
			c1.413-41.185,5.625-151.195,5.625-167.104c0-15.92,6.555-60.858,13.097-77.721c6.555-16.839,5.153-23.405,14.037-22.451
			c8.896,0.941,34.185,11.708,48.692,13.096c14.509,1.411,246.695,70.214,277.583,75.368c30.9,5.153,90.348,17.792,114.223,21.534
			c14.027,2.2,28.688,5.212,40.115,7.695l-1.518,4.388c-0.342,0.977,0.176,2.049,1.164,2.378c0.2,0.083,0.4,0.105,0.6,0.105
			c0.789,0,1.506-0.482,1.777-1.258l1.671-4.802c6.284,1.376,11.308,2.542,14.239,3.201c8.424,1.871,19.19,6.072,18.25,12.166
			C2441.123,442.281,2409.293,575.226,2398.996,618.28z"/>
		<path stroke="#F2F2F2" stroke-width="2" stroke-miterlimit="10" d="M287.358,851.726c-0.482-0.917-1.611-1.246-2.542-0.788
			c-0.906,0.471-1.259,1.613-0.79,2.518c1.672,3.201,3.367,6.566,5.037,9.991c0.331,0.683,0.989,1.058,1.683,1.058
			c0.271,0,0.554-0.046,0.812-0.188c0.943-0.448,1.318-1.564,0.872-2.495C290.747,858.351,289.042,854.963,287.358,851.726z"/>
		<path stroke="#F2F2F2" stroke-width="2" stroke-miterlimit="10" d="M274.803,824.909c-0.329-0.977-1.389-1.53-2.364-1.187
			c-0.989,0.317-1.518,1.376-1.201,2.352c1.282,3.919,2.636,7.531,4.025,10.696c0.293,0.694,0.987,1.118,1.706,1.118
			c0.258,0,0.506-0.035,0.753-0.153c0.94-0.412,1.376-1.518,0.965-2.459C277.356,832.206,276.05,828.722,274.803,824.909z"/>
		<path stroke="#F2F2F2" stroke-width="2" stroke-miterlimit="10" d="M186.292,538.807c-0.377-0.965-1.459-1.435-2.424-1.06
			c-0.965,0.377-1.436,1.459-1.06,2.424c0.965,2.446,1.742,4.919,2.354,7.366l0.823,3.177c0.225,0.835,0.978,1.389,1.813,1.389
			c0.153,0,0.305-0.012,0.47-0.046c1.012-0.26,1.601-1.296,1.342-2.295l-0.813-3.13
			C188.151,544.043,187.304,541.407,186.292,538.807z"/>
		<path stroke="#F2F2F2" stroke-width="2" stroke-miterlimit="10" d="M201.742,594.97c-0.977,0.354-1.495,1.413-1.154,2.39
			c1.296,3.682,2.578,7.271,3.801,10.614c0.295,0.765,1.001,1.235,1.767,1.235c0.222,0,0.434-0.036,0.646-0.117
			c0.965-0.354,1.471-1.447,1.106-2.402c-1.235-3.341-2.505-6.896-3.776-10.565C203.789,595.147,202.718,594.629,201.742,594.97z"/>
		<path stroke="#F2F2F2" stroke-width="2" stroke-miterlimit="10" d="M311.058,907.138c-0.294-1-1.354-1.553-2.332-1.271
			c-0.987,0.307-1.564,1.342-1.27,2.331c0.6,2.023,1.058,3.789,1.328,5.259c0.319,1.683,0.624,3.542,0.906,5.484
			c0.13,0.94,0.931,1.601,1.849,1.601c0.093,0,0.188,0,0.281-0.012c1.013-0.153,1.72-1.118,1.578-2.129
			c-0.307-1.989-0.613-3.908-0.942-5.626C312.175,911.197,311.692,909.304,311.058,907.138z"/>
		<path stroke="#F2F2F2" stroke-width="2" stroke-miterlimit="10" d="M265.236,794.633c-1.011,0.2-1.659,1.189-1.459,2.212
			c0.753,3.671,1.554,7.377,2.424,11.038c0.2,0.848,0.977,1.435,1.825,1.435c0.14,0,0.281-0.01,0.422-0.059
			c1.013-0.224,1.637-1.248,1.389-2.247c-0.846-3.625-1.647-7.285-2.388-10.933C267.237,795.068,266.236,794.386,265.236,794.633z"
			/>
		<path stroke="#F2F2F2" stroke-width="2" stroke-miterlimit="10" d="M297.831,877.943c-0.953,0.412-1.376,1.518-0.965,2.472
			c1.53,3.529,2.99,7,4.32,10.319c0.305,0.729,1.011,1.165,1.74,1.165c0.236,0,0.472-0.035,0.706-0.129
			c0.953-0.388,1.425-1.483,1.023-2.436c-1.34-3.353-2.812-6.859-4.364-10.414C299.89,877.979,298.773,877.543,297.831,877.943z"/>
		<path stroke="#F2F2F2" stroke-width="2" stroke-miterlimit="10" d="M223.84,650.769c-0.965,0.366-1.447,1.448-1.094,2.413
			c1.247,3.342,2.565,6.883,3.896,10.555c0.271,0.753,0.999,1.225,1.752,1.225c0.224,0,0.437-0.036,0.648-0.119
			c0.965-0.354,1.47-1.423,1.118-2.4c-1.343-3.684-2.648-7.225-3.908-10.579C225.887,650.911,224.805,650.416,223.84,650.769z"/>
		<path stroke="#F2F2F2" stroke-width="2" stroke-miterlimit="10" d="M234.101,678.975c-0.965,0.354-1.47,1.425-1.141,2.4
			l3.718,10.615c0.259,0.775,0.989,1.248,1.765,1.248c0.212,0,0.412-0.024,0.613-0.095c0.976-0.329,1.494-1.401,1.153-2.378
			l-3.707-10.636C236.149,679.152,235.102,678.634,234.101,678.975z"/>
		<path stroke="#F2F2F2" stroke-width="2" stroke-miterlimit="10" d="M214.91,623.906c-0.448-0.931-1.577-1.342-2.495-0.895
			c-0.943,0.434-1.343,1.564-0.895,2.495l0.636,1.306c0.904,1.823,2.223,4.895,3.859,8.906c0.283,0.73,0.987,1.177,1.73,1.177
			c0.234,0,0.47-0.046,0.693-0.129c0.967-0.4,1.425-1.494,1.035-2.447c-1.669-4.13-3.036-7.307-3.977-9.19L214.91,623.906z"/>
		<path stroke="#F2F2F2" stroke-width="2" stroke-miterlimit="10" d="M262.13,766.663c-0.176-1.035-1.118-1.447-2.105-1.283
			c-1.025,0.177-1.671,1.425-1.495,2.448l1.8,10.543c0.153,0.906,0.941,1.554,1.835,1.554c0.107,0,0.212-0.024,0.319-0.036
			c1.023-0.176,1.706-1.153,1.53-2.166L262.13,766.663z"/>
		<path stroke="#F2F2F2" stroke-width="2" stroke-miterlimit="10" d="M253.046,735.939c-1.001,0.294-1.554,1.33-1.259,2.319
			c1.177,3.989,2.212,7.625,3.036,10.79c0.224,0.835,0.989,1.389,1.825,1.389c0.14,0,0.305-0.012,0.471-0.046
			c0.999-0.271,1.599-1.294,1.328-2.295c-0.846-3.2-1.881-6.872-3.082-10.884C255.081,736.209,254.023,735.622,253.046,735.939z"/>
		<path stroke="#F2F2F2" stroke-width="2" stroke-miterlimit="10" d="M243.88,707.357c-0.977,0.329-1.507,1.389-1.177,2.376
			c1.199,3.637,2.388,7.202,3.507,10.674c0.258,0.788,0.988,1.282,1.788,1.282c0.188,0,0.376-0.024,0.565-0.083
			c0.987-0.317,1.53-1.376,1.211-2.354c-1.128-3.47-2.295-7.071-3.519-10.719C245.927,707.558,244.867,707.028,243.88,707.357z"/>
		<path stroke="#F2F2F2" stroke-width="2" stroke-miterlimit="10" d="M192.481,566.459c-1.001,0.293-1.554,1.353-1.248,2.33
			c1.06,3.482,2.2,7.107,3.389,10.755c0.259,0.799,0.987,1.294,1.789,1.294c0.188,0,0.375-0.022,0.565-0.093
			c0.987-0.307,1.53-1.367,1.211-2.354c-1.189-3.637-2.305-7.236-3.377-10.708C194.506,566.694,193.446,566.141,192.481,566.459z"/>
		<path stroke="#F2F2F2" stroke-width="2" stroke-miterlimit="10" d="M851.67,2236.881l-11.262,0.27
			c-1.036,0.037-1.848,0.885-1.823,1.92c0.022,1.012,0.846,1.822,1.871,1.822h0.022l11.285-0.27
			c1.036-0.024,1.848-0.883,1.812-1.918C853.553,2237.67,852.929,2236.787,851.67,2236.881z"/>
		<path stroke="#F2F2F2" stroke-width="2" stroke-miterlimit="10" d="M971.693,2233.786l-11.249,0.329
			c-1.036,0.023-1.848,0.895-1.813,1.93c0.024,1.014,0.86,1.812,1.872,1.812h0.046l11.25-0.329c1.035-0.024,1.847-0.894,1.824-1.918
			C973.587,2234.575,972.858,2233.856,971.693,2233.786z"/>
		<path stroke="#F2F2F2" stroke-width="2" stroke-miterlimit="10" d="M911.682,2235.398l-11.25,0.295
			c-1.035,0.022-1.847,0.895-1.824,1.918c0.024,1.023,0.859,1.822,1.871,1.822c0,0,0.036,0,0.049,0l11.26-0.282
			c1.023-0.034,1.836-0.882,1.812-1.917C913.575,2236.198,912.775,2235.245,911.682,2235.398z"/>
		<path stroke="#F2F2F2" stroke-width="2" stroke-miterlimit="10" d="M1870.975,2217.383l-10.813-0.365
			c-0.965-0.07-1.894,0.777-1.942,1.801c-0.021,1.035,0.789,1.895,1.812,1.941l11.238,0.377c0.023,0,0.046,0,0.046,0
			c1.014,0,1.649-0.801,1.684-1.812C1873.035,2218.289,1872.01,2217.407,1870.975,2217.383z"/>
		<path stroke="#F2F2F2" stroke-width="2" stroke-miterlimit="10" d="M881.676,2236.151l-11.25,0.271
			c-1.035,0.024-1.859,0.883-1.835,1.93c0.022,1.012,0.87,1.812,1.87,1.812h0.035l11.272-0.27c1.035-0.025,1.849-0.895,1.825-1.93
			C883.559,2236.939,882.628,2236.164,881.676,2236.151z"/>
		<path stroke="#F2F2F2" stroke-width="2" stroke-miterlimit="10" d="M941.699,2234.634l-11.262,0.294
			c-1.035,0.023-1.858,0.883-1.824,1.918c0.024,1.012,0.859,1.823,1.871,1.823h0.036l11.272-0.293
			c1.035-0.024,1.847-0.894,1.824-1.93C943.593,2235.423,942.864,2234.68,941.699,2234.634z"/>
		<path stroke="#F2F2F2" stroke-width="2" stroke-miterlimit="10" d="M1121.604,2226.386c-4.118,0.222-7.884,0.446-11.273,0.692
			c-1.035,0.07-1.811,0.965-1.74,1.99c0.071,0.987,0.895,1.74,1.859,1.74c0.046,0,0.093,0,0.142,0
			c3.377-0.234,7.117-0.459,11.213-0.682c1.035-0.047,1.824-0.93,1.776-1.965C1123.51,2227.139,1122.758,2226.396,1121.604,2226.386
			z"/>
		<path stroke="#F2F2F2" stroke-width="2" stroke-miterlimit="10" d="M1151.623,2225.114l-11.25,0.424
			c-1.047,0.034-1.847,0.906-1.801,1.93c0.035,1.023,0.871,1.812,1.859,1.812c0.035,0,0.059,0,0.083,0l11.249-0.424
			c1.023-0.048,1.848-0.906,1.801-1.942C1153.517,2225.891,1152.622,2225.056,1151.623,2225.114z"/>
		<path stroke="#F2F2F2" stroke-width="2" stroke-miterlimit="10" d="M1031.693,2231.855l-11.249,0.4
			c-1.036,0.049-1.848,0.906-1.801,1.941c0.034,1.014,0.858,1.801,1.871,1.801c0,0,0.034,0,0.059,0l11.249-0.399
			c1.036-0.047,1.836-0.919,1.812-1.942C1033.587,2232.621,1032.576,2231.834,1031.693,2231.855z"/>
		<path stroke="#F2F2F2" stroke-width="2" stroke-miterlimit="10" d="M1091.611,2228.798c-3.189,0.271-6.942,0.541-11.203,0.8
			c-1.036,0.07-1.823,0.953-1.753,1.988c0.059,0.988,0.882,1.754,1.859,1.754c0.046,0,0.083,0,0.117,0
			c4.283-0.271,8.084-0.541,11.296-0.813c1.035-0.093,1.789-0.987,1.718-2.022
			C1093.553,2229.48,1092.622,2228.691,1091.611,2228.798z"/>
		<path stroke="#F2F2F2" stroke-width="2" stroke-miterlimit="10" d="M1061.676,2230.609l-11.238,0.494
			c-1.035,0.059-1.836,0.93-1.788,1.953c0.034,1,0.87,1.789,1.871,1.789c0.022,0,0.059,0,0.059,0l11.272-0.494
			c1.035-0.059,1.836-0.941,1.788-1.965C1063.593,2231.352,1062.887,2230.691,1061.676,2230.609z"/>
		<path stroke="#F2F2F2" stroke-width="2" stroke-miterlimit="10" d="M731.765,2238.822c-3.755-0.141-7.485-0.283-11.203-0.459
			c-1.13-0.082-1.905,0.742-1.954,1.777c-0.047,1.023,0.742,1.905,1.778,1.966c3.729,0.176,7.483,0.317,11.247,0.458
			c0.024,0,0.037,0,0.071,0c1.001,0,1.824-0.799,1.871-1.812C733.6,2239.717,732.798,2238.846,731.765,2238.822z"/>
		<path stroke="#F2F2F2" stroke-width="2" stroke-miterlimit="10" d="M612.198,2230.857c-3.905-0.096-7.683-0.154-11.271-0.201
			h-0.024c-1.023,0-1.859,0.812-1.871,1.848s0.812,1.883,1.859,1.894c3.564,0.048,7.319,0.106,11.215,0.2h0.047
			c0.999,0,1.847-0.812,1.871-1.823C614.035,2231.738,613.222,2230.879,612.198,2230.857z"/>
		<path stroke="#F2F2F2" stroke-width="2" stroke-miterlimit="10" d="M1901.393,2218.431l-11.26-0.399
			c-1.084-0.049-1.896,0.775-1.93,1.811c-0.037,1.025,0.775,1.895,1.811,1.93l11.237,0.401c0.024,0,0.048,0,0.071,0
			c1,0,1.836-0.802,1.871-1.812C1903.229,2219.337,1902.418,2218.465,1901.393,2218.431z"/>
		<path stroke="#F2F2F2" stroke-width="2" stroke-miterlimit="10" d="M642.217,2232.033c-3.73-0.224-7.508-0.411-11.273-0.564
			c-1.07,0.059-1.894,0.765-1.952,1.788c-0.036,1.036,0.765,1.918,1.8,1.954c3.741,0.151,7.495,0.341,11.189,0.563
			c0.049,0,0.083,0,0.119,0c0.987,0,1.811-0.765,1.869-1.753C644.029,2232.975,643.252,2232.092,642.217,2232.033z"/>
		<path stroke="#F2F2F2" stroke-width="2" stroke-miterlimit="10" d="M821.64,2237.611l-11.272,0.295
			c-1.035,0.021-1.847,0.894-1.812,1.917c0.024,1.023,0.848,1.823,1.859,1.823c0.023,0,0.036,0,0.059,0l11.262-0.293
			c1.035-0.024,1.859-0.896,1.824-1.92C823.535,2238.398,822.652,2237.611,821.64,2237.611z"/>
		<path stroke="#F2F2F2" stroke-width="2" stroke-miterlimit="10" d="M1950.12,2220.172c-1.011,0.023-1.905,0.775-1.941,1.812
			c-0.034,1.025,0.765,1.896,1.801,1.93l11.261,0.424h0.059c1.012,0,1.848-0.787,1.882-1.8c0.036-1.036-0.775-1.895-1.811-1.942
			L1950.12,2220.172z"/>
		<path stroke="#F2F2F2" stroke-width="2" stroke-miterlimit="10" d="M1931.376,2219.49l-11.249-0.414
			c-1.377-0.08-1.908,0.777-1.942,1.801c-0.024,1.048,0.777,1.92,1.812,1.941l11.25,0.412c0.01,0,0.046,0,0.059,0
			c1.011,0,1.835-0.787,1.871-1.811C1933.223,2220.395,1932.411,2219.525,1931.376,2219.49z"/>
		<path stroke="#F2F2F2" stroke-width="2" stroke-miterlimit="10" d="M761.651,2239.234h-0.012l-5.142,0.012l-6.06-0.035
			c-0.013,0-0.013,0-0.013,0c-1.035,0-1.871,0.834-1.883,1.859c-0.012,1.036,0.812,1.882,1.847,1.882l6.108,0.036l5.166-0.012
			c1.035-0.024,1.871-0.859,1.858-1.896C763.511,2240.058,762.675,2239.234,761.651,2239.234z"/>
		<path stroke="#F2F2F2" stroke-width="2" stroke-miterlimit="10" d="M791.587,2238.435c-3.647,0.104-6.708,0.212-9.108,0.306
			l-2.176,0.082c-1.035,0.036-1.847,0.906-1.801,1.941c0.035,1.012,0.871,1.801,1.871,1.801c0,0,0.035,0,0.059,0l2.213-0.082
			c2.376-0.096,5.424-0.2,9.06-0.306c1.035-0.048,1.849-0.894,1.8-1.941C793.482,2239.199,792.422,2238.41,791.587,2238.435z"/>
		<path stroke="#F2F2F2" stroke-width="2" stroke-miterlimit="10" d="M1181.639,2224.174l-11.26,0.328
			c-1.035,0.023-1.847,0.895-1.824,1.93c0.036,1.012,0.872,1.812,1.883,1.812h0.035l11.262-0.33c1.035-0.022,1.847-0.87,1.812-1.906
			C1183.522,2224.961,1182.734,2224.22,1181.639,2224.174z"/>
		<path stroke="#F2F2F2" stroke-width="2" stroke-miterlimit="10" d="M672.128,2234.646c-2.446-0.248-4.883-0.519-7.295-0.789
			l-3.872-0.388c-0.94-0.07-1.941,0.636-2.047,1.682c-0.106,1.025,0.646,1.93,1.682,2.049l3.825,0.388
			c2.425,0.271,4.871,0.541,7.331,0.789c0.071,0.013,0.142,0.013,0.2,0.013c0.94,0,1.752-0.719,1.847-1.684
			C673.904,2235.682,673.163,2234.751,672.128,2234.646z"/>
		<path stroke="#F2F2F2" stroke-width="2" stroke-miterlimit="10" d="M701.922,2237.258c-3.753-0.271-7.482-0.553-11.19-0.859
			c-0.917-0.142-1.931,0.672-2.011,1.707c-0.083,1.023,0.67,1.93,1.705,2.023c3.719,0.307,7.461,0.589,11.226,0.859
			c0.036,0,0.083,0,0.13,0c0.988,0,1.8-0.741,1.871-1.73C703.723,2238.223,702.957,2237.328,701.922,2237.258z"/>
		<path stroke="#F2F2F2" stroke-width="2" stroke-miterlimit="10" d="M1001.688,2232.879l-11.237,0.354
			c-1.036,0.049-1.849,0.895-1.825,1.93c0.037,1.014,0.871,1.812,1.871,1.812c0.024,0,0.047,0,0.071,0l11.249-0.353
			c1.036-0.034,1.848-0.906,1.812-1.942C1003.581,2233.656,1002.604,2232.809,1001.688,2232.879z"/>
		<path stroke="#F2F2F2" stroke-width="2" stroke-miterlimit="10" d="M1661.463,2215.195l-10.872,0.117l-0.353,1.883l0.387,1.871
			l10.874-0.119c1.036,0,1.859-0.857,1.848-1.894C1663.347,2216.03,1662.581,2215.146,1661.463,2215.195z"/>
		<path stroke="#F2F2F2" stroke-width="2" stroke-miterlimit="10" d="M1631.493,2215.523h-0.012l-11.108,0.142l-0.117,1.871
			l0.176,1.872l11.084-0.143c1.035-0.012,1.861-0.848,1.849-1.883C1633.353,2216.348,1632.517,2215.523,1631.493,2215.523z"/>
		<path stroke="#F2F2F2" stroke-width="2" stroke-miterlimit="10" d="M1601.487,2215.889l-11.249,0.164
			c-1.036,0.012-1.859,0.859-1.848,1.896c0.012,1.023,0.848,1.847,1.871,1.847h0.022l11.237-0.165
			c1.035-0.011,1.871-0.847,1.85-1.894C1603.358,2216.701,1602.287,2215.665,1601.487,2215.889z"/>
		<path stroke="#F2F2F2" stroke-width="2" stroke-miterlimit="10" d="M1571.506,2216.323l-11.25,0.178
			c-1.023,0.012-1.859,0.87-1.837,1.894c0.013,1.025,0.848,1.849,1.871,1.849h0.036l11.238-0.177
			c1.035-0.013,1.858-0.871,1.847-1.895C1573.387,2217.137,1572.399,2216.172,1571.506,2216.323z"/>
		<path stroke="#F2F2F2" stroke-width="2" stroke-miterlimit="10" d="M1690.904,2214.947h-0.011l-10.687,0.094
			c-1.035,0-1.869,0.848-1.858,1.884c0.012,1.023,0.848,1.858,1.883,1.858h0.013l11.237-0.094c1.035,0,1.589-0.848,1.576-1.895
			C1693.046,2215.77,1691.939,2214.947,1690.904,2214.947z"/>
		<path stroke="#F2F2F2" stroke-width="2" stroke-miterlimit="10" d="M1811.423,2215.5l-11.262-0.317
			c-0.999,0.176-1.882,0.8-1.905,1.835c-0.037,1.025,0.776,1.883,1.812,1.908l11.247,0.316h0.049c1.011,0,1.847-0.799,1.881-1.823
			C1813.27,2216.384,1812.458,2215.523,1811.423,2215.5z"/>
		<path stroke="#F2F2F2" stroke-width="2" stroke-miterlimit="10" d="M1721.44,2214.771L1721.44,2214.771l-10.696,0.046
			l-0.541,1.871l0.563,1.871l10.685-0.046c1.035,0,1.871-0.848,1.86-1.871C1723.312,2215.606,1722.477,2214.771,1721.44,2214.771z"
			/>
		<path stroke="#F2F2F2" stroke-width="2" stroke-miterlimit="10" d="M1841.429,2216.406l-11.249-0.354
			c-1.153-0.034-1.896,0.777-1.942,1.801c-0.024,1.047,0.789,1.907,1.812,1.941l11.249,0.354c0.023,0,0.047,0,0.071,0
			c0.999,0,1.835-0.799,1.858-1.812C1843.275,2217.301,1842.452,2216.43,1841.429,2216.406z"/>
		<path stroke="#F2F2F2" stroke-width="2" stroke-miterlimit="10" d="M1541.521,2216.795l-11.237,0.2
			c-1.035,0.013-1.858,0.858-1.835,1.905c0.012,1.012,0.848,1.836,1.871,1.836h0.035l11.236-0.188
			c1.036-0.023,1.859-0.871,1.838-1.906C1543.405,2217.595,1542.511,2216.947,1541.521,2216.795z"/>
		<path stroke="#F2F2F2" stroke-width="2" stroke-miterlimit="10" d="M1781.416,2214.865l-11.236-0.094h-0.013
			c-1.035,0-1.871,0.835-1.871,1.871c-0.012,1.023,0.823,1.871,1.859,1.871l11.227,0.093h0.022c1.023,0,1.859-0.836,1.871-1.859
			C1783.287,2215.712,1782.452,2214.865,1781.416,2214.865z"/>
		<path stroke="#F2F2F2" stroke-width="2" stroke-miterlimit="10" d="M1751.435,2214.713h-11.237c-1.035,0-1.883,0.835-1.871,1.881
			c0,1.035,0.836,1.861,1.871,1.861h0.01h11.228c1.048,0,1.871-0.836,1.871-1.871
			C1753.306,2215.536,1752.482,2214.713,1751.435,2214.713z"/>
		<path stroke="#F2F2F2" stroke-width="2" stroke-miterlimit="10" d="M1391.599,2219.961l-11.249,0.234
			c-1.048,0.023-1.859,0.871-1.848,1.906c0.024,1.012,0.859,1.836,1.883,1.836h0.023l11.273-0.236
			c1.035-0.01,1.847-0.883,1.824-1.906C1393.494,2220.76,1392.563,2220.041,1391.599,2219.961z"/>
		<path stroke="#F2F2F2" stroke-width="2" stroke-miterlimit="10" d="M1331.599,2221.102l-11.249,0.199
			c-1.023,0.024-1.848,0.872-1.836,1.908c0.024,1.023,0.858,1.834,1.871,1.834h0.035l11.249-0.199
			c1.036-0.012,1.859-0.87,1.837-1.906C1333.481,2221.902,1332.787,2221.066,1331.599,2221.102z"/>
		<path stroke="#F2F2F2" stroke-width="2" stroke-miterlimit="10" d="M1271.623,2222.184l-11.238,0.211
			c-1.035,0.037-1.858,0.885-1.836,1.92c0.023,1.012,0.848,1.823,1.871,1.823h0.023l11.238-0.212
			c1.035-0.012,1.858-0.87,1.847-1.894C1273.504,2222.984,1272.764,2222.102,1271.623,2222.184z"/>
		<path stroke="#F2F2F2" stroke-width="2" stroke-miterlimit="10" d="M1241.629,2222.785l-11.25,0.224
			c-1.035,0.011-1.858,0.882-1.824,1.917c0.012,1.012,0.848,1.823,1.871,1.823c0.012,0,0.024,0,0.024,0l11.249-0.224
			c1.035-0.035,1.859-0.87,1.835-1.918C1243.522,2223.584,1242.793,2223.055,1241.629,2222.785z"/>
		<path stroke="#F2F2F2" stroke-width="2" stroke-miterlimit="10" d="M1511.564,2217.312h-0.024l-11.249,0.199
			c-1.036,0.037-1.859,0.883-1.836,1.918c0.022,1.014,0.858,1.837,1.871,1.837h0.035l11.249-0.212
			c1.036-0.023,1.847-0.883,1.835-1.907C1513.423,2218.124,1512.588,2217.312,1511.564,2217.312z"/>
		<path stroke="#F2F2F2" stroke-width="2" stroke-miterlimit="10" d="M1361.593,2220.561l-11.237,0.199
			c-1.036,0.024-1.859,0.871-1.836,1.906c0.013,1.025,0.849,1.836,1.859,1.836c0.024,0,0.024,0,0.024,0l11.272-0.199
			c1.035-0.036,1.847-0.883,1.834-1.918C1363.488,2221.359,1362.676,2220.561,1361.593,2220.561z"/>
		<path stroke="#F2F2F2" stroke-width="2" stroke-miterlimit="10" d="M1301.604,2221.643l-11.249,0.199
			c-1.023,0.024-1.848,0.872-1.835,1.92c0.022,1.012,0.857,1.822,1.871,1.822c0.022,0,0.022,0,0.022,0l11.262-0.199
			c1.035-0.012,1.858-0.87,1.834-1.894C1303.5,2222.443,1302.652,2221.584,1301.604,2221.643z"/>
		<path stroke="#F2F2F2" stroke-width="2" stroke-miterlimit="10" d="M1451.564,2218.535l-11.25,0.261
			c-1.023,0.022-1.847,0.882-1.824,1.905c0.023,1.023,0.859,1.836,1.871,1.836h0.047l11.238-0.26
			c1.035-0.023,1.848-0.881,1.835-1.917C1453.457,2219.337,1452.6,2218.489,1451.564,2218.535z"/>
		<path stroke="#F2F2F2" stroke-width="2" stroke-miterlimit="10" d="M1211.635,2223.42l-11.25,0.271
			c-1.023,0.021-1.848,0.882-1.824,1.905c0.024,1.023,0.859,1.835,1.871,1.835h0.047l11.249-0.271
			c1.023-0.013,1.848-0.882,1.825-1.918C1213.528,2224.22,1212.717,2223.431,1211.635,2223.42z"/>
		<path stroke="#F2F2F2" stroke-width="2" stroke-miterlimit="10" d="M1421.629,2219.266h-0.049l-11.247,0.283
			c-1.025,0.035-1.849,0.883-1.825,1.918c0.024,1.012,0.859,1.822,1.871,1.822h0.047l11.25-0.28
			c1.023-0.024,1.847-0.884,1.824-1.907C1423.464,2220.078,1422.641,2219.266,1421.629,2219.266z"/>
		<path stroke="#F2F2F2" stroke-width="2" stroke-miterlimit="10" d="M1481.558,2217.89l-11.249,0.222
			c-1.035,0.037-1.859,0.885-1.835,1.92c0.022,1.012,0.858,1.822,1.869,1.822c0,0,0.036,0,0.048,0l11.25-0.223
			c1.023-0.023,1.848-0.871,1.823-1.918C1483.441,2218.689,1482.734,2217.982,1481.558,2217.89z"/>
		<path stroke="#F2F2F2" stroke-width="2" stroke-miterlimit="10" d="M2368.156,556.48c-0.989-0.247-2.049,0.294-2.319,1.284
			l-3.142,10.789c-0.294,1.001,0.283,2.037,1.271,2.332c0.177,0.046,0.353,0.071,0.53,0.071c0.812,0,1.553-0.531,1.799-1.342
			l3.131-10.802C2369.721,557.798,2369.143,556.774,2368.156,556.48z"/>
		<path stroke="#F2F2F2" stroke-width="2" stroke-miterlimit="10" d="M2359.742,585.274c-0.965-0.282-2.023,0.283-2.318,1.27
			l-3.166,10.803c-0.294,0.989,0.271,2.035,1.26,2.317c0.188,0.048,0.354,0.083,0.541,0.083c0.8,0,1.553-0.529,1.789-1.341
			l3.164-10.803C2361.307,586.605,2360.742,585.569,2359.742,585.274z"/>
		<path stroke="#F2F2F2" stroke-width="2" stroke-miterlimit="10" d="M2376.367,527.628c-0.928-0.271-2.021,0.305-2.305,1.294
			l-3.048,10.826c-0.271,1.001,0.294,2.036,1.294,2.307c0.178,0.059,0.341,0.081,0.506,0.081c0.824,0,1.577-0.541,1.812-1.364
			l3.049-10.838C2377.957,528.935,2377.369,527.899,2376.367,527.628z"/>
		<path stroke="#F2F2F2" stroke-width="2" stroke-miterlimit="10" d="M2383.794,498.541c-1.048-0.26-2.024,0.364-2.271,1.377
			c-0.4,1.623-0.766,3.211-1.119,4.776c-0.411,1.812-0.906,3.872-1.493,6.155c-0.248,1.001,0.351,2.012,1.364,2.271
			c0.153,0.046,0.305,0.059,0.459,0.059c0.835,0,1.6-0.576,1.812-1.411c0.587-2.319,1.094-4.413,1.506-6.237
			c0.354-1.553,0.719-3.119,1.105-4.718C2385.404,499.798,2384.793,498.787,2383.794,498.541z"/>
		<path stroke="#F2F2F2" stroke-width="2" stroke-miterlimit="10" d="M2400.738,441.023c-0.978-0.343-2.035,0.21-2.354,1.199
			c-1.095,3.353-2.247,6.966-3.448,10.721c-0.306,0.987,0.236,2.047,1.213,2.354c0.188,0.059,0.388,0.081,0.575,0.081
			c0.789,0,1.53-0.493,1.778-1.294c1.188-3.765,2.353-7.354,3.448-10.708C2402.268,442.4,2401.727,441.34,2400.738,441.023z"/>
		<path stroke="#F2F2F2" stroke-width="2" stroke-miterlimit="10" d="M2351.293,614.068c-1.012-0.293-2.024,0.282-2.317,1.271
			l-3.155,10.791c-0.293,0.987,0.271,2.023,1.26,2.317c0.178,0.059,0.354,0.071,0.529,0.071c0.812,0,1.566-0.529,1.801-1.342
			l3.154-10.79C2352.857,615.386,2352.294,614.35,2351.293,614.068z"/>
		<path stroke="#F2F2F2" stroke-width="2" stroke-miterlimit="10" d="M2391.76,469.629c-1.036-0.295-2.035,0.271-2.33,1.27
			c-1.07,3.589-2.117,7.214-3.131,10.826c-0.28,1.013,0.307,2.037,1.296,2.307c0.164,0.059,0.341,0.071,0.505,0.071
			c0.824,0,1.576-0.529,1.801-1.353c1.014-3.613,2.049-7.214,3.119-10.779C2393.313,470.969,2392.748,469.934,2391.76,469.629z"/>
		<path stroke="#F2F2F2" stroke-width="2" stroke-miterlimit="10" d="M2305.271,787.998c-1.058-0.224-2.012,0.422-2.223,1.423
			l-2.377,11.001c-0.213,1.025,0.424,2.013,1.435,2.225c0.142,0.024,0.271,0.046,0.399,0.046c0.86,0,1.637-0.6,1.825-1.482
			l2.378-10.991C2306.919,789.209,2306.285,788.22,2305.271,787.998z"/>
		<path stroke="#F2F2F2" stroke-width="2" stroke-miterlimit="10" d="M2299,817.332c-1.047-0.212-2,0.436-2.2,1.447l-2.283,11.015
			c-0.212,1.023,0.437,2.011,1.447,2.21c0.13,0.024,0.261,0.036,0.39,0.036c0.87,0,1.646-0.6,1.822-1.483l2.283-11.013
			C2300.659,818.532,2300.023,817.531,2299,817.332z"/>
		<path stroke="#F2F2F2" stroke-width="2" stroke-miterlimit="10" d="M2292.965,846.702c-1.014-0.2-1.988,0.46-2.201,1.483
			l-2.199,11.026c-0.213,1.011,0.445,2,1.457,2.212c0.131,0.012,0.248,0.024,0.377,0.024c0.871,0,1.66-0.613,1.836-1.508
			l2.212-11.025C2294.646,847.903,2293.988,846.914,2292.965,846.702z"/>
		<path stroke="#F2F2F2" stroke-width="2" stroke-miterlimit="10" d="M2342.879,642.851c-1.011-0.271-2.023,0.282-2.316,1.271
			l-3.131,10.813c-0.295,0.989,0.295,2.035,1.281,2.317c0.166,0.036,0.354,0.071,0.52,0.071c0.811,0,1.553-0.529,1.801-1.365
			l3.118-10.791C2344.444,644.168,2343.869,643.133,2342.879,642.851z"/>
		<path stroke="#F2F2F2" stroke-width="2" stroke-miterlimit="10" d="M2311.804,758.72c-1.036-0.247-2.013,0.4-2.249,1.401
			l-2.482,10.989c-0.225,1.001,0.412,2,1.425,2.236c0.142,0.024,0.271,0.035,0.412,0.035c0.858,0,1.635-0.576,1.823-1.458
			l2.471-10.957C2313.439,759.956,2312.803,758.956,2311.804,758.72z"/>
		<path stroke="#F2F2F2" stroke-width="2" stroke-miterlimit="10" d="M2318.77,729.538c-0.977-0.234-2.012,0.377-2.271,1.364
			c-0.694,2.79-1.354,5.472-1.978,8.026l-0.707,2.931c-0.234,1.012,0.389,2.023,1.4,2.259c0.142,0.035,0.283,0.047,0.424,0.047
			c0.848,0,1.623-0.588,1.825-1.436l0.692-2.907c0.624-2.565,1.283-5.236,1.979-8.001
			C2320.381,730.821,2319.77,729.796,2318.77,729.538z"/>
		<path stroke="#F2F2F2" stroke-width="2" stroke-miterlimit="10" d="M2334.561,671.667c-0.977-0.271-2.023,0.294-2.318,1.284
			l-3.049,10.838c-0.28,0.987,0.295,2.022,1.297,2.305c0.163,0.059,0.34,0.071,0.504,0.071c0.824,0,1.576-0.541,1.801-1.353
			l3.061-10.838C2336.138,672.985,2335.561,671.938,2334.561,671.667z"/>
		<path stroke="#F2F2F2" stroke-width="2" stroke-miterlimit="10" d="M2326.477,700.555c-1.035-0.246-2.037,0.319-2.307,1.306
			l-2.941,10.886c-0.258,0.987,0.329,2.011,1.33,2.283c0.164,0.046,0.329,0.059,0.482,0.059c0.824,0,1.588-0.541,1.811-1.389
			l2.932-10.838C2328.053,701.851,2327.466,700.826,2326.477,700.555z"/>
	</g>
</g>
<rect x="849.357" y="650.053" stroke="#000000" stroke-miterlimit="10" width="866.951" height="808.988"/>
<g>
	<g>
		<path fill-rule="evenodd" clip-rule="evenodd" fill="#FFFFFF" d="M1421.545,1169.889c-0.145-0.351-0.289-0.704-0.432-1.057
			C1421.256,1169.186,1421.4,1169.538,1421.545,1169.889c0.046,0.118,0.09,0.232,0.135,0.343c0.16,0.372,0.326,0.745,0.5,1.12
			c0.149,0.362,0.305,0.726,0.466,1.089c-0.876,0.549-2.277,1.379-4.2,2.489c1.923-1.11,3.324-1.94,4.2-2.489
			c-0.161-0.364-0.316-0.728-0.466-1.089l4.602-1.027c-0.21,0.294-0.431,0.584-0.667,0.871c-1.374,1.761-3.097,3.493-5.168,5.196
			c-10.577,8.627-30.262,16.458-59.054,23.492c-0.044,0.011-0.088,0.021-0.133,0.032c-11.373,3.48-19.277,5.535-23.708,6.161
			c-2.217,0.305-3.562,0.253-4.035-0.156l1.601-1.462c-0.374-0.824-0.773-1.644-1.201-2.459c-0.215-0.414-0.438-0.83-0.666-1.244
			c-0.712-1.369-1.467-2.738-2.267-4.107c1.121-0.079,2.278-0.214,3.467-0.404c-1.188,0.19-2.346,0.325-3.467,0.404
			c-7.114,0.789-13.405-0.229-18.874-3.049c-8.313-4.148-13.938-10.786-16.872-19.914c0.407-0.895,0.774-1.921,1.101-3.08
			c-0.326,1.159-0.693,2.186-1.101,3.08c-0.623,1.453-1.378,2.53-2.267,3.237c-5.78,4.729-10.427-0.25-13.938-14.935l2.7-0.249
			l-2.7,0.249c0.444,8.669-0.757,14.396-3.602,17.175c-0.178,0.207-0.399,0.394-0.667,0.561
			c-7.112,5.269-12.537-0.021-16.271-15.869l3.768-0.343c-0.056-0.296-0.111-0.597-0.166-0.902c0.055,0.305,0.11,0.605,0.166,0.902
			l-3.768,0.343l-11.471,1.181c-3.378-9.957-5.379-23.231-6.002-39.827c-0.049-1.557,0.774-3.153,2.468-4.791
			c4.512-4.308,15.159-8.871,31.943-13.69c4.401-1.286,9.181-2.551,14.339-3.796c-0.225-0.626-0.401-1.218-0.534-1.773
			c-1.413-5.77,1.832-7.916,9.737-6.441c0-0.248,0-0.497,0-0.746c0-4.771,1.822-8.857,5.468-12.259
			c3.646-3.402,8.024-5.104,13.138-5.104c5.069,0,9.426,1.701,13.071,5.104c0.845,0.787,1.622,1.638,2.334,2.551
			c0.356-0.416,0.778-0.789,1.267-1.12c3.646-3.402,8.002-5.103,13.072-5.103c5.112,0,9.491,1.7,13.137,5.103
			c1.733,1.617,3.067,3.443,4.001,5.477c0.175,0.362,0.331,0.746,0.468,1.151c-0.137-0.405-0.293-0.789-0.468-1.151
			c0.983,0.287,2.006,0.65,3.067,1.089c-1.062-0.438-2.084-0.802-3.067-1.089c33.077-1.121,73.803-0.062,122.175,3.173
			c17.516,5.974,32.099,15.972,43.747,29.994l-35.278,144.125h-5.869l34.278-142.756c-10.201-12.28-22.649-21.469-37.346-27.568
			l-21.407,170.324h18.207v1.68h-450.216h450.216v-1.68h6.268h5.869h22.807v1.68h14.005h-14.005v-1.68h14.005v1.68v11.077h-499.164
			v-11.077v-1.68h41.014v-10.828v-125.145c0.476-4.745,4.188-7.835,11.138-9.272h41.146v-6.596c-3.423-1.079-5.468-3.05-6.135-5.912
			c-1.691-7.468-4.447-13.379-8.27-17.735h-9.938c-0.399-4.108,2.268-6.598,8.003-7.468c4.356-0.498,7.135,0.477,8.336,2.925
			c2.535,3.733,4.602,7.467,6.203,11.201c10.491-6.679,22.784-5.311,36.878,4.107c6.445,4.315,12.604,7.779,18.473,10.393
			c0.889,0.414,1.801,0.808,2.734,1.182c1.822,0.789,3.646,1.473,5.468,2.054c2.891,0.996,5.713,1.743,8.471,2.24h0.066
			c0.048,0.001,0.137,0.021,0.267,0.062h0.066c0.623,0.084,1.244,0.167,1.867,0.25c-13.204,1.992-24.519,0.602-33.943-4.169v7.467
			h23.474h33.344h5.603h2.199v1.307v11.948c9.381,28.668,9.381,65.009,0,109.027v12.135v8.463v2.365h43.615
			c-1.646-5.353,3.157-9.003,14.404-10.954h34.278c-0.3-0.209,1.19-2.346,4.469-6.409c-2.713,0.522-5.425-0.111-8.137-1.898
			c-1.946,2.291-3.501,4.728-4.668,7.312c-2.477-2.272-3.834-4.949-4.068-8.027c-7.267,1.496-13.646,3.818-19.139,6.97
			c1.445-3.61,3.848-7.218,7.201-10.829l10.737-3.64l-1.533-0.281c12.938-5.974,22.229-14.581,27.875-25.825
			c-7.959-3.733-8.292-7.592-1-11.574c0.229,0.414,0.451,0.83,0.666,1.244c-3.217,1.54-4.35,2.848-3.4,3.921
			c6.153,10.328,33.25,5.889,81.293-13.317c19.531-10.397,26.823-18.83,21.875-25.296c-0.326-0.379-0.682-0.753-1.066-1.12
			c0.385,0.366,0.74,0.74,1.066,1.12C1432.534,1166.229,1428.322,1167.089,1421.545,1169.889z M1433.117,1166.187
			c3.239,0.536,4.75,2.911,4.533,7.125c0,2.066-1.199,4.514-3.602,7.344c-0.146,0.188-0.303,0.375-0.466,0.559
			c-0.534,0.622-1.133,1.224-1.8,1.805c0.667-0.581,1.266-1.183,1.8-1.805c0.163-0.184,0.319-0.371,0.466-0.559
			c12.106,20.504,21.531,44.598,28.276,72.279c8.396-47.447,15.219-100.02,20.475-157.721c1.281,0.127,2.571,0.25,3.867,0.373
			l0.468-3.795l-0.468,3.795c-1.296-0.123-2.586-0.246-3.867-0.373c-46.169-4.271-84.427-6.107-114.772-5.507
			c7.598,3.201,17.002,10.451,28.21,21.749c8.67,19.042,16.962,38.168,24.876,57.376
			C1426.364,1166.619,1430.366,1165.738,1433.117,1166.187z M1363.428,1089.831c0.666-0.017,1.333-0.038,2-0.062
			C1364.761,1089.792,1364.094,1089.813,1363.428,1089.831c-0.151-0.518-0.329-0.984-0.534-1.4c-0.89-1.825-2.112-3.443-3.668-4.853
			c-3.246-3.029-7.157-4.543-11.737-4.543c-4.535,0-8.448,1.515-11.738,4.543c-0.399,0.291-0.756,0.623-1.066,0.996
			c-0.4,0.414-0.756,0.851-1.067,1.307c-1.645,2.24-2.512,4.708-2.601,7.405c-0.045,0.207-0.111,0.518-0.199,0.934
			c-0.09,0.373-0.179,0.892-0.268,1.556c-0.355,1.327-0.289,2.157,0.199,2.489c0.401,0.414,2.224,0.892,5.47,1.431
			c3.334,0.498,7.868,1.141,13.604,1.93c1.556,0.207,3.001,0.353,4.335,0.436c6.713-1.162,10.069-3.174,10.069-6.036
			c0-2.241-0.223-4.149-0.666-5.726C1363.52,1090.135,1363.476,1089.98,1363.428,1089.831z M1111.645,1083.358
			c-4.97,0.229-7.715,2.189-8.236,5.881h9.736c3.164,4.617,5.464,9.409,6.902,14.375c1.438,4.966,3.605,7.476,6.502,7.529h1.467
			v9.148h3.802v-8.712h1.4c3.883,4.01,11.284,3.802,22.208-0.622c-0.268-0.623-0.513-1.308-0.735-2.055l2.402-0.249
			c-0.312,2.034,0.577,4.315,2.667,6.846l-1.334,4.792h5.068v-9.148c8.402,4.439,19.007,6.431,31.811,5.974
			c-8.67-2.322-14.895-4.376-18.673-6.159l-19.14-10.829c-13.398-7.966-24.535-8.297-33.41-0.996
			C1120.758,1088.389,1116.611,1083.131,1111.645,1083.358z M1460.658,1265.911l1.667-12.976c1.048,4.24,2.024,8.565,2.935,12.976
			H1460.658h4.602c-0.91-4.411-1.887-8.736-2.935-12.976L1460.658,1265.911z M1418.512,1246.277
			c-0.396,0.249-0.796,0.498-1.201,0.746c-0.562,0.343-1.14,0.684-1.733,1.027c0.042-0.139,0.074-0.272,0.101-0.405
			c0.529-2.885-0.104-5.551-1.9-7.996c-0.09-0.166-0.201-0.291-0.334-0.373c-0.422-0.568-0.844-1.107-1.268-1.618
			c0.424,0.511,0.846,1.05,1.268,1.618c0.133,0.083,0.244,0.208,0.334,0.373c1.797,2.445,2.43,5.111,1.9,7.996
			c-0.026,0.133-0.059,0.266-0.101,0.405c0.594-0.343,1.172-0.684,1.733-1.027
			C1417.716,1246.775,1418.115,1246.526,1418.512,1246.277z M1399.772,1229.568c-0.021,0.021-0.043,0.042-0.067,0.062
			c-0.394,0.354-0.794,0.696-1.2,1.026c-0.712,0.148-1.424,0.387-2.135,0.716c0.711-0.33,1.423-0.568,2.135-0.716
			c0.406-0.33,0.807-0.673,1.2-1.026C1399.729,1229.609,1399.752,1229.588,1399.772,1229.568c-0.21,0.328-0.433,0.65-0.667,0.964
			c-0.199,0.039-0.399,0.08-0.601,0.125c0.201-0.045,0.401-0.086,0.601-0.125C1399.34,1230.218,1399.562,1229.896,1399.772,1229.568
			z M1337.785,1205.205c-0.536,0.099-1.082,0.203-1.634,0.312c0.02,0.028,0.042,0.06,0.066,0.094
			c0.528-0.127,1.051-0.251,1.567-0.374c0.293-0.075,0.582-0.148,0.867-0.219c8.263-1.647,15.966-3.347,23.107-5.102
			c-7.142,1.755-14.845,3.455-23.107,5.102c33.432-8.148,60.028-18.177,79.793-30.088l2.501,1.462l-2.501-1.462
			c-6.342-20.826-14.189-41.653-23.542-62.479c-7.224-8.819-16.949-16.058-29.176-21.717c0.466,1.753,0.7,3.89,0.7,6.409
			c0,3.237-3.735,5.498-11.204,6.783c-1.466-0.083-3.067-0.25-4.802-0.499c-6.446-0.87-11.492-1.597-15.138-2.178
			c-3.646-0.58-5.691-1.099-6.135-1.556c-0.579-0.415-0.667-1.348-0.268-2.801c0.134-0.732,0.246-1.334,0.334-1.804
			c-0.088,0.47-0.2,1.071-0.334,1.804c-0.399,1.453-0.312,2.386,0.268,2.801c0.443,0.457,2.488,0.976,6.135,1.556
			c3.646,0.581,8.691,1.308,15.138,2.178c1.734,0.249,3.336,0.416,4.802,0.499l3.134,0.124c1.099,0.04,2.154,0.051,3.168,0.032
			c5.334-0.164,9.569-1.274,12.705-3.329c-4.002,2.903-8.647,4.438-13.938,4.605c-1.022,0-2.089-0.021-3.2-0.063l-3.135-0.124
			c-1.467-0.083-3.068-0.249-4.802-0.498c-6.45-0.871-11.463-1.689-15.038-2.458c-3.57-0.776-5.549-1.618-5.936-2.521
			c-0.394-0.896-0.438-1.777-0.133-2.645c0.307-0.873,0.695-1.527,1.167-1.959c0.088-0.459,0.156-0.791,0.199-0.996
			c-2.107,0.548-3.62,1.305-4.534,2.271c-0.564,0.505-0.92,1.107-1.066,1.805c0.146-0.697,0.502-1.299,1.066-1.805
			c0.914-0.966,2.427-1.724,4.534-2.271c-0.043,0.205-0.111,0.537-0.199,0.996c-2.149,0.133-3.951,1.158-5.401,3.08
			c-0.413,1.896,0.72,4.5,3.4,7.811c-5.131-3.176-6.309-6.266-3.535-9.272c-7.595,2.018-15.264,2.629-23.008,1.835
			c-1.687-0.171-3.376-0.409-5.067-0.716h3.868c0.421-0.021,0.843-0.041,1.266-0.062c-0.423,0.021-0.845,0.042-1.266,0.062
			c0.075-0.07,0.086-0.837,0.032-2.302c-0.009-0.249-0.02-0.519-0.032-0.81c0.013,0.291,0.023,0.561,0.032,0.81l-0.032-0.436
			c-7.207-0.479-9.117,2.569-5.736,9.147c-27.586,5.664-44.369,11.939-50.35,18.825c0.002-0.071,0.002-0.144,0-0.217
			c-0.025-0.796,0.176-1.604,0.601-2.428c-0.425,0.823-0.626,1.631-0.601,2.428c0.002,0.074,0.002,0.146,0,0.217
			c0.64,16.486,2.862,28.86,6.669,37.121l80.026-3.237l-8.869,1.059l-1.066,0.094l-18.106,1.742
			c4.556,12.798,9.079,17.456,13.57,13.971c3.246-3.443,4.757-8.682,4.536-15.713l1.066-0.094
			c0.267,8.173-1.646,14.292-5.735,18.358c-5.736,4.106-11.448-1.286-17.14-16.18c-0.25,4.208-0.75,7.683-1.5,10.423
			c9.737,19.188,25.108,27.102,46.115,23.741c-2.813,0.874-5.481,1.507-8.003,1.897L1337.785,1205.205z M1395.838,1265.911h64.82
			c-5.291-31.613-14.916-59.244-28.875-82.891c-2.091,1.95-4.69,4.127-7.804,6.534c-9.202,6.804-24.562,13.047-46.081,18.731
			c-18.832,4.912-32.214,6.551-40.147,4.917c-1.104-0.224-2.104-0.514-3.001-0.872c0.897,0.357,1.897,0.648,3.001,0.872
			c4.046,8.311,5.279,15.156,3.701,20.536c-0.474,1.652-1.219,3.166-2.233,4.543c1.015-1.377,1.76-2.892,2.233-4.543
			c11.171-9.184,25.298-9.163,42.382,0.062c-18.123-6.086-32.996-4.593-44.615,4.481c-3.067,3.153-5.624,6.056-7.669,8.712
			c-3.32,4.003-5.388,6.658-6.203,7.964h-3.334h3.334h5.669c10.048,0.25,18.984,0.602,26.81,1.059
			c-0.047,0.464-0.069,0.931-0.066,1.4c-0.003-0.469,0.02-0.936,0.066-1.4c0.355-5.477,3.178-10.455,8.469-14.935
			c12.404-0.249,22.43-3.484,30.076-9.708c7.024-6.058,14.739-16.554,23.142-31.489c8.358-14.977,15.05-12.529,20.073,7.343
			c4.407,17.399-1.572,30.964-17.939,40.699c-2.286,1.361-4.775,2.647-7.469,3.858c0.668-1.282,1.135-2.527,1.4-3.734
			c-0.266,1.207-0.732,2.452-1.4,3.734c-5.825,0.167-9.937-2.096-12.337-6.783c0.888-0.1,1.777-0.173,2.667-0.218
			c0.577-0.021,1.155-0.03,1.733-0.03c4.357-1.784,6.758-3.61,7.203-5.477c-0.445,1.867-2.846,3.692-7.203,5.477
			c-0.578,0-1.156,0.01-1.733,0.03c-0.89,0.045-1.779,0.118-2.667,0.218c-4.18,0.457-8.047,1.432-11.604,2.925
			c0-0.792-0.089-1.559-0.267-2.303c0.178,0.744,0.267,1.512,0.267,2.303c-0.089,1.535-0.556,3.194-1.4,4.979
			c-1.601,2.074-3.423,3.775-5.469,5.102c-1.12,0.767-2.287,1.441-3.501,2.022c-3.099,1.46-6.489,2.279-10.17,2.459
			c1.602-1.286,2.901-2.572,3.902-3.859l-10.704-0.872c-0.81-0.054-1.621-0.105-2.435-0.155c-0.529,0.651-1.007,1.335-1.435,2.054
			c-0.348,0.591-0.659,1.202-0.933,1.835c-0.189-0.993-0.301-1.978-0.333-2.956c-0.019-0.375-0.019-0.748,0-1.12
			c-25.28-1.541-48.6-1.925-69.957-1.15c-7.536,0.981-11.138,4.196-10.804,9.646h-3.668h3.668h113.57
			c0-3.503-3.567-5.463-10.703-5.882c1.214-0.581,2.381-1.255,3.501-2.022c1.557,0.167,3.022,0.394,4.402,0.685
			C1393.058,1260.724,1395.749,1263.131,1395.838,1265.911z M1326.481,1248.548c0.631-0.759,1.319-1.588,2.067-2.489
			c0.475-0.619,0.976-1.252,1.5-1.898c1.76-2.125,3.815-4.396,6.169-6.814c4.126-5.598,3.859-13.48-0.801-23.647
			c-0.217-0.447-0.439-0.903-0.667-1.37c0.228,0.467,0.45,0.923,0.667,1.37c-2.681,7.211-9.572,14.534-20.674,21.966
			c5.041-0.751,10.143,2.081,15.306,8.495c-0.524,0.646-1.025,1.279-1.5,1.898C1327.801,1246.96,1327.112,1247.79,1326.481,1248.548
			z M1334.017,1205.92c0.714-0.138,1.426-0.272,2.135-0.404C1335.442,1205.648,1334.73,1205.782,1334.017,1205.92z
			 M1227.516,1249.667v-1.307V1249.667z M1412.176,1237.658c-4.431-5.416-8.787-7.791-13.07-7.126
			c-8.464,7.338-19.223,11.29-32.277,11.855c-4.886,3.693-7.487,8.641-7.804,14.842c-0.004,0.088-0.004,0.182,0,0.28
			c0.482,0.029,0.96,0.061,1.435,0.093c0.388-0.463,0.8-0.908,1.233-1.337c-0.434,0.429-0.846,0.874-1.233,1.337
			c-0.475-0.032-0.952-0.063-1.435-0.093c-0.004-0.098-0.004-0.192,0-0.28c6.456-6.43,12.19-9.781,17.206-10.051
			c2.63,2.994,2.252,6.852-1.133,11.576c-0.451,0.65-0.963,1.313-1.534,1.99c3.778-1.188,7.536-3.738,11.271-7.654
			c2.76-2.842,4.094-6.223,4.001-10.143c0.521,0.853,0.897,1.745,1.134,2.675c3.508-1.379,8.486-2.417,14.938-3.111
			C1407.726,1242.002,1410.148,1240.384,1412.176,1237.658z M1368.027,1089.707c-0.875,0.021-1.742,0.042-2.6,0.062
			c0.111,0.312,0.211,0.633,0.3,0.965c-0.089-0.332-0.188-0.653-0.3-0.965C1366.285,1089.749,1367.152,1089.728,1368.027,1089.707z
			 M1422.646,1172.441l3.469-1.245L1422.646,1172.441z M1420.112,1200.849c-6.475,12.858-13.176,22.358-20.106,28.502
			c-0.074,0.074-0.152,0.147-0.233,0.217c11.047-0.81,17.294,4.761,18.739,16.709c16.024-10.287,22.093-23.636,18.205-40.045
			C1432.597,1188.845,1427.062,1187.05,1420.112,1200.849z M1518.41,1267.59h-34.943H1518.41z M1126.549,1120.666v0.497h6.669
			v-0.497v0.497h-6.669V1120.666z M1156.825,1120.666v0.497h8.271v-0.497v0.497h-8.271V1120.666v-0.373l1.001-5.477
			c-0.534-0.622-1.001-1.265-1.4-1.929c-9.693,3.816-17.429,4.21-23.208,1.183v6.596H1156.825z M1186.068,1121.071
			c-1.334,0.184-2.535,0.484-3.602,0.901h1.066C1184.301,1121.592,1185.146,1121.291,1186.068,1121.071
			c-0.922,0.22-1.768,0.521-2.535,0.901h-1.066C1183.533,1121.555,1184.734,1121.254,1186.068,1121.071
			c0.776-0.194,1.609-0.33,2.501-0.405C1187.678,1120.741,1186.845,1120.876,1186.068,1121.071z M1188.77,1121.972
			c-6.848,0.581-10.56,3.672-11.138,9.272l-0.133,117.116v1.307v5.415h-2.334h2.334v1.431h-2.334h2.334v7.032h-2.334h2.334h44.414
			v2.365h-44.414h44.414v-2.365h5.603h2.199h-2.199v-8.463h2.199h-2.199v-5.415h-50.017v-1.307h50.017v-126.389h-5.603v-1.307v1.307
			H1188.77z M1076.133,1263.545v2.365h-1.868h1.868V1263.545z M1076.133,1248.361v1.307v5.415v8.463h-0.334h0.334h98.966v2.365
			h0.066v-2.365v-7.032v-1.431h-0.066v-5.415h-98.966V1248.361z M1183.533,1121.972h5.236H1183.533z M1186.102,1153.648h7.535v1.43
			h-7.535V1153.648z M1186.102,1148.98h7.535v1.43h-7.535V1148.98z M1186.102,1144.251h7.535v1.43h-7.535V1144.251z
			 M1198.439,1140.953v-1.432h16.405v1.432H1198.439z M1198.439,1155.078v-1.43h16.405v1.43H1198.439z M1198.439,1150.411v-1.43
			h16.405v1.43H1198.439z M1198.439,1145.682v-1.43h16.405v1.43H1198.439z M1193.637,1140.953h-7.535v-1.432h7.535V1140.953z
			 M1182.467,1121.972h-95.198c-6.846,0.581-10.56,3.672-11.136,9.272v117.116h98.966l0.133-117.116
			C1175.695,1126.752,1178.107,1123.663,1182.467,1121.972z M1076.133,1255.083h-1.868H1076.133z M1227.849,1243.072
			c0.671-3.147,1.294-6.259,1.866-9.335v9.211v-9.211C1229.143,1236.813,1228.52,1239.924,1227.849,1243.072z M1229.715,1140.298
			v93.438C1236.607,1196.96,1236.607,1165.814,1229.715,1140.298z M1175.165,1265.911h2.334v-2.365v2.365H1175.165z
			 M1175.099,1249.667v-1.307V1249.667z M1076.133,1265.911h98.966H1076.133z M1332.316,1085.724
			c0.361-0.499,0.751-0.986,1.167-1.462C1333.067,1084.738,1332.678,1085.225,1332.316,1085.724
			c-1.268-1.514-2.279-2.625-3.034-3.329c-3.29-3.07-7.226-4.605-11.804-4.605c-4.58,0-8.515,1.535-11.805,4.605
			c-3.29,3.029-4.936,6.7-4.936,11.014c0,0.208,0,0.437,0,0.685c0.072,1.419,0.072,2.644,0,3.671
			c-0.017,0.261-0.039,0.52-0.066,0.778c0.027-0.258,0.05-0.517,0.066-0.778c9.013-0.505,18.571-1.729,28.677-3.671
			C1329.564,1091.042,1330.531,1088.251,1332.316,1085.724z M1344.753,1093.223c0.445,0.497,0.667,1.037,0.667,1.618
			c0,0.746-0.222,1.307-0.667,1.68c-0.532,0.499-1.11,0.748-1.733,0.748c-0.8,0-1.4-0.249-1.8-0.748
			c-0.534-0.373-0.802-0.934-0.802-1.68c0-0.581,0.268-1.121,0.802-1.618c0.399-0.375,1-0.56,1.8-0.56
			C1343.643,1092.663,1344.221,1092.848,1344.753,1093.223z M1389.135,1113.292c0.107,0.077,0.207,0.15,0.301,0.218
			c1.066,0.913,1.155,2.448,0.266,4.605c-1.022,2.115-2.489,2.862-4.4,2.24c-1.822-0.664-3.867-1.474-6.136-2.428
			c-2.268-0.83-4.045-1.535-5.335-2.116c-1.378-0.705-1.557-2.116-0.534-4.231c0.89-2.116,2.423-3.34,4.603-3.672
			c2.057-0.345,4.057,0.122,6.002,1.4c-1.661-1.019-3.373-1.382-5.135-1.089c-1.912,0.29-3.268,1.368-4.069,3.235
			c-0.888,1.908-0.733,3.173,0.468,3.796c1.155,0.498,2.734,1.12,4.734,1.866c2.045,0.872,3.869,1.599,5.469,2.179
			c1.734,0.539,3.046-0.124,3.935-1.991C1390.071,1115.471,1390.016,1114.133,1389.135,1113.292z M1323.68,1096.708
			c0.4-0.114,0.8-0.228,1.201-0.343C1324.479,1096.48,1324.08,1096.593,1323.68,1096.708z M1389.034,1127.76
			c1.068-0.997,2.38-1.494,3.936-1.494s2.868,0.497,3.935,1.494c1.111,1.037,1.667,2.281,1.667,3.734
			c0,1.451-0.556,2.675-1.667,3.67c-1.066,1.038-2.111,1.432-3.134,1.183c-1.068-0.249-2.201-0.851-3.402-1.805
			c-1.199-0.954-1.979-2.053-2.334-3.298C1387.59,1129.959,1387.924,1128.797,1389.034,1127.76z M1384.101,1129.564
			c0,0.954-0.512,1.722-1.534,2.303c-0.89,0.664-1.979,0.996-3.269,0.996c-1.378,0-2.555-0.332-3.533-0.996
			c-0.934-0.581-1.401-1.349-1.401-2.303s0.468-1.763,1.401-2.426c0.979-0.581,2.155-0.872,3.533-0.872
			c1.29,0,2.379,0.291,3.269,0.872C1383.589,1127.801,1384.101,1128.61,1384.101,1129.564z M1397.704,1130.872
			c0-1.203-0.444-2.221-1.334-3.049c-0.888-0.789-1.955-1.183-3.2-1.183s-2.312,0.394-3.201,1.183
			c-0.889,0.829-1.155,1.784-0.8,2.862c0.312,0.996,0.956,1.888,1.934,2.676c0.933,0.746,1.845,1.224,2.734,1.431
			c0.8,0.208,1.646-0.104,2.533-0.934C1397.26,1133.029,1397.704,1132.033,1397.704,1130.872z M1382.232,1127.324
			c-0.711-0.456-1.578-0.684-2.601-0.684c-1.111,0-2.067,0.229-2.867,0.684c-0.712,0.54-1.067,1.203-1.067,1.992
			c0,0.746,0.355,1.348,1.067,1.804c0.8,0.54,1.756,0.81,2.867,0.81c1.022,0,1.89-0.27,2.601-0.81
			c0.8-0.456,1.201-1.058,1.201-1.804C1383.434,1128.527,1383.032,1127.864,1382.232,1127.324z M1372.562,1069.576
			c-7.38-10.497-18.672-13.111-33.878-7.842C1355.891,1050.035,1367.184,1052.648,1372.562,1069.576z M1307.875,1089.8
			c0.533,0.456,0.8,0.995,0.8,1.617c0,0.705-0.267,1.266-0.8,1.68c-0.534,0.374-1.135,0.561-1.801,0.561
			c-0.667,0-1.244-0.187-1.734-0.561c-0.444-0.414-0.667-0.975-0.667-1.68c0-0.622,0.223-1.162,0.667-1.617
			c0.49-0.54,1.067-0.81,1.734-0.81C1306.74,1088.991,1307.341,1089.26,1307.875,1089.8z M1227.516,1120.666v1.307h2.199h-2.199
			V1120.666z M1288.001,1125.084c0.802,0.789,1.201,1.68,1.201,2.676c0,1.037-0.399,1.929-1.201,2.675
			c-0.844,0.789-1.8,1.182-2.866,1.182c-1.112,0-2.068-0.394-2.868-1.182c-0.846-0.747-1.268-1.638-1.268-2.675
			c0-0.997,0.422-1.888,1.268-2.676c0.8-0.747,1.756-1.121,2.868-1.121C1286.201,1123.963,1287.157,1124.337,1288.001,1125.084z
			 M1252.39,1129.813c0,0.789,0.312,1.473,0.934,2.054c0.623,0.581,1.356,0.872,2.201,0.872c0.8,0,1.511-0.291,2.134-0.872
			c0.578-0.581,0.867-1.265,0.867-2.054c0-0.746-0.289-1.41-0.867-1.991c-0.623-0.54-1.334-0.81-2.134-0.81
			c-0.845,0-1.578,0.27-2.201,0.81C1252.701,1128.403,1252.39,1129.067,1252.39,1129.813z M1252.857,1127.138
			c0.799-0.748,1.756-1.121,2.866-1.121c1.068,0,2.023,0.373,2.868,1.121c0.8,0.787,1.201,1.68,1.201,2.675
			c0,1.038-0.401,1.929-1.201,2.677c-0.845,0.787-1.8,1.183-2.868,1.183c-1.11,0-2.067-0.396-2.866-1.183
			c-0.846-0.748-1.268-1.639-1.268-2.677C1251.59,1128.818,1252.012,1127.925,1252.857,1127.138z M1227.849,1134.045
			c0.671,2.049,1.292,4.134,1.866,6.253v-6.378v6.378C1229.141,1138.179,1228.52,1136.094,1227.849,1134.045z M1247.521,1134.356
			c-3.286-6.483-1.84-10.59,4.335-12.322C1247.455,1125.395,1246.01,1129.502,1247.521,1134.356z M1296.338,1133.236
			c0.99-7.018-0.677-11.79-5.002-14.313C1298.316,1120.15,1299.983,1124.921,1296.338,1133.236z M1287.868,1127.822
			c0-0.748-0.289-1.411-0.867-1.992c-0.622-0.539-1.334-0.808-2.134-0.808c-0.845,0-1.578,0.27-2.201,0.808
			c-0.622,0.581-0.934,1.245-0.934,1.992c0,0.788,0.312,1.473,0.934,2.053c0.623,0.581,1.356,0.872,2.201,0.872
			c0.8,0,1.512-0.291,2.134-0.872C1287.579,1129.295,1287.868,1128.61,1287.868,1127.822z M1297.505,1160.275l0.833-0.093
			l3.702-0.343l-3.702,0.343L1297.505,1160.275l-15.272,1.462c2.868,12.487,6.658,16.74,11.371,12.757
			c0.711-0.581,1.312-1.473,1.8-2.676c0.312-0.788,0.623-1.659,0.935-2.613C1296.916,1166.881,1297.305,1163.905,1297.505,1160.275z
			 M1294.337,1249.667c4.398-2.345,9.8-4.254,16.206-5.725c0.373,2.365,1.529,4.585,3.467,6.658c1.421-3.407,3.544-6.29,6.369-8.649
			l0.566-2.427c-2.452-1.353-5.031-2.078-7.735-2.178l-14.005,5.663C1296.566,1245.387,1294.943,1247.606,1294.337,1249.667z
			 M1278.199,1160.742c0.017,0.461,0.027,0.918,0.032,1.369l1.301-0.124l-1.301,0.124
			C1278.227,1161.661,1278.216,1161.204,1278.199,1160.742z M1262.76,1163.511h0.034H1262.76z M1262.794,1163.511
			c0.977,5.041,2.178,8.847,3.601,11.419c2.355,4.397,5.202,5.104,8.536,2.116c0.223-0.124,0.399-0.291,0.534-0.499
			c2-2.364,2.923-7.177,2.767-14.437L1262.794,1163.511z M1229.715,1265.911h-2.199h-5.603h5.603H1229.715z M1227.516,1263.545
			v2.365V1263.545z M1335.617,1204.458c0.07,0.13,0.137,0.265,0.201,0.403c0.075,0.215,0.188,0.433,0.333,0.654
			c-0.146-0.222-0.258-0.439-0.333-0.654C1335.754,1204.723,1335.688,1204.588,1335.617,1204.458z M1337.785,1205.236l0.267,0.84
			L1337.785,1205.236z M1308.408,1238.436l3.201-1.089c-1.557,0.083-3.134,0.353-4.734,0.808c1.601-0.456,3.178-0.726,4.734-0.808
			L1308.408,1238.436z M1311.609,1237.347c0.539-0.028,1.073-0.028,1.601,0C1312.683,1237.319,1312.148,1237.319,1311.609,1237.347z
			 M1320.379,1241.952l-0.566,2.426c3.08,1.509,5.993,2.07,8.736,1.681c-2.356-2.905-4.892-5.083-7.604-6.534
			c2.712,1.451,5.247,3.629,7.604,6.534c-2.743,0.389-5.656-0.172-8.736-1.681L1320.379,1241.952z M1319.812,1244.378l-1.468,2.272
			L1319.812,1244.378z M1328.682,1068.082c-9.337-5.061-18.205-3.61-26.609,4.356
			C1311.364,1060.489,1320.234,1059.038,1328.682,1068.082z M1361.692,1256.265c4.714,0.248,9.024,0.538,12.938,0.87
			c-0.298,0.5-0.642,0.997-1.032,1.494l1.5,0.125l-1.5-0.125c0.391-0.497,0.734-0.994,1.032-1.494
			c1.733-2.904,1.912-5.704,0.534-8.401C1369.251,1250.518,1364.761,1253.028,1361.692,1256.265z M1357.759,1258.536
			c0.341-0.354,0.675-0.707,1-1.058c-0.34-0.021-0.673-0.042-1-0.062c0.327,0.021,0.66,0.042,1,0.062
			C1358.434,1257.829,1358.1,1258.182,1357.759,1258.536z M1359.024,1257.229c-0.084,0.087-0.173,0.17-0.266,0.249
			c0.085,0.006,0.175,0.016,0.266,0.031c-0.029,0.698-0.029,1.413,0,2.146c-0.029-0.734-0.029-1.449,0-2.146
			c-0.091-0.016-0.181-0.025-0.266-0.031C1358.852,1257.399,1358.94,1257.316,1359.024,1257.229z M1390.568,1265.911h5.27H1390.568z
			 M1415.577,1248.05c-4.054,1.781-7.743,0.692-11.07-3.267C1407.834,1248.742,1411.523,1249.831,1415.577,1248.05z
			 M1340.352,1162.982c2.4-4.273,1.022-9.252-4.134-14.935C1343.775,1151.698,1345.154,1156.676,1340.352,1162.982z"/>
		
			<path fill-rule="evenodd" clip-rule="evenodd" fill="none" stroke="#FFFFFF" stroke-width="0.1" stroke-linecap="round" stroke-linejoin="round" stroke-miterlimit="3" d="
			M1482.8,1095.213c1.281,0.127,2.571,0.25,3.867,0.373l0.468-3.795c-48.372-3.236-89.098-4.294-122.175-3.173
			c0.983,0.287,2.006,0.65,3.067,1.089C1398.373,1089.106,1436.631,1090.943,1482.8,1095.213z M1486.667,1095.586
			c14.696,6.1,27.145,15.288,37.346,27.568l-34.278,142.756h5.869l35.278-144.125c-11.648-14.022-26.231-24.021-43.747-29.994
			 M1433.117,1166.187c0.385,0.366,0.74,0.74,1.066,1.12c4.948,6.466-2.344,14.899-21.875,25.296
			c-48.043,19.206-75.14,23.646-81.293,13.317c-0.949-1.073,0.184-2.381,3.4-3.921c-0.215-0.414-0.438-0.83-0.666-1.244
			c-7.292,3.982-6.959,7.841,1,11.574c0.897,0.357,1.897,0.648,3.001,0.872c7.934,1.635,21.315-0.005,40.147-4.917
			c21.519-5.684,36.879-11.927,46.081-18.731c3.113-2.407,5.713-4.584,7.804-6.534c0.667-0.581,1.266-1.183,1.8-1.805
			c0.163-0.184,0.319-0.371,0.466-0.559c2.402-2.83,3.602-5.277,3.602-7.344C1437.867,1169.098,1436.356,1166.723,1433.117,1166.187
			z M1422.18,1171.352c-0.174-0.375-0.34-0.748-0.5-1.12c-0.045-0.11-0.089-0.225-0.135-0.343c-0.145-0.351-0.289-0.704-0.432-1.057
			c-7.914-19.208-16.206-38.334-24.876-57.376c-11.208-11.298-20.612-18.548-28.21-21.749c-0.875,0.021-1.742,0.042-2.6,0.062
			c0.111,0.312,0.211,0.633,0.3,0.965c12.227,5.659,21.952,12.897,29.176,21.717c9.353,20.826,17.2,41.653,23.542,62.479
			c1.923-1.11,3.324-1.94,4.2-2.489C1422.484,1172.077,1422.329,1171.713,1422.18,1171.352l4.602-1.027
			c-0.21,0.294-0.431,0.584-0.667,0.871c-1.374,1.761-3.097,3.493-5.168,5.196c-10.577,8.627-30.262,16.458-59.054,23.492
			c-0.044,0.011-0.088,0.021-0.133,0.032c-11.373,3.48-19.277,5.535-23.708,6.161c-2.217,0.305-3.562,0.253-4.035-0.156l1.601-1.462
			c-0.374-0.824-0.773-1.644-1.201-2.459 M1418.445,1174.93l2.501,1.462 M1434.184,1167.307c-1.649-1.078-5.861-0.217-12.639,2.583
			 M1421.113,1168.832c5.251-2.213,9.253-3.094,12.004-2.645 M1422.646,1172.441l3.469-1.245 M1420.112,1200.849
			c-6.475,12.858-13.176,22.358-20.106,28.502c-0.074,0.074-0.152,0.147-0.233,0.217c11.047-0.81,17.294,4.761,18.739,16.709
			c16.024-10.287,22.093-23.636,18.205-40.045C1432.597,1188.845,1427.062,1187.05,1420.112,1200.849z M1414.177,1251.784
			c2.693-1.211,5.183-2.497,7.469-3.858c16.367-9.734,22.347-23.299,17.939-40.699c-5.023-19.872-11.715-22.32-20.073-7.343
			c-8.402,14.935-16.117,25.431-23.142,31.489c0.711-0.33,1.423-0.568,2.135-0.716c0.406-0.33,0.807-0.673,1.2-1.026
			c0.024-0.021,0.047-0.042,0.067-0.062 M1412.176,1237.658c0.424,0.511,0.846,1.05,1.268,1.618
			c0.133,0.083,0.244,0.208,0.334,0.373c1.797,2.445,2.43,5.111,1.9,7.996c-0.026,0.133-0.059,0.266-0.101,0.405
			c0.594-0.343,1.172-0.684,1.733-1.027c0.405-0.248,0.805-0.497,1.201-0.746 M1460.658,1265.911h4.602
			c-0.91-4.411-1.887-8.736-2.935-12.976L1460.658,1265.911z M1033.251,1267.59h450.216v-1.68h-18.207l21.407-170.324
			 M1483.467,1265.911h6.268 M1518.41,1265.911v1.68h14.005v-1.68H1518.41z M1495.604,1265.911h22.807 M1518.41,1267.59h-34.943
			 M1434.049,1180.656c12.106,20.504,21.531,44.598,28.276,72.279c8.396-47.447,15.219-100.02,20.475-157.721 M1431.783,1183.02
			c13.959,23.647,23.584,51.278,28.875,82.891 M1532.415,1267.59v11.077h-499.164v-11.077v-1.68h41.014v-10.828v-125.145
			c0.476-4.745,4.188-7.835,11.138-9.272h41.146v-6.596c-3.423-1.079-5.468-3.05-6.135-5.912c-1.691-7.468-4.447-13.379-8.27-17.735
			h-9.938c-0.399-4.108,2.268-6.598,8.003-7.468c4.356-0.498,7.135,0.477,8.336,2.925c2.535,3.733,4.602,7.467,6.203,11.201
			c10.491-6.679,22.784-5.311,36.878,4.107c6.445,4.315,12.604,7.779,18.473,10.393c0.889,0.414,1.801,0.808,2.734,1.182
			c1.822,0.789,3.646,1.473,5.468,2.054c2.891,0.996,5.713,1.743,8.471,2.24h0.066c0.091,0.001,0.202,0.021,0.333,0.062
			c0.623,0.084,1.244,0.167,1.867,0.25c-13.204,1.992-24.519,0.602-33.943-4.169v7.467h23.474h33.344h5.603h2.199v1.307v11.948
			c9.381,28.668,9.381,65.009,0,109.027v12.135v8.463v2.365h43.615c-1.646-5.353,3.157-9.003,14.404-10.954h34.278
			c-0.3-0.209,1.19-2.346,4.469-6.409c-2.713,0.522-5.425-0.111-8.137-1.898c-1.946,2.291-3.501,4.728-4.668,7.312
			c-2.477-2.272-3.834-4.949-4.068-8.027c-7.267,1.496-13.646,3.818-19.139,6.97c1.445-3.61,3.848-7.218,7.201-10.829l10.737-3.64
			l-1.533-0.281c12.938-5.974,22.229-14.581,27.875-25.825c0.228,0.467,0.45,0.923,0.667,1.37
			c4.66,10.167,4.927,18.049,0.801,23.647c-2.354,2.418-4.409,4.689-6.169,6.814c-0.524,0.646-1.025,1.279-1.5,1.898
			c-0.748,0.901-1.437,1.73-2.067,2.489 M1111.645,1083.358c4.967-0.227,9.113,5.031,12.438,15.776
			c8.875-7.302,20.012-6.97,33.41,0.996l19.14,10.829c3.778,1.783,10.003,3.837,18.673,6.159
			c-12.804,0.457-23.408-1.535-31.811-5.974v9.148h-5.068l1.334-4.792c-2.09-2.531-2.979-4.812-2.667-6.846l-2.402,0.249
			c0.223,0.747,0.468,1.432,0.735,2.055c-10.924,4.424-18.325,4.632-22.208,0.622h-1.4v8.712h-3.802v-9.148h-1.467
			c-2.896-0.053-5.064-2.563-6.502-7.529c-1.438-4.966-3.738-9.758-6.902-14.375h-9.736
			C1103.93,1085.547,1106.675,1083.587,1111.645,1083.358z M1126.549,1120.666v0.497h6.669v-0.497v-6.596
			c5.779,3.027,13.515,2.634,23.208-1.183c0.399,0.664,0.866,1.307,1.4,1.929l-1.001,5.477v0.373v0.497h8.271v-0.497
			 M1186.068,1121.071c-1.334,0.184-2.535,0.484-3.602,0.901h1.066C1184.301,1121.592,1185.146,1121.291,1186.068,1121.071
			c0.776-0.194,1.609-0.33,2.501-0.405 M1196.839,1117.056c0.048,0.001,0.137,0.021,0.267,0.062h0.066 M1183.533,1121.972h5.236
			h33.144v-1.307 M1186.102,1153.648h7.535v1.43h-7.535V1153.648z M1186.102,1148.98h7.535v1.43h-7.535V1148.98z M1186.102,1144.251
			h7.535v1.43h-7.535V1144.251z M1198.439,1145.682h16.405v-1.43h-16.405V1145.682z M1198.439,1150.411h16.405v-1.43h-16.405
			V1150.411z M1198.439,1155.078h16.405v-1.43h-16.405V1155.078z M1198.439,1140.953h16.405v-1.432h-16.405V1140.953z
			 M1193.637,1140.953h-7.535v-1.432h7.535V1140.953z M1182.467,1121.972h-95.198c-6.846,0.581-10.56,3.672-11.136,9.272v117.116
			h98.966l0.133-117.116C1175.695,1126.752,1178.107,1123.663,1182.467,1121.972z M1177.499,1248.361l0.133-117.116
			c0.578-5.601,4.29-8.691,11.138-9.272 M1156.825,1120.666h-23.607 M1075.799,1263.545h0.334v-8.463h-1.868 M1076.133,1255.083
			v-5.415v-1.307 M1074.265,1265.911h1.868v-2.365h98.966v2.365h0.066v-2.365h2.334v-7.032h-2.334 M1175.165,1255.083h2.334v-5.415
			v-1.307h50.017v1.307v5.415h2.199 M1175.099,1249.667v5.415h0.066 M1175.099,1255.083v1.431h0.066v-1.431 M1175.099,1256.513
			v7.032h0.066v-7.032 M1177.499,1255.083v1.431 M1175.165,1265.911h2.334v-2.365 M1175.099,1249.667v-1.307 M1076.133,1265.911
			h98.966 M1076.133,1249.667h98.966 M1364.96,1088.618c0.175,0.362,0.331,0.746,0.468,1.151 M1363.428,1089.831
			c0.666-0.017,1.333-0.038,2-0.062 M1363.428,1089.831c0.048,0.149,0.092,0.305,0.133,0.467c0.443,1.576,0.666,3.484,0.666,5.726
			c0,2.862-3.356,4.874-10.069,6.036c-1.334-0.083-2.779-0.229-4.335-0.436c-5.736-0.789-10.271-1.432-13.604-1.93
			c-3.246-0.539-5.068-1.017-5.47-1.431c-0.488-0.332-0.555-1.162-0.199-2.489c0.089-0.664,0.178-1.183,0.268-1.556
			c0.088-0.416,0.154-0.727,0.199-0.934c0.089-2.697,0.956-5.166,2.601-7.405c0.312-0.456,0.667-0.893,1.067-1.307
			c0.311-0.373,0.667-0.705,1.066-0.996c3.29-3.029,7.203-4.543,11.738-4.543c4.58,0,8.491,1.515,11.737,4.543
			c1.556,1.41,2.778,3.028,3.668,4.853C1363.099,1088.846,1363.276,1089.313,1363.428,1089.831z M1332.316,1085.724
			c0.361-0.499,0.751-0.986,1.167-1.462c-0.712-0.913-1.489-1.764-2.334-2.551c-3.646-3.402-8.002-5.104-13.071-5.104
			c-5.113,0-9.492,1.701-13.138,5.104c-3.646,3.401-5.468,7.488-5.468,12.259c0,0.249,0,0.498,0,0.746
			c0.013,0.291,0.023,0.561,0.032,0.81c0.054,1.464,0.043,2.231-0.032,2.302c0.421-0.021,0.843-0.041,1.266-0.062
			c0.072-1.028,0.072-2.252,0-3.671c0-0.248,0-0.477,0-0.685c0-4.314,1.646-7.985,4.936-11.014c3.29-3.07,7.225-4.605,11.805-4.605
			c4.578,0,8.514,1.535,11.804,4.605C1330.037,1083.099,1331.049,1084.209,1332.316,1085.724z M1333.483,1084.261
			c0.356-0.416,0.778-0.789,1.267-1.12c3.646-3.402,8.002-5.103,13.072-5.103c5.112,0,9.491,1.7,13.137,5.103
			c1.733,1.617,3.067,3.443,4.001,5.477 M1300.738,1097.765c9.013-0.505,18.571-1.729,28.677-3.671
			c0.149-3.051,1.116-5.842,2.901-8.37 M1344.753,1093.223c0.445,0.497,0.667,1.037,0.667,1.618c0,0.746-0.222,1.307-0.667,1.68
			c-0.532,0.499-1.11,0.748-1.733,0.748c-0.8,0-1.4-0.249-1.8-0.748c-0.534-0.373-0.802-0.934-0.802-1.68
			c0-0.581,0.268-1.121,0.802-1.618c0.399-0.375,1-0.56,1.8-0.56C1343.643,1092.663,1344.221,1092.848,1344.753,1093.223z
			 M1355.224,1103.926c-1.466-0.083-3.067-0.25-4.802-0.499c-6.446-0.87-11.492-1.597-15.138-2.178
			c-3.646-0.58-5.691-1.099-6.135-1.556c-0.579-0.415-0.667-1.348-0.268-2.801c0.134-0.732,0.246-1.334,0.334-1.804
			c-0.472,0.433-0.86,1.087-1.167,1.959c-0.305,0.868-0.261,1.749,0.133,2.645c0.387,0.903,2.365,1.744,5.936,2.521
			c3.575,0.769,8.588,1.587,15.038,2.458c1.733,0.249,3.335,0.415,4.802,0.498l3.135,0.124c1.111,0.042,2.178,0.063,3.2,0.063
			c5.291-0.167,9.937-1.702,13.938-4.605c-3.136,2.055-7.371,3.165-12.705,3.329c-1.014,0.02-2.069,0.008-3.168-0.032
			L1355.224,1103.926z M1329.216,1095.089c0.088-0.459,0.156-0.791,0.199-0.996c-2.107,0.548-3.62,1.305-4.534,2.271
			c-0.564,0.505-0.92,1.107-1.066,1.805C1325.265,1096.248,1327.066,1095.222,1329.216,1095.089z M1323.68,1096.708
			c0.4-0.114,0.8-0.228,1.201-0.343 M1323.814,1098.169c-0.413,1.896,0.72,4.5,3.4,7.811c-5.131-3.176-6.309-6.266-3.535-9.272
			c-7.595,2.018-15.264,2.629-23.008,1.835c-1.687-0.171-3.376-0.409-5.067-0.716h3.868 M1389.135,1113.292
			c0.107,0.077,0.207,0.15,0.301,0.218c1.066,0.913,1.155,2.448,0.266,4.605c-1.022,2.115-2.489,2.862-4.4,2.24
			c-1.822-0.664-3.867-1.474-6.136-2.428c-2.268-0.83-4.045-1.535-5.335-2.116c-1.378-0.705-1.557-2.116-0.534-4.231
			c0.89-2.116,2.423-3.34,4.603-3.672c2.057-0.345,4.057,0.122,6.002,1.4c0.223,0.148,0.443,0.304,0.666,0.467
			c1.912,1.493,3.401,2.634,4.468,3.422C1389.073,1113.23,1389.106,1113.261,1389.135,1113.292c0.881,0.841,0.937,2.18,0.167,4.014
			c-0.889,1.867-2.2,2.53-3.935,1.991c-1.6-0.58-3.424-1.307-5.469-2.179c-2-0.746-3.579-1.368-4.734-1.866
			c-1.201-0.623-1.355-1.888-0.468-3.796c0.802-1.867,2.157-2.945,4.069-3.235c1.762-0.293,3.474,0.07,5.135,1.089
			c0.154,0.113,0.311,0.227,0.466,0.341C1386.376,1111.219,1387.965,1112.433,1389.135,1113.292z M1389.034,1127.76
			c1.068-0.997,2.38-1.494,3.936-1.494s2.868,0.497,3.935,1.494c1.111,1.037,1.667,2.281,1.667,3.734
			c0,1.451-0.556,2.675-1.667,3.67c-1.066,1.038-2.111,1.432-3.134,1.183c-1.068-0.249-2.201-0.851-3.402-1.805
			c-1.199-0.954-1.979-2.053-2.334-3.298C1387.59,1129.959,1387.924,1128.797,1389.034,1127.76z M1384.101,1129.564
			c0,0.954-0.512,1.722-1.534,2.303c-0.89,0.664-1.979,0.996-3.269,0.996c-1.378,0-2.555-0.332-3.533-0.996
			c-0.934-0.581-1.401-1.349-1.401-2.303s0.468-1.763,1.401-2.426c0.979-0.581,2.155-0.872,3.533-0.872
			c1.29,0,2.379,0.291,3.269,0.872C1383.589,1127.801,1384.101,1128.61,1384.101,1129.564z M1382.232,1127.324
			c0.8,0.54,1.201,1.203,1.201,1.992c0,0.746-0.401,1.348-1.201,1.804c-0.711,0.54-1.578,0.81-2.601,0.81
			c-1.111,0-2.067-0.27-2.867-0.81c-0.712-0.456-1.067-1.058-1.067-1.804c0-0.789,0.355-1.452,1.067-1.992
			c0.8-0.456,1.756-0.684,2.867-0.684C1380.654,1126.64,1381.521,1126.868,1382.232,1127.324z M1397.704,1130.872
			c0,1.161-0.444,2.157-1.334,2.986c-0.888,0.83-1.733,1.142-2.533,0.934c-0.89-0.207-1.802-0.685-2.734-1.431
			c-0.978-0.789-1.622-1.681-1.934-2.676c-0.355-1.078-0.089-2.034,0.8-2.862c0.89-0.789,1.956-1.183,3.201-1.183
			s2.312,0.394,3.2,1.183C1397.26,1128.651,1397.704,1129.668,1397.704,1130.872z M1372.562,1069.576
			c-7.38-10.497-18.672-13.111-33.878-7.842C1355.891,1050.035,1367.184,1052.648,1372.562,1069.576z M1365.728,1090.734
			c0.466,1.753,0.7,3.89,0.7,6.409c0,3.237-3.735,5.498-11.204,6.783 M1307.875,1089.8c0.533,0.456,0.8,0.995,0.8,1.617
			c0,0.705-0.267,1.266-0.8,1.68c-0.534,0.374-1.135,0.561-1.801,0.561c-0.667,0-1.244-0.187-1.734-0.561
			c-0.444-0.414-0.667-0.975-0.667-1.68c0-0.622,0.223-1.162,0.667-1.617c0.49-0.54,1.067-0.81,1.734-0.81
			C1306.74,1088.991,1307.341,1089.26,1307.875,1089.8z M1227.516,1120.666v1.307h2.199 M1243.387,1123.062
			c0.002-0.071,0.002-0.144,0-0.217c-0.025-0.796,0.176-1.604,0.601-2.428c-1.693,1.638-2.517,3.234-2.468,4.791
			c0.623,16.596,2.624,29.871,6.002,39.827l11.471-1.181l3.768-0.343c-0.056-0.296-0.111-0.597-0.166-0.902 M1252.39,1129.813
			c0-0.746,0.312-1.41,0.934-1.991c0.623-0.54,1.356-0.81,2.201-0.81c0.8,0,1.511,0.27,2.134,0.81
			c0.578,0.581,0.867,1.245,0.867,1.991c0,0.789-0.289,1.473-0.867,2.054c-0.623,0.581-1.334,0.872-2.134,0.872
			c-0.845,0-1.578-0.291-2.201-0.872C1252.701,1131.286,1252.39,1130.602,1252.39,1129.813z M1252.857,1127.138
			c0.799-0.748,1.756-1.121,2.866-1.121c1.068,0,2.023,0.373,2.868,1.121c0.8,0.787,1.201,1.68,1.201,2.675
			c0,1.038-0.401,1.929-1.201,2.677c-0.845,0.787-1.8,1.183-2.868,1.183c-1.11,0-2.067-0.396-2.866-1.183
			c-0.846-0.748-1.268-1.639-1.268-2.677C1251.59,1128.818,1252.012,1127.925,1252.857,1127.138z M1227.849,1134.045
			c0.671,2.049,1.292,4.134,1.866,6.253v-6.378 M1247.521,1134.356c-3.286-6.483-1.84-10.59,4.335-12.322
			C1247.455,1125.395,1246.01,1129.502,1247.521,1134.356z M1221.913,1121.972h5.603v126.389 M1243.387,1123.062
			c5.98-6.885,22.764-13.161,50.35-18.825c-3.381-6.578-1.471-9.627,5.736-9.147l0.032,0.436 M1300.738,1097.765
			c-0.017,0.261-0.039,0.52-0.066,0.778 M1243.987,1120.417c4.512-4.308,15.159-8.871,31.943-13.69
			c4.401-1.286,9.181-2.551,14.339-3.796c-0.225-0.626-0.401-1.218-0.534-1.773c-1.413-5.77,1.832-7.916,9.737-6.441
			 M1288.001,1125.084c0.802,0.789,1.201,1.68,1.201,2.676c0,1.037-0.399,1.929-1.201,2.675c-0.844,0.789-1.8,1.182-2.866,1.182
			c-1.112,0-2.068-0.394-2.868-1.182c-0.846-0.747-1.268-1.638-1.268-2.675c0-0.997,0.422-1.888,1.268-2.676
			c0.8-0.747,1.756-1.121,2.868-1.121C1286.201,1123.963,1287.157,1124.337,1288.001,1125.084z M1287.868,1127.822
			c0,0.788-0.289,1.473-0.867,2.053c-0.622,0.581-1.334,0.872-2.134,0.872c-0.845,0-1.578-0.291-2.201-0.872
			c-0.622-0.58-0.934-1.265-0.934-2.053c0-0.748,0.312-1.411,0.934-1.992c0.623-0.539,1.356-0.808,2.201-0.808
			c0.8,0,1.512,0.27,2.134,0.808C1287.579,1126.411,1287.868,1127.075,1287.868,1127.822z M1296.338,1133.236
			c3.646-8.314,1.979-13.085-5.002-14.313C1295.661,1121.446,1297.328,1126.218,1296.338,1133.236z M1297.505,1160.275l0.833-0.093
			l3.702-0.343l18.106-1.742l1.066-0.094l8.869-1.059l-80.026,3.237c-3.807-8.261-6.029-20.635-6.669-37.121 M1296.838,1170.605
			c0.75-2.74,1.25-6.215,1.5-10.423c5.691,14.894,11.403,20.286,17.14,16.18c4.09-4.066,6.002-10.186,5.735-18.358
			 M1297.505,1160.275c-0.2,3.629-0.589,6.606-1.167,8.93c-0.312,0.954-0.623,1.826-0.935,2.613c-0.488,1.203-1.089,2.095-1.8,2.676
			c-4.713,3.983-8.503-0.27-11.371-12.757l-2.7,0.249c3.512,14.686,8.158,19.664,13.938,14.935c0.889-0.707,1.644-1.784,2.267-3.237
			c0.407-0.895,0.774-1.921,1.101-3.08c9.737,19.188,25.108,27.102,46.115,23.741c-2.813,0.874-5.481,1.507-8.003,1.897l2.835,8.961
			c-0.536,0.099-1.082,0.203-1.634,0.312c0.02,0.028,0.042,0.06,0.066,0.094c0.528-0.127,1.051-0.251,1.567-0.374v-0.032
			 M1282.232,1161.738l15.272-1.462 M1278.199,1160.742c0.017,0.461,0.027,0.918,0.032,1.369l1.301-0.124
			c0.444,8.669-0.757,14.396-3.602,17.175c-0.178,0.207-0.399,0.394-0.667,0.561c-7.112,5.269-12.537-0.021-16.271-15.869
			 M1262.76,1163.511h0.034l15.438-1.4c0.156,7.26-0.767,12.073-2.767,14.437c-0.135,0.208-0.312,0.375-0.534,0.499
			c-3.334,2.988-6.181,2.281-8.536-2.116c-1.423-2.572-2.624-6.378-3.601-11.419 M1229.715,1242.948v-9.211
			c-0.572,3.076-1.195,6.188-1.866,9.335 M1177.499,1265.911h44.414v-2.365h-44.414 M1227.516,1263.545h2.199 M1227.516,1255.083
			v8.463v2.365 M1229.715,1265.911h-2.199h-5.603 M1221.913,1263.545h5.603 M1273.33,1265.911h3.668
			c-0.334-5.449,3.268-8.664,10.804-9.646c21.357-0.774,44.677-0.391,69.957,1.15c-0.003-0.469,0.02-0.936,0.066-1.4
			c-7.825-0.457-16.762-0.809-26.81-1.059h-5.669h-3.334 M1294.337,1249.667c4.398-2.345,9.8-4.254,16.206-5.725
			c0.373,2.365,1.529,4.585,3.467,6.658c1.421-3.407,3.544-6.29,6.369-8.649l0.566-2.427c-2.452-1.353-5.031-2.078-7.735-2.178
			l-14.005,5.663C1296.566,1245.387,1294.943,1247.606,1294.337,1249.667z M1302.04,1159.839
			c4.556,12.798,9.079,17.456,13.57,13.971c3.246-3.443,4.757-8.682,4.536-15.713 M1334.95,1196.244
			c-1.188,0.19-2.346,0.325-3.467,0.404c0.8,1.369,1.555,2.738,2.267,4.107 M1331.483,1196.648
			c-7.114,0.789-13.405-0.229-18.874-3.049c-8.313-4.148-13.938-10.786-16.872-19.914 M1335.617,1204.458
			c0.07,0.13,0.137,0.265,0.201,0.403c0.075,0.215,0.188,0.433,0.333,0.654c-0.709,0.132-1.421,0.266-2.135,0.404
			 M1337.785,1205.236l0.267,0.84 M1337.785,1205.236c0.293-0.075,0.582-0.148,0.867-0.219c-0.284,0.058-0.573,0.121-0.867,0.187
			 M1361.76,1199.916c-7.142,1.755-14.845,3.455-23.107,5.102c33.432-8.148,60.028-18.177,79.793-30.088 M1339.219,1238.28
			c1.015-1.377,1.76-2.892,2.233-4.543c1.578-5.379,0.345-12.225-3.701-20.536 M1308.408,1238.436l3.201-1.089
			c-1.557,0.083-3.134,0.353-4.734,0.808 M1311.609,1237.347c0.539-0.028,1.073-0.028,1.601,0 M1320.379,1241.952l-0.566,2.426
			c3.08,1.509,5.993,2.07,8.736,1.681c-2.356-2.905-4.892-5.083-7.604-6.534 M1319.812,1244.378l-1.468,2.272 M1335.417,1213.7
			c-2.681,7.211-9.572,14.534-20.674,21.966c5.041-0.751,10.143,2.081,15.306,8.495 M1359.024,1257.229
			c-0.004,0.088-0.004,0.182,0,0.28c0.482,0.029,0.96,0.061,1.435,0.093c0.388-0.463,0.8-0.908,1.233-1.337
			c3.068-3.237,7.559-5.747,13.472-7.531c1.378,2.697,1.199,5.498-0.534,8.401c-0.298,0.5-0.642,0.997-1.032,1.494l1.5,0.125
			c3.385-4.725,3.763-8.583,1.133-11.576C1371.215,1247.448,1365.48,1250.799,1359.024,1257.229
			c-0.084,0.087-0.173,0.17-0.266,0.249c0.085,0.006,0.175,0.016,0.266,0.031c-0.029,0.698-0.029,1.413,0,2.146
			c0.428-0.718,0.905-1.402,1.435-2.054c0.813,0.05,1.625,0.102,2.435,0.155l10.704,0.872c-1.001,1.287-2.301,2.573-3.902,3.859
			c3.681-0.18,7.071-0.999,10.17-2.459 M1357.759,1257.416c-0.019,0.372-0.019,0.745,0,1.12c0.341-0.354,0.675-0.707,1-1.058
			C1358.419,1257.458,1358.086,1257.437,1357.759,1257.416z M1357.759,1258.536c0.032,0.978,0.144,1.963,0.333,2.956
			c0.273-0.633,0.585-1.245,0.933-1.835 M1325.347,1254.957c0.815-1.307,2.883-3.961,6.203-7.964
			c2.045-2.656,4.602-5.56,7.669-8.712 M1398.505,1230.657c0.201-0.045,0.401-0.086,0.601-0.125
			c0.234-0.313,0.457-0.636,0.667-0.964 M1390.235,1247.926c0-0.792-0.089-1.559-0.267-2.303c-0.236-0.93-0.613-1.822-1.134-2.675
			c0.093,3.919-1.241,7.301-4.001,10.143c-3.734,3.916-7.492,6.467-11.271,7.654c0.571-0.677,1.083-1.34,1.534-1.99
			 M1390.235,1247.926c3.558-1.494,7.425-2.468,11.604-2.925c0.888-0.1,1.777-0.173,2.667-0.218c0.577-0.021,1.155-0.03,1.733-0.03
			c4.357-1.784,6.758-3.61,7.203-5.477 M1412.176,1237.658c-2.027,2.727-4.45,4.344-7.269,4.854
			c-6.452,0.694-11.431,1.732-14.938,3.111 M1399.105,1230.532c4.283-0.665,8.64,1.71,13.07,7.126 M1395.838,1265.911
			c-0.089-2.78-2.78-5.187-8.069-7.22c-1.38-0.291-2.846-0.518-4.402-0.685c-1.12,0.767-2.287,1.441-3.501,2.022
			c7.136,0.418,10.703,2.379,10.703,5.882H1395.838h64.82 M1383.366,1258.006c2.046-1.327,3.868-3.028,5.469-5.102
			c0.845-1.785,1.312-3.443,1.4-4.979 M1415.577,1248.05c-0.266,1.207-0.732,2.452-1.4,3.734c-5.825,0.167-9.937-2.096-12.337-6.783
			 M1396.37,1231.373c-7.646,6.223-17.672,9.458-30.076,9.708c-5.291,4.48-8.113,9.458-8.469,14.935 M1399.105,1230.532
			c-8.464,7.338-19.223,11.29-32.277,11.855c-4.886,3.693-7.487,8.641-7.804,14.842 M1415.577,1248.05
			c-4.054,1.781-7.743,0.692-11.07-3.267 M1374.63,1257.135c-3.913-0.332-8.224-0.622-12.938-0.87 M1328.682,1068.082
			c-8.447-9.044-17.317-7.593-26.609,4.356C1310.477,1064.472,1319.345,1063.021,1328.682,1068.082z M1340.352,1162.982
			c2.4-4.273,1.022-9.252-4.134-14.935C1343.775,1151.698,1345.154,1156.676,1340.352,1162.982z M1229.715,1140.298
			c6.893,25.516,6.893,56.662,0,93.438V1140.298z M1276.998,1265.911h113.57 M1177.499,1249.667h50.017"/>
	</g>
	<g>
		<path fill-rule="evenodd" clip-rule="evenodd" fill="#FFFFFF" d="M1416.178,868.635l6.669,0.124L1416.178,868.635l-30.145-2.739
			l-2.133-24.581l115.905-10.89l-7.604,45.739l-34.744-3.236l-22.875,42.565l-20.473-0.498L1416.178,868.635z M1470.995,945.115
			l-5.002,4.045l6.669,3.92l2.535,17.673l-38.746-0.436l-1.268-43.188l35.412,0.871L1470.995,945.115z M1460.525,934.785
			l-16.939-3.858l1.201,10.206l16.472,0.373L1460.525,934.785z M1427.781,936.154l-32.478,0.498l-0.533,8.649l10.137,0.249
			l-0.268,6.41l-9.535,0.062l0.199,8.649l27.676,0.747l1.867,7.406l-41.214-0.063l0.468-41.756l46.415,0.312L1427.781,936.154z
			 M1446.854,964.78l17.405-0.623l-2.4-10.331l-16.206-5.538L1446.854,964.78z M1435.784,993.219l-26.942-0.934l0.199,11.886
			l26.143-2.552L1435.784,993.219z M1416.978,1011.079l35.545,29.311l-26.81-1.929l-13.937-21.159l4.134,22.465l-13.07-0.311
			L1399.038,986l47.816,0.934l-1.4,24.706L1416.978,1011.079z M1474.062,1031.553l24.941-3.609l2.734-28.75l-30.209-4.916
			L1474.062,1031.553z M1517.076,991.601l-2.6,47.418l-53.018,2.427l-5.269-60.674L1517.076,991.601z M1337.751,891.038l0.2-4.045
			l-39.013-24.705l-3.801-15.682l75.091-5.29l-1,23.772l-44.148-6.472l-0.199,6.41l45.549,15.246l-1.534,32.048l-63.488-1.742
			l0.734-14.002L1337.751,891.038z M1249.256,868.137l21.674,1.307l1,4.107l-23.074-0.747l-1.468,19.478l37.813,1.804l5.002,16.865
			l-72.625-1.991l14.071-74.303l55.751,11.015l-2.733,10.952l-34.478-2.738L1249.256,868.137z M1185.234,927.566l-0.267,8.152
			l-20.14,0.249l-4.803,26.572l-14.27-0.311l-1.068-26.137l-23.141,0.187l0.467-10.205L1185.234,927.566z M1185.901,849.717
			l-2.534,58.994l-19.007-0.498l-12.137-58.372L1185.901,849.717l-33.678,0.125l-39.213,0.249l-11.671-18.419l121.574,2.303
			l-3.269,15.433L1185.901,849.717z M1263.727,946.795l-10.803,0.747l-0.733,8.712l30.743,3.36l-0.268,5.601l-40.746-0.871
			l1.868-36.031l37.478-0.747l0.133,5.85l-28.208,2.427l-0.267,6.41l11.003,0.622L1263.727,946.795z M1203.508,963.411
			l-12.538-0.312l1.134-35.657l12.805,0.311l-0.534,13.503l15.405-0.124l1.134-13.068l16.005,0.373l-4.134,35.72l-14.672-0.311
			l1.6-18.296h-15.338L1203.508,963.411z M1223.447,988.427l-0.867-0.125L1223.447,988.427l-1.601,11.637l28.143-1.307l0.667-7.281
			L1223.447,988.427z M1233.451,1008.341l0.667,0.623L1233.451,1008.341z M1234.118,1008.963l-2.535,0.124L1234.118,1008.963
			l25.273,29.808l-23.54-1.93l-13.271-23.273l1.534,25.328l-16.005-0.872l4.067-55.011l54.484,1.058l-5.735,23.709
			L1234.118,1008.963z M1305.541,1004.794l12.87,12.57l11.405-32.858l20.205,0.436l-25.008,54.264l-21.74-18.295l-22.674,17.673
			l-9.137-54.202l15.805,0.312l2.734,31.301L1305.541,1004.794z M1366.693,922.65v-0.436l3.668,0.436H1366.693z M1365.561,925.077
			h3.602l11.337,1.432l-17.873,42.129l-14.938-19.602l-17.805,17.673l-11.004-38.645l12.604-1.058l4.134,22.154l13.004-8.338
			l10.07,8.774L1365.561,925.077z M1358.958,1007.283l9.138,0.187l-1.668-12.135l-5.869,0.872L1358.958,1007.283z M1372.229,985.751
			l25.342,54.638l-21.74-0.436l-6.136-24.954l-10.07-0.187l-9.604,24.644l-13.07-0.437l17.873-53.02L1372.229,985.751z
			 M1125.948,1008.589l-13.537,0.561l2.801,27.629l-21.607-0.684l-4.802-65.092l77.892,0.062l-4.335,12.757l-53.149,0.872
			l1.399,14.25l13.938-0.249L1125.948,1008.589z M1155.691,1007.47l2.734,19.727l21.341,0.623l8.936-21.594L1155.691,1007.47z
			 M1192.838,1037.527l-48.35-0.997l0.667-38.645l55.217-0.187L1192.838,1037.527z"/>
		
			<path fill-rule="evenodd" clip-rule="evenodd" fill="none" stroke="#FFFFFF" stroke-linecap="round" stroke-linejoin="round" stroke-miterlimit="3" d="
			M1416.178,868.635l-2.067,46.361l20.473,0.498l22.875-42.565l34.744,3.236l7.604-45.739l-115.905,10.89l2.133,24.581
			L1416.178,868.635l6.669,0.124 M1470.995,945.115l-5.002,4.045l6.669,3.92l2.535,17.673l-38.746-0.436l-1.268-43.188l35.412,0.871
			L1470.995,945.115z M1460.525,934.785l0.733,6.721l-16.472-0.373l-1.201-10.206L1460.525,934.785z M1427.781,936.154
			l-32.478,0.498l-0.533,8.649l10.137,0.249l-0.268,6.41l-9.535,0.062l0.199,8.649l27.676,0.747l1.867,7.406l-41.214-0.063
			l0.468-41.756l46.415,0.312L1427.781,936.154z M1446.854,964.78l-1.201-16.491l16.206,5.538l2.4,10.331L1446.854,964.78z
			 M1435.784,993.219l-26.942-0.934l0.199,11.886l26.143-2.552L1435.784,993.219z M1416.978,1011.079l35.545,29.311l-26.81-1.929
			l-13.937-21.159l4.134,22.465l-13.07-0.311L1399.038,986l47.816,0.934l-1.4,24.706L1416.978,1011.079z M1474.062,1031.553
			l-2.533-37.276l30.209,4.916l-2.734,28.75L1474.062,1031.553z M1517.076,991.601l-2.6,47.418l-53.018,2.427l-5.269-60.674
			L1517.076,991.601z M1337.751,891.038l-31.609,5.538l-0.734,14.002l63.488,1.742l1.534-32.048l-45.549-15.246l0.199-6.41
			l44.148,6.472l1-23.772l-75.091,5.29l3.801,15.682l39.013,24.705L1337.751,891.038z M1249.256,868.137l21.674,1.307l1,4.107
			l-23.074-0.747l-1.468,19.478l37.813,1.804l5.002,16.865l-72.625-1.991l14.071-74.303l55.751,11.015l-2.733,10.952l-34.478-2.738
			L1249.256,868.137z M1185.901,849.717l33.744-0.311l3.269-15.433l-121.574-2.303l11.671,18.419l39.213-0.249L1185.901,849.717z
			 M1263.727,946.795l-10.803,0.747l-0.733,8.712l30.743,3.36l-0.268,5.601l-40.746-0.871l1.868-36.031l37.478-0.747l0.133,5.85
			l-28.208,2.427l-0.267,6.41l11.003,0.622L1263.727,946.795z M1203.508,963.411l-12.538-0.312l1.134-35.657l12.805,0.311
			l-0.534,13.503l15.405-0.124l1.134-13.068l16.005,0.373l-4.134,35.72l-14.672-0.311l1.6-18.296h-15.338L1203.508,963.411z
			 M1223.447,988.427l27.209,3.049l-0.667,7.281l-28.143,1.307L1223.447,988.427l-0.867-0.125 M1233.451,1008.341l0.667,0.623
			l26.808-1.183l5.735-23.709l-54.484-1.058l-4.067,55.011l16.005,0.872l-1.534-25.328l13.271,23.273l23.54,1.93l-25.273-29.808
			l-2.535,0.124 M1305.541,1004.794l12.87,12.57l11.405-32.858l20.205,0.436l-25.008,54.264l-21.74-18.295l-22.674,17.673
			l-9.137-54.202l15.805,0.312l2.734,31.301L1305.541,1004.794z M1366.693,922.65v-0.436 M1369.162,925.077l11.337,1.432
			l-17.873,42.129l-14.938-19.602l-17.805,17.673l-11.004-38.645l12.604-1.058l4.134,22.154l13.004-8.338l10.07,8.774l6.869-24.519
			 M1358.958,1007.283l9.138,0.187l-1.668-12.135l-5.869,0.872L1358.958,1007.283z M1372.229,985.751l25.342,54.638l-21.74-0.436
			l-6.136-24.954l-10.07-0.187l-9.604,24.644l-13.07-0.437l17.873-53.02L1372.229,985.751z M1152.224,849.841l12.137,58.372
			l19.007,0.498l2.534-58.994 M1185.234,927.566l-63.221-1.493l-0.467,10.205l23.141-0.187l1.068,26.137l14.27,0.311l4.803-26.572
			l20.14-0.249L1185.234,927.566z M1125.948,1008.589l-13.537,0.561l2.801,27.629l-21.607-0.684l-4.802-65.092l77.892,0.062
			l-4.335,12.757l-53.149,0.872l1.399,14.25l13.938-0.249L1125.948,1008.589z M1155.691,1007.47l2.734,19.727l21.341,0.623
			l8.936-21.594L1155.691,1007.47z M1192.838,1037.527l7.534-39.828l-55.217,0.187l-0.667,38.645L1192.838,1037.527z"/>
	</g>
</g>
</svg>
