<?xml version="1.0" encoding="utf-8"?>
<!-- Generator: Adobe Illustrator 16.0.0, SVG Export Plug-In . SVG Version: 6.00 Build 0)  -->
<!DOCTYPE svg PUBLIC "-//W3C//DTD SVG 1.1//EN" "http://www.w3.org/Graphics/SVG/1.1/DTD/svg11.dtd">
<svg version="1.1" id="Layer_1" xmlns="http://www.w3.org/2000/svg" xmlns:xlink="http://www.w3.org/1999/xlink" x="0px" y="0px"
	 width="576px" height="1152px" viewBox="0 0 576 1152" enable-background="new 0 0 576 1152" xml:space="preserve">
<rect y="-1" fill="#6D6E71" width="576" height="1152"/>
<g>
	<path fill-rule="evenodd" clip-rule="evenodd" fill="#FFFFFF" d="M485.427,1122.593h14.592v4.451h-9.397v7.668h4.208v-5.937h2.473
		l2.717,2.721v7.67h-14.592V1122.593z M101.588,1132.984v1.728h9.398v4.454H96.398v-16.573h14.588v4.451h-9.398v1.731h7.419v4.209
		H101.588z M90.954,1127.044h-4.448v12.122h-5.197v-12.122h-4.696v-4.451h14.341V1127.044z M120.631,1122.593h11.377v4.451
		l-2.721,2.721h-2.721v-2.721h-3.957l9.398,7.668v0.493l-3.71,3.961H117.42v-4.454h6.183l-6.183-5.193v-3.71L120.631,1122.593z
		 M166.385,1139.166h-5.194v-12.122h-4.699v-4.451h14.349v4.451h-4.456V1139.166z M136.955,1122.593h14.344v4.451h-4.452v12.122
		h-5.193v-12.122h-4.699V1122.593z M202.493,1132.984v1.728h9.398v4.454h-14.592v-16.573h14.592v4.451h-9.398v1.731h7.42v4.209
		H202.493z M185.923,1122.593h5.194v16.573h-5.194v-6.182h-4.2v6.182h-5.198v-16.573h5.198v6.183h4.2V1122.593z M237.369,1122.593
		v16.573h-19.538v-16.573h5.19v12.119h1.982v-12.119h5.193v12.119h1.975v-12.119H237.369z M269.021,1127.044v2.969l4.208-2.969
		H269.021z M273.229,1134.712v-1.728h-4.208v1.728H273.229z M256.165,1128.775v4.209h-7.42v1.728h9.395v4.454h-14.588v-16.573
		h14.588v4.451h-9.395v1.731H256.165z M263.832,1122.593h14.592v6.183l-2.72,1.736l2.72,2.473v6.182h-14.592V1122.593z
		 M318.982,1122.593v16.573h-14.344v-16.573H318.982z M309.832,1127.044v7.668h3.953v-7.668H309.832z M284.359,1122.593h14.587
		v4.451h-9.394v1.731h7.419v4.209h-7.419v6.182h-5.194V1122.593z M376.851,1127.044v3.216h3.966v-3.216H376.851z M339.754,1130.013
		l-3.458,2.227l3.458,2.473v4.454h-3.211l-5.936-4.697v4.697h-5.194v-16.573h14.341V1130.013z M334.563,1127.54v-0.496h-3.956v2.969
		L334.563,1127.54z M360.285,1122.593h5.193v16.573h-19.542v-16.573h5.197v12.119h1.979v-12.119h5.189v12.119h1.982V1122.593z
		 M386.253,1122.593v16.573h-5.437v-4.454h-3.966v4.454h-5.189v-13.853l2.717-2.721H386.253z M417.913,1127.044v7.668h1.236
		l2.964-2.473v-5.195H417.913z M397.382,1130.013l3.958-2.473v-0.496h-3.958V1130.013z M392.189,1122.593h14.344v7.42l-3.459,2.227
		l3.459,2.473v4.454h-3.216l-5.936-4.697v4.697h-5.192V1122.593z M412.716,1122.593h14.592v11.377l-5.685,5.196h-8.907V1122.593z
		 M458.721,1139.166h-14.348v-16.573h14.348V1139.166z M474.297,1127.044h-3.956v2.969l3.956-2.473V1127.044z M437.942,1139.166
		h-5.189v-4.454h5.189V1139.166z M453.523,1127.044h-3.958v7.668h3.958V1127.044z M465.15,1122.593h14.341v7.42l-3.459,2.227
		l3.459,2.473v4.454h-3.211l-5.939-4.697v4.697h-5.19V1122.593z M201.009,977.172h107.586v122.426H201.009V977.172z
		 M321.456,977.419h53.668v122.179h-38.828v-89.533h-14.84V977.419z M239.842,1066.699h29.926v-56.882h-29.926V1066.699z
		 M116.184,1009.817v19.29H77.599v-51.936h106.845v50.7l-46.001,38.827h46.001v32.898H77.599v-32.898l67.765-56.882H116.184z
		 M121.374,851.288l-16.817,18.05l-32.889-30.416l16.814-18.059L121.374,851.288z M130.277,892.095l-26.957,72.46l-23.248-8.405
		l27.205-72.71L130.277,892.095z M193.099,847.331h24.731v19.784h58.119v24.732h-52.929c10.059,17.312,24.979,32.15,44.764,44.517
		l10.391,6.431l-13.107,21.021l-10.388-6.431c-14.51-9.069-26.795-19.209-36.85-30.419v37.839h-24.731v-39.076
		c-10.059,11.373-22.258,21.595-36.607,30.668l-10.63,6.431l-13.112-21.023l10.639-6.43c19.125-12.037,33.716-26.547,43.771-43.527
		h-52.184v-24.732h58.124V847.331z M97.878,766.953l32.893,30.416l-16.817,18.058l-32.893-30.424L97.878,766.953z M161.439,789.211
		v21.021h-24.732v-45.753h140.971v45.753h-24.732v-21.021h-15.577V822.6c7.419,8.238,13.104,12.284,17.061,12.113l11.38-4.694
		l9.641,22.749l-11.376,4.703c-13.518,7.582-29.678,0.081-48.475-22.507l-2.963-3.218v-42.535h-5.445
		c-1.975,42.206-21.103,64.052-57.374,65.539l-12.122,0.738l-1.728-24.485l12.366-0.984c20.771-2.145,32.151-15.747,34.125-40.808
		H161.439z M439.674,780.555h24.731v158.283h-24.731V780.555z M391.446,764.479h24.731v108.819
		c0.329,41.711-6.839,70.814-21.516,87.299L386.747,970l-18.796-16.076l7.919-9.401c10.712-13.684,15.905-37.341,15.576-70.977
		V764.479z M333.327,820.126v-55.646h24.731v55.646h27.205v24.731h-27.205v46c0.328-0.664,0.742-1.236,1.236-1.734l5.936-10.878
		l21.517,12.114l-5.931,10.882c-7.258,12.694-16.331,23.581-27.209,32.649c-7.914,6.431-16.736,12.033-26.463,16.814l-11.129,5.444
		l-10.635-22.259l11.129-5.444c6.102-2.964,11.705-6.345,16.817-10.137v-73.452h-35.864v-24.731H333.327z M500.267,764.479v200.326
		h-24.732V764.479H500.267z M500.019,977.172v44.764l-19.785,14.34l19.785,18.553v44.77H392.436v-32.898h68.759v-11.871h-23.252
		v-23.99l24.488-21.021h-31.166v19.29h-38.829v-51.936H500.019z"/>
</g>
<g>
	<g>
		<g>
			<g>
				<path fill-rule="evenodd" clip-rule="evenodd" fill="#FFFFFF" d="M363.774,228.826c-0.398-0.396-0.727-0.661-0.989-0.792
					c-0.529-0.659-0.989-1.318-1.387-1.979l16.025-5.539c0.266,1.055,0.66,2.11,1.189,3.165h-0.398L363.774,228.826z
					 M206.678,50.166l43.725,8.903l12.068,35.217l-12.068-35.217h39.571v35.217h-27.502l-63.116-22.16L206.678,50.166z
					 M371.688,124.36l-1.19,1.582l-9.691-7.717c-0.924-0.924-1.388-2.044-1.388-3.364c0-0.527,0-1.055,0-1.582l1.187,0.199
					c0,1.187,0.529,2.241,1.584,3.165L371.688,124.36z M351.505,124.36c0,1.451,0.53,2.571,1.585,3.361l9.695,7.717l-1.19,1.583
					l-9.495-7.715c-1.055-0.923-1.584-2.046-1.584-3.364c0-0.661,0.066-1.254,0.197-1.781L351.505,124.36z M342.01,136.231
					c0.132,1.317,0.724,2.373,1.778,3.165l9.498,7.717l-1.187,1.583l-9.695-7.717c-0.923-0.923-1.383-2.044-1.383-3.363
					c0-0.527,0-1.055,0-1.583L342.01,136.231z M337.853,305.592v12.068c0,1.451-0.525,2.573-1.58,3.363
					c-0.398,0.528-0.858,0.924-1.388,1.188l-0.394-1.188c1.055-0.79,1.583-1.913,1.583-3.363v-12.068H337.853z M289.974,324.191
					c17.676-0.527,33.372,7.78,47.091,24.928l12.86,102.291c-11.74,22.688-31.722,31.722-59.951,27.106v-2.574
					c27.567,3.958,46.43-3.692,56.585-22.95l-11.275-98.926c-12.533-17.542-27.634-26.051-45.31-25.523V324.191z M364.365,322.212
					l-0.591-1.188c1.055-0.79,1.58-1.913,1.58-3.363v-12.068h1.781v12.068c0,1.451-0.528,2.573-1.583,3.363
					C365.158,321.552,364.764,321.948,364.365,322.212z M349.329,322.212l-0.595-1.188c1.055-0.79,1.584-1.913,1.584-3.363v-12.068
					h1.781v12.068c0,1.451-0.528,2.573-1.584,3.363C350.122,321.552,349.724,321.948,349.329,322.212z M289.974,345.163
					c0.924-0.131,2.044-0.198,3.362-0.198c8.574,0,15.828,2.9,21.764,8.705c5.278,5.408,8.377,11.937,9.302,19.588
					c-0.925-6.597-4.023-12.333-9.302-17.214c-5.936-5.144-13.189-7.717-21.764-7.717c-1.318,0-2.438,0.068-3.362,0.199V345.163z
					 M324.401,380.183c-1.188,6.727-4.29,12.53-9.302,17.411c-5.936,6.2-13.189,9.299-21.764,9.299c-1.318,0-2.438,0-3.362,0v-3.364
					c0.924,0,2.044,0,3.362,0c8.574,0,15.828-2.771,21.764-8.31C320.111,391.131,323.214,386.119,324.401,380.183z M382.768,439.539
					h-17.413l0.198-3.364l0.2-2.571h18.993C384.217,435.451,383.56,437.429,382.768,439.539z M335.283,436.967
					c-1.055-2.112-2.64-4.025-4.75-5.738c-3.428-3.034-7.913-4.55-13.455-4.55c-5.537,0-10.222,1.517-14.047,4.55
					c-2.372,2.243-3.892,4.682-4.549,7.321c0,0.263,0,0.527,0,0.79c-0.529,1.057-0.792,2.309-0.792,3.76
					c0,1.451,0.132,2.771,0.395,3.957c0,0.396,0.132,0.659,0.397,0.793c0.132,0.921,0.461,1.713,0.989,2.372
					c0.132,0.528,0.395,1.057,0.789,1.584c0.398,0.659,0.923,1.317,1.584,1.979c0.263,0.394,0.661,0.855,1.187,1.383
					c1.321,0.792,2.574,1.517,3.76,2.178l0.197,0.396c1.584,0.659,3.23,1.252,4.946,1.78c1.585,0.396,3.3,0.593,5.144,0.593
					c1.847,0,3.562-0.198,5.147-0.593c1.978-0.527,3.624-1.121,4.946-1.78c0.131-0.265,0.328-0.396,0.591-0.396
					c1.055-0.661,1.979-1.385,2.771-2.178h0.596c0.525-0.527,1.055-0.989,1.58-1.383v-0.199c0.529-0.527,0.924-1.121,1.187-1.78
					c0.397-0.527,0.661-1.057,0.792-1.584c0.53-0.922,0.989-1.713,1.387-2.372c-0.397,1.186-0.923,2.505-1.583,3.957
					c-0.53,1.186-1.253,2.373-2.177,3.561c-0.529,0.659-1.186,1.252-1.978,1.779c-3.433,3.826-7.915,5.739-13.456,5.739
					c-5.538,0-10.221-1.913-14.047-5.739c-1.584-1.582-2.771-3.361-3.562-5.34c-0.526-0.923-0.924-1.913-1.187-2.968
					c-0.132-0.133-0.196-0.396-0.196-0.792c-0.264-1.319-0.395-2.836-0.395-4.55c0-1.979,0.196-3.826,0.591-5.54
					c0.792-2.902,2.376-5.672,4.749-8.31c3.826-3.694,8.509-5.54,14.047-5.54c5.541,0,10.023,1.845,13.456,5.54
					C332.577,431.888,334.229,434.328,335.283,436.967z"/>
				
					<path fill-rule="evenodd" clip-rule="evenodd" fill="none" stroke="#FFFFFF" stroke-width="0.5" stroke-linecap="round" stroke-linejoin="round" stroke-miterlimit="3" d="
					M289.974,34.138h44.518l5.936-2.572l2.372-1.186l19.589,7.122h0.397v0.396l4.549,13.651l7.322,22.556l11.67,35.217l-8.111,7.124
					l-8.505,44.714l-56.786,40.56h-22.95 M376.635,118.226l1.58-1.78 M395.825,187.673c-2.373,0.791-4.089,3.693-5.144,8.704
					c-0.132,1.452-0.197,2.837-0.197,4.156c0,4.22,0.592,8.704,1.777,13.454c1.716,6.594,4.224,12.002,7.521,16.225
					c1.186,1.451,2.508,2.637,3.956,3.561c0.793,0.527,1.52,0.989,2.177,1.385c1.055,0.263,2.044,0.328,2.968,0.197 M398.99,205.677
					c-0.132,1.583,0.065,3.232,0.595,4.946c0.526,1.979,1.187,3.561,1.979,4.749c0.394,0.527,0.727,0.856,0.989,0.99
					c0.525,0.527,1.056,0.724,1.58,0.593c0.53-0.131,0.989-0.593,1.388-1.385c0.132-0.265,0.263-0.659,0.395-1.187
					c0-0.396,0-0.857,0-1.385c0-1.188-0.132-2.44-0.395-3.76c-0.529-1.847-1.252-3.363-2.175-4.55
					c-1.056-1.187-1.979-1.714-2.771-1.582C399.913,203.501,399.388,204.357,398.99,205.677z M379.007,330.917l2.969,0.396
					 M378.811,325.181l-0.197-0.396 M400.771,245.444c-0.263-0.131-0.66-0.197-1.187-0.197c-0.529,0-0.924,0.065-1.187,0.197
					c-0.267,0.396-0.397,0.792-0.397,1.188c0,0.527,0.131,0.923,0.397,1.186c0.263,0.265,0.657,0.396,1.187,0.396
					c0.526,0,0.924-0.131,1.187-0.396c0.263-0.263,0.395-0.659,0.395-1.186C401.166,246.236,401.034,245.841,400.771,245.444z
					 M411.456,245.248c0.526,0,0.924-0.198,1.187-0.593c0.263-0.132,0.395-0.462,0.395-0.99c0-0.527-0.132-0.989-0.395-1.385
					c-0.263-0.131-0.66-0.197-1.187-0.197c-0.529,0-0.857,0.065-0.989,0.197c-0.398,0.396-0.595,0.858-0.595,1.385
					c0,0.528,0.196,0.858,0.595,0.99C410.599,245.05,410.927,245.248,411.456,245.248z M403.738,233.772l0.793,2.769
					 M362.388,37.501l0.397,0.396 M184.517,187.673c2.376,0.791,4.092,3.693,5.147,8.704c0.263,2.64,0.328,5.408,0.197,8.311
					c-0.398,3.033-0.989,6.133-1.782,9.299c-1.715,6.594-4.219,12.002-7.52,16.225c-1.055,1.318-2.175,2.44-3.361,3.362
					c-0.263,0-0.46,0.068-0.595,0.199l-0.789,2.769 M174.23,212.998c0-1.188,0.197-2.44,0.595-3.76
					c0.525-1.847,1.187-3.363,1.979-4.55c1.055-1.187,2.044-1.714,2.968-1.582c0.657,0.396,1.187,1.251,1.581,2.571
					c0.131,1.583-0.066,3.232-0.591,4.946c-0.53,1.979-1.19,3.561-1.979,4.749c-0.398,0.527-0.792,0.856-1.19,0.99
					c-0.525,0.527-1.055,0.724-1.581,0.593c-0.398-0.131-0.792-0.593-1.187-1.385c-0.135-0.265-0.333-0.659-0.595-1.187
					C174.23,213.987,174.23,213.525,174.23,212.998z M168.889,245.248c-0.529,0-0.989-0.198-1.387-0.593
					c-0.131-0.132-0.197-0.462-0.197-0.99c0-0.527,0.066-0.989,0.197-1.385c0.398-0.131,0.858-0.197,1.387-0.197
					c0.525,0,0.854,0.065,0.989,0.197c0.394,0.396,0.591,0.858,0.591,1.385c0,0.528-0.197,0.858-0.591,0.99
					C169.743,245.05,169.415,245.248,168.889,245.248z M158.796,287.983l16.62-49.463c0.131-0.527,0.263-1.055,0.398-1.582v-0.396
					 M179.373,245.444c0.398-0.131,0.858-0.197,1.388-0.197c0.525,0,0.854,0.065,0.989,0.197c0.394,0.396,0.591,0.792,0.591,1.188
					c0,0.527-0.197,0.923-0.591,1.186c-0.135,0.265-0.464,0.396-0.989,0.396c-0.53,0-0.99-0.131-1.388-0.396
					c-0.131-0.263-0.197-0.659-0.197-1.186C179.176,246.236,179.242,245.841,179.373,245.444z M176.603,233.772
					c-1.843,1.317-3.559,1.847-5.144,1.582 M225.671,146.321c-3.694,6.594-7.253,8.969-10.685,7.122
					c-6.592-2.373-9.958-11.013-10.089-25.918 M289.974,94.286h27.305l1.581-0.396l55.797-19.785 M367.334,51.549l-36.205,7.321
					l-1.781,0.199h-39.374h-39.571l12.068,35.217 M371.688,124.36l4.946-6.135 M367.929,129.306l2.569-3.364l1.19-1.582
					 M361.595,137.021l1.19-1.583l5.144-6.133 M358.233,140.978l3.361-3.957 M352.1,148.695l1.187-1.583l4.947-6.135 M318.859,93.89
					l-8.707,26.907l38.783,31.856l3.164-3.958 M289.974,94.286h-27.502l8.707,26.511h18.796 M287.995,152.653
					c-1.716,12.134-6.001,19.323-12.86,21.565c-6.465-0.922-10.816-6.463-13.058-16.619c-0.263-1.582-0.595-3.232-0.989-4.946
					 M255.349,152.653c-0.792,5.671-2.241,10.155-4.351,13.454c-2.245,1.847-4.29,3.826-6.136,5.936
					c-0.924,0.396-1.712,0.659-2.373,0.792c-6.991-1.057-11.478-7.52-13.456-19.391c-0.263-0.659,0-1.78,0.792-3.362
					 M290.171,152.653h1.187h57.578 M271.178,120.797l-38.778,31.856 M289.974,226.848c8.045,0,14.905,2.836,20.577,8.507
					c5.805,5.671,8.707,12.596,8.707,20.775c0,8.045-2.902,14.904-8.707,20.577c-5.672,5.802-12.532,8.705-20.577,8.705
					 M310.152,120.797h-18.795 M199.355,72.126l63.116,22.16 M250.403,59.068l-14.642-43.331 M340.427,31.566l-9.298,27.304
					 M206.678,50.166l43.725,8.903 M289.974,335.27l2.968-3.561l3.76,4.748l4.75-3.958l2.968,5.739l5.143-3.165l2.176,5.936
					l5.936-1.781l0.395,6.332l6.334-0.792l-0.989,5.935l6.132,0.792l-1.781,5.736l5.936,1.979l-3.165,5.542l5.739,2.572
					l-3.958,4.946l4.75,3.758l-4.75,3.957l3.958,4.947l-5.739,2.573l3.165,5.341l-5.936,1.781l1.781,6.132l-6.132,0.396l0.989,6.332
					l-5.936-0.793h-0.398l-0.395,6.135l-5.936-1.978l-2.176,5.936l-5.143-2.968l-2.968,5.736l-4.75-4.154l-3.76,4.946l-2.968-3.561
					 M370.301,339.03l16.818,0.395c0-0.659,0-1.318,0-1.978c0.262,0,0.397-0.198,0.397-0.594c0.788-2.769,2.438-4.485,4.946-5.144
					c0.263,0,0.395-0.065,0.395-0.198c0.618-0.124,1.047-0.19,1.287-0.198h-2.474h-9.695 M366.541,376.226l3.365,0.593h0.395
					l13.653,1.781l-6.53-11.278l-17.607-2.178 M163.15,259.097c0.526,0,0.858,0.131,0.99,0.396c0.394,0.263,0.591,0.659,0.591,1.187
					s-0.197,0.858-0.591,0.989c-0.131,0.396-0.464,0.593-0.99,0.593c-0.529,0-0.989-0.197-1.387-0.593
					c-0.131-0.131-0.197-0.462-0.197-0.989s0.066-0.923,0.197-1.187C162.162,259.229,162.621,259.097,163.15,259.097z
					 M155.631,278.09c0.398-0.131,0.857-0.197,1.387-0.197c0.394,0,0.723,0.066,0.989,0.197c0.263,0.396,0.394,0.858,0.394,1.385
					c0,0.396-0.131,0.727-0.394,0.989c-0.267,0.265-0.595,0.396-0.989,0.396c-0.53,0-0.989-0.131-1.387-0.396
					c-0.131-0.263-0.197-0.593-0.197-0.989C155.434,278.948,155.5,278.486,155.631,278.09z M169.283,283.432
					c-0.131,0.396-0.459,0.594-0.989,0.594c-0.529,0-0.923-0.197-1.186-0.594c-0.263-0.131-0.398-0.461-0.398-0.989
					s0.135-0.924,0.398-1.187c0.263-0.265,0.657-0.396,1.186-0.396c0.53,0,0.858,0.131,0.989,0.396
					c0.395,0.263,0.595,0.659,0.595,1.187S169.678,283.301,169.283,283.432z M158.796,287.983l-0.395,1.188
					c0.792,1.187,1.449,2.968,1.979,5.342c0.263,2.373,0.131,3.693-0.394,3.958l16.617,3.758 M158.401,289.171
					c-0.792-1.055-1.65-1.716-2.574-1.979 M173.24,304.01c0.53,0,0.858,0.066,0.99,0.197c0.394,0.396,0.595,0.858,0.595,1.385
					s-0.201,0.858-0.595,0.99c-0.131,0.396-0.46,0.593-0.99,0.593c-0.529,0-0.989-0.197-1.383-0.593
					c-0.136-0.132-0.201-0.462-0.201-0.99s0.065-0.989,0.201-1.385C172.251,304.076,172.711,304.01,173.24,304.01z M143.76,327.159
					c1.453,0.263,3.099-0.199,4.946-1.385c1.186-0.661,2.311-1.716,3.366-3.167c0.526-0.659,1.121-1.252,1.777-1.78
					c2.246-3.297,3.958-7.189,5.147-11.674c0.657-2.11,0.989-5.144,0.989-9.101c0-0.527,0-1.055,0-1.582 M164.731,306.778
					c0.66,0,1.19,0.199,1.584,0.595c0.529,0.528,0.792,1.121,0.792,1.78c0,0.661-0.263,1.188-0.792,1.583
					c-0.394,0.527-0.924,0.792-1.584,0.792c-0.657,0-1.252-0.264-1.778-0.792c-0.398-0.395-0.595-0.922-0.595-1.583
					c0-0.659,0.197-1.252,0.595-1.78C163.479,306.978,164.074,306.778,164.731,306.778z M152.466,307.967
					c-0.263,1.451-0.792,2.703-1.584,3.758c-0.131,0.396-0.263,0.661-0.394,0.792c-0.395,0.527-0.727,0.858-0.989,0.989
					c-0.529,0.527-1.055,0.725-1.584,0.593c-0.525-0.131-0.989-0.527-1.383-1.187c-0.131-0.396-0.328-0.858-0.595-1.385
					c0-0.396,0-0.858,0-1.385c0-1.186,0.201-2.44,0.595-3.758c0.529-1.716,1.252-3.232,2.176-4.552
					c0.923-1.186,1.847-1.648,2.771-1.383c0.661,0.262,1.186,1.12,1.584,2.572C153.192,304.603,152.995,306.251,152.466,307.967z
					 M154.839,324.981c0.529-0.396,1.125-0.593,1.781-0.593c0.661,0,1.187,0.197,1.584,0.593c0.525,0.527,0.792,1.121,0.792,1.781
					c0,0.659-0.267,1.186-0.792,1.583c-0.398,0.527-0.924,0.792-1.584,0.792c-0.657,0-1.252-0.265-1.781-0.792
					c-0.395-0.397-0.592-0.924-0.592-1.583C154.247,326.103,154.444,325.509,154.839,324.981z M169.878,336.853
					c0.657,0,1.187,0.199,1.581,0.594c0.53,0.527,0.792,1.123,0.792,1.781s-0.262,1.186-0.792,1.582
					c-0.394,0.527-0.923,0.792-1.581,0.792c-0.661,0-1.255-0.265-1.781-0.792c-0.398-0.396-0.595-0.923-0.595-1.582
					s0.197-1.254,0.595-1.781C168.623,337.052,169.218,336.853,169.878,336.853z M176.603,353.67l0.792-1.186
					c-1.055-1.055-1.716-2.243-1.979-3.561c-0.263-0.264-0.394-0.462-0.394-0.595c-0.53-1.846-0.661-3.231-0.398-4.154
					c0.267-1.713,0.595-3.298,0.99-4.749c1.055-2.769,2.574-4.878,4.552-6.33c0-0.265,0.197-0.396,0.595-0.396
					c0.923-0.792,2.635-1.254,5.143-1.385h0.394h2.176l3.168-6.332l-0.201-0.197l-31.456-26.313 M179.373,319.838
					c0.792,0,1.322,0.197,1.584,0.593c0.525,0.396,0.792,0.99,0.792,1.781c0,0.659-0.267,1.186-0.792,1.583
					c-0.263,0.396-0.792,0.593-1.584,0.593c-0.657,0-1.252-0.197-1.781-0.593c-0.263-0.397-0.394-0.924-0.394-1.583
					c0-0.792,0.131-1.385,0.394-1.781C178.121,320.035,178.716,319.838,179.373,319.838z M190.85,319.046
					c0,0.527-0.197,0.858-0.595,0.989c-0.131,0.396-0.459,0.593-0.989,0.593c-0.525,0-0.923-0.197-1.187-0.593
					c-0.263-0.131-0.394-0.462-0.394-0.989s0.131-0.989,0.394-1.385c0.263-0.131,0.661-0.197,1.187-0.197
					c0.53,0,0.858,0.066,0.989,0.197C190.653,318.057,190.85,318.519,190.85,319.046z M186.298,331.313
					c0.155,0.004,0.549,0.069,1.187,0.198c0,0.133,0.065,0.198,0.201,0.198c1.318,0.396,2.307,0.924,2.968,1.583
					c1.055,0.923,1.712,2.109,1.979,3.561c0,0.396,0.197,0.594,0.591,0.594c0,0.66,0,1.319,0,1.978l7.322,0.396l9.495-0.79
					 M201.334,330.917l-2.968,0.396h-9.893 M191.642,324.981l9.893,0.199l0.197-0.396 M114.082,332.499
					c0-1.317,0.464-2.506,1.388-3.561c1.055-0.923,2.241-1.385,3.559-1.385c1.584,0,2.836,0.462,3.759,1.385
					c0.924,1.055,1.384,2.243,1.384,3.561c0,1.452-0.46,2.639-1.384,3.563c-0.923,1.055-2.175,1.582-3.759,1.582
					c-1.318,0-2.504-0.527-3.559-1.582C114.545,335.138,114.082,333.951,114.082,332.499z M89.748,427.668
					c-0.792-1.055-1.19-2.243-1.19-3.561c0-1.584,0.398-2.836,1.19-3.76c1.055-1.055,2.307-1.583,3.756-1.583
					c1.453,0,2.64,0.527,3.563,1.583c1.055,0.924,1.584,2.176,1.584,3.76c0,1.318-0.529,2.506-1.584,3.561
					c-0.924,0.79-2.11,1.186-3.563,1.186C92.055,428.854,90.803,428.458,89.748,427.668z M186.893,352.681
					c-0.923,0.528-1.847,0.989-2.771,1.385c-1.055,0.131-1.979,0.131-2.771,0l6.728,8.707l3.563,4.55l2.767,3.758l-5.538,8.51
					l7.516-0.99l6.333-11.278l-10.291-21.368c-0.924,1.979-2.044,3.627-3.362,4.946C188.408,351.56,187.685,352.153,186.893,352.681
					z M185.904,387.701l0.989-2.572l-8.509-16.62l0.989-14.839c-0.131-0.131-0.263-0.197-0.394-0.197
					c-0.53-0.265-1.055-0.593-1.584-0.989 M188.079,362.772l-0.394,4.946l3.957-0.396 M178.384,368.509l9.301-0.791
					 M188.079,387.108l-1.186-1.979 M213.603,376.226l-17.215,2.375 M142.573,424.107c0-1.584,0.529-2.836,1.584-3.76
					c0.924-1.055,2.045-1.583,3.362-1.583c1.584,0,2.836,0.527,3.76,1.583c1.055,0.924,1.581,2.176,1.581,3.76
					c0,1.318-0.526,2.506-1.581,3.561c-0.923,0.79-2.175,1.186-3.76,1.186c-1.317,0-2.438-0.396-3.362-1.186
					C143.103,426.613,142.573,425.425,142.573,424.107z M193.223,339.424c0.131,1.979-0.131,4.156-0.792,6.53 M169.086,526.99
					c-1.055-1.057-1.584-2.309-1.584-3.76c0-1.32,0.529-2.506,1.584-3.561c0.923-0.924,2.11-1.385,3.559-1.385
					c1.453,0,2.705,0.461,3.76,1.385c0.792,1.055,1.187,2.241,1.187,3.561c0,1.451-0.394,2.703-1.187,3.76
					c-1.055,0.922-2.307,1.384-3.76,1.384C171.196,528.374,170.01,527.912,169.086,526.99z M113.29,523.23
					c0-1.32,0.529-2.506,1.584-3.561c0.923-0.924,2.175-1.385,3.76-1.385c1.318,0,2.504,0.461,3.559,1.385
					c0.923,1.055,1.387,2.241,1.387,3.561c0,1.451-0.464,2.703-1.387,3.76c-1.055,0.922-2.241,1.384-3.559,1.384
					c-1.584,0-2.836-0.462-3.76-1.384C113.819,525.933,113.29,524.681,113.29,523.23z M208.46,546.181
					c0,1.319-0.529,2.506-1.584,3.562c-0.792,0.791-1.979,1.187-3.563,1.187c-1.317,0-2.504-0.396-3.559-1.187
					c-0.924-1.057-1.388-2.243-1.388-3.562c0-1.452,0.464-2.703,1.388-3.758c1.055-1.055,2.241-1.582,3.559-1.582
					c1.584,0,2.771,0.527,3.563,1.582C207.931,543.478,208.46,544.729,208.46,546.181z M212.614,574.276
					c1.055-1.055,2.241-1.583,3.559-1.583c1.584,0,2.836,0.527,3.76,1.583c0.263,0.396,0.595,0.858,0.989,1.386
					c0.398,0.525,0.595,1.321,0.595,2.373c0,1.321-0.529,2.442-1.584,3.365c-0.395,0.53-0.858,0.854-1.383,0.989
					c-0.661,0.395-1.453,0.592-2.377,0.592c-1.318,0-2.504-0.525-3.559-1.581c-0.793-0.923-1.187-2.044-1.187-3.365
					C211.428,576.454,211.821,575.2,212.614,574.276z M146.53,546.181c0,1.319-0.394,2.506-1.187,3.562
					c-1.055,0.791-2.311,1.187-3.76,1.187c-1.584,0-2.771-0.396-3.563-1.187c-1.055-1.057-1.581-2.243-1.581-3.562
					c0-1.452,0.526-2.703,1.581-3.758c0.792-1.055,1.979-1.582,3.563-1.582c1.449,0,2.705,0.527,3.76,1.582
					C146.136,543.478,146.53,544.729,146.53,546.181z M154.642,572.693c1.322,0,2.508,0.527,3.563,1.583
					c0.923,0.924,1.383,2.178,1.383,3.758c0,1.321-0.46,2.442-1.383,3.365c-1.055,1.056-2.241,1.581-3.563,1.581
					c-1.449,0-2.705-0.525-3.76-1.581c-0.923-0.923-1.383-2.044-1.383-3.365c0-1.581,0.46-2.834,1.383-3.758
					C151.937,573.221,153.192,572.693,154.642,572.693z M171.656,613.45c-0.263,0.397-0.591,0.661-0.989,0.793
					c-0.657,0.394-1.449,0.595-2.373,0.595c-0.792,0-1.449-0.201-1.979-0.595c-0.529-0.132-1.055-0.464-1.584-0.989
					c-1.055-0.924-1.581-2.177-1.581-3.76c0-1.318,0.526-2.508,1.581-3.56c1.055-0.792,2.245-1.19,3.562-1.19
					c1.449,0,2.64,0.398,3.563,1.19c0.923,1.052,1.383,2.241,1.383,3.56c0,0.791-0.065,1.448-0.197,1.978
					c-0.263,0.661-0.661,1.257-1.186,1.782 M155.434,635.018c1.318,0,2.508,0.394,3.563,1.187c0.923,1.055,1.383,2.307,1.383,3.759
					c0,1.585-0.46,2.771-1.383,3.563c-1.055,1.052-2.245,1.581-3.563,1.581c-1.584,0-2.836-0.529-3.76-1.581
					c-1.055-0.792-1.581-1.979-1.581-3.563c0-1.452,0.526-2.704,1.581-3.759C152.598,635.411,153.849,635.018,155.434,635.018z
					 M392.66,460.115c-0.131,0.396-0.263,0.726-0.398,0.989c-0.131,0.528-0.395,1.123-0.787,1.782
					c-1.056,2.375-2.18,4.55-3.367,6.529 M356.254,525.605c0,1.055,0.328,1.847,0.99,2.375c0.528,0.659,1.252,0.99,2.175,0.99
					c0.924,0,1.781-0.331,2.574-0.99c0.525-0.527,0.792-1.32,0.792-2.375c0-0.924-0.267-1.781-0.792-2.571
					c-0.793-0.396-1.65-0.595-2.574-0.595c-0.923,0-1.646,0.199-2.175,0.595C356.582,523.824,356.254,524.681,356.254,525.605z
					 M241.894,563.394l0.989,1.189 M225.277,524.22c0,1.055-0.333,1.847-0.989,2.375c-0.529,0.791-1.19,1.186-1.979,1.186
					c-1.055,0-1.913-0.396-2.574-1.186c-0.529-0.527-0.792-1.32-0.792-2.375c0-0.792,0.263-1.648,0.792-2.572
					c0.661-0.265,1.519-0.396,2.574-0.396c0.788,0,1.449,0.131,1.979,0.396C224.945,522.571,225.277,523.427,225.277,524.22z
					 M236.947,546.776c-0.525-0.396-0.788-1.123-0.788-2.178c0-0.924,0.263-1.714,0.788-2.375c0.792-0.528,1.65-0.791,2.574-0.791
					c0.923,0,1.649,0.263,2.175,0.791c0.661,0.661,0.989,1.451,0.989,2.375c0,1.055-0.329,1.781-0.989,2.178
					c-0.526,0.79-1.252,1.186-2.175,1.186C238.598,547.962,237.74,547.566,236.947,546.776z M233.586,564.583
					c1.055,0,1.847,0.197,2.373,0.593c0.661,0.79,0.989,1.582,0.989,2.375c0,1.055-0.328,1.845-0.989,2.373
					c0,0.133-0.066,0.199-0.197,0.199c-0.526,0.527-1.252,0.79-2.175,0.79c-0.661,0-1.318-0.263-1.979-0.79
					c-0.263,0-0.459-0.066-0.595-0.199c-0.263-0.527-0.394-1.317-0.394-2.373c0-0.792,0.131-1.584,0.394-2.375
					C231.936,564.779,232.793,564.583,233.586,564.583z M253.765,610.089c1.055,0,1.847,0.196,2.376,0.591
					c0.657,0.792,0.989,1.65,0.989,2.574c0,0.263,0,0.594,0,0.989c-0.263,0.524-0.595,0.857-0.989,0.988
					c-0.53,0.925-1.321,1.384-2.376,1.384c-0.788,0-1.515-0.459-2.176-1.384c-0.394-0.131-0.591-0.464-0.591-0.988
					c-0.135-0.396-0.201-0.727-0.201-0.989c0-0.924,0.267-1.782,0.792-2.574C252.25,610.285,252.977,610.089,253.765,610.089z
					 M255.349,605.733h-0.394 M227.847,605.143c0.263-0.136,0.464-0.197,0.595-0.197c0.526-0.132,1.055-0.201,1.581-0.201
					c1.584,0,2.771,0.398,3.563,1.19c1.055,1.052,1.584,2.241,1.584,3.56c0,0.791-0.066,1.448-0.201,1.978
					c-0.394,0.661-0.854,1.257-1.383,1.782c-0.263,0.525-0.661,0.857-1.187,0.989c-0.792,0.394-1.584,0.595-2.376,0.595
					c-0.924,0-1.646-0.201-2.176-0.595c-0.394-0.132-0.857-0.464-1.383-0.989c-0.924-0.924-1.388-2.177-1.388-3.76
					c0-1.318,0.464-2.508,1.388-3.56C226.989,605.672,227.453,605.404,227.847,605.143z M220.725,636.204
					c1.055,1.055,1.584,2.307,1.584,3.759c0,1.585-0.53,2.771-1.584,3.563c-1.055,1.052-2.307,1.581-3.76,1.581
					c-1.318,0-2.504-0.529-3.559-1.581c-0.792-0.792-1.19-1.979-1.19-3.563c0-1.452,0.398-2.704,1.19-3.759
					c1.055-0.793,2.241-1.187,3.559-1.187C218.418,635.018,219.67,635.411,220.725,636.204z M258.711,607.317h-0.197
					 M374.656,550.93c0.788,0.924,1.979,1.386,3.559,1.386c1.453,0,2.706-0.462,3.761-1.386c0.792-0.924,1.186-2.11,1.186-3.561
					c0-1.32-0.394-2.506-1.186-3.562c-1.055-1.057-2.308-1.584-3.761-1.584c-1.58,0-2.771,0.527-3.559,1.584
					c-1.055,1.055-1.585,2.242-1.585,3.562C373.071,548.82,373.602,550.006,374.656,550.93z M344.58,543.412
					c-0.656-0.527-1.515-0.792-2.57-0.792c-0.923,0-1.649,0.265-2.179,0.792c-0.657,0.79-0.989,1.583-0.989,2.375
					c0,1.055,0.332,1.846,0.989,2.373c0.529,0.661,1.256,0.989,2.179,0.989c1.056,0,1.914-0.329,2.57-0.989
					c0.529-0.527,0.793-1.318,0.793-2.373C345.373,544.994,345.109,544.202,344.58,543.412z M347.945,565.769
					c-1.055,0-1.846,0.265-2.376,0.793c-0.657,0.658-0.989,1.45-0.989,2.372c0,1.057,0.332,1.847,0.989,2.375
					c0,0.131,0.066,0.199,0.197,0.199c0.529,0.527,1.256,0.791,2.179,0.791c0.657,0,1.318-0.263,1.979-0.791
					c0.263,0,0.46-0.068,0.591-0.199c0.398-0.527,0.595-1.317,0.595-2.375c0-0.922-0.196-1.714-0.595-2.372
					C349.724,566.033,348.87,565.769,347.945,565.769z M360.605,576.848c-0.263,0.53-0.394,1.317-0.394,2.377
					c0,1.448,0.46,2.569,1.383,3.361c0.398,0.525,0.858,0.858,1.388,0.989c0.656,0.395,1.449,0.595,2.372,0.595
					c1.322,0,2.508-0.528,3.562-1.584c0.925-0.792,1.384-1.913,1.384-3.361c0-1.585-0.459-2.771-1.384-3.563
					c-1.055-1.055-2.24-1.583-3.562-1.583c-1.58,0-2.836,0.527-3.76,1.583C361.332,575.924,361.004,576.318,360.605,576.848z
					 M338.645,565.769l0.989-0.989 M324.401,614.439c0,0.398,0,0.792,0,1.187c0.263,0.53,0.591,0.858,0.989,0.989
					c0.524,0.792,1.317,1.19,2.372,1.19c0.792,0,1.585-0.398,2.376-1.19c0.264-0.131,0.395-0.459,0.395-0.989
					c0.263-0.395,0.395-0.788,0.395-1.187c0-0.792-0.263-1.649-0.789-2.569c-0.791-0.263-1.584-0.398-2.376-0.398
					c-1.055,0-1.848,0.136-2.372,0.398C324.729,612.79,324.401,613.647,324.401,614.439z M326.183,606.924
					c-0.661,0.394-1.256,0.727-1.781,0.989l-0.793,0.394v-0.196c0.263-0.136,0.53-0.197,0.793-0.197 M353.682,606.525
					c-0.264-0.263-0.461-0.395-0.592-0.395c-0.529-0.135-1.055-0.196-1.585-0.196c-1.449,0-2.635,0.46-3.56,1.383
					c-1.055,1.056-1.583,2.241-1.583,3.563c0,0.657,0.065,1.252,0.196,1.777c0.398,0.661,0.858,1.252,1.387,1.781
					c0.395,0.529,0.855,0.924,1.384,1.187c0.661,0.263,1.384,0.398,2.176,0.398c0.924,0,1.65-0.136,2.177-0.398
					c0.528-0.263,1.055-0.657,1.583-1.187c0.793-0.792,1.188-1.979,1.188-3.559c0-1.322-0.395-2.508-1.188-3.563
					C354.736,606.924,354.21,606.661,353.682,606.525z M360.807,637.591c-0.924,1.051-1.388,2.241-1.388,3.559
					c0,1.585,0.464,2.837,1.388,3.76c1.055,0.925,2.307,1.384,3.756,1.384c1.321,0,2.508-0.459,3.562-1.384
					c0.925-0.923,1.384-2.175,1.384-3.76c0-1.317-0.459-2.508-1.384-3.559c-1.055-0.927-2.241-1.387-3.562-1.387
					C363.113,636.204,361.861,636.664,360.807,637.591z M202.721,367.323l17.61-2.178 M458.94,330.127
					c-1.055,1.055-1.584,2.307-1.584,3.757c0,1.32,0.529,2.506,1.584,3.562c0.792,1.056,1.979,1.583,3.56,1.583
					c1.321,0,2.508-0.527,3.562-1.583c0.924-1.056,1.384-2.242,1.384-3.562c0-1.45-0.46-2.703-1.384-3.757
					c-1.055-0.792-2.241-1.188-3.562-1.188C460.92,328.938,459.732,329.334,458.94,330.127z M418.381,259.493
					c-0.263-0.265-0.661-0.396-1.187-0.396c-0.529,0-0.858,0.131-0.988,0.396c-0.398,0.263-0.597,0.659-0.597,1.187
					s0.198,0.858,0.597,0.989c0.13,0.396,0.459,0.593,0.988,0.593c0.525,0,0.924-0.197,1.187-0.593
					c0.263-0.131,0.395-0.462,0.395-0.989S418.644,259.756,418.381,259.493z M424.908,279.476c0-0.527-0.065-0.989-0.198-1.385
					c-0.394-0.131-0.856-0.197-1.383-0.197c-0.529,0-0.857,0.066-0.989,0.197c-0.398,0.396-0.595,0.858-0.595,1.385
					c0,0.396,0.196,0.727,0.595,0.989c0.132,0.265,0.46,0.396,0.989,0.396c0.526,0,0.989-0.131,1.383-0.396
					C424.843,280.202,424.908,279.872,424.908,279.476z M424.316,287.192c-0.792,0.263-1.65,0.924-2.573,1.979
					c-0.657,1.187-1.253,2.968-1.781,5.342c-0.263,2.373-0.198,3.693,0.2,3.958c0,0.527,0,1.055,0,1.582
					c0,3.957,0.395,6.991,1.187,9.101c1.317,5.146,3.428,9.365,6.33,12.663c0.263,0.396,0.464,0.659,0.595,0.791
					c1.055,1.451,2.176,2.506,3.361,3.167c1.717,1.186,3.366,1.648,4.947,1.385 M421.546,287.983l0.197,1.188 M413.237,281.257
					c-0.398-0.265-0.792-0.396-1.19-0.396c-0.525,0-0.923,0.131-1.186,0.396c-0.263,0.263-0.395,0.659-0.395,1.187
					s0.132,0.858,0.395,0.989c0.263,0.396,0.66,0.594,1.186,0.594c0.398,0,0.792-0.197,1.19-0.594
					c0.132-0.131,0.197-0.461,0.197-0.989S413.369,281.52,413.237,281.257z M421.546,287.983l-17.015-51.441 M408.291,306.582
					c0.264-0.132,0.395-0.462,0.395-0.99s-0.131-0.989-0.395-1.385c-0.267-0.131-0.661-0.197-1.189-0.197
					c-0.526,0-0.924,0.066-1.187,0.197c-0.263,0.396-0.395,0.858-0.395,1.385s0.132,0.858,0.395,0.99
					c0.263,0.396,0.66,0.593,1.187,0.593C407.63,307.175,408.024,306.978,408.291,306.582z M414.026,307.374
					c-0.526,0.528-0.789,1.121-0.789,1.78c0,0.661,0.263,1.188,0.789,1.583c0.397,0.527,0.923,0.792,1.583,0.792
					c0.662,0,1.253-0.264,1.782-0.792c0.395-0.395,0.591-0.922,0.591-1.583c0-0.659-0.196-1.252-0.591-1.78
					c-0.529-0.396-1.12-0.595-1.782-0.595C414.949,306.778,414.424,306.978,414.026,307.374z M399.187,320.431
					c-0.525,0.396-0.788,0.99-0.788,1.781c0,0.659,0.263,1.186,0.788,1.583c0.398,0.396,0.925,0.593,1.585,0.593
					s1.252-0.197,1.781-0.593c0.395-0.397,0.592-0.924,0.592-1.583c0-0.792-0.197-1.385-0.592-1.781
					c-0.529-0.396-1.121-0.593-1.781-0.593S399.585,320.035,399.187,320.431z M392.463,319.046c0-0.527-0.065-0.989-0.201-1.385
					c-0.395-0.131-0.854-0.197-1.384-0.197c-0.394,0-0.726,0.066-0.988,0.197c-0.263,0.396-0.395,0.858-0.395,1.385
					s0.132,0.858,0.395,0.989c0.263,0.396,0.595,0.593,0.988,0.593c0.53,0,0.989-0.197,1.384-0.593
					C392.397,319.904,392.463,319.573,392.463,319.046z M387.119,339.424c-0.263,1.979,0,4.156,0.792,6.53
					c1.186,2.769,2.967,5.013,5.34,6.726c1.055,0.528,2.044,0.989,2.969,1.385c0.923,0.131,1.847,0.131,2.771,0l-10.287,13.257
					l13.058,1.187l-0.989-14.839c0.263-0.131,0.459-0.197,0.595-0.197c0.526-0.265,1.055-0.593,1.581-0.989
					c1.055-1.055,1.716-2.243,1.979-3.561c0.131-0.264,0.196-0.462,0.196-0.595c0.53-1.846,0.727-3.231,0.596-4.154
					c-0.395-1.713-0.727-3.298-0.989-4.749c-1.055-2.769-2.64-4.878-4.75-6.33c0-0.265-0.131-0.396-0.394-0.396
					c-0.924-0.792-2.705-1.254-5.345-1.385h-0.096 M391.671,331.313l-2.968-6.332l-9.893,0.199 M412.248,340.81
					c0.263-0.396,0.395-0.923,0.395-1.582s-0.132-1.254-0.395-1.781c-0.136,0-0.201-0.066-0.201-0.198
					c-0.525-0.265-1.055-0.396-1.58-0.396c-0.792,0-1.321,0.199-1.584,0.594c-0.526,0.527-0.792,1.123-0.792,1.781
					s0.266,1.186,0.792,1.582c0.263,0.527,0.792,0.792,1.584,0.792c0.657,0,1.252-0.199,1.781-0.593 M433.811,306.385
					c0.268,1.318,0.398,2.572,0.398,3.758c0,0.527,0,0.989,0,1.385c-0.131,0.527-0.263,0.99-0.398,1.385
					c-0.394,0.659-0.854,1.055-1.383,1.187c-0.529,0.132-1.055-0.065-1.584-0.593c-0.264-0.131-0.592-0.462-0.99-0.989
					c-0.131-0.132-0.328-0.396-0.591-0.792c-0.661-1.055-1.186-2.307-1.584-3.758c-0.395-1.716-0.526-3.364-0.395-4.946
					c0.263-1.452,0.793-2.31,1.58-2.572c0.793-0.265,1.716,0.197,2.771,1.383C432.56,303.152,433.286,304.669,433.811,306.385z
					 M422.141,324.981c-0.529,0.527-0.792,1.121-0.792,1.781c0,0.659,0.263,1.186,0.792,1.583c0.263,0.527,0.723,0.792,1.384,0.792
					c0.792,0,1.448-0.265,1.979-0.792c0.263-0.397,0.395-0.924,0.395-1.583c0-0.66-0.132-1.254-0.395-1.781
					c-0.53-0.396-1.187-0.593-1.979-0.593C422.863,324.388,422.403,324.585,422.141,324.981z M388.703,324.981l31.459-26.511
					l-16.424,3.758 M402.947,352.484l0.791,1.186 M377.424,367.323l10.487-21.368 M392.262,387.108l9.499-18.599 M388.703,367.323
					l-2.968,3.758l5.739,8.51l-7.521-0.99 M430.449,421.732c-1.055,0.79-1.585,1.978-1.585,3.561c0,1.451,0.53,2.637,1.585,3.561
					c0.792,0.923,1.979,1.385,3.563,1.385c1.317,0,2.438-0.462,3.361-1.385c1.055-0.923,1.585-2.11,1.585-3.561
					c0-1.583-0.53-2.771-1.585-3.561c-0.923-1.056-2.044-1.583-3.361-1.583C432.428,420.149,431.241,420.677,430.449,421.732z
					 M482.881,425.293c0,1.451,0.528,2.637,1.583,3.561c0.925,0.923,2.177,1.385,3.757,1.385c1.322,0,2.508-0.462,3.562-1.385
					c0.925-0.923,1.384-2.11,1.384-3.561c0-1.583-0.459-2.771-1.384-3.561c-1.055-1.056-2.24-1.583-3.562-1.583
					c-1.58,0-2.832,0.527-3.757,1.583C483.409,422.522,482.881,423.71,482.881,425.293z M466.657,520.855
					c-0.923-0.79-2.113-1.186-3.562-1.186c-1.448,0-2.705,0.396-3.76,1.186c-0.792,1.055-1.187,2.309-1.187,3.76
					c0,1.317,0.395,2.506,1.187,3.561c1.055,1.055,2.312,1.583,3.76,1.583c1.449,0,2.64-0.528,3.562-1.583
					c1.056-1.055,1.581-2.243,1.581-3.561C468.238,523.165,467.713,521.911,466.657,520.855z M408.883,529.759
					c1.584,0,2.771-0.528,3.562-1.583c1.055-1.055,1.581-2.243,1.581-3.561c0-1.451-0.526-2.705-1.581-3.76
					c-0.792-0.79-1.979-1.186-3.562-1.186c-1.449,0-2.705,0.396-3.761,1.186c-0.788,1.055-1.186,2.309-1.186,3.76
					c0,1.317,0.397,2.506,1.186,3.561C406.178,529.231,407.434,529.759,408.883,529.759z M439.948,542.224
					c-1.322,0-2.508,0.527-3.563,1.584c-0.924,1.055-1.384,2.242-1.384,3.562c0,1.451,0.46,2.637,1.384,3.561
					c1.056,0.924,2.241,1.386,3.563,1.386c1.58,0,2.767-0.462,3.559-1.386c1.055-0.924,1.584-2.11,1.584-3.561
					c0-1.32-0.529-2.506-1.584-3.562C442.715,542.751,441.528,542.224,439.948,542.224z M409.872,614.838
					c0.397,0.263,0.727,0.525,0.989,0.788c0.792,0.263,1.584,0.398,2.376,0.398c0.924,0,1.646-0.136,2.176-0.398
					c0.525-0.263,0.989-0.657,1.384-1.187c1.055-0.792,1.584-1.979,1.584-3.559c0-1.322-0.529-2.508-1.584-3.563
					c-0.924-0.923-2.11-1.383-3.56-1.383c-1.321,0-2.508,0.46-3.562,1.383c-0.924,1.056-1.384,2.241-1.384,3.563
					c0,0.657,0.132,1.252,0.395,1.777c0.132,0.661,0.46,1.252,0.989,1.781 M426.295,636.204c-1.452,0-2.705,0.46-3.76,1.387
					c-0.792,1.051-1.187,2.241-1.187,3.559c0,1.585,0.395,2.837,1.187,3.76c1.055,0.925,2.308,1.384,3.76,1.384
					c1.449,0,2.636-0.459,3.559-1.384c1.056-0.923,1.585-2.175,1.585-3.76c0-1.317-0.529-2.508-1.585-3.559
					C428.931,636.664,427.744,636.204,426.295,636.204z M458.94,673.004c0-1.318-0.528-2.504-1.584-3.56
					c-0.924-1.055-2.176-1.585-3.761-1.585c-1.317,0-2.503,0.53-3.558,1.585c-0.793,1.056-1.188,2.241-1.188,3.56
					c0,1.453,0.395,2.704,1.188,3.76c1.055,0.792,2.24,1.186,3.558,1.186c1.585,0,2.837-0.394,3.761-1.186
					C458.412,675.708,458.94,674.457,458.94,673.004z M440.539,697.145v-0.398 M384.549,743.64l-0.398-0.596 M342.404,640.953
					c-0.66-0.526-1.519-0.792-2.573-0.792c-0.788,0-1.449,0.266-1.979,0.792c-0.657,0.656-0.989,1.515-0.989,2.573
					c0,0.919,0.332,1.646,0.989,2.176c0.529,0.66,1.19,0.989,1.979,0.989c0.924,0,1.65-0.197,2.179-0.595
					c0.132-0.132,0.264-0.263,0.395-0.395c0.53-0.53,0.793-1.257,0.793-2.176C343.197,642.468,342.935,641.609,342.404,640.953z
					 M348.734,662.122l-4.946-11.872 M342.01,677.753c1.056,0,1.914-0.329,2.57-0.989c0.529-0.525,0.793-1.318,0.793-2.373
					c0-0.924-0.264-1.716-0.793-2.377c-0.656-0.525-1.515-0.788-2.57-0.788c-0.923,0-1.649,0.263-2.179,0.788
					c-0.657,0.661-0.989,1.453-0.989,2.377c0,1.055,0.332,1.848,0.989,2.373C340.36,677.424,341.087,677.753,342.01,677.753z
					 M371.094,673.004c0-1.318-0.53-2.504-1.585-3.56c-0.923-1.055-2.175-1.585-3.756-1.585c-1.321,0-2.442,0.53-3.365,1.585
					c-1.056,1.056-1.581,2.241-1.581,3.56c0,1.453,0.525,2.704,1.581,3.76c0.923,0.792,2.044,1.186,3.365,1.186
					c1.581,0,2.833-0.394,3.756-1.186C370.563,675.708,371.094,674.457,371.094,673.004z M333.698,712.573
					c0,0.793,0.398,1.453,1.187,1.979c0.398,0.661,1.125,0.989,2.18,0.989s1.912-0.328,2.569-0.989
					c0.398-0.526,0.595-1.187,0.595-1.979c0-1.055-0.196-1.978-0.595-2.767c-0.657-0.397-1.515-0.595-2.569-0.595
					s-1.781,0.197-2.18,0.595C334.097,710.596,333.698,711.519,333.698,712.573z M365.354,724.646
					c-0.923,0.657-1.384,1.515-1.384,2.569s0.461,1.781,1.384,2.176c0.263,0.792,0.925,1.19,1.979,1.19s1.912-0.398,2.572-1.19
					c0.526-0.395,0.793-1.121,0.793-2.176s-0.267-1.912-0.793-2.569c-0.66-0.53-1.518-0.793-2.572-0.793
					S365.617,724.116,365.354,724.646z M244.862,642.336c0,0.792-0.395,1.453-1.187,1.979c-0.525,0.66-1.186,0.989-1.979,0.989
					c-0.924,0-1.646-0.133-2.175-0.396c-0.132-0.263-0.263-0.464-0.395-0.594c-0.529-0.526-0.792-1.188-0.792-1.979
					c0-1.051,0.263-1.979,0.792-2.767c0.657-0.529,1.515-0.792,2.57-0.792c0.792,0,1.453,0.263,1.979,0.792
					C244.467,640.357,244.862,641.285,244.862,642.336z M219.141,668.258c1.055,0.924,1.584,2.109,1.584,3.56
					c0,1.321-0.529,2.508-1.584,3.562c-0.923,0.924-2.044,1.384-3.362,1.384c-1.584,0-2.771-0.46-3.563-1.384
					c-1.055-1.055-1.581-2.241-1.581-3.562c0-1.45,0.526-2.636,1.581-3.56c0.792-1.055,1.979-1.584,3.563-1.584
					C217.097,666.674,218.217,667.203,219.141,668.258z M242.686,673.004c0,1.055-0.329,1.847-0.989,2.376
					c-0.526,0.657-1.252,0.989-2.175,0.989c-0.924,0-1.782-0.332-2.574-0.989c-0.525-0.529-0.788-1.321-0.788-2.376
					c0-0.789,0.263-1.516,0.788-2.176c0.792-0.525,1.65-0.792,2.574-0.792c0.923,0,1.649,0.267,2.175,0.792
					C242.357,671.488,242.686,672.215,242.686,673.004z M246.643,708.617c0.792,0.661,1.187,1.519,1.187,2.573
					c0,0.924-0.395,1.585-1.187,1.979c-0.395,0.791-1.121,1.186-2.176,1.186c-1.055,0-1.913-0.395-2.573-1.186
					c-0.263-0.395-0.395-1.056-0.395-1.979c0-1.055,0.131-1.912,0.395-2.573c0.661-0.526,1.519-0.788,2.573-0.788
					C245.522,707.829,246.249,708.091,246.643,708.617z M217.561,726.03c0,1.055-0.464,1.715-1.388,1.978
					c-0.263,0.924-0.924,1.384-1.979,1.384s-1.913-0.46-2.569-1.384c-0.53-0.263-0.792-0.923-0.792-1.978
					c0-1.056,0.263-1.914,0.792-2.574c0.656-0.525,1.515-0.788,2.569-0.788s1.716,0.263,1.979,0.788
					C217.097,724.116,217.561,724.975,217.561,726.03z M197.377,741.858l-0.197,0.394 M141.19,695.957v-0.595 M124.171,668.258
					c0.924-1.055,2.179-1.584,3.76-1.584c1.322,0,2.508,0.529,3.563,1.584c0.923,0.924,1.383,2.109,1.383,3.56
					c0,1.321-0.46,2.508-1.383,3.562c-1.055,0.924-2.242,1.384-3.563,1.384c-1.581,0-2.836-0.46-3.76-1.384
					c-0.924-1.055-1.384-2.241-1.384-3.562C122.788,670.367,123.248,669.182,124.171,668.258z"/>
				
					<path fill-rule="evenodd" clip-rule="evenodd" fill="none" stroke="#FFFFFF" stroke-width="2" stroke-linecap="round" stroke-linejoin="round" stroke-miterlimit="3" d="
					M289.974,201.72v13.453h23.147l38.782-29.084l19.387-14.244l7.323-5.738l11.871-48.475l6.925-6.727l-28.492-85.471
					l-20.773-9.696l-14.248,8.507h-43.922v9.893 M413.435,230.605c0.525-1.187,0.989-2.637,1.384-4.352
					c0.131-1.451,0.197-2.836,0.197-4.156v-0.197c0-3.957-0.592-8.376-1.778-13.256c-1.716-6.595-4.224-11.938-7.52-16.025
					c-3.428-4.222-6.597-5.871-9.498-4.947h-0.395 M371.29,171.845c4.355,5.275,8.575,11.21,12.664,17.807
					c0.132,0.394,0.394,0.79,0.792,1.187l11.079-3.165 M206.678,50.166l8.308-24.732l20.775-9.696l14.248,8.507h39.965
					 M242.883,564.583c0.924-1.057,1.848-1.979,2.771-2.771c3.563-1.979,7.52-1.714,11.871,0.792c0.53,0.263,0.924,0.528,1.187,0.79
					c2.771,1.716,5.213,3.958,7.323,6.729c1.187,1.582,2.307,3.43,3.362,5.54c0.53,0.792,0.99,1.716,1.388,2.771
					c1.711,4.22,2.57,8.374,2.57,12.462c-0.263,0.928-0.395,1.716-0.395,2.376c0,1.712-0.065,3.362-0.197,4.946
					c-0.529,1.318-1.055,2.57-1.584,3.76c0,0.264-0.066,0.395-0.197,0.395l-21.764,53.617l8.706,4.75l-4.749,11.871v44.32
					l-53.026,25.322h-2.968h-21.566h-25.521h-8.903h-25.13h-6.33H84.601l32.646-81.316l4.946-11.872h15.828l19.986-48.474
					c-1.453-1.449-2.771-3.099-3.957-4.946c-0.53-0.924-1.055-1.912-1.584-2.968c-1.055-1.712-1.847-3.427-2.373-5.143h-5.936
					l-20.577-50.849c-6.991-0.263-13.653-4.485-19.982-12.662c-4.75-5.277-8.838-11.939-12.27-19.984
					c-0.526-1.187-1.055-2.175-1.581-2.968c-8.049-20.575-12.007-45.044-11.871-73.402c0-0.528,0-0.858,0-0.989
					c0-29.547,4.22-54.609,12.66-75.184c5.936-11.212,11.937-19.324,18.007-24.336c5.012-4.484,10.155-6.728,15.43-6.728
					l14.445,0.197c-0.131-0.394-0.197-0.724-0.197-0.989c-0.529-4.484,0-9.43,1.581-14.838c0.529-1.583,1.055-3.165,1.584-4.748
					c1.318-3.429,3.034-6.463,5.144-9.102c0.394-0.263,0.727-0.593,0.989-0.989l19.19-59.356c-0.526-1.187-0.924-2.637-1.187-4.352
					c-0.263-1.451-0.394-2.836-0.394-4.156v-0.197c0-3.957,0.657-8.376,1.979-13.256c1.716-6.595,4.219-11.938,7.516-16.025
					c3.432-4.222,6.597-5.871,9.499-4.947h0.394l13.061,3.562c0.131-0.528,0.395-1.055,0.789-1.583
					c4.224-6.596,8.575-12.598,13.062-18.006l-7.323-5.539l-12.265-50.256l-5.344-4.946l12.86-38.779l7.323-21.96 M204.897,127.525
					l-13.058-11.674 M199.754,191.827l-2.176-0.592 M289.974,59.068v35.217 M289.974,120.797v-12.265V94.286 M289.974,120.797v12.07
					v19.786h0.197 M289.974,201.72l0.197-24.731v-15.036l-0.197-9.299h-1.979h-0.792h-26.115h-5.739h-22.95l-2.574-2.572
					l-4.154-3.759l-20.774-18.796 M289.974,305.592v-20.181v-4.748v-50.452v-3.364v-11.675h-20.578l-37.789-28.292 M211.428,171.646
					l20.179,15.235 M289.974,59.068V34.138 M289.974,416.786v26.71v0.197v32.25 M289.974,328.542v6.728 M289.974,324.191v-6.531
					v-12.068 M289.974,328.542v-4.351 M289.974,400.958v-15.828v-2.771v-11.278v-2.769v-19.785v-3.364v-9.893 M289.974,403.529
					v-2.572 M289.974,503.248v-20.974v-3.758v-2.574 M289.974,403.529v3.364v9.893 M165.72,394.23
					c-1.055-4.485-1.913-9.101-2.57-13.85l3.165-36.207l-17.609-15.828l-4.946-1.187c-1.979-0.396-3.362-1.716-4.154-3.957
					c-0.394-0.923-0.792-1.781-1.187-2.574 M221.911,512.349c-27.831-27.568-46.561-66.94-56.191-118.119 M414.818,386.119
					c-4.881,27.831-12.199,52.365-21.961,73.602c-0.132,0.131-0.197,0.263-0.197,0.394c-1.584,3.167-3.1,6.266-4.553,9.299
					c-8.308,15.828-18.266,29.612-29.874,41.352c-4.75,5.012-9.827,9.628-15.233,13.85c-0.792,0.659-1.585,1.252-2.377,1.779
					l-7.516,19.192l6.526,19.192 M340.623,526.395c-6.33,4.353-12.992,7.915-19.982,10.685c-9.63,3.692-19.852,5.738-30.667,6.132
					h-1.187c-10.816-0.394-21.106-2.44-30.864-6.132c-5.147-2.11-10.225-4.75-15.237-7.914l5.739,15.036l-6.531,19.192
					 M221.911,512.349c4.355,4.353,8.969,8.441,13.85,12.267c2.241,1.714,4.552,3.23,6.925,4.55 M272.762,598.217l-1.781,4.154
					 M338.645,565.769c-0.924-1.055-1.781-1.913-2.57-2.571c-3.693-2.11-7.717-1.848-12.071,0.79
					c-0.395,0.133-0.789,0.396-1.187,0.792c-2.771,1.714-5.209,3.958-7.319,6.728c-1.186,1.582-2.311,3.362-3.365,5.34
					c-0.526,0.924-0.924,1.913-1.187,2.968c-1.716,4.093-2.569,8.243-2.569,12.467c0.131,0.792,0.196,1.519,0.196,2.175
					c0,1.848,0.066,3.494,0.197,4.947l1.781,4.154 M413.435,230.605l19.19,59.356c0.398,0.396,0.792,0.727,1.186,0.989
					c1.979,2.639,3.695,5.673,5.148,9.102c0.525,1.583,1.055,3.165,1.58,4.748c1.453,5.408,1.979,10.354,1.584,14.838
					c-0.263,0.792-0.463,1.517-0.595,2.178l16.025-0.199c5.41,0,10.619,2.244,15.631,6.729c6.067,5.011,12.003,13.125,17.807,24.335
					c8.443,20.578,12.663,45.638,12.663,75.184c0,0.131,0,0.462,0,0.989c0.263,28.36-3.693,52.828-11.871,73.405
					c-0.528,0.921-1.055,1.979-1.583,3.165c-3.428,7.914-7.451,14.574-12.069,19.982c-6.461,8.047-13.123,12.268-19.982,12.664
					l-20.774,50.847h-5.936c-0.529,1.716-1.317,3.432-2.373,5.147c-0.529,1.052-1.055,1.979-1.584,2.767
					c-1.187,1.979-2.509,3.629-3.957,4.946l19.982,48.474h15.828l4.946,11.872l32.646,81.518h-25.126h-6.132h-25.13h-9.101h-25.523
					h-21.366h-3.169l-52.825-25.524v-44.32l-4.946-11.871l8.706-4.547l-21.764-53.818c-0.131,0-0.197-0.066-0.197-0.198
					c-0.529-1.186-1.055-2.503-1.584-3.956 M289.974,503.248v39.964 M436.582,327.159c1.847-0.396,3.23-1.716,4.154-3.957
					c0.135-0.396,0.397-0.858,0.792-1.386 M412.445,345.755l19.189-17.41l4.947-1.187 M412.445,345.755l3.164,34.625
					c-0.393,1.979-0.66,3.892-0.791,5.738"/>
				
					<path fill-rule="evenodd" clip-rule="evenodd" fill="none" stroke="#FFFFFF" stroke-linecap="round" stroke-linejoin="round" stroke-miterlimit="3" d="
					M408.883,235.354c1.847-0.527,3.365-2.109,4.552-4.749 M375.247,209.437c-0.394-3.167-0.394-6.135,0-8.903
					c0.924-5.145,2.705-8.047,5.345-8.707l4.154-0.989 M377.424,220.516c-0.264-0.793-0.526-1.583-0.789-2.375
					c-0.529-1.847-0.924-3.627-1.19-5.342c-0.131-1.187-0.197-2.308-0.197-3.362 M378.613,324.784l25.125-22.556l1.782-1.582
					c0-0.132,0-0.331,0-0.594c0-0.66,0.065-1.319,0.197-1.979c0.394-1.451,0.727-2.639,0.989-3.561l-19.19-56.784
					c-1.19-0.923-2.312-2.044-3.366-3.364c-1.716-2.243-3.229-4.88-4.548-7.914c-0.397-0.792-0.726-1.648-0.989-2.572v-0.199
					c-0.529-1.055-0.924-2.11-1.189-3.165 M372.875,332.698c0.657-0.66,1.515-1.121,2.569-1.385c1.19-0.396,2.377-0.527,3.562-0.396
					 M381.976,331.313l-3.165-6.132 M404.531,236.542l-11.28,2.967c-1.58,0.265-3.296-0.263-5.144-1.582
					c-0.131,0-0.328-0.066-0.591-0.198 M404.531,236.542l4.352-1.187 M175.814,236.542h0.197l10.882,2.967
					c1.581,0.265,3.362-0.263,5.34-1.582c0.132,0,0.263-0.066,0.398-0.198c1.187-0.923,2.307-2.044,3.362-3.364
					c3.296-4.222,5.804-9.628,7.52-16.224c1.712-6.463,2.241-12.333,1.581-17.608c-1.055-5.145-2.837-8.047-5.34-8.707
					 M175.814,236.542l-4.355-1.187c-1.979-0.527-3.559-2.109-4.749-4.749 M231.607,186.881c-3.825,4.616-7.454,9.695-10.882,15.235
					c-9.499,15.036-17.212,31.261-23.147,48.671l37.391,54.806h55.005 M372.875,332.698c-1.187,1.055-1.979,2.375-2.377,3.957
					c-0.131,0.66-0.197,1.451-0.197,2.375l-10.484,26.115l6.725,11.081l-2.57,6.332l5.538,0.989h0.201 M289.974,400.958h-64.302
					l-21.567-16.421l-16.025,2.572l-0.792,0.396l-1.384,0.197l-0.398,5.144l55.6,110.403h48.868 M363.774,452.795
					c0,0.131,0.065,0.395,0.196,0.791c0.395,0.527,0.592,1.055,0.592,1.582c0,0.134,0.065,0.265,0.201,0.396
					c0.132,0.923,0.46,1.781,0.989,2.571c0.526,1.451,1.187,2.771,1.979,3.958c1.186,2.243,2.504,4.09,3.957,5.541
					c0.395,0.791,0.854,1.383,1.383,1.78c1.45,1.188,2.771,2.11,3.958,2.771c1.978-0.661,4.022-2.309,6.132-4.946
					c2.242-2.375,4.154-5.474,5.739-9.299c0.395-0.659,0.66-1.254,0.792-1.782c3.957-9.628,5.738-21.236,5.34-34.821
					c0-13.19-1.514-24.666-4.548-34.427h-0.2l-20.574-3.362 M155.828,287.192h-0.197c-2.373-0.661-5.078,0.263-8.111,2.769
					 M176.603,302.229l-1.778-1.582c0-0.132,0-0.331,0-0.594c0-0.66-0.065-1.319-0.201-1.979c-0.394-1.451-0.788-2.639-1.186-3.561
					c-0.657-1.847-1.515-3.035-2.57-3.562c-0.529-0.131-0.923-0.263-1.19-0.394l-10.882-2.574 M155.828,287.192l2.968,0.791
					 M201.732,324.784l-9.893-9.102l-15.237-13.454 M210.04,339.03c0-0.923-0.065-1.715-0.197-2.375
					c-0.661-2.771-2.307-4.55-4.946-5.342c-1.187-0.396-2.373-0.527-3.563-0.396 M201.535,325.181l-3.169,6.132 M191.839,315.682
					l5.738-64.896 M185.904,387.701h-2.968l-9.696-18.4l1.782-17.017l-8.707-8.111 M123.58,536.684h69.643
					c2.771,0,5.607-0.659,8.509-1.979c0-0.131,0.066-0.197,0.197-0.197c-4.487-1.979-8.706-5.607-12.664-10.882
					c-4.749-5.276-8.903-11.871-12.462-19.785c-0.267-1.188-0.661-2.309-1.19-3.364c-8.309-20.444-12.266-44.913-11.871-73.403
					c0-0.133,0-0.265,0-0.396c0-11.475,0.661-22.292,1.978-32.449 M176.603,353.67l-1.581-1.385 M201.929,534.508
					c2.639-1.451,5.275-3.495,7.914-6.134c1.055-1.187,2.176-2.572,3.362-4.154c1.322-1.32,2.574-2.638,3.76-3.957
					c1.584-2.375,3.099-4.749,4.552-7.122c0.131-0.265,0.263-0.527,0.394-0.792 M158.007,600.59h18.004
					c-0.263-0.529-0.464-1.055-0.595-1.58c-2.11-3.957-3.427-7.853-3.957-11.675l-21.366,0.198 M358.233,510.766
					c0.528,1.318,1.186,2.572,1.979,3.758c1.317,2.375,2.771,4.684,4.351,6.925c1.19,1.45,2.442,2.836,3.761,4.156
					c1.32,1.583,2.441,2.968,3.365,4.154c2.636,2.639,5.274,4.618,7.914,5.936c4.483-1.847,8.702-5.474,12.659-10.882
					c4.881-5.143,9.039-11.672,12.467-19.586c0.263-1.32,0.661-2.44,1.187-3.364c8.312-20.446,12.335-44.913,12.067-73.405
					c0-0.263,0-0.462,0-0.593c0-15.036-1.055-28.951-3.164-41.746 M339.634,564.779l8.312,23.349l23.743-58.369 M257.923,537.08
					l-16.817-33.832 M258.711,575.858c1.453,1.055,2.574,2.508,3.366,4.355c1.581,3.029,2.241,5.804,1.979,8.309
					c0,0.923-0.131,1.715-0.398,2.372c-1.055,1.979-1.913,3.169-2.57,3.562c-0.661,0.525-1.453,0.793-2.376,0.793
					c-0.131-0.135-0.394-0.197-0.789-0.197c-0.529,0-0.923-0.07-1.19-0.201c-0.131-0.263-0.46-0.395-0.99-0.395
					c-1.449-0.792-2.766-1.979-3.957-3.562c-0.526-0.657-1.055-1.516-1.581-2.57c-1.321-2.901-1.979-5.672-1.979-8.312
					c0.525-1.848,1.121-3.362,1.781-4.549c0.131-0.792,0.46-1.319,0.989-1.584c1.712-0.922,3.625-0.791,5.735,0.396
					C257.394,574.672,258.055,575.2,258.711,575.858z M241.894,563.394l-8.308,23.347l-13.255,0.197
					c0.525,3.825,1.843,7.651,3.957,11.477c0.394,0.526,0.723,1.121,0.989,1.781l21.764-0.196l-19.785,49.064h10.484l11.477,6.925
					 M254.955,605.733c-2.245-1.716-4.355-3.887-6.333-6.527c-0.792-1.055-1.646-2.245-2.57-3.562
					c-0.661-0.924-1.256-1.912-1.781-2.968c-0.398-0.66-0.661-1.252-0.792-1.781c-1.584-3.029-2.639-6.133-3.165-9.297
					c-0.262-2.242-0.397-4.482-0.397-6.729c0.135-1.714,0.464-3.296,0.989-4.747c0.53-2.243,1.19-4.089,1.979-5.54 M258.514,607.317
					c-0.131-0.262-0.328-0.464-0.591-0.595c-0.792-0.131-1.65-0.46-2.574-0.989 M270.98,602.371
					c-1.187,1.188-2.376,2.312-3.562,3.362c-2.242,1.716-4.75,2.311-7.517,1.781c-0.398-0.131-0.792-0.197-1.19-0.197
					 M310.551,603.559c1.318,1.317,2.57,2.438,3.761,3.365c2.241,1.716,4.745,2.372,7.516,1.979
					c0.263-0.263,1.716-0.928,4.355-1.979h0.591c2.241-1.716,4.29-3.826,6.133-6.334c0.924-1.055,1.781-2.307,2.573-3.76
					c0.661-0.788,1.252-1.715,1.782-2.767c0.394-0.661,0.656-1.252,0.792-1.781c1.58-3.166,2.635-6.265,3.165-9.302
					c0.394-2.241,0.591-4.548,0.591-6.925c-0.263-1.714-0.657-3.23-1.187-4.548c-0.525-2.243-1.186-4.156-1.979-5.739
					 M332.314,657.377l11.474-7.127h10.685l-19.981-48.867l21.763,0.196c0.395-0.66,0.727-1.252,0.99-1.781
					c2.109-3.826,3.428-7.651,3.956-11.474l-13.255-0.196 M317.673,589.905c0,0.792,0.066,1.584,0.197,2.377
					c1.055,1.843,1.913,3.033,2.573,3.559c0.657,0.529,1.45,0.792,2.373,0.792c0.132-0.131,0.397-0.197,0.792-0.197
					c0.53,0,0.924-0.131,1.187-0.394c0.263-0.132,0.661-0.201,1.187-0.201c1.321-0.92,2.573-2.109,3.76-3.559
					c0.529-0.793,1.055-1.65,1.585-2.574c1.449-3.033,2.176-5.8,2.176-8.309c-0.53-1.978-1.188-3.562-1.979-4.749
					c-0.131-0.656-0.459-1.187-0.989-1.582c-1.716-0.792-3.629-0.594-5.738,0.593c-0.656,0.262-1.318,0.792-1.979,1.583
					c-1.449,1.052-2.569,2.505-3.362,4.353C317.87,584.499,317.278,587.27,317.673,589.905z M210.04,339.03l10.291,26.115
					l-6.728,11.081l2.57,6.332l-12.068,1.979 M220.331,586.938l-48.872,0.397 M176.011,600.59l49.266-0.395 M209.843,528.374
					l23.743,58.366 M432.625,289.961c-2.902-2.506-5.537-3.43-7.915-2.769h-0.394l-2.771,0.791 M406.707,294.513
					c0.395-0.923,0.857-1.65,1.384-2.177c0.66-1.055,1.519-1.648,2.573-1.779l10.882-2.574 M403.738,353.67l1.384-1.385l7.323-6.529
					 M392.262,387.108l0.793,0.396l4.354,0.197l9.692-18.4l-1.979-17.017 M390.484,386.909l1.777,0.199 M379.603,535.695
					c0.131,0,0.197,0.065,0.197,0.199c2.902,1.451,5.738,2.176,8.505,2.176h69.844 M431.438,588.916l-21.37-0.394
					c-0.525,3.825-1.777,7.717-3.756,11.673c-0.267,0.53-0.529,1.055-0.792,1.581h18.004 M192.632,237.729l-19.194,56.784
					 M405.521,601.776l-49.267-0.197 M361.2,588.324l48.868,0.198 M384.15,743.044l-9.494-46.298h9.893h15.036l14.642,22.161
					l-5.344-33.832h9.893h15.237l6.526,12.069 M440.539,696.746h9.499h15.232l31.656,46.894 M465.669,743.64l-25.13-46.495
					 M440.539,743.64l-21.764-58.564 M405.915,743.64l-21.366-46.894 M471.801,743.64l-21.763-46.894 M431.438,743.64
					l-17.212-24.732 M328.555,673.795l20.18-11.673 M237.74,649.063l-4.946,11.872l20.38,11.674 M141.19,742.252l21.764-58.563
					H147.52l-6.33,12.269l-25.13,46.295 M162.954,683.688h9.692l-5.341,34.033l14.839-22.359h15.036h9.696l-9.499,46.496
					 M141.19,695.362h-9.695l-21.765,46.89 M131.495,695.362h-15.237l-31.656,46.89 M175.613,742.252l21.566-46.89 M167.305,717.722
					l-17.212,24.53 M200.147,742.252l32.646-81.316H117.247 M227.256,649.063h-89.235 M381.38,743.64l-32.646-81.518h115.547
					 M443.507,650.25h-89.034"/>
				
					<path fill-rule="evenodd" clip-rule="evenodd" fill="none" stroke="#FFFFFF" stroke-width="0.3" stroke-linecap="round" stroke-linejoin="round" stroke-miterlimit="3" d="
					M361.398,226.055l16.025-5.539 M378.613,223.88l-0.398-0.199l-14.44,5.146c0,0.131,0.065,0.328,0.196,0.593
					c0.657,0.659,1.45,1.254,2.373,1.782 M359.419,113.279c0.132-0.924,0.464-1.648,0.989-2.176l0.398-0.396
					c0.788-0.792,1.777-1.254,2.968-1.386c1.187-0.131,2.307,0.199,3.361,0.989l9.499,7.915 M370.498,125.942l-9.691-7.717
					c-0.924-0.924-1.388-2.044-1.388-3.364c0-0.527,0-1.055,0-1.582 M350.713,124.161c0-0.659,0.267-1.252,0.792-1.78
					c0.263-0.396,0.464-0.661,0.595-0.792c0.526-0.527,1.449-0.924,2.771-1.187c1.318-0.133,2.438,0.263,3.362,1.187l9.695,7.717
					 M350.713,124.161c-0.131,0.527-0.197,1.121-0.197,1.781c0,1.318,0.529,2.44,1.584,3.364l9.495,7.715 M342.404,133.46
					c-0.131,0-0.263,0.197-0.395,0.593c-0.528,0.661-0.857,1.32-0.988,1.979 M342.404,133.46c0.793-0.659,1.781-1.121,2.969-1.385
					c1.186-0.131,2.307,0.265,3.361,1.188l9.499,7.715 M352.1,148.695l-9.695-7.717c-0.923-0.923-1.383-2.044-1.383-3.363
					c0-0.527,0-1.055,0-1.583 M289.974,230.211c6.99,0,12.926,2.373,17.807,7.122c5.013,5.013,7.521,11.08,7.521,18.203
					c0,6.859-2.508,12.795-7.521,17.807c-4.881,4.88-10.816,7.321-17.807,7.321 M327.96,305.592v12.068
					c0,1.451,0.464,2.573,1.388,3.363c0.791,0.924,1.716,1.452,2.771,1.583c0.131,0,0.394,0,0.788,0
					c0.924,0,1.585-0.131,1.979-0.395c0.529-0.264,0.989-0.66,1.388-1.188c1.055-0.79,1.58-1.913,1.58-3.363v-12.068
					 M289.974,443.496l2.771-2.375l-2.573-3.165h0.398l3.165-1.781l-1.782-3.165l3.563-1.188l-1.19-3.758l3.76-0.199l-0.196-3.758
					l3.562,0.197l0.394-3.76l3.761,1.385l1.186-3.957l2.969,2.177l2.175-3.562l2.771,2.573l2.373-3.167l2.376,3.167l2.771-2.573
					l2.176,3.562l2.967-2.177l1.187,3.957l3.563-0.989l0.196-0.396v0.595l0.395,3.165l3.563-0.197l-0.198,3.758l3.757,0.199
					l-1.187,3.758l3.563,1.188l-1.781,3.165l3.165,1.781h0.196l-2.373,3.165l3.165,2.375l-3.165,2.375l2.373,2.769l-3.361,1.781
					l1.781,3.364l-3.563,0.989l1.187,3.758l-3.757,0.199l0.198,3.957l-3.563-0.396l-0.395,3.957l-3.76-1.583l-1.187,3.958
					l-2.967-1.782l-2.176,3.364l-2.771-2.375l-2.376,2.771l-2.373-2.771l-2.771,2.375l-2.175-3.364l-2.969,1.782l-1.186-3.958
					l-3.761,1.583l-0.394-3.957l-3.562,0.396l0.196-3.957l-3.76-0.199l1.19-3.758l-3.563-0.989l1.782-3.364l-3.563-1.781
					l2.573-2.769l-2.771-2.178l-0.394-0.197H289.974z M357.244,305.592v12.068c0,1.451,0.459,2.573,1.383,3.363
					c0.792,0.924,1.716,1.452,2.771,1.583c0.131,0,0.397,0,0.791,0c0.924,0,1.65-0.131,2.176-0.395
					c0.398-0.264,0.793-0.66,1.188-1.188c1.055-0.79,1.583-1.913,1.583-3.363v-12.068 M342.208,305.592v12.068
					c0,1.451,0.459,2.573,1.384,3.363c0.791,0.924,1.715,1.452,2.771,1.583c0.131,0,0.394,0,0.792,0
					c0.923,0,1.646-0.131,2.175-0.395c0.395-0.264,0.793-0.66,1.187-1.188c1.056-0.79,1.584-1.913,1.584-3.363v-12.068
					 M289.974,385.129c0.924,0.396,1.913,0.593,2.968,0.593c2.508,0,4.618-0.99,6.33-2.968c1.716-1.583,2.573-3.627,2.573-6.133
					c0-2.506-0.857-4.684-2.573-6.531c-1.712-1.582-3.822-2.373-6.33-2.373c-1.055,0-2.044,0.197-2.968,0.593 M324.401,373.258
					c-0.925-7.651-4.023-14.18-9.302-19.588c-5.936-5.804-13.189-8.705-21.764-8.705c-1.318,0-2.438,0.066-3.362,0.198
					 M289.974,371.081c0.792-0.527,1.781-0.79,2.968-0.79c1.716,0,3.23,0.659,4.553,1.979c1.186,1.187,1.777,2.637,1.777,4.353
					c0,1.845-0.592,3.296-1.777,4.352c-1.322,1.188-2.837,1.781-4.553,1.781c-1.187,0-2.176-0.131-2.968-0.396 M289.974,406.893
					c0.924,0,2.044,0,3.362,0c8.574,0,15.828-3.099,21.764-9.299c5.012-4.881,8.114-10.685,9.302-17.411 M369.71,383.547
					l-0.201,4.154 M363.971,452.2l-0.196,0.595 M369.509,383.547l-0.592,4.154h0.592 M324.401,373.258v6.924 M336.074,447.85
					c-0.397,1.186-0.923,2.505-1.583,3.957c-0.53,1.186-1.253,2.373-2.177,3.561c-0.529,0.659-1.186,1.252-1.978,1.779
					c-3.433,3.826-7.915,5.739-13.456,5.739c-5.538,0-10.221-1.913-14.047-5.739c-1.584-1.582-2.771-3.361-3.562-5.34
					c-0.526-0.923-0.924-1.913-1.187-2.968c-0.132-0.133-0.196-0.396-0.196-0.792c-0.264-1.319-0.395-2.836-0.395-4.55
					c0-1.979,0.196-3.826,0.591-5.54c0.792-2.902,2.376-5.672,4.749-8.31c3.826-3.694,8.509-5.54,14.047-5.54
					c5.541,0,10.023,1.845,13.456,5.54c2.24,2.241,3.892,4.681,4.946,7.321c0.131,0.394,0.263,0.725,0.394,0.989 M320.443,439.539
					c1.056,1.055,1.58,2.241,1.58,3.561c0,1.451-0.524,2.703-1.58,3.76c-0.792,1.055-1.978,1.582-3.562,1.582
					c-1.449,0-2.705-0.527-3.76-1.582c-0.657-1.057-0.989-2.309-0.989-3.76c0-1.32,0.332-2.506,0.989-3.561
					c1.055-0.792,2.311-1.188,3.76-1.188C318.466,438.351,319.651,438.747,320.443,439.539z M367.929,402.54v1.187h0.196v-1.187
					H367.929z M368.323,400.958h-0.198l-0.196,1.583 M367.929,403.727v1.584l0.196-1.584l0.198-2.769 M367.731,411.047l0.394-7.321
					 M365.753,431.032l0.591-4.749 M365.553,436.175l0.2-2.571h18.993 M365.753,431.032h0.394 M368.917,387.701l-0.792,13.256
					 M289.974,478.517c28.229,4.615,48.211-4.419,59.951-27.106l-12.86-102.291c-13.719-17.148-29.415-25.456-47.091-24.928
					 M335.677,438.351c0.397,1.451,0.596,3.167,0.596,5.146c0,1.583-0.066,3.033-0.198,4.354 M382.768,439.539h-17.413"/>
				
					<path fill-rule="evenodd" clip-rule="evenodd" fill="none" stroke="#FFFFFF" stroke-width="0.1" stroke-linecap="round" stroke-linejoin="round" stroke-miterlimit="3" d="
					M230.023,23.059c0.661-0.661,1.518-0.989,2.573-0.989c1.055,0,1.913,0.329,2.574,0.989c0.657,0.659,0.989,1.517,0.989,2.571
					c0,1.055-0.332,1.913-0.989,2.572c-0.661,0.661-1.519,0.989-2.574,0.989c-1.055,0-1.913-0.328-2.573-0.989
					c-0.657-0.659-0.99-1.517-0.99-2.572C229.033,24.576,229.366,23.718,230.023,23.059z M246.643,30.38
					c-0.395,0.527-0.923,0.79-1.581,0.79c-0.661,0-1.256-0.263-1.781-0.79c-0.398-0.396-0.595-0.924-0.595-1.584
					c0-0.659,0.197-1.252,0.595-1.78c0.525-0.396,1.121-0.593,1.781-0.593c0.657,0,1.186,0.197,1.581,0.593
					c0.529,0.527,0.792,1.121,0.792,1.78C247.435,29.456,247.172,29.983,246.643,30.38z M195.796,111.696
					c-1.055,0-1.913-0.33-2.573-0.989c-0.657-0.792-0.99-1.648-0.99-2.572c0-1.055,0.333-1.913,0.99-2.572
					c0.66-0.792,1.518-1.188,2.573-1.188s1.913,0.396,2.57,1.188c0.661,0.659,0.989,1.517,0.989,2.572
					c0,0.923-0.328,1.779-0.989,2.572C197.709,111.366,196.852,111.696,195.796,111.696z M209.843,160.17
					c0.661,0,1.187,0.197,1.584,0.593c0.525,0.396,0.788,0.989,0.788,1.781c0,0.659-0.263,1.187-0.788,1.583
					c-0.398,0.527-0.924,0.792-1.584,0.792c-0.661,0-1.252-0.265-1.781-0.792c-0.395-0.396-0.591-0.924-0.591-1.583
					c0-0.792,0.197-1.385,0.591-1.781C208.591,160.368,209.182,160.17,209.843,160.17z M360.605,113.478
					c0,1.187,0.529,2.241,1.584,3.165l9.499,7.717 M360.605,113.478c-0.263-1.057-0.197-1.979,0.201-2.771 M362.785,135.439
					l-9.695-7.717c-1.055-0.79-1.585-1.911-1.585-3.361c-0.263-1.057-0.065-1.979,0.595-2.771 M342.01,136.231
					c-0.135-1.189,0-2.112,0.395-2.771 M353.286,147.113l-9.498-7.717c-1.055-0.792-1.646-1.847-1.778-3.165 M233.586,138.209
					c1.055,0,1.913,0.329,2.573,0.989c0.788,0.659,1.187,1.517,1.187,2.572c0,1.055-0.398,1.913-1.187,2.571
					c-0.661,0.659-1.519,0.989-2.573,0.989c-1.055,0-1.913-0.331-2.574-0.989c-0.657-0.659-0.989-1.517-0.989-2.571
					c0-1.056,0.332-1.913,0.989-2.572C231.673,138.538,232.531,138.209,233.586,138.209z M246.249,147.903
					c-0.262-0.263-0.397-0.791-0.397-1.582c0-0.659,0.135-1.254,0.397-1.782c0.526-0.263,1.187-0.395,1.979-0.395
					c0.657,0,1.121,0.132,1.384,0.395c0.529,0.527,0.792,1.123,0.792,1.782c0,0.792-0.263,1.319-0.792,1.582
					c-0.263,0.527-0.727,0.792-1.384,0.792C247.435,148.695,246.774,148.431,246.249,147.903z M276.719,116.84
					c-0.398,0.527-0.924,0.792-1.584,0.792c-0.661,0-1.252-0.264-1.781-0.792c-0.395-0.263-0.592-0.791-0.592-1.583
					c0-0.659,0.197-1.252,0.592-1.78c0.529-0.265,1.12-0.396,1.781-0.396c0.661,0,1.187,0.132,1.584,0.396
					c0.525,0.528,0.789,1.121,0.789,1.78C277.508,116.05,277.245,116.577,276.719,116.84z M289.974,132.867l1.384-11.871v-0.199
					l-1.384-12.265 M260.099,115.851c0.657-0.659,1.515-0.989,2.57-0.989c1.055,0,1.913,0.331,2.574,0.989
					c0.661,0.661,0.989,1.517,0.989,2.574c0,1.055-0.329,1.911-0.989,2.571c-0.661,0.659-1.519,0.989-2.574,0.989
					c-1.055,0-1.913-0.331-2.57-0.989c-0.661-0.661-0.989-1.517-0.989-2.571C259.109,117.368,259.438,116.512,260.099,115.851z
					 M272.959,123.964c0.792,0,1.317,0.131,1.581,0.396c0.529,0.527,0.792,1.12,0.792,1.779c0,0.792-0.263,1.319-0.792,1.582
					c-0.263,0.527-0.788,0.792-1.581,0.792c-0.661,0-1.252-0.265-1.781-0.792c-0.263-0.263-0.394-0.79-0.394-1.582
					c0-0.659,0.131-1.252,0.394-1.779C271.707,124.095,272.298,123.964,272.959,123.964z M291.357,152.653v-31.657 M290.171,161.952
					v-9.299 M291.357,152.653l-1.187,24.335 M216.173,216.362c0-0.661,0.201-1.254,0.595-1.781c0.529-0.396,1.121-0.594,1.782-0.594
					c0.792,0,1.317,0.197,1.58,0.594c0.53,0.527,0.792,1.12,0.792,1.781c0,0.659-0.262,1.186-0.792,1.583
					c-0.263,0.527-0.788,0.79-1.58,0.79c-0.661,0-1.252-0.263-1.782-0.79C216.374,217.548,216.173,217.021,216.173,216.362z
					 M272.959,205.677c0.526,0.527,0.792,1.187,0.792,1.979c0,0.659-0.267,1.187-0.792,1.582c-0.263,0.396-0.727,0.594-1.387,0.594
					c-0.788,0-1.449-0.197-1.979-0.594c-0.263-0.396-0.394-0.923-0.394-1.582c0-0.792,0.131-1.451,0.394-1.979
					c0.529-0.265,1.19-0.396,1.979-0.396C272.232,205.281,272.696,205.412,272.959,205.677z M289.974,132.867l-2.771,19.786
					 M332.118,322.607c0.923-0.131,1.712-0.659,2.373-1.583c1.055-0.79,1.583-1.913,1.583-3.363v-12.068 M289.974,475.942
					c27.567,3.958,46.43-3.692,56.585-22.95l-11.275-98.926c-12.533-17.542-27.634-26.051-45.31-25.523 M361.398,322.607
					c0.923-0.131,1.715-0.659,2.376-1.583c1.055-0.79,1.58-1.913,1.58-3.363v-12.068 M346.362,322.607
					c0.923-0.131,1.715-0.659,2.372-1.583c1.055-0.79,1.584-1.913,1.584-3.363v-12.068 M282.257,254.744
					c-0.263,0.527-0.727,0.792-1.383,0.792c-0.792,0-1.453-0.265-1.979-0.792c-0.263-0.396-0.398-0.924-0.398-1.583
					c0-0.659,0.135-1.254,0.398-1.782c0.526-0.395,1.187-0.593,1.979-0.593c0.657,0,1.12,0.199,1.383,0.593
					c0.529,0.528,0.792,1.123,0.792,1.782C283.049,253.82,282.786,254.348,282.257,254.744z M282.257,297.481
					c0.529,0.527,0.792,1.121,0.792,1.779c0,0.792-0.263,1.32-0.792,1.582c-0.263,0.528-0.727,0.793-1.383,0.793
					c-0.792,0-1.453-0.265-1.979-0.793c-0.263-0.262-0.398-0.79-0.398-1.582c0-0.659,0.135-1.252,0.398-1.779
					c0.526-0.265,1.187-0.396,1.979-0.396C281.53,297.085,281.994,297.217,282.257,297.481z M278.497,311.331
					c0-0.792,0.135-1.451,0.398-1.979c0.526-0.265,1.187-0.396,1.979-0.396c0.657,0,1.12,0.131,1.383,0.396
					c0.529,0.527,0.792,1.186,0.792,1.979c0,0.659-0.263,1.187-0.792,1.582c-0.263,0.396-0.727,0.594-1.383,0.594
					c-0.792,0-1.453-0.198-1.979-0.594C278.632,312.518,278.497,311.99,278.497,311.331z M289.974,348.527
					c0.924-0.131,2.044-0.199,3.362-0.199c8.574,0,15.828,2.573,21.764,7.717c5.278,4.881,8.377,10.617,9.302,17.214
					 M282.257,392.845c0.529,0.527,0.792,1.123,0.792,1.781c0,0.792-0.263,1.319-0.792,1.582c-0.263,0.528-0.727,0.793-1.383,0.793
					c-0.792,0-1.453-0.265-1.979-0.793c-0.263-0.263-0.398-0.79-0.398-1.582c0-0.659,0.135-1.254,0.398-1.781
					c0.526-0.263,1.187-0.394,1.979-0.394C281.53,392.451,281.994,392.582,282.257,392.845z M324.401,380.183
					c-1.188,5.936-4.29,10.948-9.302,15.037c-5.936,5.539-13.189,8.31-21.764,8.31c-1.318,0-2.438,0-3.362,0 M280.874,404.915
					c0.657,0,1.12,0.131,1.383,0.396c0.529,0.528,0.792,1.121,0.792,1.78c0,0.792-0.263,1.32-0.792,1.583
					c-0.263,0.527-0.727,0.792-1.383,0.792c-0.792,0-1.453-0.265-1.979-0.792c-0.263-0.263-0.398-0.79-0.398-1.583
					c0-0.659,0.135-1.252,0.398-1.78C279.42,405.046,280.081,404.915,280.874,404.915z M335.283,436.967
					c0.131,0.131,0.263,0.394,0.394,0.79v0.199v0.395l0.397,0.199c0.264,1.317,0.395,2.836,0.395,4.55
					c0,1.847-0.131,3.429-0.395,4.75c-0.397,0.659-0.856,1.45-1.387,2.372c-0.131,0.528-0.395,1.057-0.792,1.584
					c-0.263,0.659-0.657,1.252-1.187,1.78v0.199c-0.525,0.394-1.055,0.855-1.58,1.383h-0.596c-0.792,0.792-1.716,1.517-2.771,2.178
					c-0.263,0-0.46,0.131-0.591,0.396c-1.322,0.659-2.969,1.252-4.946,1.78c-1.585,0.396-3.301,0.593-5.147,0.593
					c-1.844,0-3.559-0.198-5.144-0.593c-1.716-0.527-3.362-1.121-4.946-1.78l-0.197-0.396c-1.186-0.661-2.438-1.385-3.76-2.178
					c-0.525-0.527-0.924-0.989-1.187-1.383c-0.661-0.662-1.186-1.32-1.584-1.979c-0.395-0.527-0.657-1.057-0.789-1.584
					c-0.528-0.659-0.857-1.451-0.989-2.372c-0.266-0.134-0.397-0.396-0.397-0.793c-0.263-1.186-0.395-2.506-0.395-3.957
					c0-1.451,0.263-2.703,0.792-3.76c0-0.263,0-0.527,0-0.79c0.657-2.639,2.177-5.078,4.549-7.321
					c3.825-3.034,8.51-4.55,14.047-4.55c5.542,0,10.027,1.517,13.455,4.55C332.644,432.942,334.229,434.855,335.283,436.967z
					 M206.875,249.997c0,0.79-0.263,1.318-0.792,1.583c-0.263,0.527-0.727,0.79-1.384,0.79c-0.792,0-1.453-0.263-1.979-0.79
					c-0.263-0.265-0.398-0.792-0.398-1.583c0-0.661,0.135-1.254,0.398-1.782c0.525-0.265,1.187-0.396,1.979-0.396
					c0.657,0,1.121,0.131,1.384,0.396C206.612,248.743,206.875,249.336,206.875,249.997z M201.535,268.197
					c-0.661,0-1.256-0.262-1.781-0.79c-0.398-0.265-0.595-0.792-0.595-1.583c0-0.661,0.197-1.254,0.595-1.781
					c0.525-0.265,1.12-0.396,1.781-0.396c0.657,0,1.186,0.131,1.58,0.396c0.529,0.527,0.792,1.121,0.792,1.781
					c0,0.791-0.263,1.318-0.792,1.583C202.721,267.935,202.192,268.197,201.535,268.197z M181.352,339.424
					c0.661-0.659,1.519-0.99,2.573-0.99c1.055,0,1.913,0.331,2.57,0.99c0.661,0.792,0.989,1.716,0.989,2.771
					c0,0.924-0.328,1.782-0.989,2.572c-0.657,0.66-1.515,0.988-2.57,0.988c-1.055,0-1.913-0.328-2.573-0.988
					c-0.792-0.79-1.186-1.648-1.186-2.572C180.166,341.14,180.559,340.217,181.352,339.424z M171.857,613.254l-0.201,0.196
					 M246.84,497.312c0,0.659-0.262,1.186-0.788,1.582c-0.267,0.528-0.792,0.79-1.584,0.79c-0.661,0-1.252-0.262-1.781-0.79
					c-0.394-0.396-0.591-0.923-0.591-1.582c0-0.661,0.197-1.254,0.591-1.782c0.529-0.396,1.121-0.593,1.781-0.593
					c0.792,0,1.318,0.197,1.584,0.593C246.578,496.059,246.84,496.651,246.84,497.312z M247.83,508.788
					c0-0.661,0.201-1.254,0.595-1.782c0.529-0.396,1.12-0.593,1.781-0.593c0.657,0,1.187,0.197,1.581,0.593
					c0.529,0.527,0.792,1.121,0.792,1.782c0,0.659-0.263,1.186-0.792,1.582c-0.394,0.527-0.924,0.792-1.581,0.792
					c-0.661,0-1.252-0.265-1.781-0.792C248.03,509.974,247.83,509.446,247.83,508.788z M280.874,494.938
					c0.657,0,1.12,0.197,1.383,0.593c0.529,0.528,0.792,1.121,0.792,1.782c0,0.659-0.263,1.186-0.792,1.582
					c-0.263,0.528-0.727,0.79-1.383,0.79c-0.792,0-1.453-0.262-1.979-0.79c-0.263-0.396-0.398-0.923-0.398-1.582
					c0-0.661,0.135-1.254,0.398-1.782C279.42,495.135,280.081,494.938,280.874,494.938z M282.257,507.006
					c0.529,0.527,0.792,1.121,0.792,1.782c0,0.659-0.263,1.186-0.792,1.582c-0.263,0.527-0.727,0.792-1.383,0.792
					c-0.792,0-1.453-0.265-1.979-0.792c-0.263-0.396-0.398-0.923-0.398-1.582c0-0.661,0.135-1.254,0.398-1.782
					c0.526-0.396,1.187-0.593,1.979-0.593C281.53,506.413,281.994,506.61,282.257,507.006z M262.869,530.551
					c0,0.659-0.267,1.187-0.792,1.583c-0.263,0.527-0.727,0.792-1.387,0.792c-0.789,0-1.449-0.265-1.979-0.792
					c-0.263-0.396-0.394-0.924-0.394-1.583c0-0.661,0.131-1.254,0.394-1.781c0.529-0.396,1.19-0.594,1.979-0.594
					c0.661,0,1.125,0.198,1.387,0.594C262.603,529.297,262.869,529.891,262.869,530.551z M278.895,534.508
					c0.526-0.396,1.187-0.593,1.979-0.593c0.657,0,1.12,0.197,1.383,0.593c0.529,0.396,0.792,0.989,0.792,1.78
					c0,0.661-0.263,1.188-0.792,1.584c-0.263,0.528-0.727,0.79-1.383,0.79c-0.792,0-1.453-0.262-1.979-0.79
					c-0.263-0.396-0.398-0.923-0.398-1.584C278.497,535.497,278.632,534.905,278.895,534.508z M393.847,344.767
					c0.661,0.66,1.519,0.988,2.573,0.988s1.913-0.328,2.57-0.988c0.66-0.79,0.988-1.648,0.988-2.572
					c0-1.055-0.328-1.978-0.988-2.771c-0.657-0.659-1.516-0.99-2.57-0.99s-1.912,0.331-2.573,0.99
					c-0.661,0.792-0.989,1.716-0.989,2.771C392.857,343.119,393.186,343.977,393.847,344.767z M412.248,341.009v-0.199
					 M427.088,574.079c-1.453,0-2.706,0.527-3.761,1.583c-0.792,0.792-1.187,1.978-1.187,3.563c0,1.448,0.395,2.569,1.187,3.361
					c1.055,1.056,2.308,1.584,3.761,1.584c1.317,0,2.503-0.528,3.559-1.584c1.055-0.792,1.584-1.913,1.584-3.361
					c0-1.585-0.529-2.771-1.584-3.563C429.591,574.606,428.405,574.079,427.088,574.079z M409.675,614.439l0.197,0.398"/>
				
					<path fill-rule="evenodd" clip-rule="evenodd" fill="none" stroke="#FFFFFF" stroke-width="0.6" stroke-linecap="round" stroke-linejoin="round" stroke-miterlimit="3" d="
					M375.444,212.799l-15.232,5.146c-0.263,0.527-0.396,1.055-0.396,1.582c0,2.375,0.526,4.55,1.582,6.529 M379.603,226.452
					l-8.509,3.165c-0.53,1.057-1.252,2.112-2.177,3.167c-0.397,0.263-0.726,0.593-0.988,0.989c-1.187,1.186-2.508,2.11-3.958,2.769
					l10.484,69.051l-1.58,27.106 M366.344,231.201l4.75-1.584 M363.971,236.542c-1.055,0.527-2.175,0.923-3.365,1.188l2.18,9.497
					c-3.169-0.659-6.333-4.55-9.499-11.674c-2.372-8.309-3.099-15.498-2.176-21.565c0-0.527,0.066-0.923,0.198-1.188
					c0.528-2.9,1.383-5.605,2.573-8.111l1.383,5.54c0.793-0.263,1.716-0.396,2.771-0.396c0.657,0,1.384,0.133,2.177,0.396
					l-8.309-24.138 M360.212,217.944c0-1.188,0.196-2.244,0.595-3.167c0-0.263,0.131-0.527,0.394-0.791l4.946-1.385
					c-1.055-0.792-2.109-1.319-3.164-1.583c-0.924-0.528-1.848-0.792-2.771-0.792 M375.247,209.437l-9.101,3.165 M355.265,210.227
					c-2.109,0.661-3.428,1.517-3.956,2.572 M363.774,228.826c-0.398-0.396-0.727-0.661-0.989-0.792
					c-0.529-0.659-0.989-1.318-1.387-1.979 M353.286,235.552c2.509,2.112,4.947,2.836,7.319,2.177 M336.074,305.592h-8.114
					 M365.354,305.592h-8.11 M365.354,305.592h1.781h7.319 M350.318,305.592h1.781h5.145 M337.853,305.592h4.355h8.11
					 M336.074,305.592h1.778 M369.509,387.701l-1.186,13.256h11.673c0.53,0.791,1.056,1.714,1.585,2.769
					c3.165,6.069,4.812,12.201,4.946,18.402c-0.135,3.034-0.464,6.001-0.989,8.903c-0.397,0.79-0.661,1.648-0.792,2.572
					c-0.529,1.847-1.187,3.825-1.979,5.936c-1.055,2.241-2.311,4.484-3.761,6.726h-14.243l-0.793,5.936 M368.323,400.958
					l-0.198,1.583 M367.929,405.311l-0.197,5.737 M365.553,436.175l0.2-5.143 M366.344,426.283l0.197-4.154l1.19-11.081
					 M365.354,439.539l0.198-3.364 M366.146,431.032l0.197-4.749 M289.974,317.661c20.179-0.131,36.931,9.037,50.255,27.502
					l13.058,105.455c-13.455,25.589-34.558,36.141-63.312,31.656 M289.974,305.592h37.986 M289.974,503.248h37.789l36.012-50.453
					 M365.354,439.539l-0.591,6.726 M366.541,422.128h19.986 M366.146,431.032h19.392 M381.581,403.727h-13.456"/>
			</g>
		</g>
	</g>
</g>
</svg>
