<?xml version="1.0" encoding="utf-8"?>
<!-- Generator: Adobe Illustrator 16.0.0, SVG Export Plug-In . SVG Version: 6.00 Build 0)  -->
<!DOCTYPE svg PUBLIC "-//W3C//DTD SVG 1.1//EN" "http://www.w3.org/Graphics/SVG/1.1/DTD/svg11.dtd">
<svg version="1.1" id="Layer_1" xmlns="http://www.w3.org/2000/svg" xmlns:xlink="http://www.w3.org/1999/xlink" x="0px" y="0px"
	 width="992.131px" height="198.43px" viewBox="0 0 992.131 198.43" enable-background="new 0 0 992.131 198.43"
	 xml:space="preserve">
<path fill="#FFFFFF" d="M647.53,115.154c3.894,5.218,9.234,8.19,14.625,11.071c1.77,0.945,2.659,2.45,3.247,4.202
	c2.845,8.484,5.203,17.054,4.794,26.146c-0.088,1.965-0.392,3.618-2.408,4.49c-3.624,1.566-7.118,3.6-10.89,4.594
	c-2.206,0.581-4.862-0.369-7.27-0.859c-0.512-0.104-1.213-1.228-1.163-1.825c0.441-5.465-0.603-10.765-1.675-16.053
	c-0.208-1.025-0.795-2.217-1.593-2.837c-3.401-2.645-6.948-5.102-10.918-7.969c2.666,8.477-1.256,15.641-3.396,23.02
	c-1.418,4.891-3.749,9.524-5.787,14.225c-0.428,0.987-1.18,2.121-2.087,2.568c-6.493,3.196-17.646,3.605-24.109-3.763
	c2.771-5.083,5.673-10.237,8.402-15.48c1.445-2.774,2.46-5.775,3.911-8.548c1.574-3.009,1.25-5.59-1.317-8.262
	c-1.983,1.281-4.078,2.539-6.071,3.938c-7.741,5.44-16.275,8.644-25.743,9.234c-3.136,0.197-2.857,0.269-4.047,3.062
	c-2.852,6.695-5.912,13.307-9.09,19.854c-0.583,1.202-2.067,2.701-3.213,2.768c-5.44,0.323-10.973,1.146-16.322-0.604
	c-6.745-2.205-7.438-2.703-3.727-9.041c2.999-5.119,5.662-10.501,6.788-16.446c0.206-1.088,0.231-2.21,0.463-4.551
	c-1.712,2.003-2.758,3.086-3.645,4.286c-6.086,8.246-14.349,13.66-23.391,18.065c-1.016,0.495-2.197,1.385-3.104,1.188
	c-1.374-0.298-3.013-1.089-3.775-2.197c-3.271-4.742-6.842-9.336-8.763-14.888c-0.635-1.832,0.562-2.334,1.869-2.792
	c4.724-1.656,9.037-4.057,13.011-7.089c2.233-1.708,4.172-3.674,6.047-6.308c-9.063-1.238-17.291-0.235-25.072,3.591
	c-3.879,1.908-7.86,3.397-12.033,4.557c-5.876,1.632-11.618,3.732-17.471,5.461c-6.073,1.794-12.099,1.515-17.984-0.962
	c-2.439-1.026-4.933-1.932-7.354-2.996c-0.813-0.358-1.479-1.047-2.188-1.565c4.406-0.751,8.653-1.23,12.775-2.229
	c8.058-1.951,14.75-6.769,21.37-11.374c9.919-6.903,19.46-14.357,29.059-21.711c7.493-5.742,14.877-11.63,22.223-17.562
	c8.455-6.829,18.195-10.669,28.724-12.827c8.953-1.835,18.011-2.122,27.107-2.013c4.663,0.055,9.356,0.313,13.985-0.1
	c9.834-0.876,19.725-1.226,29.323-4.18c7.002-2.153,12.738-6.186,18.453-10.426c1.467-1.087,2.841-2.311,4.372-3.293
	c6.328-4.058,11.991-8.901,17.205-14.296c4.574-4.733,9.918-7.958,16.309-9.989c6.146-1.954,12.345-3.551,18.602-5.008
	c1.598-0.372,3.242-0.576,4.878-0.744c1.154-0.118,2.438,0.261,3.478-0.108c3.642-1.295,7.171-0.148,10.773,0.021
	c6.469,0.309,10.546,4.099,14.188,8.734c0.913,1.161,1.585,2.521,2.292,3.833c2.845,5.274,0.874,10.083-4.893,11.867
	c-5.543,1.714-11.265,1.274-16.799,0.486c-12.372-1.761-23.116,1.027-32.817,9.093c-6.803,5.652-12.466,12.274-18.231,18.851
	c-1.518,1.729-2.697,3.771-3.934,5.73c-5.124,8.128-10.214,16.276-15.3,24.429C647.892,114.162,647.696,114.783,647.53,115.154
	 M515.969,161.874c-0.069-1.819-0.142-3.641-0.211-5.458c-0.297,0.028-0.594,0.06-0.891,0.09c0.389,1.771,0.775,3.542,1.164,5.312
	c0.322,2.11-0.828,4.709,1.988,5.99c0.652,1.14,1.306,1.067,1.961,0.002c1.453,0.022,2.479-0.604,3.002-1.988
	c3.699-0.649,3.797-0.685,2.783-3.667c-1.117-3.279-2.049-6.535-2.007-10.07c0.019-1.544-0.721-3.099-1.114-4.647
	c-0.938,0.857-1.139,1.596-1.072,2.311c0.49,5.37,2.156,10.635,1.447,16.113c-1.681-1.106-1.715-3.054-2.035-4.667
	c-0.633-3.197-0.84-6.482-1.188-9.735c-0.104-0.961-0.506-1.733-1.486-1.314c-0.509,0.216-1.062,1.235-0.977,1.796
	c0.824,5.323,1.781,10.625,2.7,15.936c-0.689,0-1.379,0-2.068-0.001C517.301,165.873,516.635,163.873,515.969,161.874
	 M648.02,141.815c-0.302-1.105-0.979-2.265-0.841-3.312c0.603-4.546,1.272-9.099,2.276-13.566c0.419-1.856,0.2-3.202-0.999-4.541
	c-1.889,6.13-1.313,12.76-3.972,18.729c-0.232,0.521,0.495,1.778,1.112,2.283c0.551,0.448,1.566,0.324,2.378,0.453
	c0.939,2.43,1.88,4.856,2.688,6.949c0.7-4.937,1.45-10.315,2.229-15.69c0.332-2.283,0.83-4.55,1.037-6.843
	c0.066-0.743-0.552-1.55-0.856-2.326c-1.576,3.939-2.325,7.792-2.9,11.671C649.844,137.847,650.004,140.187,648.02,141.815
	 M541.012,141.821c0.323,0.268,0.646,0.533,0.969,0.801c0.099-0.146,0.195-0.29,0.294-0.438c-0.432-0.108-0.862-0.218-1.294-0.328
	c-2.94-3.363-5.969-6.658-8.791-10.12c-1.768-2.167-3.289-4.547-4.758-6.931c-0.238-0.387,0.373-1.297,0.592-1.965
	c0.648,0.324,1.539,0.479,1.902,1.002c1.409,2.018,2.332,4.463,4.014,6.187c5.434,5.574,10.46,11.6,16.68,16.342
	c1.53,1.167,1.804,2.405,1.42,3.816c-1.161,4.286-1.755,8.746-3.963,12.728c-2.053,3.698-3.948,7.488-5.846,11.111
	c3.28,2.861,6.957,2.809,10.627,2.712c2.809-0.071,5.615-0.231,8.424-0.354c1.072-2.217,2.158-4.428,3.216-6.652
	c2.7-5.676,5.438-11.312,7.508-17.291c1.318-3.811,0.703-6.701-1.763-9.593c-3.978-4.662-7.878-9.387-11.813-14.083
	c-0.319-0.382-0.769-0.698-0.959-1.132c-0.165-0.377-0.227-1.026-0.011-1.281c0.22-0.259,0.991-0.402,1.25-0.218
	c1.616,1.153,3.434,2.183,4.667,3.68c3.69,4.478,7.18,9.12,10.657,13.768c0.781,1.044,1.468,2.309,1.706,3.564
	c0.251,1.327-0.088,2.767-0.165,4.096c12.217-1.844,23.247-6.323,33.021-13.767c-2.691-4.478-6.517-8.135-9.038-13.817
	c1.582,0.773,2.521,0.933,2.94,1.484c3.806,5.002,7.711,9.945,11.182,15.176c1.77,2.665,2.13,5.831,0.39,8.979
	c-1.999,3.611-3.734,7.37-5.65,11.03c-2.065,3.947-4.209,7.856-6.268,11.69c0.187,0.314,0.24,0.495,0.361,0.595
	c5.895,4.871,12.427,3.288,18.906,1.763c0.601-0.143,1.188-1.12,1.439-1.831c2.659-7.479,5.475-14.914,7.778-22.504
	c1.483-4.891,2.406-9.988,0.386-15.097c-2.856-7.21-5.609-14.462-8.438-21.685c-1.444-3.691-2.978-7.347-4.4-11.046
	c-0.126-0.326,0.151-1.062,0.452-1.229c0.32-0.177,1.065-0.062,1.314,0.208c0.539,0.588,0.979,1.318,1.285,2.062
	c2.33,5.648,4.617,11.317,6.92,16.979c0.898,2.21,1.801,4.419,2.812,6.9c1.062-0.957,1.671-1.515,2.289-2.061
	c9.745-8.562,16.545-19.403,23.119-30.347c7.98-13.281,18.273-24.434,30.238-34.106c4.162-3.364,9.092-5.536,14.251-6.819
	c4.945-1.23,10.075-1.155,15.171-0.843c4.624,0.281,9.253,0.497,13.882,0.692c2.469,0.105,4.701-0.566,6.596-1.977
	c-3.979,0.062-7.902,0.234-11.819,0.149c-2.869-0.062-5.646-0.752-7.399-3.317c-0.356-0.522-0.048-1.5-0.046-2.27
	c0.692,0.143,1.617,0.054,2.027,0.472c0.91,0.93,1.431,2.063,3.123,2.024c5.305-0.122,10.613-0.044,16.064-0.044
	c-0.836-4.692-3.019-8.389-6.021-11.461c-1.682-1.719-3.927-3.233-6.197-3.937c-2.743-0.851-5.862-1.312-8.678-0.922
	c-5.365,0.737-10.909,0.137-16.123,2.233c-2.108,0.85-4.539,0.851-6.754,1.479c-5.573,1.583-11.154,3.146-15.657,7.152
	c-3.589,3.193-7.47,6.07-10.953,9.37c-7.991,7.573-17.223,13.48-26.201,19.711c-2.51,1.742-5.644,2.646-8.571,3.716
	c-6.4,2.339-13.1,3.199-19.829,4.132c-7.517,1.04-15.021,1.653-22.59,1.683c-3.271,0.013-6.545-0.033-9.817-0.018
	c-7.458,0.033-14.841,0.274-22.212,1.989c-9.873,2.301-18.762,6.386-26.703,12.58c-6.139,4.791-12.031,9.908-18.286,14.539
	c-8.521,6.312-17.29,12.287-25.937,18.43c-1.213,0.858-2.383,1.793-3.494,2.776c-7.407,6.562-15.771,11.477-25.176,14.562
	c-1.87,0.612-3.827,0.958-5.958,1.479c5.526,2.565,10.837,2.855,16.632,1.801c5.761-1.048,11.043-3.25,16.491-5.057
	c4.854-1.61,9.646-3.466,14.327-5.524c7.484-3.287,15.29-4.052,23.334-3.766c3.877,0.138,7.491,0.843,10.825,2.942
	C536.857,139.808,538.974,140.752,541.012,141.821 M662.16,129.736c-1.083,5.884-1.827,11.08-3.037,16.167
	c-1.218,5.113-0.112,10.661-2.826,16.13c-0.631-1.131-1.204-1.684-1.2-2.229c0.024-3.301-0.126-6.647,0.361-9.89
	c0.881-5.845,2.205-11.618,3.263-17.438c0.234-1.295,0.35-2.693,0.105-3.966c-0.178-0.937-1.028-1.743-1.658-2.731
	c-0.545,0.631-0.883,0.842-0.925,1.101c-0.609,3.732-1.107,7.487-1.778,11.21c-0.729,4.046-1.814,8.037-2.372,12.102
	c-0.544,3.975-0.618,8.011-0.915,12.253c2.763,0.521,5.182,0.695,7.581-0.179c1.312-0.477,2.223-1.181,2.13-2.895
	c-0.317-5.813,0.94-11.465,1.748-17.184C663.171,138.406,664.286,134.407,662.16,129.736 M646.057,117.053
	c-3.36,2.056-4.817,4.198-4.032,7.922c0.484,2.303-0.388,4.885-0.611,7.346c-0.149,1.648-0.376,3.312-0.278,4.95
	c0.042,0.697,0.823,1.352,1.513,2.393C643.827,131.837,644.915,124.623,646.057,117.053 M527.593,143.505l-0.91-0.132
	c-0.443,1.286-1.414,2.65-1.238,3.849c0.781,5.36,1.892,10.672,2.892,16.056c2.594-2.155,2.49-2.137,1.992-4.686
	C529.348,153.575,528.496,148.536,527.593,143.505 M639.722,123.342c-2.415,1.993-4.706,3.821-6.921,5.738
	c-1.19,1.028-0.7,2.146,0.286,2.961c1.773,1.466,3.646,2.813,5.457,4.198C638.932,131.995,639.32,127.748,639.722,123.342
	 M665.968,142.564c-1.165,5.667-3.387,11.108-2.56,17.217c1.611-0.582,2.943-1.063,4.435-1.604
	C667.206,152.879,666.588,147.722,665.968,142.564 M531.345,139.133c-0.373,0.056-0.746,0.113-1.119,0.17
	c0,1.445-0.156,2.91,0.03,4.33c0.575,4.396,1.28,8.78,1.942,13.167c0.16,1.062-0.142,2.679,1.525,2.414
	c0.501-0.079,0.736-1.888,1.07-2.911c0.046-0.141-0.035-0.327-0.064-0.49c-0.651-3.551-1.27-7.108-1.971-10.649
	C532.359,143.138,531.821,141.141,531.345,139.133 M537.128,156.29c0.278-0.008,0.558-0.016,0.837-0.021
	c0.287-0.562,0.941-1.246,0.803-1.669c-1.458-4.44-1.544-9.267-4.128-13.425L537.128,156.29z M541.244,152.668
	c3.229-2.64-0.089-4.882,0.271-7.169c0.062-0.391-1.16-0.981-2.526-2.064C539.889,147.119,540.532,149.753,541.244,152.668
	 M511.072,158.349c0.232-0.014,0.467-0.029,0.699-0.044c0-1.445,0.057-2.894-0.047-4.331c-0.021-0.289-0.8-0.829-0.973-0.742
	c-0.527,0.266-1.382,0.913-1.305,1.172C509.852,155.76,510.506,157.042,511.072,158.349 M547.348,146.638
	c-1.051-0.287-1.646-0.65-2.092-0.515c-0.441,0.134-1.015,0.77-1.013,1.183c0.002,0.416,0.642,0.828,1,1.243
	C545.804,148.04,546.365,147.53,547.348,146.638 M514.875,153.74c-0.082-0.36-0.186-0.807-0.288-1.252
	c-0.115,0.218-0.342,0.442-0.322,0.646c0.037,0.378,0.217,0.743,0.338,1.113C514.675,154.111,514.747,153.977,514.875,153.74"/>
<path fill="#FFFFFF" d="M883.986,167.821c5.385,0.734,6.064,2.948,7.062,8.062c0.104,0.538-0.384,1.193-0.597,1.793
	c-0.712-0.272-1.732-0.342-2.068-0.858c-0.705-1.082-0.959-2.446-1.574-3.603c-0.416-0.783-1.133-1.407-1.716-2.104
	c-0.863,0.86-2.589,1.915-2.446,2.55c0.738,3.266-1.314,2.492-3.09,2.619c-5.749,0.408-11.487,0.98-17.233,1.435
	c-1.295,0.102-2.755,0.312-3.858-0.166c-0.697-0.304-0.749-1.88-1.306-2.748c-3.747-5.839-7.252-11.878-12.906-16.201
	c-0.659-0.503-1.31-1.055-1.833-1.688c-1.468-1.776-1.561-2.952-0.076-4.802c1.559-1.94,3.332-3.711,5.135-5.69
	c-4.501-2.696-8.941-5.428-13.45-8.042c-6.491-3.766-13.481-6.211-20.897-7.287c-3.914-0.567-7.881-0.93-11.834-1.045
	c-9.932-0.29-19.35,2.284-28.415,5.987c-6.345,2.592-12.945,3.834-19.607,4.932c-3.418,0.562-6.896,0.807-10.358,1.03
	c-2.411,0.153-4.843,0.028-7.494-0.665c1.125-0.707,2.25-1.414,3.374-2.12c5.784-3.637,10.97-8.05,15.8-12.821
	c6.993-6.908,14.275-13.526,22.462-18.892c6.336-4.153,13.302-7.41,20.19-10.635c5.978-2.797,12.326-4.671,18.896-5.696
	c4.72-0.737,9.42-1.604,14.129-2.417c0.812-0.142,1.612-0.364,2.428-0.451c4.936-0.525,7.812-4.112,10.461-7.576
	c4.906-6.412,11-11.496,17.131-16.596c2.019-1.681,4.031-3.394,5.848-5.283c3.675-3.832,7.351-7.681,10.752-11.752
	c1.777-2.127,2.779-4.657,3.114-7.667c0.644-5.803,3.688-10.599,8.277-14.209c5.771-4.539,12.732-6.197,19.764-7.438
	c5.333-0.938,10.154,1.149,14.768,3.408c2.104,1.03,3.84,1.117,6.026,0.506c5.257-1.47,10.623-2.421,16.063-0.955
	c1.236,0.333,2.521,0.877,3.512,1.667c4.507,3.598,8.173,7.721,7.756,14.062c-0.206,3.134-0.373,6.271-0.606,9.403
	c-0.049,0.649-0.133,1.43-0.512,1.897c-0.89,1.104-1.831,2.646-3.004,2.917c-1.476,0.341-1.867-1.434-2.31-2.717
	c-0.248-0.72-0.873-1.311-1.718-2.516c-0.785,1.729-1.368,3.001-1.938,4.274c-1.13,2.515-2.093,2.794-3.973,0.976
	c-0.938-0.908-1.652-2.045-2.822-3.529c-1.373,2.984-2.396,5.212-3.562,7.745c2.721,2.391,5.828,5.121,8.878,7.8
	c-1.875,5.179-3.295,6.268-8.262,6.229c-1.479-0.011-2.977-0.19-4.423-0.49c-5.52-1.146-8.201,0.003-10.457,4.966
	c-0.785,1.726-1.007,3.708-1.745,6.585c2.802-1.779,4.745-2.895,6.56-4.188c4.654-3.314,9.949-3.677,15.279-3.007
	c4.119,0.519,6.671,3.471,8.16,7.214c0.76,1.909-1.464,4.185-3.826,3.854c-1.278-0.178-2.504-0.807-3.721-1.311
	c-1.065-0.438-2.081-0.992-3.132-1.472c-0.104-0.047-0.293,0.09-0.839,0.276c3.091,2.285,3.826,5.619,4.591,8.927
	c0.598,2.593-0.605,5.704-2.434,6.473c-2.303,0.971-5.18-0.142-6.813-2.634c-0.185-0.278-0.355-0.562-0.53-0.847
	c-2.669-4.311-3.131-4.521-8.646-3.833c0.326,2.555,0.506,5.146,1.01,7.675c1.3,6.508,2.003,13.046,1.847,19.696
	c-0.058,2.413-0.57,4.537-1.82,6.578c-1.985,3.243-3.87,6.553-5.786,9.814c4.074,2.457,8.307,0.604,12.447,0.313
	c1.804-0.126,3.331-1.235,4.005-3.267c0.621-1.874,1.543-3.651,2.396-5.442c0.665-1.397,0.532-2.557-0.759-3.498
	c-0.134-0.1-0.245-0.227-0.358-0.35c-3.712-4.016-3.701-5.015,0.379-8.63c0.971-0.858,2.165-1.507,3.342-2.073
	c0.46-0.223,1.155,0.048,1.744,0.093c-0.224,0.517-0.322,1.159-0.692,1.528c-1.61,1.611-3.303,3.145-5.188,4.915
	c1.31,1.459,2.266,2.523,3.596,4.004c0-0.883,0.106-1.278-0.016-1.586c-1.436-3.6-1.339-4.216,1.372-5.51
	c3.864-1.845,7.78-3.583,12.095-5.56c-0.249,0.824-0.242,1.723-0.676,2.069c-1.665,1.335-3.389,2.645-5.25,3.675
	c-1.717,0.947-3.639,1.526-5.689,2.356c0.557,1.159,1.121,2.137,1.487,3.187c0.199,0.568,0.281,1.361,0.038,1.877
	c-3.453,7.31-6.951,14.598-10.489,21.865c-0.634,1.306-1.494,2.499-2.503,4.161c3.268,0.118,5.63-0.075,7.383-3.02
	c1.599-2.681,3.902-4.939,5.891-7.389c0.521-0.643,1.406-1.266,1.469-1.955c0.361-4.083,0.538-8.184,0.745-12.278
	c0.016-0.304-0.252-0.612-0.315-0.933c-0.957-4.86-0.656-5.508,4.168-6.932c1.084-0.319,2.825-2.05,3.44-0.361
	c0.721,1.979-1.922,1.63-2.988,2.423c-0.614,0.457-1.47,0.587-2.604,1.008c0.419,0.912,0.816,1.558,1.017,2.259
	c0.391,1.377,0.979,2.797,0.932,4.179c-0.092,2.624-0.711,5.228-0.855,7.854c-0.155,2.771-1.121,4.964-2.881,7.188
	c-2.204,2.79-5.25,5.017-6.323,8.701c-0.213,0.731-1.373,1.296-2.211,1.699c-0.551,0.265-1.31,0.098-1.972,0.134
	c-6.78,0.362-13.597,0.419-20.329,1.188c-5.493,0.628-11.17,1.02-15.918,4.644c-1.933,1.475-4.243,2.481-6.465,3.525
	c-1.003,0.472-2.197,0.666-3.32,0.727c-4.495,0.242-8.917-0.134-13.302-1.327c-2.951-0.802-6.03-1.135-9.995-1.848
	c3.263,4.102,5.427,7.735,9.219,10.08c1.661,1.026,2.659,0.835,3.876-0.408c1.047-1.069,2.117-2.146,3.318-3.028
	c3.982-2.922,6.585-2.328,9.397,1.735c1.633,2.359,3.087,4.677,2.767,7.697c-0.112,1.059-0.381,2.156-1.662,1.917
	c-0.579-0.108-1.041-1.059-1.463-1.688c-0.159-0.234-0.037-0.65-0.074-0.98c-0.627-5.69-1.812-6.344-7.813-4.311
	c-0.675,0.326-1.349,0.652-2.022,0.979c-0.453,0.108-0.906,0.219-1.359,0.329c0.09,0.151,0.18,0.307,0.271,0.461
	c0.364-0.261,0.73-0.521,1.098-0.781C882.668,168.504,883.327,168.163,883.986,167.821 M917.029,142.872
	c-0.673,0.99-1.345,1.982-2.018,2.977c-0.642,0.717-1.283,1.437-1.924,2.152c0.221,0.144,0.441,0.288,0.664,0.432
	c0.412-0.868,0.824-1.737,1.235-2.604c0.66-1.003,1.321-2.006,1.981-3.01c0.278-0.335,0.558-0.671,0.837-1.007
	c-0.161-0.098-0.323-0.194-0.484-0.294C917.225,141.97,917.128,142.421,917.029,142.872 M937.02,77.859l-0.039-0.032
	c2.465,1.159,4.91,2.365,7.411,3.441c0.479,0.205,1.359,0.098,1.72-0.232c0.361-0.33,0.583-1.25,0.381-1.688
	c-1.588-3.429-7.312-5.7-10.545-4.23c-0.399,0.182-0.743,0.642-0.962,1.053c-0.562,1.062-1.042,2.173-1.554,3.264
	c0.237,0.162,0.474,0.325,0.711,0.488C935.102,79.234,936.061,78.548,937.02,77.859 M879.922,171.934
	c-6.81-3.064-11.305-6.936-14.854-11.849c-0.931-1.289-1.616-1.261-2.861-0.709c-0.583,0.259-1.421-0.062-2.145-0.117
	c0.131-0.774,0.041-1.699,0.442-2.291c0.736-1.09,1.667-2.102,2.687-2.94c4.219-3.47,8.469-6.9,12.771-10.268
	c2.997-2.346,6.307-4.332,9.104-6.885c4.979-4.542,5.033-8.943,0.576-13.822c-0.896-0.981-1.999-1.793-2.789-2.847
	c-0.69-0.922-1.075-2.074-2.06-4.067c4.533,2.312,7.297,4.805,9.328,8.124c1.723,2.812,2.196,5.624,1.124,8.957
	c-1.215,3.775-3.832,6.163-6.72,8.405c-2.478,1.925-5.198,3.535-7.688,5.443c-2.923,2.24-5.712,4.654-8.818,7.207
	c4.809,1.111,8.948,2.249,13.159,2.99c4.254,0.749,8.396,0.805,12.563-1.307c7.844-3.975,13.437-10.259,18.416-17.126
	c3.296-4.542,6.038-9.508,8.771-14.43c2.726-4.909,3.607-10.214,2.381-15.794c-0.282-1.282-0.388-2.61-0.494-3.927
	c-0.361-4.475-1.132-8.866-2.38-13.753c-1.416,2.194-2.504,3.84-3.552,5.511c-1.471,2.345-4.231,3.343-7.88,2.58
	c-2.997-0.625-6.868-4.679-6.912-7.134c-0.013-0.618,0.763-1.396,1.373-1.808c0.253-0.17,1.219,0.291,1.522,0.71
	c0.873,1.202,1.443,2.633,2.367,3.786c2.256,2.812,3.548,2.853,6.048,0.322c1.756-1.774,3.362-3.706,5.181-5.413
	c4.095-3.847,10.87-3.835,14.856,0.069c1.285,1.258,2.188,2.899,3.328,4.313c0.86,1.064,2.188,0.789,2.733-0.505
	c1.228-2.91-0.9-8.959-3.832-10.449c-3.147-1.604-6.394-2.645-10.022-1.379c-3.266,1.138-6.617,2.038-9.941,3
	c-0.729,0.211-1.512,0.241-2.674,0.419c0.959-2.622,3.405-2.529,4.877-4.097c-2.258-3.223-0.616-6.203,0.977-9.167
	c0.633-1.179,1.456-2.109-0.438-3.115c-0.995-0.529-0.099-1.669,0.688-1.683c4.237-0.062,8.258-1.766,12.758-0.539
	c3.628,0.99,8.1,1.625,10.543-2.881c-3.005-1.948-6.185-3.727-9.027-5.938c-2.475-1.929-4.791-4.162-6.766-6.597
	c-1.923-2.371-0.97-4.849,1.924-5.11c8.488-0.771,15.945-5.02,24.232-6.562c0-1.771,0.14-3.277-0.024-4.751
	c-0.67-6.024-4.366-10.326-9.431-10.604c-3.647-0.201-7.511-0.581-10.939,0.358c-4.425,1.214-8.157,0.24-11.942-1.521
	c-4.455-2.074-8.911-3.09-13.869-1.827c-6.141,1.562-12.024,3.396-17.012,7.615c-3.891,3.29-5.459,7.753-7.241,12.186
	c1.329,3.168-0.658,5.501-2.317,7.612c-6.384,8.121-13.711,15.329-21.578,22.043c-5.663,4.832-11.251,9.837-16.233,15.342
	c-2.283,2.521-4.664,4.147-7.7,4.858c-4.314,1.011-8.722,1.628-13.087,2.42c-2.92,0.528-5.895,0.868-8.749,1.639
	c-19.629,5.293-36.5,15.403-51.15,29.401c-5.175,4.942-10.512,9.717-16.324,15.072c3.373-0.513,6.116-1.089,8.889-1.319
	c5.835-0.488,11.266-2.316,16.655-4.455c9.122-3.62,18.434-6.35,28.442-5.692c4.288,0.281,8.551,0.254,12.864,0.896
	c8.961,1.336,17.364,3.916,25.096,8.633c4.043,2.468,8.062,4.977,12.392,7.653c3.197-4.141,6.325-8.198,9.469-12.247
	c0.607-0.784,1.182-1.64,1.941-2.243c0.376-0.298,1.197-0.251,1.712-0.068c0.257,0.091,0.479,0.911,0.357,1.284
	c-0.249,0.768-0.746,1.455-1.131,2.18c-3.313,6.252-8.281,11.152-13.153,16.135c-1.257,1.284-2.466,2.617-3.554,3.776
	c0.142,0.526,0.135,0.733,0.233,0.83c5.97,5.829,10.853,12.469,14.941,19.729c0.284,0.504,1.286,0.916,1.913,0.863
	c4.606-0.37,9.21-0.811,13.796-1.376C877.052,173.568,877.965,172.85,879.922,171.934 M926.599,147.371l0.719,0.596
	c0.818-0.674,1.884-1.196,2.408-2.051c1.537-2.501,2.896-5.115,4.234-7.731c0.26-0.509,0.108-1.228,0.147-1.85
	c-0.207-0.046-0.414-0.093-0.621-0.141C931.191,139.921,928.895,143.646,926.599,147.371 M924.926,137.623
	c-0.318-0.241-0.637-0.483-0.954-0.726c-2.273,3.73-4.547,7.46-6.82,11.19C921.248,145.579,922.291,141.077,924.926,137.623
	 M929.839,137.613c-0.387-0.287-0.772-0.577-1.158-0.867c-2.362,3.375-4.593,6.83-5.434,11.146
	C925.443,144.466,927.641,141.04,929.839,137.613 M931.071,49.061c-0.382,2.103,0.705,2.988,3.082,4.104
	C932.711,51.242,931.892,50.15,931.071,49.061 M931.655,79.789c0.256-1.499,0.433-2.521,0.585-3.547
	c0.004-0.023-0.259-0.085-0.511-0.165C930.59,76.897,929.252,77.663,931.655,79.789 M951.745,42.601
	c-0.618,0.914-1.274,1.48-1.179,1.842c0.13,0.481,0.85,0.806,1.315,1.194c0.309-0.471,0.813-0.923,0.862-1.42
	C952.783,43.827,952.258,43.382,951.745,42.601 M910.925,146.868c-0.248-0.201-0.496-0.402-0.744-0.604
	c-0.691,0.936-1.381,1.868-2.072,2.802c0.193,0.148,0.387,0.296,0.579,0.443C909.433,148.63,910.179,147.749,910.925,146.868
	 M944.139,47.173c-0.554-0.581-0.802-1.068-1.143-1.145c-0.436-0.096-0.942,0.141-1.42,0.231c0.31,0.372,0.552,0.875,0.947,1.073
	C942.836,47.491,943.336,47.271,944.139,47.173 M935.303,48.908c-0.057-0.364-0.091-0.596-0.127-0.824
	c-0.261,0.079-0.607,0.085-0.761,0.26c-0.142,0.162-0.073,0.504-0.1,0.767C934.646,49.043,934.977,48.975,935.303,48.908
	 M888.408,164.439c-0.044-0.097-0.064-0.253-0.135-0.276c-0.144-0.055-0.312-0.036-0.472-0.047c0.052,0.146,0.062,0.365,0.167,0.426
	C888.064,164.596,888.259,164.479,888.408,164.439 M919.365,138.513l-0.146,0.43c0.163,0.015,0.326,0.027,0.489,0.04
	c-0.02-0.147-0.018-0.304-0.066-0.439C919.629,138.504,919.463,138.521,919.365,138.513"/>
<path fill="#FFFFFF" d="M226.883,148.307c-0.322-2.245-0.879-4.487-0.901-6.733c-0.023-2.123,0.575-4.245,0.788-6.379
	c0.226-2.255-0.18-4.689,2.479-6.503c0.332,0.741,0.888,1.398,0.875,2.045c-0.125,6.918,2.238,12.968,6.495,18.738
	c1.843-3.331,4.606-3.514,7.688-1.866c0.857-5.005,5.718-7.807,10.949-5.07c-1.827-10.013,5.781-15.308,14.118-13.062
	c0.15-0.27,0.494-0.621,0.42-0.8c-1.812-4.438-0.657-8.091,2.855-11.157c0.249-0.217,0.499-0.462,0.665-0.744
	c2.744-4.647,6.65-5.25,11.327-3.312c0.215,0.09,0.576-0.173,0.868-0.273c0.048-0.146,0.167-0.311,0.133-0.434
	c-0.426-1.545-1.493-3.239-1.156-4.585c0.406-1.617,1.794-3.174,3.125-4.337c3.02-2.64,5.89-2.661,9.551-0.462
	c0.489,0.293,0.921,0.68,1.665,1.235c0-3.101,0.069-5.749-0.019-8.392c-0.084-2.499,0.72-4.515,2.614-6.179
	c2.604-2.283,5.018-4.796,7.708-6.966c3.424-2.763,7.133-4.089,11.32-1.301c3.152,2.099,6.414,4.031,10.124,6.348
	c0.829-1.037,1.779-1.995,2.456-3.117c2.491-4.125,6.266-6.771,10.259-9.201c2.371-1.445,2.544-1.477,4.694,0.414
	c3.61,3.175,5.789,7.235,7.032,11.804c0.818,3.013,1.43,6.081,2.247,9.609c3.499-3.693,7.055-0.742,10.551-0.32
	c0.84,0.102,1.744,1.979,2.115,3.193c0.814,2.669,1.7,5.424,1.785,8.168c0.051,1.618,0.299,2.294,1.693,2.835
	c3.018,1.172,5.495,3.662,5.438,6.533c-0.062,3.06,1.166,4.538,3.144,6.102c0.38,0.301,0.849,0.749,0.896,1.17
	c0.416,3.79,4.227,5.224,5.73,8.278c0.312,0.632,1.644,0.982,2.542,1.067c7.741,0.737,11.832,6.184,15.262,12.146
	c1.997,3.474,0.456,5.542-3.139,7.724c-5.414,3.287-11.119,3.878-17.199,3.53c-2.566-0.146-5.355-0.683-7.719,1.373
	c0.5,2.351,1.054,4.729,1.5,7.127c0.538,2.889-0.424,5.597-1.422,8.201c-0.353,0.919-1.547,1.697-2.535,2.154
	c-2.798,1.295-5.798,1.258-8.795,0.868c-1.795-0.231-3.579-0.675-5.377-0.73c-1.726-0.055-2.581-0.391-3.001-2.381
	c-0.85-4.032-2.941-7.551-6.343-10.645c-0.079,2.217-0.217,4.434-0.221,6.648c-0.005,2.438-0.977,3.523-3.421,4.614
	c-5.248,2.341-10.271,2.059-15.499,0.593c-1.688-0.476-2.595-1.18-1.774-3.217c0.654-1.623,0.801-3.453,1.16-5.128
	c-4.673-0.776-9.19-1.528-14.055-2.339c-0.124,0.9-0.361,1.97-0.398,3.043c-0.073,2.164,0.036,4.337-0.062,6.498
	c-0.158,3.479-0.712,4.113-4.121,4.168c-5.662,0.094-11.327,0-16.989,0.024c-1.481,0.007-2.126-0.754-2.172-2.11
	c-0.05-1.477-0.011-2.956-0.011-5.299c-1.585,1.169-2.525,1.905-3.507,2.582c-6.362,4.396-10.589,3.92-16.671-0.932
	c-1.544-1.233-2.806-2.835-4.129-4.327c-1.178-1.327-2.262-2.737-3.662-4.448c5.065-1.45,8.94-4.558,13.347-8.769
	c-5.061,1.275-9.166,2.357-13.295,3.342c-5.489,1.308-11.027,2.228-16.71,2.059c-2.83-0.084-5.672,0.146-8.496-0.004
	c-5.621-0.294-11.231-0.762-16.849-1.135c-2.128-0.141-3.384-1.441-3.967-3.271c-1.399-4.395-3.216-8.768-3.783-13.284
	c-0.729-5.812-1.661-11.755-0.216-17.641c0.215-0.876,0.712-1.682,1.899-2.437c0.25,2.829,0.289,5.696,0.807,8.476
	c0.571,3.071,1.354,6.146,2.467,9.06c1.039,2.722,2.631,5.23,3.979,7.836C226.323,148.521,226.604,148.413,226.883,148.307
	 M341.97,168.808c0.646-0.67,1.294-1.34,1.939-2.01c-0.246-0.162-0.492-0.325-0.738-0.488c-0.381,0.851-0.761,1.7-1.142,2.55
	c-0.276,0.333-0.552,0.667-0.828,1.001c0.163,0.098,0.326,0.193,0.489,0.289C341.784,169.702,341.877,169.256,341.97,168.808
	 M281.017,172.819c0.101,0.445,0.202,0.892,0.304,1.336c0.144-0.095,0.288-0.188,0.432-0.283c-0.257-0.339-0.514-0.68-0.771-1.02
	c-0.486-4.205,0.591-8.563-1.27-12.634C278.811,164.554,280.061,168.672,281.017,172.819 M298.067,175.633
	c6.017-0.09,11.185,2.01,16.554,0.694c0.141-0.563,0.354-1.025,0.355-1.488c0.026-5.907,0.014-11.814,0.03-17.721
	c0.008-2.519-0.502-4.729-1.841-7.048c-2.167-3.753-4.189-7.538-7.219-10.689c-0.339-0.354-0.619-0.804-0.79-1.26
	c-0.091-0.241,0.024-0.775,0.198-0.856c0.374-0.177,1.093-0.352,1.241-0.171c2.417,2.929,5.013,5.754,7.074,8.923
	c3.197,4.919,4.848,10.431,4.614,16.233c10.446,3.768,24.379,3.324,33.222-0.948c-2.477-4.558-7.026-6.576-11.672-9.106
	c3.733-0.255,5.96,0.3,8.661,2.54c5.675,4.708,10.212,10.292,12.818,17.315c0.365,0.981,1.147,2.291,1.992,2.521
	c2.203,0.604,4.551,0.961,6.835,0.93c5.254-0.073,5.253-0.191,5.772-5.558c0.032-0.331,0.056-0.663,0.091-0.992
	c0.675-6.12-0.357-11.722-4.907-16.268c-3.299-3.295-6.596-6.59-9.871-9.907c-1.085-1.098-2.101-2.265-3.148-3.399
	c1.074-0.45,1.708-0.375,2.146-0.042c5.312,4.044,10.127,8.597,14.168,13.94c1.365,1.809,2.561,3.283,5.57,2.645
	c3.348-0.714,6.976-0.356,10.456-0.116c4.514,0.311,8.465-0.868,12.78-4.06c-2.414,0.375-4.009,0.725-5.621,0.851
	c-2.643,0.205-5.307,0.465-7.942,0.328c-2.535-0.133-4.3-1.957-4.657-4.4c-0.072-0.492,0.482-1.076,0.749-1.617
	c0.414,0.212,1.162,0.386,1.188,0.641c0.36,3.276,2.661,3.418,5.128,3.229c4.102-0.312,8.198-0.688,12.337-1.044
	c-0.102-0.549-0.115-0.85-0.215-1.12c-0.225-0.624-0.444-1.256-0.749-1.843c-2.936-5.682-6.922-9.666-14.006-8.807
	c-2.881,0.349-5.481-0.501-8.135-1.735c-3.311-1.538-5.794-3.879-7.916-6.657c-3.524-4.615-6.771-9.466-12.247-12.104
	c-0.574-0.276-0.943-0.952-1.492-1.314c-5.947-3.921-11.989-7.512-19-9.467c-5.711-1.593-11.431-1.689-17.217-1.797
	c-5.93-0.11-11.434,1.508-16.678,4.162c-8.084,4.091-14.891,9.878-21.312,16.153c-5.003,4.891-9.753,10.054-14.938,14.736
	c-4.165,3.763-8.422,7.747-13.337,10.28c-7.965,4.104-16.237,7.942-25.582,8.034c8.728,1.396,17.44,0.456,26.144,0.388
	c0.81-0.007,1.63-0.246,2.425-0.454c4.942-1.292,9.857-2.692,14.821-3.889c4.771-1.15,9.634-2.724,14.11,0.971
	c0.106,0.087,0.492-0.165,0.811-0.281c-1.271-2.144-2.693-4.202-3.758-6.433c-1.078-2.256-3.641-3.66-4.208-6.819
	c3.024,0.371,4.199,2.353,5.355,3.968C293.588,154.548,298.958,163.808,298.067,175.633 M329.788,102.691
	c0-3.574,0.133-6.398-0.062-9.2c-0.084-1.202-0.514-2.807-1.369-3.452c-3.412-2.574-7.062-4.836-10.609-7.232
	c-1.607-1.087-3.068-0.953-4.493,0.351c-3.655,3.347-7.415,6.587-10.934,10.069c-0.785,0.777-1.118,2.401-1.037,3.593
	c0.243,3.571,0.793,7.122,1.275,11.11C311.062,102.972,320.058,101.88,329.788,102.691 M345.364,77.141
	c-4.531,2.721-7.768,6.724-11.15,10.57c-1.872,2.131-2.394,4.599-2.018,7.372c0.171,1.258,0.105,2.56,0.029,3.835
	c-0.205,3.426,0.07,4.098,3.594,4.563c4.617,0.613,9.062,1.677,13.243,3.705c1.46,0.708,2.288,0.204,2.652-1.098
	c0.935-3.329,1.784-6.686,2.546-10.058c0.16-0.715-0.105-1.578-0.344-2.317c-0.854-2.657-1.669-5.335-2.709-7.921
	C349.908,82.561,348.193,79.553,345.364,77.141 M363.147,114.532c1.563-1.408,3.194-2.805,4.723-4.306
	c0.421-0.414,0.835-1.205,0.732-1.718c-0.555-2.744-1.004-5.559-2.004-8.149c-1.146-2.97-5.491-3.392-7.347-0.806
	c-1.728,2.41-3.203,5.005-4.742,7.547c-0.863,1.428-0.372,2.553,1.011,3.316C357.84,111.696,360.182,112.937,363.147,114.532
	 M273.438,132.139c4.77-4.615,9.485-9.177,14.027-13.571c-1.454-4.134-5.209-3.547-8.062-4.24c-2.347-0.57-2.466,2.692-4.066,3.774
	c-0.802,0.541-1.363,1.434-2.049,2.151c-1.863,1.951-2.71,3.99-1.35,6.706C272.729,128.536,272.955,130.397,273.438,132.139
	 M258.11,146.662c4.513-3.921,8.251-7.046,11.834-10.34c1.561-1.436,1.264-2.842-0.469-4.061c-2.433-1.71-4.503-1.537-7.297-0.106
	c-3.204,1.64-4.567,3.938-4.111,7.527C258.311,141.602,258.11,143.575,258.11,146.662 M299.585,109.421
	c-1.113-1.455-2.023-2.85-3.14-4.05c-1.512-1.628-3.755-2.026-5.474-1.137c-1.591,0.824-3.614,2.707-3.67,4.19
	c-0.106,2.882,0.537,6.006,2.703,8.368C293.296,114.261,296.285,111.961,299.585,109.421 M372.641,124.021
	c1.59-1.864,2.932-3.438,4.203-4.929c-3.964-6.983-4.046-7.537-10.956-3.361c-0.224,0.136-0.296,0.521-0.231,0.4
	C367.83,118.586,369.917,120.941,372.641,124.021 M229.049,156.34c-3.078-4.431-5.949-8.562-9.028-12.993
	c0.021,4.195,1.415,7.723,2.552,11.314c0.543,1.712,1.584,2.391,3.352,2.057C226.854,156.542,227.805,156.485,229.049,156.34
	 M237.846,155.225c-3.012-4.072-5.797-7.837-8.825-11.933c0.408,2.433,0.829,4.492,1.087,6.573
	C230.731,154.892,232.22,156.002,237.846,155.225 M248.523,151.368c2.203-1.062,4.359-2.103,6.896-3.324
	c-1.182-1.915-1.219-4.453-3.362-4.749c-1.238-0.173-2.988,1.183-4.035,2.295C246.236,147.488,247.25,149.492,248.523,151.368
	 M285.302,156.265c0.386,4.503,0.765,8.877,1.131,13.252c0.051,0.62-0.089,1.284,0.088,1.857c0.126,0.41,0.632,0.705,0.969,1.053
	c0.323-0.348,0.938-0.706,0.925-1.039c-0.156-3.918-0.437-7.83-0.619-11.747C287.72,157.988,286.976,156.925,285.302,156.265
	 M377.989,130.8c3.387-3.281,3.473-3.539,1.992-5.346c-1.584-1.934-2.111-1.848-5.496,0.893
	C375.581,127.738,376.676,129.131,377.989,130.8 M240.829,147.353c-0.549,2.229-1.051,3.433-1.064,4.643
	c-0.009,0.694,0.611,1.741,1.231,2.037c1.981,0.942,3.249-0.56,5.03-1.8C244.411,150.716,243.011,149.401,240.829,147.353
	 M282.732,157.57c-0.831,6.925-0.085,13.249,1.542,15.975C283.753,168.141,283.242,162.855,282.732,157.57 M385.427,134.842
	c-2.098-3.942-2.098-3.942-5.559-1.646C381.981,133.821,383.704,134.332,385.427,134.842 M290.682,159.329
	c-0.422,3.415-1.022,6.846,0.903,10.094C291.285,166.058,290.983,162.693,290.682,159.329 M343.086,174.865
	c3.943-2.39,5.349-4.496,5.31-7.294C346.806,169.756,345.182,171.985,343.086,174.865 M277.296,167.302
	c0.076-0.004,0.152-0.008,0.229-0.014v-4.852c-0.265,0.019-0.528,0.037-0.792,0.057C276.92,164.097,277.108,165.698,277.296,167.302
	 M337.558,167.424c-0.335-0.137-0.67-0.272-1.005-0.407c-0.288,0.811-0.577,1.62-0.865,2.43c0.207,0.082,0.413,0.164,0.62,0.246
	C336.725,168.937,337.142,168.181,337.558,167.424 M343.529,170.304c-0.099,0.242-0.226,0.478-0.28,0.729
	c-0.018,0.086,0.146,0.212,0.228,0.318c0.105-0.242,0.24-0.477,0.301-0.729C343.796,170.539,343.618,170.411,343.529,170.304
	 M341.539,173.303c-0.114,0.243-0.255,0.478-0.325,0.732c-0.019,0.069,0.179,0.197,0.276,0.3c0.112-0.237,0.256-0.466,0.32-0.715
	C341.83,173.543,341.636,173.41,341.539,173.303 M345.542,167.308c-0.099,0.093-0.287,0.194-0.279,0.277
	c0.024,0.259,0.124,0.511,0.193,0.766c0.113-0.238,0.254-0.469,0.321-0.72C345.798,167.551,345.625,167.418,345.542,167.308
	 M274.371,164.511c-0.04,0.149-0.08,0.3-0.12,0.451c0.178,0.02,0.354,0.041,0.53,0.062c-0.03-0.156-0.034-0.325-0.103-0.463
	C274.65,164.507,274.479,164.525,274.371,164.511"/>
<path fill="#FFFFFF" d="M76.282,162.507c4.32,2.726,8.224,5.933,12.067,10.112c-1.157,0.096-1.765,0.146-2.371,0.196l0.054,0.051
	c-1.22-1.304-2.372-2.681-3.678-3.895c-2.152-1.998-4.404-3.892-6.614-5.828C75.922,162.934,76.103,162.721,76.282,162.507"/>
<path fill="#FFFFFF" d="M83.014,164.825c-0.308-0.006-0.633,0.052-0.917-0.03c-0.269-0.078-0.494-0.301-0.738-0.46
	c0.386-0.079,0.787-0.253,1.152-0.196c0.191,0.03,0.321,0.463,0.479,0.713L83.014,164.825z"/>
<path fill="#FFFFFF" d="M87.001,154.645c0.438,1.002,0.809,2.042,1.335,2.995c0.462,0.836,1.102,1.573,1.662,2.354
	c-0.675-0.043-1.349-0.086-2.023-0.129c-1.404-1.552-2.81-3.101-4.213-4.649c0.155-0.232,0.337-0.442,0.544-0.63
	c0.566-0.041,1.134-0.082,1.701-0.123L87.001,154.645z"/>
<path fill="#FFFFFF" d="M90.975,155.701c2.021,0.13,3.214,1.389,4.126,3.028l-0.213,0.228c-0.559-0.007-1.116-0.016-1.675-0.022
	C92.468,157.856,91.721,156.779,90.975,155.701"/>
<path fill="#FFFFFF" d="M717.837,37.713c1.669-0.074,3.6,1.285,3.09,2.295c-0.436,0.86-1.498,1.688-2.439,1.936
	c-1.311,0.35-2.667-0.193-3.131-1.666C715.067,39.365,716.745,37.761,717.837,37.713"/>
<path fill="#FFFFFF" d="M912.955,71.682c-1.646,1.228-2.231,2.026-2.911,2.115c-6.251,0.812-12.261,0.199-17.446-3.799
	c-1.141-0.878-2.17-2.104-2.809-3.39c-1.686-3.391-3.184-6.879-4.605-10.388c-0.229-0.563,0.31-1.438,0.492-2.171
	c0.596,0.465,1.418,0.809,1.744,1.419c1.009,1.892,1.807,3.895,2.729,5.833c1.659,3.485,3.71,6.639,7.219,8.59
	c2.059,1.146,4.144,1.955,6.586,1.821C906.56,71.571,909.181,71.682,912.955,71.682"/>
<path fill="#FFFFFF" d="M916.73,39.005c-2.021,0.037-3.861-1.71-3.818-3.626c0.034-1.545,1.57-2.742,3.484-2.714
	c2.303,0.033,3.609,1.104,3.736,3.067C920.266,37.785,919.041,38.963,916.73,39.005"/>
<path fill="#FFFFFF" d="M945.636,28.657c1.303,1.927,2.421,3.578,3.728,5.512C944.594,33.308,944.5,33.169,945.636,28.657"/>
<path fill="#FFFFFF" d="M937.02,77.86c0.01-0.311-0.035-0.636,0.043-0.926c0.076-0.272,0.283-0.512,0.435-0.766
	c0.08,0.396,0.252,0.806,0.2,1.184c-0.024,0.188-0.464,0.317-0.716,0.474L937.02,77.86z"/>
<path fill="#FFFFFF" d="M391.468,146.713c-1.013-1.223-2.073-1.942-2.219-2.814c-0.202-1.21,0.788-2.067,2.114-2.072
	c1.508-0.007,1.989,1.073,1.756,2.29C392.975,144.871,392.258,145.518,391.468,146.713"/>
<path fill="#FFFFFF" d="M123.293,85.784c0.943,0.881,2.339,1.604,2.361,2.365c0.021,0.778-1.304,1.597-2.04,2.396
	c-0.859-0.873-1.718-1.746-2.576-2.619C121.714,87.284,122.39,86.642,123.293,85.784"/>
<path fill="#FFFFFF" d="M136.828,83.683c2.138,0.208,2.535,1.301,2.297,2.523c-0.124,0.634-0.792,1.499-1.362,1.636
	c-1.329,0.316-3.097-1.09-2.713-2.093C135.395,84.847,136.372,84.185,136.828,83.683"/>
<path fill="#FFFFFF" d="M88.975,161.818c-0.667,0.018-1.333,0.034-2,0.052l-0.92-1.982c0.655-0.024,1.312-0.05,1.968-0.073
	C88.34,160.481,88.657,161.15,88.975,161.818"/>
<path fill="#FFFFFF" d="M83.049,157.879c1.646-0.394,2.529,0.368,2.894,1.913C84.434,159.978,83.445,159.377,83.049,157.879"/>
<g>
	<path fill="#FFFFFF" d="M142.052,81.895c4.083,0.396,6.133,3.332,6.841,6.718c0.514,2.457-0.491,5.373-2.628,7.134
		c-3.065,2.522-6.286,4.923-9.712,6.906c-1.329,0.771-3.128,1.022-5.128,0.786c-4.931-0.58-9.857-0.924-14.577-2.602
		c-2.251-0.8-4.127-1.987-5.138-4.36c-0.755-1.773-1.039-3.307-0.179-5.209c1.008-2.23,1.93-4.648,2.155-7.054
		c0.418-4.479,2.711-7.332,6.528-9.262c0.727-0.366,1.445-0.75,2.504-1.302c-4.548-6.874-10.177-11.338-18.682-10.604
		c-5.703,0.49-10.53,2.803-13.517,7.973c-0.792,1.371-2.117,2.917-0.833,4.578c1.294,1.674,3.189,2.373,5.33,1.99
		c1.128-0.202,2.207-0.705,3.337-0.854c0.748-0.097,1.546,0.194,2.498,1.026c-0.947,0.444-1.867,0.963-2.846,1.321
		c-3.229,1.184-5.8,3.059-7.191,6.337c-1.488,3.507,0.55,8.935,4.016,10.022c0.948,0.298,2.336-0.029,3.245-0.553
		c1.498-0.861,2.826-1.771,4.566-0.693c-6.11,8.31-6.011,12.489,0.439,18.997c4.103-1.604,4.103-1.604,7.3-8.018
		c1.533,0.456,1.785,1.665,1.78,3c-0.02,5.252,2.661,9.066,6.614,12.562c3.533-2.391,6.562-4.975,7.146-9.535
		c0.208-1.623,0.574-3.234,1.009-4.813c0.142-0.516,0.726-0.908,1.107-1.357c0.362,0.476,1.01,0.929,1.043,1.425
		c0.432,6.412-1.964,11.658-6.869,15.727c-1.631,1.354-5.132,0.702-7.058-1.577c-2.094-2.478-3.753-5.321-5.705-8.157
		c-0.788,0.65-1.679,1.644-2.786,2.227c-1.079,0.565-2.146,1.716-3.64,0.818c-0.824-0.495-1.254-0.093-1.978,0.599
		c-5.234,4.998-11.706,7.995-18.247,10.829c-8.167,3.539-16.855,4.372-25.607,5.26c-5.793,0.587-11.477,0.024-17.172-0.32
		c-4.912-0.299-9.77-1.492-14.651-2.283c-1.574-0.255-3.151-0.483-5.878-0.9c8.755,5.196,16.559,9.585,25.385,11.489
		c8.383,1.81,16.728,4.087,25.463,3.562c3.202-0.191,5.957,0.95,8.864,2.508c7.659,4.104,15.673,7.518,24.984,9.51
		c-1.652-3.429-5.129-5.093-5.113-9.344c1.016,0.691,1.613,0.916,1.939,1.347c4.605,6.075,9.167,12.186,13.764,18.268
		c0.466,0.618,1.016,1.463,1.661,1.607c3.529,0.794,7.088,1.5,10.671,1.996c0.747,0.104,1.916-0.604,2.413-1.284
		c3.067-4.211,6.821-7.675,10.953-10.808c1.667-1.264,3.145-2.485,5.354-1.305c2.073,1.108,2.546,2.931,2.365,5.057
		c-0.066,0.771-0.249,1.533-0.389,2.362c-2.073-0.771-1.692-2.475-2.079-3.856c-0.488-1.748-1.402-2.128-2.971-1.212
		c-1.13,0.66-2.228,1.471-3.126,2.417c-2.853,3.012-5.698,6.039-8.359,9.219c-1.373,1.642-2.914,2.051-4.847,1.687
		c-3.393-0.64-6.82-1.147-10.154-2.016c-1.142-0.296-2.261-1.338-3.017-2.325c-1.91-2.495-3.559-5.189-5.402-7.737
		c-2.681-3.702-4.499-3.915-7.456-0.559c-3.243,3.681-7.188,5.743-12.455,6.067c1.503,3.338,4.082,5.051,6.929,6.231
		c2.194,0.91,4.117-0.755,6.069-1.535c0.723-0.288,1.245-1.081,1.854-1.646c1.249-1.155,2.189-0.506,2.771,0.658
		c0.811,1.621,1.354,3.375,2.133,5.017c0.547,1.152,1.293,2.212,2.425,4.108c-1.673-0.763-2.617-1.191-3.909-1.781
		c0.253,1.287,0.596,2.476,0.678,3.681c0.036,0.544-0.441,1.122-0.687,1.686c-0.653-0.384-1.659-0.623-1.883-1.18
		c-0.418-1.035-0.349-2.259-0.54-3.396c-0.215-1.275-1.161-2.659-2.239-2.062c-3.551,1.975-5.622-0.683-8.28-1.968
		c-3.812-1.843-7.11-4.232-9.855-7.421c-0.201-0.234-0.263-0.59-0.39-0.889l-0.023,0.026c0.563-0.22,1.126-0.439,1.689-0.659
		c-0.172-0.39-0.236-0.94-0.535-1.138c-0.803-0.526-1.727-0.863-2.563-1.343c-2.811-1.612-2.804-1.624-5.3,0.795
		c-0.178,0.214-0.359,0.426-0.542,0.637c-0.822,0.312-1.644,0.623-3.069,1.164c3.172,2.068,5.774,3.782,8.395,5.466
		c1.641,1.055,3.311,2.063,4.968,3.093l-0.055-0.051c0.696,1.075,1.394,2.151,2.091,3.227c-1.445-0.644-2.889-1.284-4.333-1.928
		c1.748,3.988,1.748,3.988,4.982,2.639c3.793,0.12,7.418,0.955,10.93,2.847c-0.703,0.127-1.42,0.416-2.106,0.354
		c-3.742-0.34-7.442-1.557-11.243-0.025c-0.646,0.26-2.151-0.321-2.563-0.962c-3.719-5.785-9.446-9.23-14.836-13.08
		c-0.23-0.164-0.346-0.486-0.763-1.101c2.619-2.179,5.075-4.703,7.98-6.501c3.08-1.904,4.596-4.584,5.835-8.031
		c-4.069-1.465-7.321-4.329-11.988-4.321c-18.15,0.032-34.925-4.825-50.206-14.734c-3.438-2.229-7.05-4.193-10.417-7.237
		c0.987,0,2.072-0.271,2.946,0.044c8.115,2.917,16.626,4.143,25.056,5.431c5.54,0.847,11.301,0.322,16.962,0.299
		c8.148-0.032,16.226-1.109,23.777-4.092c6.281-2.479,12.241-5.834,18.177-9.103c3.025-1.665,2.846-2.38,0.975-5.905
		c-1.717-3.234-3.336-6.535-1.618-10.377c0.64-1.432,0.062-2.479-1.384-3.235c-1.148-0.6-2.222-1.43-3.158-2.333
		c-4.387-4.226-4.634-8.884-0.796-13.637c0.413-0.512,0.876-0.982,1.374-1.537c-0.778-0.479-1.477-0.853-2.112-1.312
		c-2.898-2.09-3.798-4.775-1.893-7.706c1.599-2.459,3.532-5.157,5.998-6.514c7.935-4.357,16.166-4.748,23.836,0.739
		c3.04,2.175,5.531,5.117,8.545,7.968c0.517-0.755,1.105-1.646,1.725-2.516c4.376-6.143,9.714-10.724,17.597-11.747
		c5.179-0.672,9.048,1.381,12.007,5.216c0.834,1.082,0.677,3.127,0.537,4.69c-0.092,1.02-0.975,1.969-1.43,2.812
		c2.299,1.725,4.467,3.255,6.526,4.916c3.451,2.781,4.849,6.624,5.177,10.884c0.174,2.269-0.03,4.562,0.059,6.841
		c0.136,3.521-2.244,4.948-4.96,6.056c-0.739,0.301-1.667,0.104-2.465,0.31c-2.446,0.635-3.253,1.567-2.417,3.865
		c0.817,2.249,0.466,4.182-0.188,6.269c-1.17,3.73-3.487,6.343-7.202,7.643c-0.762,0.268-1.558,0.437-2.853,0.792
		c3.423,4.833,3.229,10.104,3.031,15.359c-0.036,0.964-0.131,2.057-0.604,2.847c-0.901,1.503-2.308,2.363-4.203,2.04
		c-1.88-0.322-2.912-1.611-3.369-3.274c-0.522-1.898-0.903-3.859-1.104-5.817c-0.273-2.641-1.963-4.468-3.772-6.391
		c0.846,3.065,1.588,6.164,2.564,9.188c1.287,3.993,0.245,7.556-1.868,10.874c-2.042,3.204-4.651,3.335-7.355,0.521
		c-0.678-0.706-1.173-1.589-1.65-2.252c-2.984,4.2-6.048,8.511-9.392,13.217c-0.041-0.332-0.106,0.057,0.053,0.291
		c3.479,5.104,3.473,5.085,8.527,1.788c1.525-0.993,3.195-1.771,4.685-2.812c1.778-1.243,3.241-2.563,3.228-5.205
		c-0.015-2.91,0.66-3.229,3.669-3.394c3.604-0.198,3.812-0.144,6.301,1.688c-1.07,2.188-3.096,1.547-4.842,1.558
		c-1.536,0.008-2.157,0.567-1.763,2.103c1.426-1.08,2.988-1.984,4.629-0.715c1.429,1.105,2.698,2.464,3.838,3.87
		c0.404,0.498,0.216,1.475,0.407,3.232c-2.328-2.242-3.938-3.791-5.786-5.571c-0.604,1.049-1.01,1.925-1.568,2.69
		c-0.961,1.32-1.886,2.979-3.641,0.64c-0.17-0.226-1.748,0.399-2.525,0.871c-2.962,1.799-5.799,3.809-8.807,5.521
		c-2.323,1.321-3.759,1.236-5.223-0.581c-2.415-3-5.321-5.606-4.951-10.313c0.364-4.653-0.372-9.413-0.847-14.104
		c-0.194-1.93-0.763-3.887-1.522-5.679c-1.477-3.479-4.7-4.917-8.127-3.312c-3.42,1.603-6.56,3.802-9.852,5.688
		c-0.502,0.288-1.167,0.291-1.756,0.427c0.048-0.718-0.179-1.65,0.188-2.118c3.37-4.308,8.017-6.488,13.315-6.826
		c5.952-0.38,10.759,4.525,11.104,10.949c0.179,3.321,0.025,6.66,0.069,9.992c0.017,1.271,0.162,2.539,0.314,4.75
		c1.535-1.715,2.718-2.646,3.39-3.86c1.83-3.311,3.335-6.801,5.174-10.106c2.089-3.755,0.922-6.933-1.431-9.942
		c-0.66-0.847-1.634-1.446-2.101-2.814c0.864,0.229,1.896,0.23,2.564,0.724c4.001,2.951,5.805,7.042,6.061,11.959
		c0.117,2.241-0.764,4.659,1.111,7.055c2.105-1.311,3.252-3.087,3.515-5.459c0.781-7.043-2.075-12.903-6.104-18.342
		c-0.464-0.625-1.338-0.944-2.018-1.41c-0.69-0.475-2.333-0.447-1.319-1.845c0.264-0.361,1.852-0.171,2.521,0.254
		c1.655,1.055,3.133,2.391,5.277,4.083c-0.34-3.721-0.625-6.962-0.94-10.2c-0.08-0.818-0.422-1.641-0.354-2.436
		c0.122-1.422,0.255-3.952,0.751-4.044c2.322-0.433,1.356,2.058,2.094,3.159c1.823,2.726,3.263,5.707,5.08,8.438
		c0.424,0.639,1.72,0.911,2.639,0.971c6.293,0.398,11.563-5.991,10.093-12.33c-0.616-2.655-1.643-5.216-2.68-8.428
		c1.243,0.461,2.218,0.514,2.615,1.021c2.271,2.9,4.832,1.469,7.136,0.394c2.641-1.231,2.5-4.019,2.728-6.443
		c0.075-0.795-0.34-1.626-0.335-2.438c0.054-7.752-4.404-13.777-13.732-15.906c1.19-1.382,2.43-2.623,3.438-4.03
		c1.63-2.272,1.532-2.521-0.408-4.654c-4.084-4.492-7.604-4.552-13.811-1.451c-2.453,1.226-4.404,3.457-6.576,5.241
		c-1.672,1.373-3.331,2.763-5.126,4.253c3.502,1.471,6.229,2.574,8.92,3.758c2.656,1.167,4.059,3.25,4.233,6.15
		c-0.858-0.689-1.854-1.264-2.555-2.088c-4.775-5.632-12.181-6.61-18.226-2.456c-1.587,1.092-2.616,2.323-3.093,4.246
		c-0.75,3.021-1.545,6.079-2.793,8.913c-1.491,3.388,0.034,5.711,1.782,8.129c-0.702-5.053-0.063-5.885,4.858-5.882
		c1.486,0,3.051-0.056,4.438,0.376c1.362,0.423,3.607,0.727,2.207,3.284c-0.07,0.129,0.847,0.85,1.375,1.186
		c0.063,0.041,0.677-0.55,0.837-0.932c0.427-1.019,0.443-2.662,1.155-3.03c4.462-2.311,8.099-6.493,14.924-5.908
		c-1.851-1.743-2.943-2.646-3.866-3.696C142.514,83.378,142.352,82.574,142.052,81.895 M89.014,161.86
		c2.167-0.516,2.167-0.516,0.983-1.866c-0.561-0.78-1.2-1.519-1.662-2.354c-0.526-0.953-0.896-1.993-1.335-2.996
		c1.678-0.355,1.736-0.423,1.172-0.915c-0.76-0.662-1.623-1.208-2.884-2.125c0.397,1.357,0.574,1.961,0.751,2.565l-1.734,0.416
		c-0.207,0.188-0.389,0.396-0.544,0.63c-0.266,0.86-0.53,1.722-0.796,2.583c-0.582,0.2-1.162,0.401-2.369,0.818
		c2.361,1.499,4.06,2.944,6.425,3.191C87.654,163.089,88.325,162.809,89.014,161.86 M94.888,158.957l0.213-0.228
		c1.584,0.184,2.487-0.492,2.728-2.296c-2.292-0.78-4.532-1.811-6.879-2.215c-1.005-0.174-0.988,0.951,0.025,1.48
		c0.746,1.078,1.492,2.156,2.238,3.234l1.26,1.387C94.612,159.867,94.75,159.412,94.888,158.957 M139.346,115.274
		c-0.426,3.094,0.025,5.168,1.938,7.32c2.5,2.815,4.548,6.178,3.91,10.372c-0.098,0.644-0.125,1.42,0.148,1.967
		c0.336,0.669,1.022,1.162,1.558,1.73c0.626-0.656,1.605-1.226,1.798-1.989c0.316-1.26,0.315-2.677,0.108-3.974
		c-0.892-5.582-1.644-11.281-7.9-13.848C140.354,116.628,139.989,115.944,139.346,115.274 M132.271,99.717
		c1.337-0.227,2.393-0.404,4.269-0.721c-1.506-0.91-2.176-1.315-2.912-1.762C133.235,97.953,132.865,98.632,132.271,99.717
		 M128.463,101.427c0.16-0.273,0.321-0.547,0.481-0.82c-0.626-0.702-1.207-1.454-1.909-2.069c-0.185-0.162-0.882-0.026-1.09,0.202
		c-0.23,0.253-0.349,1.032-0.205,1.132C126.598,100.462,127.545,100.923,128.463,101.427 M141.05,92.572
		c-0.341-0.479-0.642-1.081-0.767-1.047c-0.596,0.165-1.144,0.503-1.709,0.779c0.514,0.317,1,0.712,1.556,0.91
		C140.316,93.28,140.68,92.844,141.05,92.572 M136.715,95.388c-0.17-0.606-0.252-0.902-0.335-1.197
		c-0.553,0.213-1.113,0.412-1.645,0.67c-0.043,0.021,0.117,0.669,0.184,0.669C135.498,95.53,136.077,95.449,136.715,95.388
		 M121.092,98.389c0.245-0.164,0.49-0.327,0.734-0.491c-0.452-0.818-0.904-1.639-1.355-2.458l-0.491,0.224
		C120.35,96.571,120.721,97.479,121.092,98.389 M124.708,96.061c-0.107-0.275-0.144-0.675-0.344-0.793
		c-0.191-0.111-0.554,0.07-0.841,0.123c0.131,0.367,0.263,0.734,0.394,1.103C124.182,96.35,124.445,96.205,124.708,96.061
		 M143.464,91.467c0.101-0.394,0.286-0.709,0.208-0.934c-0.071-0.207-0.418-0.408-0.66-0.433c-0.151-0.015-0.337,0.302-0.506,0.47
		C142.81,90.856,143.115,91.141,143.464,91.467 M140.488,95.414c-0.288-0.078-0.653-0.303-0.844-0.199
		c-0.228,0.122-0.305,0.521-0.446,0.803c0.251,0.071,0.591,0.277,0.734,0.184C140.181,96.036,140.309,95.688,140.488,95.414
		 M97.625,173.236c0.039,0.09,0.06,0.233,0.121,0.256c0.142,0.05,0.303,0.038,0.456,0.052c-0.045-0.14-0.056-0.355-0.146-0.396
		C97.949,173.099,97.772,173.2,97.625,173.236"/>
	<path fill="#FFFFFF" stroke="#FFFFFF" stroke-miterlimit="10" d="M148.583,155.5c0.408,1.098-0.251,2.646-0.25,3.834
		c0.001,1.166-0.745,2.138-0.667,3.249"/>
</g>
</svg>
