<?xml version="1.0" encoding="utf-8"?>
<!-- Generator: Adobe Illustrator 16.0.0, SVG Export Plug-In . SVG Version: 6.00 Build 0)  -->
<!DOCTYPE svg PUBLIC "-//W3C//DTD SVG 1.1//EN" "http://www.w3.org/Graphics/SVG/1.1/DTD/svg11.dtd">
<svg version="1.1" id="Layer_1" xmlns="http://www.w3.org/2000/svg" xmlns:xlink="http://www.w3.org/1999/xlink" x="0px" y="0px"
	 width="576px" height="576px" viewBox="0 0 576 576" enable-background="new 0 0 576 576" xml:space="preserve">
<circle stroke="#010101" stroke-miterlimit="10" cx="287.989" cy="287.953" r="252.001"/>
<g>
	<g>
		<path fill-rule="evenodd" clip-rule="evenodd" fill="#FFFFFF" d="M368.022,315.109c-0.086-0.219-0.17-0.438-0.25-0.656
			C367.853,314.672,367.937,314.891,368.022,315.109c0.023,0.072,0.049,0.141,0.078,0.207c0.088,0.23,0.185,0.465,0.289,0.693
			c0.088,0.225,0.174,0.447,0.268,0.678c-0.51,0.332-1.314,0.848-2.424,1.535c1.109-0.688,1.914-1.203,2.424-1.535
			c-0.094-0.23-0.18-0.453-0.268-0.678l2.65-0.635c-0.117,0.182-0.242,0.363-0.38,0.535c-0.797,1.094-1.789,2.162-2.987,3.219
			c-6.102,5.334-17.458,10.178-34.07,14.521c-0.025,0.01-0.049,0.016-0.078,0.021c-6.56,2.156-11.119,3.422-13.677,3.812
			c-1.281,0.188-2.052,0.156-2.325-0.094l0.922-0.906c-0.219-0.512-0.448-1.016-0.693-1.521c-0.127-0.256-0.252-0.516-0.388-0.766
			c-0.409-0.85-0.841-1.697-1.308-2.541c0.651-0.053,1.315-0.131,2.003-0.25c-0.688,0.119-1.352,0.197-2.003,0.25
			c-4.104,0.484-7.731-0.141-10.888-1.887c-4.797-2.566-8.039-6.672-9.734-12.316c0.234-0.553,0.448-1.188,0.636-1.906
			c-0.188,0.719-0.401,1.354-0.636,1.906c-0.356,0.895-0.797,1.566-1.31,2c-3.331,2.926-6.013-0.156-8.04-9.23l1.558-0.156
			l-1.558,0.156c0.253,5.359-0.435,8.902-2.077,10.621c-0.103,0.129-0.229,0.238-0.385,0.344c-4.104,3.254-7.234-0.012-9.39-9.812
			l2.175-0.215c-0.034-0.182-0.064-0.363-0.093-0.557c0.029,0.193,0.059,0.375,0.093,0.557l-2.175,0.215l-6.618,0.729
			c-1.948-6.156-3.102-14.359-3.464-24.625c-0.028-0.959,0.449-1.948,1.426-2.959c2.599-2.666,8.745-5.486,18.431-8.469
			c2.535-0.794,5.296-1.575,8.27-2.349c-0.128-0.386-0.229-0.75-0.308-1.094c-0.814-3.562,1.061-4.894,5.617-3.984
			c0-0.151,0-0.302,0-0.458c0-2.953,1.055-5.477,3.154-7.584c2.106-2.099,4.633-3.156,7.583-3.156c2.925,0,5.438,1.058,7.542,3.156
			c0.489,0.49,0.932,1.016,1.349,1.578c0.206-0.252,0.445-0.489,0.727-0.692c2.106-2.102,4.617-3.151,7.542-3.151
			c2.95,0,5.477,1.05,7.583,3.151c1,1,1.766,2.13,2.305,3.391c0.102,0.219,0.195,0.458,0.273,0.708
			c-0.078-0.25-0.172-0.489-0.273-0.708c0.57,0.175,1.156,0.401,1.773,0.667c-0.617-0.266-1.203-0.492-1.773-0.667
			c19.086-0.695,42.586-0.042,70.493,1.958c10.106,3.693,18.519,9.875,25.239,18.547L410.75,374.48h-3.386l19.778-88.267
			c-5.885-7.594-13.064-13.276-21.547-17.047L393.244,374.48h10.506v1.041H143.987H403.75v-1.041h3.614h3.386h13.158v1.041h8.081
			h-8.081v-1.041h8.081v1.041v6.85H143.987v-6.85v-1.041h23.665v-6.699v-77.375c0.273-2.938,2.416-4.847,6.427-5.735h23.737v-4.081
			c-1.974-0.664-3.156-1.883-3.537-3.653c-0.978-4.614-2.569-8.276-4.772-10.966h-5.733c-0.232-2.539,1.307-4.078,4.613-4.617
			c2.516-0.308,4.124,0.294,4.811,1.807c1.461,2.312,2.659,4.62,3.582,6.928c6.051-4.131,13.143-3.281,21.277,2.541
			c3.716,2.667,7.268,4.808,10.658,6.422c0.508,0.261,1.036,0.506,1.574,0.734c1.055,0.49,2.105,0.906,3.155,1.271
			c1.67,0.614,3.297,1.072,4.889,1.38h0.039c0.025,0,0.078,0.016,0.151,0.042h0.039c0.362,0.052,0.719,0.099,1.075,0.156
			c-7.616,1.229-14.146,0.369-19.578-2.581v4.617h13.541h19.237h3.234h1.27v0.81v7.388c5.412,17.725,5.412,40.197,0,67.412v7.5v5.24
			v1.459h25.166c-0.952-3.312,1.818-5.568,8.309-6.771h19.778c-0.174-0.131,0.686-1.453,2.581-3.969
			c-1.567,0.322-3.133-0.068-4.7-1.172c-1.117,1.416-2.016,2.922-2.69,4.525c-1.427-1.406-2.214-3.062-2.347-4.969
			c-4.195,0.928-7.875,2.365-11.044,4.312c0.836-2.229,2.219-4.463,4.159-6.697l6.192-2.25l-0.886-0.172
			c7.467-3.693,12.823-9.016,16.081-15.963c-4.591-2.312-4.781-4.699-0.578-7.158c0.136,0.25,0.261,0.51,0.388,0.766
			c-1.854,0.953-2.51,1.76-1.963,2.428c3.552,6.387,19.182,3.641,46.9-8.234c11.273-6.434,15.479-11.652,12.625-15.646
			c-0.189-0.234-0.396-0.463-0.614-0.693c0.219,0.23,0.425,0.459,0.614,0.693C374.36,312.844,371.931,313.375,368.022,315.109z
			 M374.699,312.816c1.865,0.328,2.74,1.803,2.615,4.406c0,1.281-0.689,2.787-2.079,4.543c-0.083,0.113-0.174,0.234-0.268,0.344
			c-0.308,0.385-0.654,0.754-1.039,1.119c0.385-0.365,0.731-0.734,1.039-1.119c0.094-0.109,0.185-0.23,0.268-0.344
			c6.985,12.676,12.423,27.578,16.316,44.693c4.841-29.338,8.778-61.85,11.812-97.522c0.737,0.078,1.484,0.151,2.231,0.229
			l0.269-2.35l-0.269,2.35c-0.747-0.078-1.494-0.151-2.231-0.229c-26.636-2.644-48.715-3.781-66.22-3.411
			c4.38,1.984,9.808,6.463,16.273,13.447c5.003,11.781,9.786,23.605,14.354,35.48C370.801,313.082,373.11,312.541,374.699,312.816z
			 M334.488,265.604c0.383-0.008,0.771-0.023,1.156-0.037C335.259,265.581,334.871,265.596,334.488,265.604
			c-0.086-0.318-0.188-0.604-0.31-0.865c-0.514-1.127-1.217-2.127-2.115-3c-1.872-1.875-4.127-2.807-6.771-2.807
			c-2.617,0-4.875,0.932-6.773,2.807c-0.231,0.178-0.438,0.386-0.617,0.62c-0.229,0.253-0.435,0.521-0.617,0.802
			c-0.945,1.391-1.442,2.912-1.497,4.578c-0.023,0.133-0.062,0.323-0.112,0.584c-0.052,0.229-0.106,0.547-0.156,0.958
			c-0.206,0.817-0.167,1.336,0.117,1.542c0.229,0.255,1.278,0.547,3.156,0.885c1.919,0.308,4.536,0.703,7.844,1.19
			c0.898,0.128,1.734,0.222,2.5,0.269c3.875-0.719,5.812-1.964,5.812-3.729c0-1.391-0.125-2.567-0.383-3.544
			C334.54,265.796,334.517,265.698,334.488,265.604z M189.218,261.604c-2.867,0.141-4.449,1.354-4.752,3.635h5.617
			c1.827,2.857,3.151,5.818,3.981,8.891c0.83,3.073,2.081,4.62,3.751,4.656h0.85v5.656h2.193v-5.391h0.806
			c2.242,2.484,6.512,2.352,12.812-0.385c-0.151-0.381-0.293-0.808-0.425-1.271l1.387-0.15c-0.176,1.255,0.332,2.666,1.539,4.231
			l-0.767,2.966h2.92v-5.656c4.85,2.745,10.966,3.975,18.357,3.693c-5.001-1.438-8.598-2.709-10.776-3.812l-11.039-6.693
			c-7.731-4.922-14.155-5.127-19.28-0.614C194.475,264.718,192.085,261.463,189.218,261.604z M390.591,374.48l0.961-8.021
			c0.602,2.619,1.167,5.297,1.692,8.021H390.591h2.653c-0.525-2.725-1.091-5.402-1.692-8.021L390.591,374.48z M366.272,362.344
			c-0.232,0.146-0.461,0.303-0.695,0.459c-0.32,0.213-0.656,0.422-1,0.635c0.023-0.088,0.041-0.166,0.057-0.25
			c0.311-1.785-0.057-3.438-1.096-4.947c-0.053-0.1-0.115-0.178-0.193-0.225c-0.244-0.354-0.489-0.691-0.734-1.004
			c0.245,0.312,0.49,0.65,0.734,1.004c0.078,0.047,0.141,0.125,0.193,0.225c1.039,1.51,1.406,3.162,1.096,4.947
			c-0.016,0.084-0.033,0.162-0.057,0.25c0.344-0.213,0.68-0.422,1-0.635C365.812,362.646,366.04,362.49,366.272,362.344z
			 M355.457,352.012c-0.011,0.01-0.026,0.02-0.042,0.035c-0.224,0.219-0.453,0.434-0.688,0.637
			c-0.414,0.088-0.825,0.238-1.234,0.441c0.409-0.203,0.82-0.354,1.234-0.441c0.234-0.203,0.464-0.418,0.688-0.637
			C355.431,352.031,355.446,352.021,355.457,352.012c-0.12,0.197-0.25,0.4-0.383,0.594c-0.117,0.025-0.234,0.051-0.347,0.078
			c0.112-0.027,0.229-0.053,0.347-0.078C355.207,352.412,355.337,352.209,355.457,352.012z M319.694,336.949
			c-0.312,0.057-0.625,0.125-0.94,0.188c0.008,0.02,0.023,0.035,0.039,0.057c0.302-0.078,0.604-0.15,0.901-0.229
			c0.166-0.047,0.333-0.094,0.5-0.137c4.768-1.016,9.211-2.068,13.33-3.156c-4.119,1.088-8.562,2.141-13.33,3.156
			c19.289-5.037,34.633-11.234,46.039-18.605l1.439,0.906l-1.439-0.906c-3.662-12.875-8.188-25.75-13.586-38.632
			c-4.167-5.45-9.779-9.924-16.831-13.43c0.266,1.086,0.403,2.409,0.403,3.969c0,1.998-2.153,3.398-6.466,4.19
			c-0.847-0.05-1.769-0.151-2.771-0.308c-3.717-0.539-6.628-0.986-8.734-1.344c-2.1-0.361-3.281-0.685-3.537-0.961
			c-0.336-0.26-0.385-0.838-0.156-1.734c0.078-0.455,0.144-0.828,0.193-1.114c-0.05,0.286-0.115,0.659-0.193,1.114
			c-0.229,0.896-0.18,1.475,0.156,1.734c0.256,0.276,1.438,0.6,3.537,0.961c2.106,0.357,5.018,0.805,8.734,1.344
			c1.002,0.156,1.924,0.258,2.771,0.308l1.812,0.078c0.63,0.023,1.239,0.028,1.825,0.019c3.078-0.102,5.519-0.787,7.328-2.055
			c-2.307,1.791-4.989,2.739-8.041,2.846c-0.589,0-1.206-0.016-1.847-0.039l-1.808-0.078c-0.844-0.055-1.771-0.156-2.771-0.307
			c-3.719-0.537-6.612-1.045-8.677-1.519c-2.058-0.484-3.201-1.003-3.425-1.558c-0.224-0.557-0.25-1.099-0.075-1.638
			c0.177-0.542,0.4-0.942,0.672-1.211c0.052-0.284,0.091-0.489,0.117-0.614c-1.219,0.336-2.094,0.805-2.62,1.4
			c-0.323,0.312-0.528,0.683-0.614,1.12c0.086-0.438,0.291-0.808,0.614-1.12c0.526-0.596,1.401-1.064,2.62-1.4
			c-0.026,0.125-0.065,0.33-0.117,0.614c-1.237,0.083-2.279,0.714-3.117,1.906c-0.234,1.172,0.419,2.776,1.963,4.823
			c-2.961-1.964-3.641-3.87-2.036-5.729c-4.383,1.245-8.81,1.625-13.278,1.136c-0.972-0.109-1.948-0.256-2.925-0.445h2.231
			c0.245-0.011,0.49-0.023,0.732-0.039c-0.242,0.016-0.487,0.028-0.732,0.039c0.045-0.045,0.053-0.519,0.021-1.422
			c-0.008-0.156-0.011-0.323-0.021-0.503c0.011,0.18,0.014,0.347,0.021,0.503l-0.021-0.269c-4.158-0.297-5.26,1.589-3.307,5.656
			c-15.915,3.5-25.601,7.38-29.05,11.636c0-0.037,0-0.089,0-0.131c-0.014-0.494,0.103-0.992,0.346-1.5
			c-0.243,0.508-0.36,1.006-0.346,1.5c0,0.042,0,0.094,0,0.131c0.366,10.197,1.651,17.849,3.845,22.953l46.175-2l-5.119,0.65
			l-0.617,0.059l-10.443,1.082c2.631,7.912,5.237,10.793,7.831,8.637c1.87-2.131,2.739-5.371,2.612-9.719l0.617-0.059
			c0.156,5.059-0.948,8.84-3.308,11.355c-3.31,2.535-6.604-0.797-9.891-10.006c-0.144,2.604-0.43,4.756-0.864,6.443
			c5.617,11.869,14.486,16.76,26.606,14.688c-1.622,0.535-3.161,0.926-4.617,1.172L319.694,336.949z M353.191,374.48h37.399
			c-3.052-19.547-8.606-36.631-16.662-51.252c-1.209,1.209-2.709,2.553-4.5,4.037c-5.311,4.207-14.178,8.066-26.589,11.584
			c-10.867,3.041-18.586,4.053-23.164,3.041c-0.641-0.141-1.216-0.316-1.734-0.535c0.519,0.219,1.094,0.395,1.734,0.535
			c2.328,5.137,3.044,9.371,2.133,12.699c-0.273,1.02-0.703,1.953-1.289,2.807c0.586-0.854,1.016-1.787,1.289-2.807
			c6.445-5.684,14.597-5.668,24.453,0.035c-10.456-3.766-19.039-2.838-25.742,2.771c-1.766,1.947-3.242,3.744-4.425,5.385
			c-1.914,2.475-3.104,4.115-3.575,4.928h-1.925h1.925h3.269c5.797,0.15,10.95,0.369,15.469,0.656
			c-0.029,0.281-0.039,0.572-0.039,0.865c0-0.293,0.01-0.584,0.039-0.865c0.205-3.391,1.833-6.469,4.885-9.24
			c7.156-0.15,12.94-2.15,17.352-6c4.055-3.744,8.503-10.234,13.357-19.475c4.82-9.256,8.68-7.74,11.581,4.549
			c2.539,10.754-0.908,19.141-10.353,25.16c-1.32,0.844-2.758,1.641-4.307,2.387c0.385-0.793,0.65-1.562,0.805-2.309
			c-0.154,0.746-0.42,1.516-0.805,2.309c-3.365,0.104-5.737-1.293-7.123-4.199c0.511-0.057,1.023-0.104,1.542-0.129
			c0.333-0.016,0.664-0.021,0.997-0.021c2.516-1.1,3.898-2.229,4.156-3.381c-0.258,1.152-1.641,2.281-4.156,3.381
			c-0.333,0-0.664,0.006-0.997,0.021c-0.519,0.025-1.031,0.072-1.542,0.129c-2.408,0.287-4.641,0.887-6.692,1.812
			c0-0.488-0.055-0.963-0.156-1.422c0.102,0.459,0.156,0.934,0.156,1.422c-0.055,0.953-0.323,1.975-0.812,3.078
			c-0.922,1.281-1.972,2.334-3.156,3.156c-0.644,0.475-1.317,0.891-2.016,1.25c-1.789,0.902-3.747,1.406-5.867,1.521
			c0.922-0.797,1.672-1.594,2.253-2.391l-6.18-0.537c-0.464-0.031-0.933-0.062-1.401-0.094c-0.308,0.402-0.581,0.824-0.831,1.266
			c-0.2,0.365-0.377,0.746-0.536,1.141c-0.109-0.619-0.172-1.229-0.192-1.832c-0.011-0.23-0.011-0.459,0-0.688
			c-14.586-0.953-28.037-1.193-40.362-0.715c-4.346,0.605-6.423,2.594-6.233,5.965h-2.115h2.115h65.525
			c0-2.162-2.058-3.381-6.175-3.637c0.698-0.359,1.372-0.775,2.016-1.25c0.901,0.105,1.75,0.24,2.542,0.422
			C351.582,371.277,353.137,372.762,353.191,374.48z M313.176,363.74c0.362-0.469,0.755-0.979,1.19-1.537
			c0.273-0.379,0.562-0.77,0.867-1.172c1.016-1.312,2.2-2.713,3.56-4.213c2.378-3.459,2.222-8.334-0.466-14.619
			c-0.128-0.277-0.253-0.559-0.386-0.844c0.133,0.285,0.258,0.566,0.386,0.844c-1.547,4.457-5.523,8.984-11.928,13.582
			c2.906-0.463,5.852,1.287,8.834,5.25c-0.305,0.402-0.594,0.793-0.867,1.172C313.931,362.762,313.538,363.271,313.176,363.74z
			 M317.522,337.391c0.411-0.088,0.82-0.172,1.231-0.254C318.343,337.219,317.934,337.303,317.522,337.391z M256.073,364.438v-0.807
			V364.438z M362.61,357.012c-2.555-3.35-5.07-4.818-7.536-4.406c-4.883,4.541-11.091,6.979-18.625,7.328
			c-2.817,2.285-4.317,5.344-4.503,9.176c0,0.059,0,0.115,0,0.178c0.279,0.016,0.558,0.037,0.831,0.057
			c0.224-0.285,0.458-0.562,0.708-0.828c-0.25,0.266-0.484,0.543-0.708,0.828c-0.273-0.02-0.552-0.041-0.831-0.057
			c0-0.062,0-0.119,0-0.178c3.727-3.973,7.034-6.047,9.933-6.213c1.513,1.854,1.297,4.234-0.656,7.156
			c-0.258,0.4-0.558,0.812-0.883,1.234c2.177-0.734,4.347-2.312,6.5-4.734c1.594-1.756,2.359-3.844,2.305-6.271
			c0.305,0.527,0.519,1.078,0.656,1.656c2.026-0.859,4.898-1.494,8.62-1.926C360.048,359.699,361.446,358.699,362.61,357.012z
			 M337.145,265.526c-0.508,0.016-1.008,0.031-1.5,0.041c0.062,0.193,0.122,0.391,0.172,0.594c-0.05-0.203-0.109-0.4-0.172-0.594
			C336.137,265.557,336.637,265.542,337.145,265.526z M368.657,316.688l2.003-0.777L368.657,316.688z M367.194,334.254
			c-3.734,7.949-7.607,13.824-11.602,17.621c-0.042,0.047-0.089,0.09-0.136,0.137c6.372-0.506,9.979,2.941,10.815,10.332
			c9.244-6.363,12.745-14.613,10.503-24.766C374.397,326.828,371.207,325.719,367.194,334.254z M423.908,375.521H403.75H423.908z
			 M197.816,284.671v0.308h3.849v-0.308v0.308h-3.849V284.671z M215.283,284.671v0.308h4.777v-0.308v0.308h-4.777V284.671v-0.229
			l0.582-3.385c-0.309-0.389-0.582-0.781-0.807-1.193c-5.598,2.359-10.057,2.604-13.393,0.727v4.081H215.283z M232.156,284.921
			c-0.768,0.114-1.461,0.302-2.077,0.56h0.616C231.139,285.245,231.627,285.057,232.156,284.921
			c-0.529,0.136-1.017,0.323-1.461,0.56h-0.616C230.695,285.223,231.388,285.036,232.156,284.921c0.449-0.12,0.932-0.203,1.445-0.25
			C233.088,284.718,232.605,284.801,232.156,284.921z M233.718,285.481c-3.952,0.357-6.096,2.269-6.428,5.732l-0.078,72.418v0.807
			v3.344h-1.344h1.344v0.887h-1.344h1.344v4.354h-1.344h1.344h25.626v1.459h-25.626h25.626v-1.459h3.234h1.27h-1.27v-5.24h1.27
			h-1.27v-3.344h-28.861v-0.807h28.861v-78.15h-3.234v-0.81v0.81H233.718z M168.729,373.021v1.459h-1.077h1.077V373.021z
			 M168.729,363.631v0.807v3.344v5.24h-0.192h0.192h57.101v1.459h0.039v-1.459v-4.354v-0.887h-0.039v-3.344h-57.101V363.631z
			 M230.695,285.481h3.023H230.695z M232.175,305.066h4.346v0.881h-4.346V305.066z M232.175,302.176h4.346v0.887h-4.346V302.176z
			 M232.175,299.26h4.346v0.881h-4.346V299.26z M239.298,297.213v-0.881h9.466v0.881H239.298z M239.298,305.947v-0.881h9.466v0.881
			H239.298z M239.298,303.062v-0.887h9.466v0.887H239.298z M239.298,300.141v-0.881h9.466v0.881H239.298z M236.521,297.213h-4.346
			v-0.881h4.346V297.213z M230.079,285.481h-54.923c-3.949,0.357-6.095,2.269-6.427,5.732v72.418h57.101l0.074-72.418
			C226.177,288.437,227.563,286.531,230.079,285.481z M168.729,367.781h-1.077H168.729z M256.268,360.359
			c0.386-1.947,0.742-3.869,1.074-5.77v5.691v-5.691C257.01,356.49,256.654,358.412,256.268,360.359z M257.342,296.812v57.777
			C261.319,331.844,261.319,312.588,257.342,296.812z M225.868,374.48h1.344v-1.459v1.459H225.868z M225.829,364.438v-0.807V364.438
			z M168.729,374.48h57.101H168.729z M316.54,263.065c0.206-0.308,0.43-0.607,0.675-0.904
			C316.97,262.458,316.746,262.757,316.54,263.065c-0.731-0.933-1.314-1.623-1.752-2.055c-1.896-1.901-4.167-2.85-6.812-2.85
			c-2.641,0-4.914,0.948-6.808,2.85c-1.901,1.869-2.849,4.141-2.849,6.807c0,0.128,0,0.271,0,0.428c0.039,0.875,0.039,1.63,0,2.266
			c-0.008,0.166-0.023,0.322-0.039,0.484c0.016-0.162,0.031-0.318,0.039-0.484c5.197-0.312,10.713-1.065,16.547-2.266
			C314.952,266.359,315.509,264.629,316.54,263.065z M323.715,267.706c0.255,0.305,0.383,0.641,0.383,0.997
			c0,0.464-0.128,0.812-0.383,1.042c-0.308,0.307-0.644,0.463-1,0.463c-0.466,0-0.808-0.156-1.042-0.463
			c-0.307-0.229-0.458-0.578-0.458-1.042c0-0.356,0.151-0.692,0.458-0.997c0.234-0.234,0.576-0.347,1.042-0.347
			C323.071,267.359,323.407,267.471,323.715,267.706z M349.321,280.114c0.058,0.047,0.117,0.092,0.172,0.131
			c0.615,0.567,0.667,1.516,0.156,2.849c-0.591,1.31-1.438,1.773-2.541,1.388c-1.05-0.408-2.232-0.914-3.542-1.5
			c-1.308-0.513-2.336-0.953-3.078-1.31c-0.794-0.435-0.898-1.31-0.305-2.62c0.511-1.307,1.396-2.064,2.656-2.271
			c1.188-0.208,2.339,0.078,3.461,0.87c-0.961-0.631-1.945-0.854-2.964-0.672c-1.104,0.177-1.885,0.844-2.349,1.994
			c-0.508,1.183-0.422,1.964,0.273,2.352c0.664,0.308,1.578,0.695,2.729,1.154c1.177,0.536,2.231,0.984,3.156,1.349
			c1.002,0.331,1.758-0.078,2.271-1.234C349.858,281.463,349.829,280.629,349.321,280.114z M311.559,269.859
			c0.229-0.073,0.458-0.141,0.688-0.214C312.017,269.718,311.788,269.786,311.559,269.859z M349.262,289.057
			c0.617-0.615,1.375-0.921,2.273-0.921s1.656,0.307,2.271,0.921c0.641,0.641,0.956,1.412,0.956,2.312
			c0,0.896-0.315,1.65-0.956,2.266c-0.614,0.646-1.221,0.891-1.812,0.734c-0.614-0.15-1.271-0.531-1.958-1.115
			c-0.695-0.594-1.144-1.27-1.349-2.041C348.426,290.422,348.621,289.697,349.262,289.057z M346.415,290.176
			c0,0.59-0.294,1.068-0.885,1.422c-0.511,0.412-1.144,0.615-1.886,0.615c-0.797,0-1.474-0.203-2.036-0.615
			c-0.542-0.354-0.811-0.832-0.811-1.422c0-0.588,0.269-1.094,0.811-1.504c0.562-0.354,1.239-0.536,2.036-0.536
			c0.742,0,1.375,0.182,1.886,0.536C346.121,289.082,346.415,289.588,346.415,290.176z M354.265,290.984
			c0-0.746-0.256-1.375-0.771-1.887c-0.508-0.489-1.122-0.734-1.846-0.734c-0.719,0-1.334,0.245-1.847,0.734
			c-0.513,0.512-0.664,1.105-0.461,1.766c0.183,0.621,0.555,1.168,1.114,1.656c0.537,0.465,1.065,0.762,1.578,0.887
			c0.464,0.129,0.953-0.062,1.461-0.578C354.009,292.316,354.265,291.703,354.265,290.984z M345.34,288.792
			c-0.409-0.287-0.914-0.428-1.505-0.428c-0.639,0-1.19,0.141-1.651,0.428c-0.409,0.333-0.614,0.74-0.614,1.228
			c0,0.465,0.205,0.84,0.614,1.115c0.461,0.338,1.013,0.506,1.651,0.506c0.591,0,1.096-0.168,1.505-0.506
			c0.461-0.275,0.688-0.65,0.688-1.115C346.027,289.531,345.801,289.125,345.34,288.792z M339.757,253.081
			c-4.253-6.487-10.771-8.104-19.542-4.847C330.14,241,336.655,242.618,339.757,253.081z M302.437,265.585
			c0.31,0.284,0.461,0.617,0.461,1.003c0,0.432-0.151,0.781-0.461,1.039c-0.305,0.231-0.654,0.346-1.039,0.346
			c-0.386,0-0.719-0.114-1-0.346c-0.256-0.258-0.383-0.607-0.383-1.039c0-0.386,0.127-0.719,0.383-1.003
			c0.281-0.331,0.614-0.497,1-0.497C301.782,265.088,302.132,265.254,302.437,265.585z M256.073,284.671v0.81h1.27h-1.27V284.671z
			 M290.968,287.401c0.466,0.489,0.695,1.041,0.695,1.656c0,0.641-0.229,1.193-0.695,1.656c-0.482,0.49-1.034,0.734-1.648,0.734
			c-0.646,0-1.193-0.244-1.657-0.734c-0.489-0.463-0.729-1.016-0.729-1.656c0-0.615,0.24-1.167,0.729-1.656
			c0.464-0.459,1.011-0.688,1.657-0.688C289.934,286.713,290.485,286.942,290.968,287.401z M270.423,290.328
			c0,0.488,0.181,0.916,0.538,1.27c0.362,0.359,0.781,0.537,1.27,0.537c0.463,0,0.875-0.178,1.232-0.537
			c0.337-0.354,0.502-0.781,0.502-1.27c0-0.459-0.166-0.871-0.502-1.23c-0.357-0.333-0.769-0.5-1.232-0.5
			c-0.488,0-0.908,0.167-1.27,0.5C270.604,289.457,270.423,289.869,270.423,290.328z M270.698,288.671
			c0.458-0.458,1.011-0.688,1.65-0.688c0.616,0,1.168,0.229,1.656,0.688c0.459,0.489,0.689,1.042,0.689,1.657
			c0,0.641-0.229,1.191-0.689,1.656c-0.488,0.488-1.041,0.734-1.656,0.734c-0.639,0-1.191-0.246-1.65-0.734
			c-0.489-0.465-0.734-1.016-0.734-1.656C269.963,289.713,270.208,289.16,270.698,288.671z M256.268,292.947
			c0.386,1.266,0.742,2.553,1.074,3.865v-3.943v3.943C257.01,295.5,256.654,294.213,256.268,292.947z M267.615,293.141
			c-1.896-4.012-1.06-6.547,2.501-7.625C267.581,287.598,266.741,290.141,267.615,293.141z M295.78,292.441
			c0.57-4.337-0.391-7.286-2.889-8.843C296.923,284.354,297.884,287.307,295.78,292.441z M290.895,289.098
			c0-0.462-0.167-0.875-0.503-1.234c-0.356-0.328-0.766-0.494-1.229-0.494c-0.49,0-0.912,0.166-1.271,0.494
			c-0.357,0.359-0.539,0.771-0.539,1.234c0,0.49,0.182,0.912,0.539,1.271c0.359,0.354,0.781,0.537,1.271,0.537
			c0.463,0,0.872-0.184,1.229-0.537C290.728,290.01,290.895,289.588,290.895,289.098z M296.454,309.166l0.479-0.062l2.138-0.209
			l-2.138,0.209L296.454,309.166l-8.812,0.9c1.656,7.719,3.843,10.35,6.56,7.887c0.411-0.359,0.758-0.912,1.039-1.652
			c0.182-0.488,0.359-1.031,0.539-1.619C296.113,313.244,296.337,311.406,296.454,309.166z M294.626,364.438
			c2.537-1.453,5.654-2.629,9.35-3.541c0.216,1.463,0.885,2.838,2,4.119c0.82-2.109,2.047-3.891,3.677-5.354l0.328-1.5
			c-1.417-0.834-2.906-1.281-4.466-1.344l-8.078,3.5C295.913,361.787,294.976,363.162,294.626,364.438z M285.314,309.453
			c0.008,0.281,0.018,0.562,0.018,0.844l0.752-0.074l-0.752,0.074C285.332,310.016,285.322,309.734,285.314,309.453z
			 M276.408,311.16h0.02H276.408z M276.427,311.16c0.561,3.115,1.255,5.469,2.075,7.062c1.358,2.719,3.004,3.156,4.925,1.309
			c0.131-0.078,0.234-0.178,0.312-0.309c1.152-1.463,1.684-4.438,1.592-8.926L276.427,311.16z M257.342,374.48h-1.27h-3.234h3.234
			H257.342z M256.073,373.021v1.459V373.021z M318.444,336.484c0.039,0.078,0.078,0.16,0.114,0.25
			c0.042,0.137,0.106,0.266,0.195,0.402c-0.089-0.137-0.153-0.266-0.195-0.402C318.522,336.645,318.483,336.562,318.444,336.484z
			 M319.694,336.965l0.153,0.52L319.694,336.965z M302.746,357.49l1.847-0.672c-0.898,0.053-1.808,0.219-2.732,0.5
			c0.925-0.281,1.834-0.447,2.732-0.5L302.746,357.49z M304.593,356.818c0.312-0.016,0.619-0.016,0.922,0
			C305.212,356.803,304.905,356.803,304.593,356.818z M309.652,359.662l-0.325,1.5c1.775,0.938,3.458,1.281,5.039,1.041
			c-1.362-1.791-2.823-3.141-4.386-4.041c1.562,0.9,3.023,2.25,4.386,4.041c-1.581,0.24-3.264-0.104-5.039-1.041L309.652,359.662z
			 M309.327,361.162l-0.852,1.406L309.327,361.162z M314.438,252.159c-5.383-3.128-10.502-2.232-15.352,2.695
			C304.452,247.463,309.569,246.565,314.438,252.159z M333.485,368.516c2.722,0.152,5.206,0.334,7.469,0.537
			c-0.177,0.307-0.372,0.615-0.596,0.922l0.864,0.078l-0.864-0.078c0.224-0.307,0.419-0.615,0.596-0.922
			c0.995-1.791,1.1-3.525,0.308-5.193C337.848,364.965,335.259,366.512,333.485,368.516z M331.218,369.918
			c0.195-0.215,0.391-0.434,0.575-0.652c-0.195-0.01-0.391-0.025-0.575-0.035c0.185,0.01,0.38,0.025,0.575,0.035
			C331.608,369.484,331.413,369.703,331.218,369.918z M331.946,369.109c-0.049,0.059-0.099,0.109-0.153,0.156
			c0.05,0,0.104,0.012,0.153,0.021c-0.013,0.432-0.013,0.869,0,1.322c-0.013-0.453-0.013-0.891,0-1.322
			c-0.049-0.01-0.104-0.021-0.153-0.021C331.848,369.219,331.897,369.168,331.946,369.109z M350.147,374.48h3.044H350.147z
			 M364.577,363.438c-2.342,1.1-4.472,0.428-6.386-2.02C360.105,363.865,362.235,364.537,364.577,363.438z M321.176,310.838
			c1.383-2.641,0.591-5.725-2.383-9.234C323.149,303.859,323.944,306.938,321.176,310.838z"/>
		
			<path fill-rule="evenodd" clip-rule="evenodd" fill="none" stroke="#FFFFFF" stroke-width="0.1" stroke-linecap="round" stroke-linejoin="round" stroke-miterlimit="3" d="
			M403.364,268.937c0.737,0.078,1.484,0.151,2.231,0.229l0.269-2.35c-27.907-2-51.407-2.653-70.493-1.958
			c0.57,0.175,1.156,0.401,1.773,0.667C354.649,265.156,376.729,266.293,403.364,268.937z M405.596,269.167
			c8.482,3.771,15.662,9.453,21.547,17.047l-19.778,88.267h3.386l20.354-89.117c-6.721-8.672-15.133-14.854-25.239-18.547
			 M374.699,312.816c0.219,0.23,0.425,0.459,0.614,0.693c2.854,3.994-1.352,9.213-12.625,15.646
			c-27.719,11.875-43.349,14.621-46.9,8.234c-0.547-0.668,0.109-1.475,1.963-2.428c-0.127-0.256-0.252-0.516-0.388-0.766
			c-4.203,2.459-4.013,4.846,0.578,7.158c0.519,0.219,1.094,0.395,1.734,0.535c4.578,1.012,12.297,0,23.164-3.041
			c12.411-3.518,21.278-7.377,26.589-11.584c1.791-1.484,3.291-2.828,4.5-4.037c0.385-0.365,0.731-0.734,1.039-1.119
			c0.094-0.109,0.185-0.23,0.268-0.344c1.39-1.756,2.079-3.262,2.079-4.543C377.439,314.619,376.564,313.145,374.699,312.816z
			 M368.39,316.01c-0.104-0.229-0.201-0.463-0.289-0.693c-0.029-0.066-0.055-0.135-0.078-0.207c-0.086-0.219-0.17-0.438-0.25-0.656
			c-4.568-11.875-9.352-23.699-14.354-35.48c-6.466-6.984-11.894-11.463-16.273-13.447c-0.508,0.016-1.008,0.031-1.5,0.041
			c0.062,0.193,0.122,0.391,0.172,0.594c7.052,3.506,12.664,7.979,16.831,13.43c5.398,12.882,9.924,25.757,13.586,38.632
			c1.109-0.688,1.914-1.203,2.424-1.535C368.563,316.457,368.478,316.234,368.39,316.01l2.65-0.635
			c-0.117,0.182-0.242,0.363-0.38,0.535c-0.797,1.094-1.789,2.162-2.987,3.219c-6.102,5.334-17.458,10.178-34.07,14.521
			c-0.025,0.01-0.049,0.016-0.078,0.021c-6.56,2.156-11.119,3.422-13.677,3.812c-1.281,0.188-2.052,0.156-2.325-0.094l0.922-0.906
			c-0.219-0.512-0.448-1.016-0.693-1.521 M366.233,318.223l1.439,0.906 M375.313,313.51c-0.953-0.666-3.383-0.135-7.291,1.6
			 M367.772,314.453c3.028-1.371,5.338-1.912,6.927-1.637 M368.657,316.688l2.003-0.777 M367.194,334.254
			c-3.734,7.949-7.607,13.824-11.602,17.621c-0.042,0.047-0.089,0.09-0.136,0.137c6.372-0.506,9.979,2.941,10.815,10.332
			c9.244-6.363,12.745-14.613,10.503-24.766C374.397,326.828,371.207,325.719,367.194,334.254z M363.772,365.746
			c1.549-0.746,2.986-1.543,4.307-2.387c9.444-6.02,12.892-14.406,10.353-25.16c-2.901-12.289-6.761-13.805-11.581-4.549
			c-4.854,9.24-9.303,15.73-13.357,19.475c0.409-0.203,0.82-0.354,1.234-0.441c0.234-0.203,0.464-0.418,0.688-0.637
			c0.016-0.016,0.031-0.025,0.042-0.035 M362.61,357.012c0.245,0.312,0.49,0.65,0.734,1.004c0.078,0.047,0.141,0.125,0.193,0.225
			c1.039,1.51,1.406,3.162,1.096,4.947c-0.016,0.084-0.033,0.162-0.057,0.25c0.344-0.213,0.68-0.422,1-0.635
			c0.234-0.156,0.463-0.312,0.695-0.459 M390.591,374.48h2.653c-0.525-2.725-1.091-5.402-1.692-8.021L390.591,374.48z
			 M143.987,375.521H403.75v-1.041h-10.506l12.352-105.314 M403.75,374.48h3.614 M423.908,374.48v1.041h8.081v-1.041H423.908z
			 M410.75,374.48h13.158 M423.908,375.521H403.75 M375.235,321.766c6.985,12.676,12.423,27.578,16.316,44.693
			c4.841-29.338,8.778-61.85,11.812-97.522 M373.929,323.229c8.056,14.621,13.61,31.705,16.662,51.252 M431.989,375.521v6.85
			H143.987v-6.85v-1.041h23.665v-6.699v-77.375c0.273-2.938,2.416-4.847,6.427-5.735h23.737v-4.081
			c-1.974-0.664-3.156-1.883-3.537-3.653c-0.978-4.614-2.569-8.276-4.772-10.966h-5.733c-0.232-2.539,1.307-4.078,4.613-4.617
			c2.516-0.308,4.124,0.294,4.811,1.807c1.461,2.312,2.659,4.62,3.582,6.928c6.051-4.131,13.143-3.281,21.277,2.541
			c3.716,2.667,7.268,4.808,10.658,6.422c0.508,0.261,1.036,0.506,1.574,0.734c1.055,0.49,2.105,0.906,3.155,1.271
			c1.67,0.614,3.297,1.072,4.889,1.38h0.039c0.054,0,0.112,0.016,0.19,0.042c0.362,0.052,0.719,0.099,1.075,0.156
			c-7.616,1.229-14.146,0.369-19.578-2.581v4.617h13.541h19.237h3.234h1.27v0.81v7.388c5.412,17.725,5.412,40.197,0,67.412v7.5v5.24
			v1.459h25.166c-0.952-3.312,1.818-5.568,8.309-6.771h19.778c-0.174-0.131,0.686-1.453,2.581-3.969
			c-1.567,0.322-3.133-0.068-4.7-1.172c-1.117,1.416-2.016,2.922-2.69,4.525c-1.427-1.406-2.214-3.062-2.347-4.969
			c-4.195,0.928-7.875,2.365-11.044,4.312c0.836-2.229,2.219-4.463,4.159-6.697l6.192-2.25l-0.886-0.172
			c7.467-3.693,12.823-9.016,16.081-15.963c0.133,0.285,0.258,0.566,0.386,0.844c2.688,6.285,2.844,11.16,0.466,14.619
			c-1.359,1.5-2.544,2.9-3.56,4.213c-0.305,0.402-0.594,0.793-0.867,1.172c-0.436,0.559-0.828,1.068-1.19,1.537 M189.218,261.604
			c2.867-0.141,5.256,3.114,7.176,9.755c5.125-4.513,11.548-4.308,19.28,0.614l11.039,6.693c2.179,1.104,5.775,2.375,10.776,3.812
			c-7.391,0.281-13.507-0.948-18.357-3.693v5.656h-2.92l0.767-2.966c-1.207-1.565-1.715-2.977-1.539-4.231l-1.387,0.15
			c0.132,0.464,0.273,0.891,0.425,1.271c-6.301,2.736-10.57,2.869-12.812,0.385h-0.806v5.391h-2.193v-5.656h-0.85
			c-1.67-0.036-2.922-1.583-3.751-4.656c-0.831-3.072-2.155-6.033-3.981-8.891h-5.617
			C184.769,262.958,186.351,261.745,189.218,261.604z M197.816,284.671v0.308h3.849v-0.308v-4.081
			c3.336,1.878,7.795,1.633,13.393-0.727c0.225,0.412,0.499,0.805,0.807,1.193l-0.582,3.385v0.229v0.308h4.777v-0.308
			 M232.156,284.921c-0.768,0.114-1.461,0.302-2.077,0.56h0.616C231.139,285.245,231.627,285.057,232.156,284.921
			c0.449-0.12,0.932-0.203,1.445-0.25 M238.373,282.437c0.025,0,0.078,0.016,0.151,0.042h0.039 M230.695,285.481h3.023h19.12v-0.81
			 M232.175,305.066h4.346v0.881h-4.346V305.066z M232.175,302.176h4.346v0.887h-4.346V302.176z M232.175,299.26h4.346v0.881h-4.346
			V299.26z M239.298,300.141h9.466v-0.881h-9.466V300.141z M239.298,303.062h9.466v-0.887h-9.466V303.062z M239.298,305.947h9.466
			v-0.881h-9.466V305.947z M239.298,297.213h9.466v-0.881h-9.466V297.213z M236.521,297.213h-4.346v-0.881h4.346V297.213z
			 M230.079,285.481h-54.923c-3.949,0.357-6.095,2.269-6.427,5.732v72.418h57.101l0.074-72.418
			C226.177,288.437,227.563,286.531,230.079,285.481z M227.212,363.631l0.078-72.418c0.332-3.463,2.477-5.375,6.428-5.732
			 M215.283,284.671h-13.618 M168.536,373.021h0.192v-5.24h-1.077 M168.729,367.781v-3.344v-0.807 M167.652,374.48h1.077v-1.459
			h57.101v1.459h0.039v-1.459h1.344v-4.354h-1.344 M225.868,367.781h1.344v-3.344v-0.807h28.861v0.807v3.344h1.27 M225.829,364.438
			v3.344h0.039 M225.829,367.781v0.887h0.039v-0.887 M225.829,368.668v4.354h0.039v-4.354 M227.212,367.781v0.887 M225.868,374.48
			h1.344v-1.459 M225.829,364.438v-0.807 M168.729,374.48h57.101 M168.729,364.438h57.101 M335.371,264.859
			c0.102,0.219,0.195,0.458,0.273,0.708 M334.488,265.604c0.383-0.008,0.771-0.023,1.156-0.037 M334.488,265.604
			c0.028,0.094,0.052,0.192,0.078,0.289c0.258,0.977,0.383,2.153,0.383,3.544c0,1.766-1.938,3.011-5.812,3.729
			c-0.766-0.047-1.602-0.141-2.5-0.269c-3.308-0.487-5.925-0.883-7.844-1.19c-1.878-0.338-2.927-0.63-3.156-0.885
			c-0.284-0.206-0.323-0.725-0.117-1.542c0.05-0.411,0.104-0.729,0.156-0.958c0.05-0.261,0.089-0.451,0.112-0.584
			c0.055-1.666,0.552-3.188,1.497-4.578c0.183-0.281,0.388-0.549,0.617-0.802c0.18-0.234,0.386-0.442,0.617-0.62
			c1.898-1.875,4.156-2.807,6.773-2.807c2.644,0,4.898,0.932,6.771,2.807c0.898,0.873,1.602,1.873,2.115,3
			C334.301,265,334.402,265.286,334.488,265.604z M316.54,263.065c0.206-0.308,0.43-0.607,0.675-0.904
			c-0.417-0.562-0.859-1.088-1.349-1.578c-2.104-2.099-4.617-3.156-7.542-3.156c-2.95,0-5.477,1.058-7.583,3.156
			c-2.1,2.107-3.154,4.631-3.154,7.584c0,0.156,0,0.307,0,0.458c0.011,0.18,0.014,0.347,0.021,0.503
			c0.031,0.903,0.023,1.377-0.021,1.422c0.245-0.011,0.49-0.023,0.732-0.039c0.039-0.636,0.039-1.391,0-2.266c0-0.156,0-0.3,0-0.428
			c0-2.666,0.947-4.938,2.849-6.807c1.894-1.901,4.167-2.85,6.808-2.85c2.646,0,4.916,0.948,6.812,2.85
			C315.226,261.442,315.809,262.132,316.54,263.065z M317.215,262.161c0.206-0.252,0.445-0.489,0.727-0.692
			c2.106-2.102,4.617-3.151,7.542-3.151c2.95,0,5.477,1.05,7.583,3.151c1,1,1.766,2.13,2.305,3.391 M298.319,270.51
			c5.197-0.312,10.713-1.065,16.547-2.266c0.086-1.886,0.643-3.615,1.674-5.18 M323.715,267.706
			c0.255,0.305,0.383,0.641,0.383,0.997c0,0.464-0.128,0.812-0.383,1.042c-0.308,0.307-0.644,0.463-1,0.463
			c-0.466,0-0.808-0.156-1.042-0.463c-0.307-0.229-0.458-0.578-0.458-1.042c0-0.356,0.151-0.692,0.458-0.997
			c0.234-0.234,0.576-0.347,1.042-0.347C323.071,267.359,323.407,267.471,323.715,267.706z M329.754,274.32
			c-0.847-0.05-1.769-0.151-2.771-0.308c-3.717-0.539-6.628-0.986-8.734-1.344c-2.1-0.361-3.281-0.685-3.537-0.961
			c-0.336-0.26-0.385-0.838-0.156-1.734c0.078-0.455,0.144-0.828,0.193-1.114c-0.271,0.269-0.495,0.669-0.672,1.211
			c-0.175,0.539-0.148,1.081,0.075,1.638c0.224,0.555,1.367,1.073,3.425,1.558c2.064,0.474,4.958,0.981,8.677,1.519
			c1,0.15,1.927,0.252,2.771,0.307l1.808,0.078c0.641,0.023,1.258,0.039,1.847,0.039c3.052-0.106,5.734-1.055,8.041-2.846
			c-1.81,1.268-4.25,1.953-7.328,2.055c-0.586,0.01-1.195,0.005-1.825-0.019L329.754,274.32z M314.749,268.859
			c0.052-0.284,0.091-0.489,0.117-0.614c-1.219,0.336-2.094,0.805-2.62,1.4c-0.323,0.312-0.528,0.683-0.614,1.12
			C312.47,269.573,313.512,268.942,314.749,268.859z M311.559,269.859c0.229-0.073,0.458-0.141,0.688-0.214 M311.632,270.765
			c-0.234,1.172,0.419,2.776,1.963,4.823c-2.961-1.964-3.641-3.87-2.036-5.729c-4.383,1.245-8.81,1.625-13.278,1.136
			c-0.972-0.109-1.948-0.256-2.925-0.445h2.231 M349.321,280.114c0.058,0.047,0.117,0.092,0.172,0.131
			c0.615,0.567,0.667,1.516,0.156,2.849c-0.591,1.31-1.438,1.773-2.541,1.388c-1.05-0.408-2.232-0.914-3.542-1.5
			c-1.308-0.513-2.336-0.953-3.078-1.31c-0.794-0.435-0.898-1.31-0.305-2.62c0.511-1.307,1.396-2.064,2.656-2.271
			c1.188-0.208,2.339,0.078,3.461,0.87c0.128,0.088,0.258,0.188,0.383,0.286c1.104,0.927,1.964,1.63,2.578,2.117
			C349.288,280.073,349.301,280.093,349.321,280.114c0.508,0.516,0.537,1.35,0.097,2.479c-0.513,1.156-1.269,1.565-2.271,1.234
			c-0.925-0.364-1.979-0.812-3.156-1.349c-1.151-0.459-2.065-0.847-2.729-1.154c-0.695-0.388-0.781-1.169-0.273-2.352
			c0.464-1.15,1.245-1.817,2.349-1.994c1.019-0.183,2.003,0.041,2.964,0.672c0.089,0.067,0.18,0.135,0.271,0.208
			C347.73,278.833,348.647,279.581,349.321,280.114z M349.262,289.057c0.617-0.615,1.375-0.921,2.273-0.921s1.656,0.307,2.271,0.921
			c0.641,0.641,0.956,1.412,0.956,2.312c0,0.896-0.315,1.65-0.956,2.266c-0.614,0.646-1.221,0.891-1.812,0.734
			c-0.614-0.15-1.271-0.531-1.958-1.115c-0.695-0.594-1.144-1.27-1.349-2.041C348.426,290.422,348.621,289.697,349.262,289.057z
			 M346.415,290.176c0,0.59-0.294,1.068-0.885,1.422c-0.511,0.412-1.144,0.615-1.886,0.615c-0.797,0-1.474-0.203-2.036-0.615
			c-0.542-0.354-0.811-0.832-0.811-1.422c0-0.588,0.269-1.094,0.811-1.504c0.562-0.354,1.239-0.536,2.036-0.536
			c0.742,0,1.375,0.182,1.886,0.536C346.121,289.082,346.415,289.588,346.415,290.176z M345.34,288.792
			c0.461,0.333,0.688,0.74,0.688,1.228c0,0.465-0.227,0.84-0.688,1.115c-0.409,0.338-0.914,0.506-1.505,0.506
			c-0.639,0-1.19-0.168-1.651-0.506c-0.409-0.275-0.614-0.65-0.614-1.115c0-0.488,0.205-0.895,0.614-1.228
			c0.461-0.287,1.013-0.428,1.651-0.428C344.426,288.364,344.931,288.504,345.34,288.792z M354.265,290.984
			c0,0.719-0.256,1.332-0.771,1.844c-0.508,0.516-0.997,0.707-1.461,0.578c-0.513-0.125-1.041-0.422-1.578-0.887
			c-0.56-0.488-0.932-1.035-1.114-1.656c-0.203-0.66-0.052-1.254,0.461-1.766c0.513-0.489,1.128-0.734,1.847-0.734
			c0.724,0,1.338,0.245,1.846,0.734C354.009,289.609,354.265,290.238,354.265,290.984z M339.757,253.081
			c-4.253-6.487-10.771-8.104-19.542-4.847C330.14,241,336.655,242.618,339.757,253.081z M335.816,266.161
			c0.266,1.086,0.403,2.409,0.403,3.969c0,1.998-2.153,3.398-6.466,4.19 M302.437,265.585c0.31,0.284,0.461,0.617,0.461,1.003
			c0,0.432-0.151,0.781-0.461,1.039c-0.305,0.231-0.654,0.346-1.039,0.346c-0.386,0-0.719-0.114-1-0.346
			c-0.256-0.258-0.383-0.607-0.383-1.039c0-0.386,0.127-0.719,0.383-1.003c0.281-0.331,0.614-0.497,1-0.497
			C301.782,265.088,302.132,265.254,302.437,265.585z M256.073,284.671v0.81h1.27 M265.23,286.151c0-0.037,0-0.089,0-0.131
			c-0.014-0.494,0.103-0.992,0.346-1.5c-0.977,1.011-1.454,2-1.426,2.959c0.362,10.265,1.516,18.468,3.464,24.625l6.618-0.729
			l2.175-0.215c-0.034-0.182-0.064-0.363-0.093-0.557 M270.423,290.328c0-0.459,0.181-0.871,0.538-1.23
			c0.362-0.333,0.781-0.5,1.27-0.5c0.463,0,0.875,0.167,1.232,0.5c0.337,0.359,0.502,0.771,0.502,1.23
			c0,0.488-0.166,0.916-0.502,1.27c-0.357,0.359-0.769,0.537-1.232,0.537c-0.488,0-0.908-0.178-1.27-0.537
			C270.604,291.244,270.423,290.816,270.423,290.328z M270.698,288.671c0.458-0.458,1.011-0.688,1.65-0.688
			c0.616,0,1.168,0.229,1.656,0.688c0.459,0.489,0.689,1.042,0.689,1.657c0,0.641-0.229,1.191-0.689,1.656
			c-0.488,0.488-1.041,0.734-1.656,0.734c-0.639,0-1.191-0.246-1.65-0.734c-0.489-0.465-0.734-1.016-0.734-1.656
			C269.963,289.713,270.208,289.16,270.698,288.671z M256.268,292.947c0.386,1.266,0.742,2.553,1.074,3.865v-3.943 M267.615,293.141
			c-1.896-4.012-1.06-6.547,2.501-7.625C267.581,287.598,266.741,290.141,267.615,293.141z M252.838,285.481h3.234v78.15
			 M265.23,286.151c3.449-4.256,13.135-8.136,29.05-11.636c-1.953-4.067-0.852-5.953,3.307-5.656l0.021,0.269 M298.319,270.51
			c-0.008,0.166-0.023,0.322-0.039,0.484 M265.577,284.52c2.599-2.666,8.745-5.486,18.431-8.469c2.535-0.794,5.296-1.575,8.27-2.349
			c-0.128-0.386-0.229-0.75-0.308-1.094c-0.814-3.562,1.061-4.894,5.617-3.984 M290.968,287.401
			c0.466,0.489,0.695,1.041,0.695,1.656c0,0.641-0.229,1.193-0.695,1.656c-0.482,0.49-1.034,0.734-1.648,0.734
			c-0.646,0-1.193-0.244-1.657-0.734c-0.489-0.463-0.729-1.016-0.729-1.656c0-0.615,0.24-1.167,0.729-1.656
			c0.464-0.459,1.011-0.688,1.657-0.688C289.934,286.713,290.485,286.942,290.968,287.401z M290.895,289.098
			c0,0.49-0.167,0.912-0.503,1.271c-0.356,0.354-0.766,0.537-1.229,0.537c-0.49,0-0.912-0.184-1.271-0.537
			c-0.357-0.359-0.539-0.781-0.539-1.271c0-0.462,0.182-0.875,0.539-1.234c0.359-0.328,0.781-0.494,1.271-0.494
			c0.463,0,0.872,0.166,1.229,0.494C290.728,288.223,290.895,288.635,290.895,289.098z M295.78,292.441
			c2.104-5.134,1.143-8.087-2.889-8.843C295.39,285.156,296.351,288.104,295.78,292.441z M296.454,309.166l0.479-0.062l2.138-0.209
			l10.443-1.082l0.617-0.059l5.119-0.65l-46.175,2c-2.194-5.104-3.479-12.756-3.845-22.953 M296.069,315.547
			c0.435-1.688,0.721-3.84,0.864-6.443c3.286,9.209,6.581,12.541,9.891,10.006c2.359-2.516,3.464-6.297,3.308-11.355
			 M296.454,309.166c-0.117,2.24-0.341,4.078-0.674,5.516c-0.18,0.588-0.357,1.131-0.539,1.619c-0.281,0.74-0.628,1.293-1.039,1.652
			c-2.717,2.463-4.904-0.168-6.56-7.887l-1.558,0.156c2.026,9.074,4.708,12.156,8.04,9.23c0.513-0.434,0.953-1.105,1.31-2
			c0.234-0.553,0.448-1.188,0.636-1.906c5.617,11.869,14.486,16.76,26.606,14.688c-1.622,0.535-3.161,0.926-4.617,1.172l1.636,5.543
			c-0.312,0.057-0.625,0.125-0.94,0.188c0.008,0.02,0.023,0.035,0.039,0.057c0.302-0.078,0.604-0.15,0.901-0.229v-0.016
			 M287.642,310.066l8.812-0.9 M285.314,309.453c0.008,0.281,0.018,0.562,0.018,0.844l0.752-0.074
			c0.253,5.359-0.435,8.902-2.077,10.621c-0.103,0.129-0.229,0.238-0.385,0.344c-4.104,3.254-7.234-0.012-9.39-9.812
			 M276.408,311.16h0.02l8.905-0.863c0.091,4.488-0.44,7.463-1.592,8.926c-0.078,0.131-0.181,0.23-0.312,0.309
			c-1.921,1.848-3.566,1.41-4.925-1.309c-0.82-1.594-1.514-3.947-2.075-7.062 M257.342,360.281v-5.691
			c-0.332,1.9-0.688,3.822-1.074,5.77 M227.212,374.48h25.626v-1.459h-25.626 M256.073,373.021h1.27 M256.073,367.781v5.24v1.459
			 M257.342,374.48h-1.27h-3.234 M252.838,373.021h3.234 M282.508,374.48h2.115c-0.19-3.371,1.887-5.359,6.233-5.965
			c12.325-0.479,25.776-0.238,40.362,0.715c0-0.293,0.01-0.584,0.039-0.865c-4.519-0.287-9.672-0.506-15.469-0.656h-3.269h-1.925
			 M294.626,364.438c2.537-1.453,5.654-2.629,9.35-3.541c0.216,1.463,0.885,2.838,2,4.119c0.82-2.109,2.047-3.891,3.677-5.354
			l0.328-1.5c-1.417-0.834-2.906-1.281-4.466-1.344l-8.078,3.5C295.913,361.787,294.976,363.162,294.626,364.438z M299.071,308.895
			c2.631,7.912,5.237,10.793,7.831,8.637c1.87-2.131,2.739-5.371,2.612-9.719 M318.059,331.406c-0.688,0.119-1.352,0.197-2.003,0.25
			c0.467,0.844,0.898,1.691,1.308,2.541 M316.056,331.656c-4.104,0.484-7.731-0.141-10.888-1.887
			c-4.797-2.566-8.039-6.672-9.734-12.316 M318.444,336.484c0.039,0.078,0.078,0.16,0.114,0.25c0.042,0.137,0.106,0.266,0.195,0.402
			c-0.411,0.082-0.82,0.166-1.231,0.254 M319.694,336.965l0.153,0.52 M319.694,336.965c0.166-0.047,0.333-0.094,0.5-0.137
			c-0.162,0.043-0.334,0.078-0.5,0.121 M333.524,333.672c-4.119,1.088-8.562,2.141-13.33,3.156
			c19.289-5.037,34.633-11.234,46.039-18.605 M320.52,357.396c0.586-0.854,1.016-1.787,1.289-2.807
			c0.911-3.328,0.195-7.562-2.133-12.699 M302.746,357.49l1.847-0.672c-0.898,0.053-1.808,0.219-2.732,0.5 M304.593,356.818
			c0.312-0.016,0.619-0.016,0.922,0 M309.652,359.662l-0.325,1.5c1.775,0.938,3.458,1.281,5.039,1.041
			c-1.362-1.791-2.823-3.141-4.386-4.041 M309.327,361.162l-0.852,1.406 M318.327,342.199c-1.547,4.457-5.523,8.984-11.928,13.582
			c2.906-0.463,5.852,1.287,8.834,5.25 M331.946,369.109c0,0.059,0,0.115,0,0.178c0.279,0.016,0.558,0.037,0.831,0.057
			c0.224-0.285,0.458-0.562,0.708-0.828c1.773-2.004,4.362-3.551,7.776-4.656c0.792,1.668,0.688,3.402-0.308,5.193
			c-0.177,0.307-0.372,0.615-0.596,0.922l0.864,0.078c1.953-2.922,2.169-5.303,0.656-7.156
			C338.98,363.062,335.673,365.137,331.946,369.109c-0.049,0.059-0.099,0.109-0.153,0.156c0.05,0,0.104,0.012,0.153,0.021
			c-0.013,0.432-0.013,0.869,0,1.322c0.25-0.441,0.523-0.863,0.831-1.266c0.469,0.031,0.938,0.062,1.401,0.094l6.18,0.537
			c-0.581,0.797-1.331,1.594-2.253,2.391c2.12-0.115,4.078-0.619,5.867-1.521 M331.218,369.23c-0.011,0.229-0.011,0.457,0,0.688
			c0.195-0.215,0.391-0.434,0.575-0.652C331.598,369.256,331.402,369.24,331.218,369.23z M331.218,369.918
			c0.021,0.604,0.083,1.213,0.192,1.832c0.159-0.395,0.336-0.775,0.536-1.141 M312.52,367.709c0.472-0.812,1.661-2.453,3.575-4.928
			c1.183-1.641,2.659-3.438,4.425-5.385 M354.728,352.684c0.112-0.027,0.229-0.053,0.347-0.078c0.133-0.193,0.263-0.396,0.383-0.594
			 M349.957,363.359c0-0.488-0.055-0.963-0.156-1.422c-0.138-0.578-0.352-1.129-0.656-1.656c0.055,2.428-0.711,4.516-2.305,6.271
			c-2.153,2.422-4.323,4-6.5,4.734c0.325-0.422,0.625-0.834,0.883-1.234 M349.957,363.359c2.052-0.926,4.284-1.525,6.692-1.812
			c0.511-0.057,1.023-0.104,1.542-0.129c0.333-0.016,0.664-0.021,0.997-0.021c2.516-1.1,3.898-2.229,4.156-3.381 M362.61,357.012
			c-1.164,1.688-2.562,2.688-4.189,3c-3.722,0.432-6.594,1.066-8.62,1.926 M355.074,352.605c2.466-0.412,4.981,1.057,7.536,4.406
			 M353.191,374.48c-0.055-1.719-1.609-3.203-4.661-4.465c-0.792-0.182-1.641-0.316-2.542-0.422
			c-0.644,0.475-1.317,0.891-2.016,1.25c4.117,0.256,6.175,1.475,6.175,3.637H353.191h37.399 M345.988,369.594
			c1.185-0.822,2.234-1.875,3.156-3.156c0.489-1.104,0.758-2.125,0.812-3.078 M364.577,363.438c-0.154,0.746-0.42,1.516-0.805,2.309
			c-3.365,0.104-5.737-1.293-7.123-4.199 M353.493,353.125c-4.411,3.85-10.195,5.85-17.352,6c-3.052,2.771-4.68,5.85-4.885,9.24
			 M355.074,352.605c-4.883,4.541-11.091,6.979-18.625,7.328c-2.817,2.285-4.317,5.344-4.503,9.176 M364.577,363.438
			c-2.342,1.1-4.472,0.428-6.386-2.02 M340.954,369.053c-2.263-0.203-4.747-0.385-7.469-0.537 M314.438,252.159
			c-4.869-5.594-9.986-4.695-15.352,2.695C303.937,249.926,309.056,249.031,314.438,252.159z M321.176,310.838
			c1.383-2.641,0.591-5.725-2.383-9.234C323.149,303.859,323.944,306.938,321.176,310.838z M257.342,296.812
			c3.977,15.775,3.977,35.031,0,57.777V296.812z M284.623,374.48h65.525 M227.212,364.438h28.861"/>
	</g>
	<g>
		<path fill-rule="evenodd" clip-rule="evenodd" fill="#FFFFFF" d="M364.923,128.839l3.852,0.078L364.923,128.839l-17.388-1.691
			l-1.234-15.201l66.876-6.733l-4.388,28.283l-20.045-2.002l-13.198,26.319l-11.812-0.309L364.923,128.839z M396.555,176.128
			l-2.889,2.5l3.85,2.423l1.461,10.929l-22.352-0.27l-0.732-26.702l20.433,0.538L396.555,176.128z M390.513,169.741l-9.776-2.386
			l0.695,6.31l9.506,0.23L390.513,169.741z M371.621,170.586l-18.742,0.309l-0.305,5.348l5.847,0.155l-0.156,3.963l-5.5,0.039
			l0.114,5.345l15.969,0.462l1.078,4.581l-23.781-0.041l0.271-25.818l26.784,0.193L371.621,170.586z M382.622,188.285l10.044-0.383
			l-1.383-6.389l-9.349-3.424L382.622,188.285z M376.238,205.869l-15.547-0.576l0.114,7.349l15.087-1.578L376.238,205.869z
			 M365.382,216.915l20.514,18.121l-15.473-1.191l-8.039-13.083l2.383,13.889l-7.539-0.19l-2.192-33.054l27.587,0.576l-0.805,15.279
			L365.382,216.915z M398.322,229.574l14.391-2.233l1.578-17.776l-17.43-3.039L398.322,229.574z M423.141,204.871l-1.498,29.316
			l-30.594,1.504l-3.039-37.516L423.141,204.871z M319.676,142.693l0.112-2.501l-22.508-15.278l-2.195-9.695l43.328-3.271
			l-0.576,14.699l-25.474-4.002l-0.117,3.965l26.281,9.426l-0.886,19.815l-36.63-1.077l0.425-8.656L319.676,142.693z
			 M268.616,128.531l12.505,0.809l0.576,2.541l-13.31-0.462l-0.845,12.043l21.814,1.116l2.883,10.427l-41.901-1.23l8.118-45.942
			l32.17,6.809l-1.578,6.772l-19.894-1.691L268.616,128.531z M231.677,165.276l-0.156,5.042l-11.616,0.154l-2.774,16.43l-8.23-0.193
			l-0.616-16.162l-13.35,0.117l0.27-6.311L231.677,165.276z M232.063,117.141l-1.461,36.478l-10.972-0.307l-7-36.091
			L232.063,117.141l-19.433,0.08l-22.621,0.154l-6.735-11.39l70.14,1.422l-1.884,9.543L232.063,117.141z M276.963,177.166
			l-6.231,0.462l-0.426,5.387l17.742,2.077l-0.156,3.463l-23.507-0.538l1.074-22.279l21.625-0.462l0.073,3.617l-16.27,1.502
			l-0.156,3.961l6.349,0.385L276.963,177.166z M242.218,187.439l-7.229-0.19l0.653-22.048l7.386,0.193l-0.308,8.349l8.887-0.077
			l0.654-8.081l9.237,0.231l-2.388,22.086l-8.461-0.192l0.919-11.312h-8.848L242.218,187.439z M253.728,202.908l-0.504-0.078
			L253.728,202.908l-0.929,7.195l16.237-0.807l0.391-4.504L253.728,202.908z M259.496,215.222l0.385,0.383L259.496,215.222z
			 M259.881,215.605l-1.465,0.078L259.881,215.605l14.582,18.431l-13.581-1.192l-7.659-14.39l0.885,15.66l-9.234-0.54l2.345-34.014
			l31.438,0.654l-3.311,14.661L259.881,215.605z M301.09,213.029l7.425,7.771l6.578-20.316l11.661,0.268l-14.43,33.553
			l-12.544-11.312l-13.081,10.93l-5.271-33.515l9.12,0.19l1.578,19.354L301.09,213.029z M336.371,162.238v-0.271l2.117,0.271
			H336.371z M335.718,163.738h2.08l6.542,0.883l-10.312,26.051l-8.622-12.122l-10.273,10.928l-6.344-23.893l7.268-0.655
			l2.389,13.698l7.505-5.155l5.805,5.425L335.718,163.738z M331.91,214.567l5.273,0.115l-0.964-7.502l-3.385,0.54L331.91,214.567z
			 M339.566,201.251l14.62,33.784l-12.542-0.268l-3.539-15.431l-5.812-0.114l-5.539,15.238l-7.542-0.273l10.311-32.78
			L339.566,201.251z M197.474,215.375l-7.815,0.347l1.623,17.082l-12.471-0.422l-2.77-40.25l44.938,0.039l-2.5,7.888l-30.664,0.538
			l0.809,8.814l8.041-0.155L197.474,215.375z M214.628,214.682l1.583,12.198l12.309,0.386l5.159-13.353L214.628,214.682z
			 M236.063,233.266l-27.892-0.616l0.381-23.895l31.857-0.113L236.063,233.266z"/>
		
			<path fill-rule="evenodd" clip-rule="evenodd" fill="none" stroke="#FFFFFF" stroke-linecap="round" stroke-linejoin="round" stroke-miterlimit="3" d="
			M364.923,128.839l-1.189,28.665l11.812,0.309l13.198-26.319l20.045,2.002l4.388-28.283l-66.876,6.733l1.234,15.201
			L364.923,128.839l3.852,0.078 M396.555,176.128l-2.889,2.5l3.85,2.423l1.461,10.929l-22.352-0.27l-0.732-26.702l20.433,0.538
			L396.555,176.128z M390.513,169.741l0.425,4.155l-9.506-0.23l-0.695-6.31L390.513,169.741z M371.621,170.586l-18.742,0.309
			l-0.305,5.348l5.847,0.155l-0.156,3.963l-5.5,0.039l0.114,5.345l15.969,0.462l1.078,4.581l-23.781-0.041l0.271-25.818
			l26.784,0.193L371.621,170.586z M382.622,188.285l-0.688-10.196l9.349,3.424l1.383,6.389L382.622,188.285z M376.238,205.869
			l-15.547-0.576l0.114,7.349l15.087-1.578L376.238,205.869z M365.382,216.915l20.514,18.121l-15.473-1.191l-8.039-13.083
			l2.383,13.889l-7.539-0.19l-2.192-33.054l27.587,0.576l-0.805,15.279L365.382,216.915z M398.322,229.574l-1.461-23.048
			l17.43,3.039l-1.578,17.776L398.322,229.574z M423.141,204.871l-1.498,29.316l-30.594,1.504l-3.039-37.516L423.141,204.871z
			 M319.676,142.693l-18.239,3.423l-0.425,8.656l36.63,1.077l0.886-19.815l-26.281-9.426l0.117-3.965l25.474,4.002l0.576-14.699
			l-43.328,3.271l2.195,9.695l22.508,15.278L319.676,142.693z M268.616,128.531l12.505,0.809l0.576,2.541l-13.31-0.462
			l-0.845,12.043l21.814,1.116l2.883,10.427l-41.901-1.23l8.118-45.942l32.17,6.809l-1.578,6.772l-19.894-1.691L268.616,128.531z
			 M232.063,117.141l19.466-0.191l1.884-9.543l-70.14-1.422l6.735,11.39l22.621-0.154L232.063,117.141z M276.963,177.166
			l-6.231,0.462l-0.426,5.387l17.742,2.077l-0.156,3.463l-23.507-0.538l1.074-22.279l21.625-0.462l0.073,3.617l-16.27,1.502
			l-0.156,3.961l6.349,0.385L276.963,177.166z M242.218,187.439l-7.229-0.19l0.653-22.048l7.386,0.193l-0.308,8.349l8.887-0.077
			l0.654-8.081l9.237,0.231l-2.388,22.086l-8.461-0.192l0.919-11.312h-8.848L242.218,187.439z M253.728,202.908l15.699,1.884
			l-0.391,4.504l-16.237,0.807L253.728,202.908l-0.504-0.078 M259.496,215.222l0.385,0.383l15.466-0.729l3.311-14.661l-31.438-0.654
			l-2.345,34.014l9.234,0.54l-0.885-15.66l7.659,14.39l13.581,1.192l-14.582-18.431l-1.465,0.078 M301.09,213.029l7.425,7.771
			l6.578-20.316l11.661,0.268l-14.43,33.553l-12.544-11.312l-13.081,10.93l-5.271-33.515l9.12,0.19l1.578,19.354L301.09,213.029z
			 M336.371,162.238v-0.271 M337.798,163.738l6.542,0.883l-10.312,26.051l-8.622-12.122l-10.273,10.928l-6.344-23.893l7.268-0.655
			l2.389,13.698l7.505-5.155l5.805,5.425l3.964-15.159 M331.91,214.567l5.273,0.115l-0.964-7.502l-3.385,0.54L331.91,214.567z
			 M339.566,201.251l14.62,33.784l-12.542-0.268l-3.539-15.431l-5.812-0.114l-5.539,15.238l-7.542-0.273l10.311-32.78
			L339.566,201.251z M212.631,117.22l7,36.091l10.972,0.307l1.461-36.478 M231.677,165.276l-36.474-0.923l-0.27,6.311l13.35-0.117
			l0.616,16.162l8.23,0.193l2.774-16.43l11.616-0.154L231.677,165.276z M197.474,215.375l-7.815,0.347l1.623,17.082l-12.471-0.422
			l-2.77-40.25l44.938,0.039l-2.5,7.888l-30.664,0.538l0.809,8.814l8.041-0.155L197.474,215.375z M214.628,214.682l1.583,12.198
			l12.309,0.386l5.159-13.353L214.628,214.682z M236.063,233.266l4.346-24.624l-31.857,0.113l-0.381,23.895L236.063,233.266z"/>
	</g>
</g>
<g>
	<path fill-rule="evenodd" clip-rule="evenodd" fill="#FFFFFF" d="M337.379,475.863c-0.305-3.691-3.22-3.727-8.751-0.105
		l-4.212-2.168c8.114-4.049,13.593-4.063,16.435-0.047c2.212,2.962,1.497,5.678-2.145,8.165c7.314,4.954,7.871,8.882,1.661,11.794
		c-5.563,2.078-12.026,0.996-19.403-3.242l5.113-2.168c8.422,3.914,12.758,4.342,13.013,1.277c0.255-3.062-2.851-5.124-9.313-6.182
		v-2.375C335.05,479.927,337.584,478.277,337.379,475.863z M312.875,470.657c-1.09,8.388-1.309,16.304-0.662,23.739h-6.477
		c0.949-7.573,0.949-15.486,0-23.739H312.875z M260.514,472.368c2.073,1.954,2.551,3.964,1.426,6.023
		c-2.073,2.938-5.942,7.207-11.611,12.788h16.085l-3.986,3.395h-19.373c4.509-5.021,8.619-10.156,12.328-15.418
		c1.735-1.957,1.999-3.539,0.791-4.746c-1.6-1.327-4.398-0.311-8.398,3.062l-2.981-2.505c1.935-1.409,4.519-2.684,7.754-3.826
		C255.781,470.004,258.436,470.408,260.514,472.368z M292.207,473.977c2.268,2.364,3.396,5.212,3.396,8.549
		s-1.128,6.178-3.396,8.525c-2.261,2.367-4.991,3.551-8.193,3.551c-3.193,0-5.93-1.184-8.186-3.551
		c-2.25-2.348-3.369-5.188-3.369-8.525s1.119-6.185,3.369-8.549c2.256-2.367,4.992-3.551,8.186-3.551
		C287.216,470.426,289.946,471.609,292.207,473.977z M276.476,483.041c0.108,1.972,0.847,3.665,2.206,5.074
		c1.465,1.553,3.243,2.326,5.332,2.326c2.095,0,3.882-0.773,5.361-2.326c1.362-1.409,2.101-3.103,2.206-5.074
		c0.012-0.176,0.012-0.346,0.012-0.516c0-2.182-0.738-4.034-2.218-5.566c-1.479-1.547-3.267-2.32-5.361-2.32
		c-2.089,0-3.867,0.773-5.332,2.32c-1.477,1.532-2.218,3.385-2.218,5.566C276.464,482.695,276.467,482.865,276.476,483.041
		c-0.009-0.176-0.012-0.346-0.012-0.516c0-2.182,0.741-4.034,2.218-5.566c1.465-1.547,3.243-2.32,5.332-2.32
		c2.095,0,3.882,0.773,5.361,2.32c1.479,1.532,2.218,3.385,2.218,5.566c0,0.17,0,0.34-0.012,0.516
		c-0.105-1.963-0.844-3.65-2.206-5.06c-1.479-1.55-3.267-2.32-5.361-2.32c-2.089,0-3.867,0.771-5.332,2.32
		C277.322,479.391,276.584,481.078,276.476,483.041z"/>
</g>
<g>
	<path fill-rule="evenodd" clip-rule="evenodd" fill="#FFFFFF" d="M347.075,420.383c-7.297-0.527-15.799-0.803-25.521-0.817
		c-6.927,0.035-13.778,0.308-20.563,0.817c0.047-1.529-0.521-3.061-1.711-4.596h22.175c-0.07-1.293-0.138-2.584-0.205-3.873h4.345
		c-0.053,1.307-0.094,2.598-0.132,3.873h21.921C347.008,417,346.905,418.525,347.075,420.383z M343.604,444.629
		c-6.444,0.645-12.825,1.01-19.135,1.098c-1.538,0.015-3.062,0.026-4.574,0.026c-5.701-0.07-11.346-0.366-16.944-0.893
		c1.515-6.993,1.688-13.802,0.513-20.417c11.768-1.755,25.411-2.273,40.908-1.559c-0.548,4.356-0.858,7.605-0.942,9.75
		c-0.015,0.577-0.015,1.157,0,1.734C343.458,436.733,343.519,440.158,343.604,444.629z M307.881,440.955
		c9.983,1.277,20.967,1.277,32.943,0v-14.036c-10.972-0.577-21.961-0.492-32.943,0.255V440.955z M313.49,450.396
		c-3.146,4.767-6.887,8.936-11.229,12.503l-5.104-3.567c5.206-2.382,9.12-6.381,11.738-11.997L313.49,450.396z M332.021,449.986
		l4.594-3.062c2.619,5.619,6.533,9.615,11.735,11.997l-5.1,3.57C338.914,458.922,335.167,454.756,332.021,449.986z M326.253,445.727
		c1.055,5.751,1.055,10.711,0,14.877c-3.17,1.309-6.739,1.736-10.724,1.276l-4.594-5.36c4.087,1.008,7.664,1.008,10.744,0
		c1.433-3.876,1.433-7.465,0-10.767C323.194,445.753,324.727,445.741,326.253,445.727z M289.425,419.844
		c-7.301-0.527-14.528-0.797-21.688-0.812l-0.026,1.632c6.465-0.035,12.887,0.161,19.265,0.586
		c-0.715,4.342-1.116,7.828-1.198,10.468c-0.021,0.715-0.021,1.427,0,2.139c0.035,2.933,0.094,7.151,0.179,12.661l-12.275,0.103
		c4.474,4.222,9.621,6.876,15.439,7.96l-7.148,5.871c-4.761-3.826-9.176-8.004-13.244-12.53c0.396,4.541,0.896,9.029,1.508,13.446
		h-8.677c0.63-4.417,1.151-8.879,1.556-13.367c-4.389,5.016-9.198,9.627-14.422,13.827l-7.144-5.864
		c6.381-1.192,12.046-4.271,17-9.24l-13.248,0.103c1.515-8.642,1.685-17.05,0.508-25.218c6.076-0.492,12.125-0.791,18.149-0.894
		l-0.053-1.682c-6.924,0.032-13.782,0.305-20.569,0.812c0.051-1.525-0.945-3.061-2.987-4.59h23.456
		c-0.07-1.293-0.138-2.588-0.205-3.877h4.342c-0.053,1.307-0.094,2.602-0.129,3.877h24.216
		C290.125,416.461,289.258,417.992,289.425,419.844z M268.118,440.598c4.883,0.088,9.872,0.393,14.979,0.92v-7.661h-15.436
		C267.761,436.142,267.916,438.389,268.118,440.598z M264.192,432.377c0.015-1.834,0.015-4.318,0-7.447
		c-5.095,0.05-10.181,0.371-15.268,0.969v5.819C253.943,432.107,259.031,432.33,264.192,432.377z M263.727,440.598
		c0.205-2.227,0.343-4.474,0.407-6.741h-15.209v7.661C253.738,440.973,258.674,440.665,263.727,440.598z M283.097,431.718v-5.819
		c-5.194-0.611-10.386-0.937-15.591-0.969c0.021,3.129,0.056,5.613,0.103,7.447C272.711,432.33,277.873,432.107,283.097,431.718z"/>
	
		<path fill-rule="evenodd" clip-rule="evenodd" fill="none" stroke="#FFFFFF" stroke-width="0.1" stroke-linecap="round" stroke-linejoin="round" stroke-miterlimit="3" d="
		M347.075,420.383c-7.297-0.527-15.799-0.803-25.521-0.817c-6.927,0.035-13.778,0.308-20.563,0.817
		c0.047-1.529-0.521-3.061-1.711-4.596h22.175c-0.07-1.293-0.138-2.584-0.205-3.873h4.345c-0.053,1.307-0.094,2.598-0.132,3.873
		h21.921C347.008,417,346.905,418.525,347.075,420.383z M343.604,444.629c-6.444,0.645-12.825,1.01-19.135,1.098
		c-1.538,0.015-3.062,0.026-4.574,0.026c-5.701-0.07-11.346-0.366-16.944-0.893c1.515-6.993,1.688-13.802,0.513-20.417
		c11.768-1.755,25.411-2.273,40.908-1.559c-0.548,4.356-0.858,7.605-0.942,9.75c-0.015,0.577-0.015,1.157,0,1.734
		C343.458,436.733,343.519,440.158,343.604,444.629z M307.881,440.955c9.983,1.277,20.967,1.277,32.943,0v-14.036
		c-10.972-0.577-21.961-0.492-32.943,0.255V440.955z M313.49,450.396c-3.146,4.767-6.887,8.936-11.229,12.503l-5.104-3.567
		c5.206-2.382,9.12-6.381,11.738-11.997L313.49,450.396z M332.021,449.986c3.146,4.77,6.894,8.936,11.229,12.506l5.1-3.57
		c-5.202-2.382-9.116-6.378-11.735-11.997L332.021,449.986z M321.68,445.753c1.433,3.302,1.433,6.891,0,10.767
		c-3.08,1.008-6.657,1.008-10.744,0l4.594,5.36c3.984,0.46,7.554,0.032,10.724-1.276c1.055-4.166,1.055-9.126,0-14.877
		 M289.425,419.844c-7.301-0.527-14.528-0.797-21.688-0.812l-0.026,1.632c6.465-0.035,12.887,0.161,19.265,0.586
		c-0.715,4.342-1.116,7.828-1.198,10.468c-0.021,0.715-0.021,1.427,0,2.139c0.035,2.933,0.094,7.151,0.179,12.661l-12.275,0.103
		c4.474,4.222,9.621,6.876,15.439,7.96l-7.148,5.871c-4.761-3.826-9.176-8.004-13.244-12.53c0.396,4.541,0.896,9.029,1.508,13.446
		h-8.677c0.63-4.417,1.151-8.879,1.556-13.367c-4.389,5.016-9.198,9.627-14.422,13.827l-7.144-5.864
		c6.381-1.192,12.046-4.271,17-9.24l-13.248,0.103c1.515-8.642,1.685-17.05,0.508-25.218c6.076-0.492,12.125-0.791,18.149-0.894
		l-0.053-1.682c-6.924,0.032-13.782,0.305-20.569,0.812c0.051-1.525-0.945-3.061-2.987-4.59h23.456
		c-0.07-1.293-0.138-2.588-0.205-3.877h4.342c-0.053,1.307-0.094,2.602-0.129,3.877h24.216
		C290.125,416.461,289.258,417.992,289.425,419.844z M268.118,440.598c4.883,0.088,9.872,0.393,14.979,0.92v-7.661h-15.436
		C267.761,436.142,267.916,438.389,268.118,440.598z M263.727,440.598c-5.052,0.067-9.989,0.375-14.802,0.92v-7.661h15.209
		C264.069,436.124,263.932,438.371,263.727,440.598z M264.192,432.377c-5.161-0.047-10.25-0.27-15.268-0.659v-5.819
		c5.087-0.598,10.173-0.919,15.268-0.969C264.207,428.059,264.207,430.543,264.192,432.377z M283.097,431.718v-5.819
		c-5.194-0.611-10.386-0.937-15.591-0.969c0.021,3.129,0.056,5.613,0.103,7.447C272.711,432.33,277.873,432.107,283.097,431.718z"/>
</g>
</svg>
